<?xml version="1.0" encoding="utf-8"?>
<!-- Generator: Adobe Illustrator 21.1.0, SVG Export Plug-In . SVG Version: 6.00 Build 0)  -->
<svg version="1.1" id="Layer_1" xmlns="http://www.w3.org/2000/svg" xmlns:xlink="http://www.w3.org/1999/xlink" x="0px" y="0px"
	 viewBox="0 0 512 512" style="enable-background:new 0 0 512 512;" xml:space="preserve" class="post-nav">
	 <style>
			path {
				fill: #ab132d;
			}
  </style>
<path d="M415.6,296.7c0-0.8,0-1.4,0-2.4c0-0.4,0-0.9,0-1.4c-0.1-2.9,0-4.1-0.1-5.6c-2.1-35.6-5.7-65.1-15-106.1
	c-1.8-8.1-3.8-16.3-7.8-30.5c-2.5-9.1-3.2-12.2-4.5-17.3c-1.9-7.5-5.1-16.7-6.8-28.8c-8.2-35.3-17.3-45.2-28.2-49.7
	c-7-2.8-14.3-5.3-22.3-7.6l-29.9-9.7c-4-1.3-6.7-5-6.7-9.2v-6.8c0-12.1-8.6-24-21-21.1c-6.9,1.6-8.4,5.4-11.7,8.5
	c-4.6,4.4-10.1,3.7-13-0.3c-2.9-4-6.9-7.9-13.3-8.4c-12.8-1-18.9,9.2-18.9,21.3v5c0,5.3-3.4,10-8.4,11.7L181,47.5
	c-8,2.3-15.3,4.8-22.3,7.6c-10.9,4.4-26.4,12.9-28.6,33.2c-0.4,3.4-0.9,6.1-1.7,11.9c-0.3,2.3-0.5,3.4-0.6,4.7
	c-1.7,12.1-3,19.6-4.9,27.1c-1.3,5-2.4,9.2-4.8,18c-4,14.5-5.7,20.8-7.5,28.9c-9.3,41-14.1,75.4-14.1,108.5c0,1.5,0,2.7-0.1,5.6
	c0,0.6,0,1,0,1.4c0,1,0,1.6,0,2.4c0,2.7,0,5.3,0.2,7.8c0.3,5.5,4.8,9.8,10.3,9.8h8.6h21.5h7.9c5.6,0,10.1-4.5,10.2-10l0-0.1
	c0.1-3.3,0.2-6.6,0.3-9.8c1.9-52.5,11.4-101.7,29-145.8c3.4,28.7,4.6,43.5,4.6,61.3c0,5.8-5.8,51.3-10.2,84.5
	c-1,7.5-1.9,14.4-2.6,20c-1,7.5-1.7,12.8-2,14.5c-2.2,15.9-2.5,28.2-2.2,57c0.1,8.3,0.1,12.2,0.1,17v92.3c0,2.9,1.5,5.7,4.1,7.2
	c2.7,1.6,8.2,3.5,17.5,5.2c14.5,2.7,35,4.3,62.4,4.3s47.9-1.6,62.4-4.3c9.3-1.7,14.8-3.6,17.5-5.2c2.5-1.5,4.1-4.2,4.1-7.2v-92.3
	c0-4.8,0-8.7,0.1-17c0.4-28.8,0.1-41.1-2.2-57c-0.2-1.7-1-7-2-14.5c-0.8-5.6-1.7-12.5-2.6-20c-4.4-33.2-10.2-78.7-10.2-84.5
	c0-17.8,1.2-32.6,4.6-61.3c17.6,44.1,27.1,93.4,29,145.8c0.1,3.3,0.2,6.6,0.3,9.9c0,0.4,0,0.8,0,1.2c0.1,5,4.2,8.9,9.1,8.9h8.9h21.5
	h9.4c5,0,9.1-3.8,9.5-8.8C415.6,302.8,415.7,299.9,415.6,296.7z M373.5,294.3c-2.3-66.1-16.4-127.5-43-180.7
	c-3.7-7.5-14.9-5.5-15.8,2.8c-0.6,5.4-1.1,9.7-2.3,19.7c-4.4,36.4-5.9,52.9-5.9,73.6c0,3,0.3,6.6,0.7,10.7
	c2.9,12.3,6.4,42.4,9.4,73.8c0.6,6.7,1.3,13.4,1.8,20c2.9,33.2,5,63.7,4.9,71.3c-0.1,8.4-0.1,12.4-0.1,17.2v86.5
	c-2.1,0.6-4.7,1.2-7.8,1.8c-13.4,2.5-32.9,4.1-59.3,4.1s-45.9-1.5-59.3-4.1c-3.1-0.6-5.7-1.2-7.8-1.8v-86.5c0-4.9,0-8.8-0.1-17.2
	c-0.1-7,2.9-37.6,6.4-71.3c0.7-6.6,1.4-13.3,2.1-20c4.2-40.2,8.4-79.3,8.4-84.5c0-20.7-1.5-37.2-5.9-73.6
	c-1.2-10.1-1.7-14.3-2.3-19.7c-0.9-8.3-12.1-10.3-15.8-2.8c-26.6,53.2-40.7,114.6-43,180.7h-25.3c0-0.3,0-0.7,0-1.1
	c0.1-3,0.1-4.3,0.1-5.9c0-31.7,4.6-64.9,13.6-104.7c1.8-7.7,3.4-13.9,7.2-27.9c2.5-9.2,3.7-13.5,5-18.6
	c9.1-49.8,14.1-61.3,25.9-65.5c6.4-2.6,13.2-4.9,20.6-7l31.9-11.5l3.2-1.1c7.2-2.5,10.1-7.6,9.9-15.3c-0.1-4.8-0.2-12.9,0.6-15.4
	c1.9-5.9,7.8-4.5,9.9-2.7c3.3,2.8,4.8,5.5,7,7.8c5.3,5.3,13.5,1.6,15-0.4c0,0,5.3-5.2,8.6-6.9c2.5-1.3,6.9-1.4,8.9,5.3
	c0.8,2.7-0.3,14.7-0.3,14.7c0,1.5,0.1,2.8,0.3,4c-8.2,3.7-22.9,8.2-39.5,4c-3.5-0.9-7,1.2-7.9,4.7c-0.9,3.5,1.2,7,4.7,7.9
	c6,1.5,11.7,2.1,17.1,2.1c16.2,0,29.2-5.6,35.7-9.1c0.1,0,0.1,0,0.2,0.1l35.6,11.9c7.4,2.1,30.8,9.4,39.4,44.1
	c3.1,12.4,5,20.1,7.1,28.3c1.3,5.2,2.5,9.4,4.9,18.3c3.9,14.2,5.5,20.4,7.3,28.1c9,39.9,13.7,73.1,13.7,104.7c0,1.6,0,2.9,0.1,5.9
	c0,0.4,0,0.8,0,1.1H373.5z"/>
</svg>
