<?xml version="1.0" encoding="iso-8859-1"?>
<!-- Generator: Adobe Illustrator 17.1.0, SVG Export Plug-In . SVG Version: 6.00 Build 0)  -->
<!DOCTYPE svg PUBLIC "-//W3C//DTD SVG 1.1//EN" "http://www.w3.org/Graphics/SVG/1.1/DTD/svg11.dtd">
<svg version="1.1" id="Capa_1" xmlns="http://www.w3.org/2000/svg" xmlns:xlink="http://www.w3.org/1999/xlink" x="0px" y="0px"
	 viewBox="0 0 396.819 396.819" style="enable-background:new 0 0 396.819 396.819;" xml:space="preserve" class="post-nav">
	 <style>
			path {
				fill: #ab132d;
			}
  </style>
<path d="M385.964,364.806c0.078-0.107,0.155-0.213,0.228-0.324c0.054-0.082,0.103-0.167,0.152-0.251
	c0.075-0.126,0.149-0.252,0.218-0.382c0.04-0.078,0.076-0.157,0.113-0.236c0.066-0.139,0.132-0.279,0.189-0.423
	c0.033-0.083,0.061-0.167,0.092-0.251c0.051-0.141,0.102-0.281,0.145-0.426c0.03-0.104,0.054-0.207,0.08-0.312
	c0.031-0.127,0.064-0.253,0.089-0.382c0.027-0.14,0.045-0.28,0.064-0.421c0.013-0.099,0.03-0.195,0.039-0.295
	c0.018-0.179,0.023-0.358,0.027-0.538c0.001-0.059,0.009-0.115,0.009-0.174c0-0.021-0.001-0.041-0.001-0.063
	c0-0.027,0-0.055-0.001-0.082c-0.015-48.715-7.617-91.926-22.6-128.433c-12.105-29.491-29.015-54.691-50.261-74.899
	c-27.916-26.552-55.727-37.358-67.868-41.1l8.142-69.781c7.091,3.053,14.247,4.602,21.38,4.602
	c18.496,0,30.175-10.509,30.663-10.956c1.55-1.421,2.433-3.427,2.433-5.529c0-18.831-15.319-34.15-34.15-34.15
	c-17.016,0-31.161,12.509-33.73,28.814c-21.27-3.913-38.45,6.442-46.736,12.904c-17.408-13.167-37.841-13.177-49.234-11.808
	C143.349,13.075,128.96,0,111.565,0C92.734,0,77.415,15.319,77.415,34.15c0,2.103,0.882,4.107,2.432,5.528
	c0.488,0.447,12.165,10.957,30.664,10.957c7.133,0,14.289-1.549,21.381-4.602l8.155,69.91c-11.488,3.849-37.24,14.747-63.026,41.166
	c-19.729,20.215-35.427,45.408-46.657,74.882C16.459,268.483,9.41,311.683,9.41,360.392c0,0.017,0.002,0.033,0.002,0.049
	c0.002,0.177,0.013,0.352,0.027,0.527c0.006,0.078,0.008,0.156,0.016,0.234c0.016,0.145,0.041,0.286,0.065,0.429
	c0.018,0.107,0.032,0.214,0.054,0.319c0.02,0.095,0.048,0.186,0.072,0.28c0.037,0.147,0.072,0.295,0.118,0.439
	c0.014,0.043,0.031,0.083,0.046,0.125c0.064,0.189,0.13,0.376,0.208,0.558c0.003,0.007,0.007,0.015,0.011,0.022
	c0.092,0.212,0.192,0.42,0.303,0.621c0.019,0.037,0.044,0.07,0.064,0.107c0.097,0.17,0.196,0.338,0.306,0.498
	c0.085,0.127,0.181,0.246,0.274,0.367c0.051,0.066,0.098,0.137,0.151,0.201c0.129,0.156,0.269,0.307,0.412,0.453
	c0.024,0.024,0.046,0.052,0.07,0.076c0.129,0.129,0.268,0.25,0.406,0.369c0.045,0.039,0.088,0.082,0.134,0.12
	c0.108,0.089,0.224,0.169,0.337,0.252c0.087,0.064,0.171,0.13,0.261,0.19c0.082,0.055,0.169,0.102,0.253,0.153
	c0.131,0.081,0.262,0.161,0.398,0.234c0.062,0.032,0.127,0.06,0.189,0.091c0.165,0.082,0.331,0.16,0.502,0.23
	c0.014,0.006,0.026,0.014,0.04,0.019c1.707,0.681,42.552,16.765,108.574,24.945c20.968,2.598,45.913,4.517,73.896,4.517
	c53.14,0,117.197-6.926,185.503-29.256c0.029-0.009,0.058-0.018,0.087-0.027c0.017-0.006,0.034-0.012,0.051-0.017
	c0.043-0.015,0.083-0.034,0.126-0.048c0.186-0.064,0.369-0.133,0.547-0.211c0.077-0.033,0.149-0.072,0.225-0.107
	c0.143-0.068,0.286-0.138,0.425-0.215c0.1-0.056,0.195-0.117,0.292-0.178c0.106-0.064,0.213-0.13,0.315-0.201
	c0.11-0.076,0.215-0.156,0.319-0.238c0.085-0.066,0.17-0.13,0.252-0.199c0.104-0.088,0.204-0.182,0.304-0.275
	c0.076-0.072,0.154-0.143,0.228-0.219c0.09-0.093,0.174-0.189,0.258-0.285c0.078-0.088,0.155-0.174,0.229-0.266
	C385.832,364.989,385.898,364.897,385.964,364.806z M275.145,15c9.338,0,17.136,6.719,18.815,15.574
	c-3.378,2.087-9.622,5.062-17.761,5.062c-6.462,0-13.1-1.844-19.784-5.489C258.261,21.503,265.958,15,275.145,15z M189.54,57.021
	c1.454,1.396,3.325,2.091,5.193,2.091c1.967,0,3.932-0.771,5.403-2.299c0.188-0.194,17.433-17.725,39.836-12.959l-8.396,71.973
	c-37.051,20.865-68.347,5.963-76.271,1.457l-8.446-72.402C156.517,43.704,175.502,43.546,189.54,57.021z M110.51,35.636
	c-8.15,0-14.399-2.982-17.762-5.058C94.427,21.72,102.227,15,111.565,15c9.187,0,16.884,6.503,18.73,15.146
	C123.61,33.792,116.972,35.636,110.51,35.636z M44.123,238.012c10.382-27.489,24.833-50.948,42.953-69.724
	c16.097-16.68,32.2-26.53,42.873-31.857c7.475-3.729,13.395-5.819,16.689-6.845c1.271,0.761,3.256,1.874,5.875,3.127
	c-4.271,5.361-13.787,17.893-18.014,28.158c-1.577,3.83,0.25,8.214,4.08,9.791c0.935,0.385,1.901,0.566,2.853,0.566
	c2.949,0,5.746-1.751,6.938-4.647c4.532-11.006,17.627-26.682,17.759-26.839c0.404-0.481,0.728-1.001,0.992-1.542
	c5.455,1.543,11.762,2.787,18.737,3.27v45.23c0,4.143,3.358,7.5,7.5,7.5c4.142,0,7.499-3.357,7.499-7.5v-45.441
	c5.861-0.578,12.031-1.771,18.432-3.779c0.291,0.803,0.717,1.57,1.297,2.263c0.132,0.157,13.228,15.833,17.759,26.839
	c1.192,2.896,3.989,4.647,6.938,4.647c0.951,0,1.918-0.183,2.853-0.566c3.83-1.577,5.656-5.961,4.08-9.791
	c-4.498-10.925-14.979-24.406-18.763-29.09c1.698-0.835,3.405-1.719,5.125-2.68c6.339,1.633,35.934,10.434,65.633,38.682
	c19.705,18.742,35.425,42.201,46.722,69.726c10.161,24.759,16.732,52.896,19.678,83.963c-170.518,53.399-313.52,10.899-344.55,0.255
	C28.759,290.776,34.791,262.722,44.123,238.012z M125.081,377.482c-51.653-6.353-88.102-17.933-100.624-22.315
	c0.066-6.088,0.244-12.084,0.54-17.982c17.561,5.756,56.681,16.954,109.356,22.44c21.208,2.209,42.344,3.312,63.37,3.312
	c59.161,0,117.447-8.752,174.035-26.122c0.327,5.935,0.524,11.975,0.6,18.105C272.958,386.38,183.241,384.633,125.081,377.482z"/>
<g>
</g>
<g>
</g>
<g>
</g>
<g>
</g>
<g>
</g>
<g>
</g>
<g>
</g>
<g>
</g>
<g>
</g>
<g>
</g>
<g>
</g>
<g>
</g>
<g>
</g>
<g>
</g>
<g>
</g>
</svg>
