<?xml version="1.0" encoding="iso-8859-1"?>
<!-- Generator: Adobe Illustrator 19.0.0, SVG Export Plug-In . SVG Version: 6.00 Build 0)  -->
<svg version="1.1" id="Layer_1" xmlns="http://www.w3.org/2000/svg" xmlns:xlink="http://www.w3.org/1999/xlink" x="0px" y="0px"
	 viewBox="0 0 512 512" style="enable-background:new 0 0 512 512;" xml:space="preserve" class="post-nav">
	 <style>
			path {
				fill: #ab132d;
			}
  </style>
<g>
	<g>
		<g>
			<path d="M307.041,212.579c4.451-12.75,8.554-19.3,14.566-28.889c3.769-6.011,8.041-12.825,13.383-22.67
				c4.675-8.617,6.869-18.388,6.343-28.259c-1.432-26.878-22.757-48.475-49.605-50.237c-8.875-0.585-17.791,1.053-25.787,4.729
				c-6.318,2.905-13.566,2.905-19.885,0c-7.99-3.673-16.899-5.309-25.769-4.73c-27.037,1.766-48.377,23.518-49.639,50.599
				c-0.465,9.971,1.841,19.811,6.669,28.457c6.281,11.25,11.426,18.416,15.964,24.739c5.892,8.208,10.171,14.172,14.487,25.861
				c-84.747,11.668-150.235,84.55-150.235,172.454v117.328c0,5.545,4.495,10.039,10.039,10.039h376.852
				c5.545,0,10.039-4.495,10.039-10.039V384.633C454.465,297.704,390.423,225.454,307.041,212.579z M194.849,151.792
				c-3.001-5.375-4.433-11.507-4.142-17.734c0.773-16.582,14.342-30.418,30.891-31.498c5.628-0.364,11.034,0.621,16.073,2.938
				c11.649,5.358,25.013,5.356,36.66,0c5.041-2.318,10.455-3.306,16.084-2.937c16.433,1.078,29.992,14.814,30.87,31.27
				c0.328,6.168-1.034,12.26-3.94,17.616c-5.041,9.289-9.135,15.819-12.747,21.58c-6.978,11.13-12.235,19.516-18.042,37.513h-6.183
				h-48.74h-3.179c-5.908-17.888-11.954-26.311-18.858-35.928C205.366,168.721,200.576,162.047,194.849,151.792z M434.389,491.922
				h-0.002h-67.854v-44.395c0-5.545-4.495-10.039-10.039-10.039s-10.039,4.495-10.039,10.039v44.395h-80.415v-16.09
				c0-5.545-4.495-10.039-10.039-10.039c-5.545,0-10.039,4.495-10.039,10.039v16.09h-80.416v-44.395
				c0-5.545-4.495-10.039-10.039-10.039c-5.545,0-10.039,4.495-10.039,10.039v44.395H77.613V384.633
				c0-67.715,43.928-125.364,104.782-145.947c-22.647,20.255-36.928,49.682-36.928,82.385c0,5.545,4.495,10.039,10.039,10.039
				c5.545,0,10.039-4.495,10.039-10.039c0-46.484,35.247-84.884,80.416-89.895v49.194c0,5.545,4.495,10.039,10.039,10.039
				c5.545,0,10.039-4.495,10.039-10.039v-49.194c45.169,5.011,80.416,43.412,80.416,89.895c0,5.545,4.495,10.039,10.039,10.039
				c5.545,0,10.039-4.495,10.039-10.039c0-32.704-14.281-62.13-36.928-82.385c60.855,20.583,104.782,78.232,104.782,145.947V491.922
				z"/>
			<path d="M256,424.339c-5.545,0-10.039,4.495-10.039,10.039v1.005c0,5.545,4.495,10.039,10.039,10.039
				c5.545,0,10.039-4.495,10.039-10.039v-1.005C266.039,428.833,261.545,424.339,256,424.339z"/>
			<path d="M165.46,82.708l65.368-34.907c16.317-8.714,35.033-8.713,51.35,0l65.368,34.908c1.506,0.804,3.124,1.186,4.72,1.186
				c3.587,0,7.057-1.928,8.865-5.313c2.612-4.891,0.765-10.973-4.126-13.584L291.637,30.09c-8.198-4.377-16.839-7.141-25.596-8.304
				V10.039C266.041,4.495,261.547,0,256.002,0c-5.545,0-10.039,4.495-10.039,10.039v11.886c-8.414,1.237-16.707,3.953-24.591,8.164
				l-65.368,34.908c-4.891,2.612-6.738,8.694-4.126,13.584C154.486,83.472,160.569,85.321,165.46,82.708z"/>
		</g>
	</g>
</g>
<g>
</g>
<g>
</g>
<g>
</g>
<g>
</g>
<g>
</g>
<g>
</g>
<g>
</g>
<g>
</g>
<g>
</g>
<g>
</g>
<g>
</g>
<g>
</g>
<g>
</g>
<g>
</g>
<g>
</g>
</svg>
