<?xml version="1.0" encoding="utf-8"?>
<!-- Generator: Adobe Illustrator 21.1.0, SVG Export Plug-In . SVG Version: 6.00 Build 0)  -->
<svg version="1.1" id="Isolation_Mode" xmlns="http://www.w3.org/2000/svg" xmlns:xlink="http://www.w3.org/1999/xlink" x="0px"
	 y="0px" viewBox="0 0 1543 30" style="enable-background:new 0 0 1543 30;" xml:space="preserve">
<style type="text/css">
	.st0{fill:#FFFFFF;}
</style>
<path class="st0" d="M1392.2,29.3c1.6,0,3-0.8,4-2.3c1.4,1,3,1.4,4.5,0.9c1.5-0.5,2.6-1.7,3-3.4c1.7,0.5,3.3,0.3,4.5-0.6
	c1.1-0.9,1.8-2.3,1.8-3.9c0-0.1,0-0.2,0-0.3c1.7,0,3.2-0.7,4.1-2.1c0.5-0.7,0.7-1.6,0.7-2.5c0-0.7-0.2-1.4-0.4-2.1
	c1.7-0.6,2.8-1.8,3.2-3.3c0.1-0.4,0.1-0.7,0.1-1.1c0,0,0,0,0-0.1c0.3,0.2,0.6,0.4,0.9,0.5c-0.2,0.4-0.3,0.9-0.3,1.3
	c0,0.6,0.2,1.1,0.5,1.6c0.6,0.9,1.5,1.3,2.6,1.3c0,0.1,0,0.1,0,0.2c0,1,0.4,1.9,1.1,2.5c0.8,0.6,1.8,0.8,2.9,0.4
	c0.3,1.1,1,1.9,1.9,2.2c0.9,0.3,2,0.1,2.9-0.5c0.6,0.9,1.5,1.4,2.5,1.4c1,0,1.9-0.5,2.5-1.4c0.9,0.7,1.9,0.9,2.9,0.5
	c1-0.3,1.6-1.1,1.9-2.2c1.1,0.3,2.1,0.2,2.9-0.4c0.7-0.6,1.1-1.4,1.1-2.5c0-0.1,0-0.1,0-0.2c1.1,0,2-0.5,2.6-1.3
	c0.3-0.5,0.5-1,0.5-1.6c0-0.4-0.1-0.9-0.3-1.3c0,0,0.1,0,0.1,0c0,0.2,0.1,0.5,0.1,0.7c0.4,1.5,1.5,2.7,3.2,3.3
	c-0.3,0.7-0.4,1.4-0.4,2.1c0,0.9,0.3,1.8,0.7,2.5c0.9,1.4,2.4,2,4.1,2.1c0,0.1,0,0.2,0,0.3c0,1.6,0.6,3,1.8,3.9
	c1.2,1,2.9,1.2,4.5,0.6c0.5,1.7,1.5,2.9,3,3.4c1.5,0.5,3.1,0.2,4.5-0.9c1,1.4,2.4,2.3,4,2.3c1.6,0,3-0.8,4-2.3c1.4,1,3,1.4,4.5,0.9
	c1.5-0.5,2.6-1.7,3-3.4c1.7,0.5,3.3,0.3,4.5-0.6c1.1-0.9,1.8-2.3,1.8-3.9c0-0.1,0-0.2,0-0.3c1.7,0,3.2-0.7,4.1-2.1
	c0.5-0.7,0.7-1.6,0.7-2.5c0-0.7-0.2-1.4-0.4-2.1c1.7-0.6,2.8-1.8,3.2-3.3c0.1-0.4,0.1-0.7,0.1-1.1c0,0,0,0,0-0.1
	c0.3,0.2,0.6,0.4,0.9,0.5c-0.2,0.4-0.3,0.9-0.3,1.3c0,0.6,0.2,1.1,0.5,1.6c0.6,0.9,1.5,1.3,2.6,1.3c0,0.1,0,0.1,0,0.2
	c0,1,0.4,1.9,1.1,2.5c0.8,0.6,1.8,0.8,2.9,0.4c0.3,1.1,1,1.9,1.9,2.2c0.9,0.3,2,0.1,2.9-0.5c0.6,0.9,1.5,1.4,2.5,1.4
	c1,0,1.9-0.5,2.5-1.4c0.9,0.7,1.9,0.9,2.9,0.5c1-0.3,1.6-1.1,1.9-2.2c1.1,0.3,2.1,0.2,2.9-0.4c0.7-0.6,1.1-1.4,1.1-2.5
	c0-0.1,0-0.1,0-0.2c1.1,0,2-0.5,2.6-1.3c0.3-0.5,0.5-1,0.5-1.6c0-0.4-0.1-0.9-0.3-1.3c1.1-0.4,1.8-1.1,2.1-2.1
	c0.1-0.2,0.1-0.5,0.1-0.7c0-1.7-1.6-3.3-4-3.9c-0.3-0.1-0.7-0.1-1-0.1h5V0.5H806.2h-74.9v0h-1.9v0H8v0H6.2v1.7H8
	C7.6,2.2,7.2,2.3,6.7,2.4C3,3.4,0.5,5.9,0.5,8.6c0,0.4,0,0.7,0.1,1.1C1,11.2,2.2,12.4,3.8,13c-0.3,0.7-0.4,1.4-0.4,2.1
	c0,0.9,0.3,1.8,0.7,2.5c0.9,1.4,2.4,2,4.1,2.1c0,0.1,0,0.2,0,0.3c0,1.6,0.6,3,1.8,3.9c1.2,1,2.9,1.2,4.5,0.6c0.5,1.7,1.5,2.9,3,3.4
	c1.5,0.5,3.1,0.2,4.5-0.9c1,1.4,2.4,2.3,4,2.3c1.6,0,3-0.8,4-2.3c1.4,1,3,1.4,4.5,0.9c1.5-0.5,2.6-1.7,3-3.4
	c1.7,0.5,3.3,0.3,4.5-0.6c1.1-0.9,1.8-2.3,1.8-3.9c0-0.1,0-0.2,0-0.3c1.7,0,3.2-0.7,4.1-2.1c0.5-0.7,0.7-1.6,0.7-2.5
	c0-0.7-0.2-1.4-0.4-2.1c1.7-0.6,2.8-1.8,3.2-3.3c0.1-0.4,0.1-0.7,0.1-1.1c0,0,0,0,0-0.1c0.3,0.2,0.6,0.4,0.9,0.5
	c-0.2,0.4-0.3,0.9-0.3,1.3c0,0.6,0.2,1.1,0.5,1.6c0.6,0.9,1.5,1.3,2.6,1.3c0,0.1,0,0.1,0,0.2c0,1,0.4,1.9,1.1,2.5
	c0.8,0.6,1.8,0.8,2.9,0.4c0.3,1.1,1,1.9,1.9,2.2c0.9,0.3,2,0.1,2.9-0.5c0.6,0.9,1.5,1.4,2.5,1.4c1,0,1.9-0.5,2.5-1.4
	c0.9,0.7,1.9,0.9,2.9,0.5c1-0.3,1.6-1.1,1.9-2.2c1.1,0.3,2.1,0.2,2.9-0.4c0.7-0.6,1.1-1.4,1.1-2.5c0-0.1,0-0.1,0-0.2
	c1.1,0,2-0.5,2.6-1.3c0.3-0.5,0.5-1,0.5-1.6c0-0.4-0.1-0.9-0.3-1.3c0,0,0.1,0,0.1,0c0,0.2,0.1,0.5,0.1,0.7c0.4,1.5,1.5,2.7,3.2,3.3
	c-0.3,0.7-0.4,1.4-0.4,2.1c0,0.9,0.3,1.8,0.7,2.5c0.9,1.4,2.4,2,4.1,2.1c0,0.1,0,0.2,0,0.3c0,1.6,0.6,3,1.8,3.9
	c1.2,1,2.9,1.2,4.5,0.6c0.5,1.7,1.5,2.9,3,3.4c1.5,0.5,3.1,0.2,4.5-0.9c1,1.4,2.4,2.3,4,2.3c1.6,0,3-0.8,4-2.3c1.4,1,3,1.4,4.5,0.9
	c1.5-0.5,2.6-1.7,3-3.4c1.7,0.5,3.3,0.3,4.5-0.6c1.1-0.9,1.8-2.3,1.8-3.9c0-0.1,0-0.2,0-0.3c1.7,0,3.2-0.7,4.1-2.1
	c0.5-0.7,0.7-1.6,0.7-2.5c0-0.7-0.2-1.4-0.4-2.1c1.7-0.6,2.8-1.8,3.2-3.3c0.1-0.4,0.1-0.7,0.1-1.1c0,0,0,0,0-0.1
	c0.3,0.2,0.6,0.4,0.9,0.5c-0.2,0.4-0.3,0.9-0.3,1.3c0,0.6,0.2,1.1,0.5,1.6c0.6,0.9,1.5,1.3,2.6,1.3c0,0.1,0,0.1,0,0.2
	c0,1,0.4,1.9,1.1,2.5c0.8,0.6,1.8,0.8,2.9,0.4c0.3,1.1,1,1.9,1.9,2.2c0.9,0.3,2,0.1,2.9-0.5c0.6,0.9,1.5,1.4,2.5,1.4
	c1,0,1.9-0.5,2.5-1.4c0.9,0.7,1.9,0.9,2.9,0.5c1-0.3,1.6-1.1,1.9-2.2c1.1,0.3,2.1,0.2,2.9-0.4c0.7-0.6,1.1-1.4,1.1-2.5
	c0-0.1,0-0.1,0-0.2c1.1,0,2-0.5,2.6-1.3c0.3-0.5,0.5-1,0.5-1.6c0-0.4-0.1-0.9-0.3-1.3c0,0,0.1,0,0.1,0c0,0.2,0.1,0.5,0.1,0.7
	c0.4,1.5,1.5,2.7,3.2,3.3c-0.3,0.7-0.4,1.4-0.4,2.1c0,0.9,0.3,1.8,0.7,2.5c0.9,1.4,2.4,2,4.1,2.1c0,0.1,0,0.2,0,0.3
	c0,1.6,0.6,3,1.8,3.9c1.2,1,2.9,1.2,4.5,0.6c0.5,1.7,1.5,2.9,3,3.4c1.5,0.5,3.1,0.2,4.5-0.9c1,1.4,2.4,2.3,4,2.3c1.6,0,3-0.8,4-2.3
	c1.4,1,3,1.4,4.5,0.9c1.5-0.5,2.6-1.7,3-3.4c1.7,0.5,3.3,0.3,4.5-0.6c1.1-0.9,1.8-2.3,1.8-3.9c0-0.1,0-0.2,0-0.3
	c1.7,0,3.2-0.7,4.1-2.1c0.5-0.7,0.7-1.6,0.7-2.5c0-0.7-0.2-1.4-0.4-2.1c1.7-0.6,2.8-1.8,3.2-3.3c0.1-0.4,0.1-0.7,0.1-1.1
	c0,0,0,0,0-0.1c0.3,0.2,0.6,0.4,0.9,0.5c-0.2,0.4-0.3,0.9-0.3,1.3c0,0.6,0.2,1.1,0.5,1.6c0.6,0.9,1.5,1.3,2.6,1.3c0,0.1,0,0.1,0,0.2
	c0,1,0.4,1.9,1.1,2.5c0.8,0.6,1.8,0.8,2.9,0.4c0.3,1.1,1,1.9,1.9,2.2c0.9,0.3,2,0.1,2.9-0.5c0.6,0.9,1.5,1.4,2.5,1.4
	c1,0,1.9-0.5,2.5-1.4c0.9,0.7,1.9,0.9,2.9,0.5c1-0.3,1.6-1.1,1.9-2.2c1.1,0.3,2.1,0.2,2.9-0.4c0.7-0.6,1.1-1.4,1.1-2.5
	c0-0.1,0-0.1,0-0.2c1.1,0,2-0.5,2.6-1.3c0.3-0.5,0.5-1,0.5-1.6c0-0.4-0.1-0.9-0.3-1.3c0,0,0.1,0,0.1,0c0,0.2,0.1,0.5,0.1,0.7
	c0.4,1.5,1.5,2.7,3.2,3.3c-0.3,0.7-0.4,1.4-0.4,2.1c0,0.9,0.3,1.8,0.7,2.5c0.9,1.4,2.4,2,4.1,2.1c0,0.1,0,0.2,0,0.3
	c0,1.6,0.6,3,1.8,3.9c1.2,1,2.9,1.2,4.5,0.6c0.5,1.7,1.5,2.9,3,3.4c1.5,0.5,3.1,0.2,4.5-0.9c1,1.4,2.4,2.3,4,2.3c1.6,0,3-0.8,4-2.3
	c1.4,1,3,1.4,4.5,0.9c1.5-0.5,2.6-1.7,3-3.4c1.7,0.5,3.3,0.3,4.5-0.6c1.1-0.9,1.8-2.3,1.8-3.9c0-0.1,0-0.2,0-0.3
	c1.7,0,3.2-0.7,4.1-2.1c0.5-0.7,0.7-1.6,0.7-2.5c0-0.7-0.2-1.4-0.4-2.1c1.7-0.6,2.8-1.8,3.2-3.3c0.1-0.4,0.1-0.7,0.1-1.1
	c0,0,0,0,0-0.1c0.3,0.2,0.6,0.4,0.9,0.5c-0.2,0.4-0.3,0.9-0.3,1.3c0,0.6,0.2,1.1,0.5,1.6c0.6,0.9,1.5,1.3,2.6,1.3c0,0.1,0,0.1,0,0.2
	c0,1,0.4,1.9,1.1,2.5c0.8,0.6,1.8,0.8,2.9,0.4c0.3,1.1,1,1.9,1.9,2.2c0.9,0.3,2,0.1,2.9-0.5c0.6,0.9,1.5,1.4,2.5,1.4
	c1,0,1.9-0.5,2.5-1.4c0.9,0.7,1.9,0.9,2.9,0.5c1-0.3,1.6-1.1,1.9-2.2c1.1,0.3,2.1,0.2,2.9-0.4c0.7-0.6,1.1-1.4,1.1-2.5
	c0-0.1,0-0.1,0-0.2c1.1,0,2-0.5,2.6-1.3c0.3-0.5,0.5-1,0.5-1.6c0-0.4-0.1-0.9-0.3-1.3c0,0,0.1,0,0.1,0c0,0.2,0.1,0.5,0.1,0.7
	c0.4,1.5,1.5,2.7,3.2,3.3c-0.3,0.7-0.4,1.4-0.4,2.1c0,0.9,0.3,1.8,0.7,2.5c0.9,1.4,2.4,2,4.1,2.1c0,0.1,0,0.2,0,0.3
	c0,1.6,0.6,3,1.8,3.9c1.2,1,2.9,1.2,4.5,0.6c0.5,1.7,1.5,2.9,3,3.4c1.5,0.5,3.1,0.2,4.5-0.9c1,1.4,2.4,2.3,4,2.3c1.6,0,3-0.8,4-2.3
	c1.4,1,3,1.4,4.5,0.9c1.5-0.5,2.6-1.7,3-3.4c1.7,0.5,3.3,0.3,4.5-0.6c1.1-0.9,1.8-2.3,1.8-3.9c0-0.1,0-0.2,0-0.3
	c1.7,0,3.2-0.7,4.1-2.1c0.5-0.7,0.7-1.6,0.7-2.5c0-0.7-0.2-1.4-0.4-2.1c1.7-0.6,2.8-1.8,3.2-3.3c0.1-0.4,0.1-0.7,0.1-1.1
	c0,0,0,0,0-0.1c0.3,0.2,0.6,0.4,0.9,0.5c-0.2,0.4-0.3,0.9-0.3,1.3c0,0.6,0.2,1.1,0.5,1.6c0.6,0.9,1.5,1.3,2.6,1.3c0,0.1,0,0.1,0,0.2
	c0,1,0.4,1.9,1.1,2.5c0.8,0.6,1.8,0.8,2.9,0.4c0.3,1.1,1,1.9,1.9,2.2c0.9,0.3,2,0.1,2.9-0.5c0.6,0.9,1.5,1.4,2.5,1.4
	s1.9-0.5,2.5-1.4c0.9,0.7,1.9,0.9,2.9,0.5c1-0.3,1.6-1.1,1.9-2.2c1.1,0.3,2.1,0.2,2.9-0.4c0.7-0.6,1.1-1.4,1.1-2.5
	c0-0.1,0-0.1,0-0.2c1.1,0,2-0.5,2.6-1.3c0.3-0.5,0.5-1,0.5-1.6c0-0.4-0.1-0.9-0.3-1.3c0,0,0.1,0,0.1,0c0,0.2,0.1,0.5,0.1,0.7
	c0.4,1.5,1.5,2.7,3.2,3.3c-0.3,0.7-0.4,1.4-0.4,2.1c0,0.9,0.3,1.8,0.7,2.5c0.9,1.4,2.4,2,4.1,2.1c0,0.1,0,0.2,0,0.3
	c0,1.6,0.6,3,1.8,3.9c1.2,1,2.9,1.2,4.5,0.6c0.5,1.7,1.5,2.9,3,3.4c1.5,0.5,3.1,0.2,4.5-0.9c1,1.4,2.4,2.3,4,2.3s3-0.8,4-2.3
	c1.4,1,3,1.4,4.5,0.9c1.5-0.5,2.6-1.7,3-3.4c1.7,0.5,3.3,0.3,4.5-0.6c1.1-0.9,1.8-2.3,1.8-3.9c0-0.1,0-0.2,0-0.3
	c1.7,0,3.2-0.7,4.1-2.1c0.5-0.7,0.7-1.6,0.7-2.5c0-0.7-0.2-1.4-0.4-2.1c1.7-0.6,2.8-1.8,3.2-3.3c0.1-0.4,0.1-0.7,0.1-1.1
	c0,0,0,0,0-0.1c0.3,0.2,0.6,0.4,0.9,0.5c-0.2,0.4-0.3,0.9-0.3,1.3c0,0.6,0.2,1.1,0.5,1.6c0.6,0.9,1.5,1.3,2.6,1.3c0,0.1,0,0.1,0,0.2
	c0,1,0.4,1.9,1.1,2.5c0.8,0.6,1.8,0.8,2.9,0.4c0.3,1.1,1,1.9,1.9,2.2c0.9,0.3,2,0.1,2.9-0.5c0.6,0.9,1.5,1.4,2.5,1.4
	c1,0,1.9-0.5,2.5-1.4c0.9,0.7,1.9,0.9,2.9,0.5c1-0.3,1.6-1.1,1.9-2.2c1.1,0.3,2.1,0.2,2.9-0.4c0.7-0.6,1.1-1.4,1.1-2.5
	c0-0.1,0-0.1,0-0.2c1.1,0,2-0.5,2.6-1.3c0.3-0.5,0.5-1,0.5-1.6c0-0.4-0.1-0.9-0.3-1.3c0,0,0.1,0,0.1,0c0,0.2,0.1,0.5,0.1,0.7
	c0.4,1.5,1.5,2.7,3.2,3.3c-0.3,0.7-0.4,1.4-0.4,2.1c0,0.9,0.3,1.8,0.7,2.5c0.9,1.4,2.4,2,4.1,2.1c0,0.1,0,0.2,0,0.3
	c0,1.6,0.6,3,1.8,3.9c1.2,1,2.9,1.2,4.5,0.6c0.5,1.7,1.5,2.9,3,3.4c1.5,0.5,3.1,0.2,4.5-0.9c1,1.4,2.4,2.3,4,2.3c1.6,0,3-0.8,4-2.3
	c1.4,1,3,1.4,4.5,0.9c1.5-0.5,2.6-1.7,3-3.4c1.7,0.5,3.3,0.3,4.5-0.6c1.1-0.9,1.8-2.3,1.8-3.9c0-0.1,0-0.2,0-0.3
	c1.7,0,3.2-0.7,4.1-2.1c0.5-0.7,0.7-1.6,0.7-2.5c0-0.7-0.2-1.4-0.4-2.1c1.7-0.6,2.8-1.8,3.2-3.3c0.1-0.4,0.1-0.7,0.1-1.1
	c0,0,0,0,0-0.1c0.3,0.2,0.6,0.4,0.9,0.5c-0.2,0.4-0.3,0.9-0.3,1.3c0,0.6,0.2,1.1,0.5,1.6c0.6,0.9,1.5,1.3,2.6,1.3c0,0.1,0,0.1,0,0.2
	c0,1,0.4,1.9,1.1,2.5c0.8,0.6,1.8,0.8,2.9,0.4c0.3,1.1,1,1.9,1.9,2.2c0.9,0.3,2,0.1,2.9-0.5c0.6,0.9,1.5,1.4,2.5,1.4
	c1,0,1.9-0.5,2.5-1.4c0.9,0.7,1.9,0.9,2.9,0.5c1-0.3,1.6-1.1,1.9-2.2c1.1,0.3,2.1,0.2,2.9-0.4c0.7-0.6,1.1-1.4,1.1-2.5
	c0-0.1,0-0.1,0-0.2c1.1,0,2-0.5,2.6-1.3c0.3-0.5,0.5-1,0.5-1.6c0-0.4-0.1-0.9-0.3-1.3c0,0,0.1,0,0.1,0c0,0.2,0.1,0.5,0.1,0.7
	c0.4,1.5,1.5,2.7,3.2,3.3c-0.3,0.7-0.4,1.4-0.4,2.1c0,0.9,0.3,1.8,0.7,2.5c0.9,1.4,2.4,2,4.1,2.1c0,0.1,0,0.2,0,0.3
	c0,1.6,0.6,3,1.8,3.9c1.2,1,2.9,1.2,4.5,0.6c0.5,1.7,1.5,2.9,3,3.4c1.5,0.5,3.1,0.2,4.5-0.9c1,1.4,2.4,2.3,4,2.3c1.6,0,3-0.8,4-2.3
	c1.4,1,3,1.4,4.5,0.9c1.5-0.5,2.6-1.7,3-3.4c1.7,0.5,3.3,0.3,4.5-0.6c1.1-0.9,1.8-2.3,1.8-3.9c0-0.1,0-0.2,0-0.3
	c1.7,0,3.2-0.7,4.1-2.1c0.5-0.7,0.7-1.6,0.7-2.5c0-0.7-0.2-1.4-0.4-2.1c1.7-0.6,2.8-1.8,3.2-3.3c0.1-0.4,0.1-0.7,0.1-1.1
	c0,0,0,0,0-0.1c0.3,0.2,0.6,0.4,0.9,0.5c-0.2,0.4-0.3,0.9-0.3,1.3c0,0.6,0.2,1.1,0.5,1.6c0.6,0.9,1.5,1.3,2.6,1.3c0,0.1,0,0.1,0,0.2
	c0,1,0.4,1.9,1.1,2.5c0.8,0.6,1.8,0.8,2.9,0.4c0.3,1.1,1,1.9,1.9,2.2c0.9,0.3,2,0.1,2.9-0.5c0.6,0.9,1.5,1.4,2.5,1.4
	c1,0,1.9-0.5,2.5-1.4c0.9,0.7,1.9,0.9,2.9,0.5c1-0.3,1.6-1.1,1.9-2.2c1.1,0.3,2.1,0.2,2.9-0.4c0.7-0.6,1.1-1.4,1.1-2.5
	c0-0.1,0-0.1,0-0.2c1.1,0,2-0.5,2.6-1.3c0.3-0.5,0.5-1,0.5-1.6c0-0.4-0.1-0.9-0.3-1.3c0,0,0.1,0,0.1,0c0,0.2,0.1,0.5,0.1,0.7
	c0.4,1.5,1.5,2.7,3.2,3.3c-0.3,0.7-0.4,1.4-0.4,2.1c0,0.9,0.3,1.8,0.7,2.5c0.9,1.4,2.4,2,4.1,2.1c0,0.1,0,0.2,0,0.3
	c0,1.6,0.6,3,1.8,3.9c1.2,1,2.9,1.2,4.5,0.6c0.5,1.7,1.5,2.9,3,3.4c1.5,0.5,3.1,0.2,4.5-0.9c1,1.4,2.4,2.3,4,2.3c1.6,0,3-0.8,4-2.3
	c1.4,1,3,1.4,4.5,0.9c1.5-0.5,2.6-1.7,3-3.4c1.7,0.5,3.3,0.3,4.5-0.6c1.1-0.9,1.8-2.3,1.8-3.9c0-0.1,0-0.2,0-0.3
	c1.7,0,3.2-0.7,4.1-2.1c0.5-0.7,0.7-1.6,0.7-2.5c0-0.7-0.2-1.4-0.4-2.1c1.7-0.6,2.8-1.8,3.2-3.3c0.1-0.4,0.1-0.7,0.1-1.1
	c0,0,0,0,0-0.1c0.3,0.2,0.6,0.4,0.9,0.5c-0.2,0.4-0.3,0.9-0.3,1.3c0,0.6,0.2,1.1,0.5,1.6c0.6,0.9,1.5,1.3,2.6,1.3c0,0.1,0,0.1,0,0.2
	c0,1,0.4,1.9,1.1,2.5c0.8,0.6,1.8,0.8,2.9,0.4c0.3,1.1,1,1.9,1.9,2.2c0.9,0.3,2,0.1,2.9-0.5c0.6,0.9,1.5,1.4,2.5,1.4
	c1,0,1.9-0.5,2.5-1.4c0.9,0.7,1.9,0.9,2.9,0.5c1-0.3,1.6-1.1,1.9-2.2c1.1,0.3,2.1,0.2,2.9-0.4c0.7-0.6,1.1-1.4,1.1-2.5
	c0-0.1,0-0.1,0-0.2c1.1,0,2-0.5,2.6-1.3c0.3-0.5,0.5-1,0.5-1.6c0-0.4-0.1-0.9-0.3-1.3c0,0,0.1,0,0.1,0c0,0.1,0,0.1,0,0.2
	c0,0,0,0,0,0c0,0.2,0,0.4,0.1,0.5c0.4,1.5,1.5,2.7,3.2,3.3c-0.3,0.7-0.4,1.4-0.4,2.1c0,0.9,0.3,1.8,0.7,2.5c0.9,1.4,2.4,2,4.1,2.1
	c0,0.1,0,0.2,0,0.3c0,1.6,0.6,3,1.8,3.9c0.8,0.6,1.7,0.9,2.7,0.9c0.6,0,1.2-0.1,1.8-0.3c0.5,1.7,1.5,2.9,3,3.4
	c0.6,0.2,1.1,0.3,1.7,0.2c1-0.1,1.9-0.4,2.8-1.1c1,1.4,2.4,2.3,4,2.3c0,0,0,0,0,0s0,0,0,0c1.6,0,3-0.8,4-2.3c0.9,0.7,1.8,1,2.8,1.1
	c0.6,0,1.1,0,1.7-0.2c1.5-0.5,2.6-1.7,3-3.4c0.6,0.2,1.2,0.3,1.8,0.3c1,0,1.9-0.3,2.7-0.9c1.1-0.9,1.8-2.3,1.8-3.9
	c0-0.1,0-0.2,0-0.3c1.7,0,3.2-0.7,4.1-2.1c0.5-0.7,0.7-1.6,0.7-2.5c0-0.7-0.2-1.4-0.4-2.1c1.7-0.6,2.8-1.8,3.2-3.3
	c0.1-0.4,0.1-0.7,0.1-1.1c0,0,0,0,0-0.1c0.3,0.2,0.6,0.4,0.9,0.5c-0.2,0.4-0.3,0.9-0.3,1.3c0,0.6,0.2,1.1,0.5,1.6
	c0.6,0.9,1.5,1.3,2.6,1.3c0,0.1,0,0.1,0,0.2c0,1,0.4,1.9,1.1,2.5c0.6,0.5,1.3,0.7,2.1,0.6c0.3,0,0.5-0.1,0.8-0.2
	c0.3,1.1,1,1.9,1.9,2.2c0.2,0.1,0.5,0.1,0.7,0.1c0.7,0,1.5-0.2,2.1-0.7c0.6,0.9,1.5,1.4,2.5,1.4c0,0,0,0,0,0s0,0,0,0
	c1,0,1.9-0.5,2.5-1.4c0.7,0.5,1.4,0.7,2.1,0.7c0.2,0,0.5-0.1,0.7-0.1c1-0.3,1.6-1.1,1.9-2.2c0.3,0.1,0.5,0.1,0.8,0.2
	c0.8,0.1,1.5-0.1,2.1-0.6c0.7-0.6,1.1-1.4,1.1-2.5c0-0.1,0-0.1,0-0.2c1.1,0,2-0.5,2.6-1.3c0.3-0.5,0.5-1,0.5-1.6
	c0-0.4-0.1-0.9-0.3-1.3c0,0,0.1,0,0.1,0c0,0.2,0.1,0.5,0.1,0.7c0.4,1.5,1.5,2.7,3.2,3.3c-0.3,0.7-0.4,1.4-0.4,2.1
	c0,0.9,0.3,1.8,0.7,2.5c0.9,1.4,2.4,2,4.1,2.1c0,0.1,0,0.2,0,0.3c0,1.6,0.6,3,1.8,3.9c1.2,1,2.9,1.2,4.5,0.6c0.5,1.7,1.5,2.9,3,3.4
	c1.5,0.5,3.1,0.2,4.5-0.9c1,1.4,2.4,2.3,4,2.3c1.6,0,3-0.8,4-2.3c1.4,1,3,1.4,4.5,0.9c1.5-0.5,2.6-1.7,3-3.4
	c1.7,0.5,3.3,0.3,4.5-0.6c1.1-0.9,1.8-2.3,1.8-3.9c0-0.1,0-0.2,0-0.3c1.7,0,3.2-0.7,4.1-2.1c0.5-0.7,0.7-1.6,0.7-2.5
	c0-0.7-0.2-1.4-0.4-2.1c1.7-0.6,2.8-1.8,3.2-3.3c0.1-0.4,0.1-0.7,0.1-1.1c0,0,0,0,0-0.1c0.3,0.2,0.6,0.4,0.9,0.5
	c-0.2,0.4-0.3,0.9-0.3,1.3c0,0.6,0.2,1.1,0.5,1.6c0.6,0.9,1.5,1.3,2.6,1.3c0,0.1,0,0.1,0,0.2c0,1,0.4,1.9,1.1,2.5
	c0.8,0.6,1.8,0.8,2.9,0.4c0.3,1.1,1,1.9,1.9,2.2c0.9,0.3,2,0.1,2.9-0.5c0.6,0.9,1.5,1.4,2.5,1.4c1,0,1.9-0.5,2.5-1.4
	c0.9,0.7,1.9,0.9,2.9,0.5c1-0.3,1.6-1.1,1.9-2.2c1.1,0.3,2.1,0.2,2.9-0.4c0.7-0.6,1.1-1.4,1.1-2.5c0-0.1,0-0.1,0-0.2
	c1.1,0,2-0.5,2.6-1.3c0.3-0.5,0.5-1,0.5-1.6c0-0.4-0.1-0.9-0.3-1.3c0,0,0.1,0,0.1,0c0,0.2,0.1,0.5,0.1,0.7c0.4,1.5,1.5,2.7,3.2,3.3
	c-0.3,0.7-0.4,1.4-0.4,2.1c0,0.9,0.3,1.8,0.7,2.5c0.9,1.4,2.4,2,4.1,2.1c0,0.1,0,0.2,0,0.3c0,1.6,0.6,3,1.8,3.9
	c1.2,1,2.9,1.2,4.5,0.6c0.5,1.7,1.5,2.9,3,3.4c1.5,0.5,3.1,0.2,4.5-0.9c1,1.4,2.4,2.3,4,2.3c1.6,0,3-0.8,4-2.3c1.4,1,3,1.4,4.5,0.9
	c1.5-0.5,2.6-1.7,3-3.4c1.7,0.5,3.3,0.3,4.5-0.6c1.1-0.9,1.8-2.3,1.8-3.9c0-0.1,0-0.2,0-0.3c1.7,0,3.2-0.7,4.1-2.1
	c0.5-0.7,0.7-1.6,0.7-2.5c0-0.7-0.2-1.4-0.4-2.1c1.7-0.6,2.8-1.8,3.2-3.3c0.1-0.4,0.1-0.7,0.1-1.1c0,0,0,0,0-0.1
	c0.3,0.2,0.6,0.4,0.9,0.5c-0.2,0.4-0.3,0.9-0.3,1.3c0,0.6,0.2,1.1,0.5,1.6c0.6,0.9,1.5,1.3,2.6,1.3c0,0.1,0,0.1,0,0.2
	c0,1,0.4,1.9,1.1,2.5c0.8,0.6,1.8,0.8,2.9,0.4c0.3,1.1,1,1.9,1.9,2.2c0.9,0.3,2,0.1,2.9-0.5c0.6,0.9,1.5,1.4,2.5,1.4
	c1,0,1.9-0.5,2.5-1.4c0.9,0.7,1.9,0.9,2.9,0.5c1-0.3,1.6-1.1,1.9-2.2c1.1,0.3,2.1,0.2,2.9-0.4c0.7-0.6,1.1-1.4,1.1-2.5
	c0-0.1,0-0.1,0-0.2c1.1,0,2-0.5,2.6-1.3c0.3-0.5,0.5-1,0.5-1.6c0-0.4-0.1-0.9-0.3-1.3c0,0,0.1,0,0.1,0c0,0.2,0.1,0.5,0.1,0.7
	c0.4,1.5,1.5,2.7,3.2,3.3c-0.3,0.7-0.4,1.4-0.4,2.1c0,0.9,0.3,1.8,0.7,2.5c0.9,1.4,2.4,2,4.1,2.1c0,0.1,0,0.2,0,0.3
	c0,1.6,0.6,3,1.8,3.9c1.2,1,2.9,1.2,4.5,0.6c0.5,1.7,1.5,2.9,3,3.4c1.5,0.5,3.1,0.2,4.5-0.9c1,1.4,2.4,2.3,4,2.3c1.6,0,3-0.8,4-2.3
	c1.4,1,3,1.4,4.5,0.9c1.5-0.5,2.6-1.7,3-3.4c1.7,0.5,3.3,0.3,4.5-0.6c1.1-0.9,1.8-2.3,1.8-3.9c0-0.1,0-0.2,0-0.3
	c1.7,0,3.2-0.7,4.1-2.1c0.5-0.7,0.7-1.6,0.7-2.5c0-0.7-0.2-1.4-0.4-2.1c1.7-0.6,2.8-1.8,3.2-3.3c0.1-0.4,0.1-0.7,0.1-1.1
	c0,0,0,0,0-0.1c0.3,0.2,0.6,0.4,0.9,0.5c-0.2,0.4-0.3,0.9-0.3,1.3c0,0.6,0.2,1.1,0.5,1.6c0.6,0.9,1.5,1.3,2.6,1.3c0,0.1,0,0.1,0,0.2
	c0,1,0.4,1.9,1.1,2.5c0.8,0.6,1.8,0.8,2.9,0.4c0.3,1.1,1,1.9,1.9,2.2c0.9,0.3,2,0.1,2.9-0.5c0.6,0.9,1.5,1.4,2.5,1.4
	c1,0,1.9-0.5,2.5-1.4c0.9,0.7,1.9,0.9,2.9,0.5c1-0.3,1.6-1.1,1.9-2.2c1.1,0.3,2.1,0.2,2.9-0.4c0.7-0.6,1.1-1.4,1.1-2.5
	c0-0.1,0-0.1,0-0.2c1.1,0,2-0.5,2.6-1.3c0.3-0.5,0.5-1,0.5-1.6c0-0.4-0.1-0.9-0.3-1.3c0,0,0.1,0,0.1,0c0,0.2,0.1,0.5,0.1,0.7
	c0.4,1.5,1.5,2.7,3.2,3.3c-0.3,0.7-0.4,1.4-0.4,2.1c0,0.9,0.3,1.8,0.7,2.5c0.9,1.4,2.4,2,4.1,2.1c0,0.1,0,0.2,0,0.3
	c0,1.6,0.6,3,1.8,3.9c1.2,1,2.9,1.2,4.5,0.6c0.5,1.7,1.5,2.9,3,3.4c1.5,0.5,3.1,0.2,4.5-0.9c1,1.4,2.4,2.3,4,2.3c1.6,0,3-0.8,4-2.3
	c1.4,1,3,1.4,4.5,0.9c1.5-0.5,2.6-1.7,3-3.4c1.7,0.5,3.3,0.3,4.5-0.6c1.1-0.9,1.8-2.3,1.8-3.9c0-0.1,0-0.2,0-0.3
	c1.7,0,3.2-0.7,4.1-2.1c0.5-0.7,0.7-1.6,0.7-2.5c0-0.7-0.2-1.4-0.4-2.1c1.7-0.6,2.8-1.8,3.2-3.3c0.1-0.4,0.1-0.7,0.1-1.1
	c0,0,0,0,0-0.1c0.3,0.2,0.6,0.4,0.9,0.5c-0.2,0.4-0.3,0.9-0.3,1.3c0,0.6,0.2,1.1,0.5,1.6c0.6,0.9,1.5,1.3,2.6,1.3c0,0.1,0,0.1,0,0.2
	c0,1,0.4,1.9,1.1,2.5c0.8,0.6,1.8,0.8,2.9,0.4c0.3,1.1,1,1.9,1.9,2.2c0.9,0.3,2,0.1,2.9-0.5c0.6,0.9,1.5,1.4,2.5,1.4
	s1.9-0.5,2.5-1.4c0.9,0.7,1.9,0.9,2.9,0.5c1-0.3,1.6-1.1,1.9-2.2c1.1,0.3,2.1,0.2,2.9-0.4c0.7-0.6,1.1-1.4,1.1-2.5
	c0-0.1,0-0.1,0-0.2c1.1,0,2-0.5,2.6-1.3c0.3-0.5,0.5-1,0.5-1.6c0-0.4-0.1-0.9-0.3-1.3c0,0,0.1,0,0.1,0c0,0.2,0.1,0.5,0.1,0.7
	c0.4,1.5,1.5,2.7,3.2,3.3c-0.3,0.7-0.4,1.4-0.4,2.1c0,0.9,0.3,1.8,0.7,2.5c0.9,1.4,2.4,2,4.1,2.1c0,0.1,0,0.2,0,0.3
	c0,1.6,0.6,3,1.8,3.9c1.2,1,2.9,1.2,4.5,0.6c0.5,1.7,1.5,2.9,3,3.4c1.5,0.5,3.1,0.2,4.5-0.9c1,1.4,2.4,2.3,4,2.3s3-0.8,4-2.3
	c1.4,1,3,1.4,4.5,0.9c1.5-0.5,2.6-1.7,3-3.4c1.7,0.5,3.3,0.3,4.5-0.6c1.1-0.9,1.8-2.3,1.8-3.9c0-0.1,0-0.2,0-0.3
	c1.7,0,3.2-0.7,4.1-2.1c0.5-0.7,0.7-1.6,0.7-2.5c0-0.7-0.2-1.4-0.4-2.1c1.7-0.6,2.8-1.8,3.2-3.3c0.1-0.4,0.1-0.7,0.1-1.1
	c0,0,0,0,0-0.1c0.3,0.2,0.6,0.4,0.9,0.5c-0.2,0.4-0.3,0.9-0.3,1.3c0,0.6,0.2,1.1,0.5,1.6c0.6,0.9,1.5,1.3,2.6,1.3c0,0.1,0,0.1,0,0.2
	c0,1,0.4,1.9,1.1,2.5c0.8,0.6,1.8,0.8,2.9,0.4c0.3,1.1,1,1.9,1.9,2.2c0.9,0.3,2,0.1,2.9-0.5c0.6,0.9,1.5,1.4,2.5,1.4
	c1,0,1.9-0.5,2.5-1.4c0.9,0.7,1.9,0.9,2.9,0.5c1-0.3,1.6-1.1,1.9-2.2c1.1,0.3,2.1,0.2,2.9-0.4c0.7-0.6,1.1-1.4,1.1-2.5
	c0-0.1,0-0.1,0-0.2c1.1,0,2-0.5,2.6-1.3c0.3-0.5,0.5-1,0.5-1.6c0-0.4-0.1-0.9-0.3-1.3c0,0,0.1,0,0.1,0c0,0.2,0.1,0.5,0.1,0.7
	c0.4,1.5,1.5,2.7,3.2,3.3c-0.3,0.7-0.4,1.4-0.4,2.1c0,0.9,0.3,1.8,0.7,2.5c0.9,1.4,2.4,2,4.1,2.1c0,0.1,0,0.2,0,0.3
	c0,1.6,0.6,3,1.8,3.9c1.2,1,2.9,1.2,4.5,0.6c0.5,1.7,1.5,2.9,3,3.4c1.5,0.5,3.1,0.2,4.5-0.9c1,1.4,2.4,2.3,4,2.3s3-0.8,4-2.3
	c1.4,1,3,1.4,4.5,0.9c1.5-0.5,2.6-1.7,3-3.4c1.7,0.5,3.3,0.3,4.5-0.6c1.1-0.9,1.8-2.3,1.8-3.9c0-0.1,0-0.2,0-0.3
	c1.7,0,3.2-0.7,4.1-2.1c0.5-0.7,0.7-1.6,0.7-2.5c0-0.7-0.2-1.4-0.4-2.1c1.7-0.6,2.8-1.8,3.2-3.3c0.1-0.4,0.1-0.7,0.1-1.1
	c0,0,0,0,0-0.1c0.3,0.2,0.6,0.4,0.9,0.5c-0.2,0.4-0.3,0.9-0.3,1.3c0,0.6,0.2,1.1,0.5,1.6c0.6,0.9,1.5,1.3,2.6,1.3c0,0.1,0,0.1,0,0.2
	c0,1,0.4,1.9,1.1,2.5c0.8,0.6,1.8,0.8,2.9,0.4c0.3,1.1,1,1.9,1.9,2.2c0.9,0.3,2,0.1,2.9-0.5c0.6,0.9,1.5,1.4,2.5,1.4
	c1,0,1.9-0.5,2.5-1.4c0.9,0.7,1.9,0.9,2.9,0.5c1-0.3,1.6-1.1,1.9-2.2c1.1,0.3,2.1,0.2,2.9-0.4c0.7-0.6,1.1-1.4,1.1-2.5
	c0-0.1,0-0.1,0-0.2c1.1,0,2-0.5,2.6-1.3c0.3-0.5,0.5-1,0.5-1.6c0-0.4-0.1-0.9-0.3-1.3c0,0,0.1,0,0.1,0c0,0.2,0.1,0.5,0.1,0.7
	c0.4,1.5,1.5,2.7,3.2,3.3c-0.3,0.7-0.4,1.4-0.4,2.1c0,0.9,0.3,1.8,0.7,2.5c0.9,1.4,2.4,2,4.1,2.1c0,0.1,0,0.2,0,0.3
	c0,1.6,0.6,3,1.8,3.9c1.2,1,2.9,1.2,4.5,0.6c0.5,1.7,1.5,2.9,3,3.4c1.5,0.5,3.1,0.2,4.5-0.9c1,1.4,2.4,2.3,4,2.3c1.6,0,3-0.8,4-2.3
	c1.4,1,3,1.4,4.5,0.9c1.5-0.5,2.6-1.7,3-3.4c1.7,0.5,3.3,0.3,4.5-0.6c1.1-0.9,1.8-2.3,1.8-3.9c0-0.1,0-0.2,0-0.3
	c1.7,0,3.2-0.7,4.1-2.1c0.5-0.7,0.7-1.6,0.7-2.5c0-0.7-0.2-1.4-0.4-2.1c1.7-0.6,2.8-1.8,3.2-3.3c0.1-0.4,0.1-0.7,0.1-1.1
	c0,0,0,0,0-0.1c0.3,0.2,0.6,0.4,0.9,0.5c-0.2,0.4-0.3,0.9-0.3,1.3c0,0.6,0.2,1.1,0.5,1.6c0.6,0.9,1.5,1.3,2.6,1.3c0,0.1,0,0.1,0,0.2
	c0,1,0.4,1.9,1.1,2.5c0.8,0.6,1.8,0.8,2.9,0.4c0.3,1.1,1,1.9,1.9,2.2c0.9,0.3,2,0.1,2.9-0.5c0.6,0.9,1.5,1.4,2.5,1.4
	c1,0,1.9-0.5,2.5-1.4c0.9,0.7,1.9,0.9,2.9,0.5c1-0.3,1.6-1.1,1.9-2.2c1.1,0.3,2.1,0.2,2.9-0.4c0.7-0.6,1.1-1.4,1.1-2.5
	c0-0.1,0-0.1,0-0.2c1.1,0,2-0.5,2.6-1.3c0.3-0.5,0.5-1,0.5-1.6c0-0.4-0.1-0.9-0.3-1.3c0,0,0.1,0,0.1,0c0,0.2,0.1,0.5,0.1,0.7
	c0.4,1.5,1.5,2.7,3.2,3.3c-0.3,0.7-0.4,1.4-0.4,2.1c0,0.9,0.3,1.8,0.7,2.5c0.9,1.4,2.4,2,4.1,2.1c0,0.1,0,0.2,0,0.3
	c0,1.6,0.6,3,1.8,3.9c1.2,1,2.9,1.2,4.5,0.6c0.5,1.7,1.5,2.9,3,3.4c1.5,0.5,3.1,0.2,4.5-0.9C1389.2,28.5,1390.6,29.3,1392.2,29.3z
	 M1399.7,25.1c-1.3,0.4-3-1.2-3.9-3.7c-0.8-2.5-0.5-4.8,0.8-5.3c1.3-0.4,3,1.2,3.9,3.7C1401.4,22.3,1401,24.6,1399.7,25.1z
	 M1406.4,21.5c-1.1,0.8-3.3-0.2-4.9-2.2c-1.6-2.1-2-4.4-0.9-5.3c1.1-0.8,3.3,0.2,4.9,2.2C1407.1,18.3,1407.5,20.6,1406.4,21.5z
	 M1390.6,12.2c-1.2,1.2-2.5,1.9-2.9,1.6c-0.4-0.4,0.3-1.6,1.6-2.9c0.3-0.3,0.5-0.5,0.8-0.7c-0.3,0-0.7,0.1-1.1,0.1
	c-1.7,0-3.1-0.4-3.1-0.9c0-0.5,1.4-0.9,3.1-0.9c0.4,0,0.7,0,1.1,0.1c-0.3-0.2-0.5-0.4-0.8-0.7c-1.2-1.2-1.9-2.5-1.6-2.9
	c0.4-0.4,1.6,0.3,2.9,1.6c0.3,0.3,0.5,0.5,0.7,0.8c0-0.3-0.1-0.7-0.1-1.1c0-1.7,0.4-3.1,0.9-3.1c0.5,0,0.9,1.4,0.9,3.1
	c0,0.4,0,0.7-0.1,1.1c0.2-0.3,0.4-0.5,0.7-0.8c1.2-1.2,2.5-1.9,2.9-1.6c0.4,0.4-0.3,1.6-1.6,2.9c-0.3,0.3-0.5,0.5-0.8,0.7
	c0.3,0,0.7-0.1,1.1-0.1c1.7,0,3.1,0.4,3.1,0.9c0,0.5-1.4,0.9-3.1,0.9c-0.4,0-0.7,0-1.1-0.1c0.3,0.2,0.5,0.4,0.8,0.7
	c1.2,1.2,1.9,2.5,1.6,2.9c-0.4,0.4-1.6-0.3-2.9-1.6c-0.3-0.3-0.5-0.5-0.7-0.8c0,0.3,0.1,0.7,0.1,1.1c0,1.7-0.4,3.1-0.9,3.1
	c-0.5,0-0.9-1.4-0.9-3.1c0-0.4,0-0.7,0.1-1.1C1391.1,11.7,1390.9,12,1390.6,12.2z M1354.3,7.7c0.8,0.8,1.2,1.6,1,1.8
	c-0.2,0.2-1.1-0.2-1.8-1c-0.2-0.2-0.3-0.3-0.5-0.5c0,0.2,0,0.4,0,0.7c0,1.1-0.3,2-0.6,2c-0.3,0-0.6-0.9-0.6-2c0-0.2,0-0.5,0-0.7
	c-0.1,0.2-0.3,0.3-0.5,0.5c-0.8,0.8-1.6,1.2-1.8,1c-0.2-0.2,0.2-1.1,1-1.8c0.2-0.2,0.3-0.3,0.5-0.5c-0.2,0-0.4,0-0.7,0
	c-1.1,0-2-0.3-2-0.6c0-0.3,0.9-0.6,2-0.6c0.2,0,0.5,0,0.7,0c-0.2-0.1-0.3-0.3-0.5-0.5c-0.8-0.8-1.2-1.6-1-1.8c0.2-0.2,1.1,0.2,1.8,1
	c0.2,0.2,0.3,0.3,0.5,0.5c0-0.2,0-0.4,0-0.7c0-1.1,0.3-2,0.6-2c0.3,0,0.6,0.9,0.6,2c0,0.2,0,0.5,0,0.7c0.1-0.2,0.3-0.3,0.5-0.5
	c0.8-0.8,1.6-1.2,1.8-1c0.2,0.2-0.2,1.1-1,1.8c-0.2,0.2-0.3,0.3-0.5,0.5c0.2,0,0.4,0,0.7,0c1.1,0,2,0.3,2,0.6c0,0.3-0.9,0.6-2,0.6
	c-0.2,0-0.5,0-0.7,0C1353.9,7.4,1354.1,7.5,1354.3,7.7z M1341.4,7.2c-1.6,0.4-3.1,0.1-3.3-0.8c-0.2-0.9,0.9-1.9,2.5-2.3
	c1.6-0.4,3.1-0.1,3.3,0.8C1344.1,5.8,1343,6.8,1341.4,7.2z M1360.9,4.9c0.2-0.9,1.7-1.2,3.3-0.8c1.6,0.4,2.8,1.5,2.5,2.3
	c-0.2,0.9-1.7,1.2-3.3,0.8C1361.8,6.8,1360.7,5.8,1360.9,4.9z M1411.6,15.9c-0.8,1.2-3.1,0.9-5.3-0.5c-2.2-1.4-3.3-3.5-2.6-4.7
	c0.8-1.2,3.1-0.9,5.3,0.5C1411.2,12.6,1412.3,14.7,1411.6,15.9z M1414.7,8.9c-0.3,1.3-2.7,1.9-5.2,1.2c-2.5-0.7-4.3-2.3-4-3.6
	c0.3-1.3,2.7-1.9,5.2-1.2C1413.2,6,1415,7.6,1414.7,8.9z M1432.2,4.7c0-1.1,0.3-2,0.6-2c0.3,0,0.6,0.9,0.6,2c0,0.2,0,0.5,0,0.7
	c0.1-0.2,0.3-0.3,0.5-0.5c0.8-0.8,1.6-1.2,1.8-1c0.2,0.2-0.2,1.1-1,1.8c-0.2,0.2-0.3,0.3-0.5,0.5c0.2,0,0.4,0,0.7,0
	c1.1,0,2,0.3,2,0.6c0,0.3-0.9,0.6-2,0.6c-0.2,0-0.5,0-0.7,0c0.2,0.1,0.3,0.3,0.5,0.5c0.8,0.8,1.2,1.6,1,1.8c-0.2,0.2-1.1-0.2-1.8-1
	c-0.2-0.2-0.3-0.3-0.5-0.5c0,0.2,0,0.4,0,0.7c0,1.1-0.3,2-0.6,2c-0.3,0-0.6-0.9-0.6-2c0-0.2,0-0.5,0-0.7c-0.1,0.2-0.3,0.3-0.5,0.5
	c-0.8,0.8-1.6,1.2-1.8,1c-0.2-0.2,0.2-1.1,1-1.8c0.2-0.2,0.3-0.3,0.5-0.5c-0.2,0-0.4,0-0.7,0c-1.1,0-2-0.3-2-0.6
	c0-0.3,0.9-0.6,2-0.6c0.2,0,0.5,0,0.7,0c-0.2-0.1-0.3-0.3-0.5-0.5c-0.8-0.8-1.2-1.6-1-1.8c0.2-0.2,1.1,0.2,1.8,1
	c0.2,0.2,0.3,0.3,0.5,0.5C1432.2,5.2,1432.2,4.9,1432.2,4.7z M1471.6,6.2c0-1.7,0.4-3.1,0.9-3.1c0.5,0,0.9,1.4,0.9,3.1
	c0,0.4,0,0.7-0.1,1.1c0.2-0.3,0.4-0.5,0.7-0.8c1.2-1.2,2.5-1.9,2.9-1.6c0.4,0.4-0.3,1.6-1.6,2.9c-0.3,0.3-0.5,0.5-0.8,0.7
	c0.3,0,0.7-0.1,1.1-0.1c1.7,0,3.1,0.4,3.1,0.9c0,0.5-1.4,0.9-3.1,0.9c-0.4,0-0.7,0-1.1-0.1c0.3,0.2,0.5,0.4,0.8,0.7
	c1.2,1.2,1.9,2.5,1.6,2.9c-0.4,0.4-1.6-0.3-2.9-1.6c-0.3-0.3-0.5-0.5-0.7-0.8c0,0.3,0.1,0.7,0.1,1.1c0,1.7-0.4,3.1-0.9,3.1
	c-0.5,0-0.9-1.4-0.9-3.1c0-0.4,0-0.7,0.1-1.1c-0.2,0.3-0.4,0.5-0.7,0.8c-1.2,1.2-2.5,1.9-2.9,1.6c-0.4-0.4,0.3-1.6,1.6-2.9
	c0.3-0.3,0.5-0.5,0.8-0.7c-0.3,0-0.7,0.1-1.1,0.1c-1.7,0-3.1-0.4-3.1-0.9c0-0.5,1.4-0.9,3.1-0.9c0.4,0,0.7,0,1.1,0.1
	c-0.3-0.2-0.5-0.4-0.8-0.7c-1.2-1.2-1.9-2.5-1.6-2.9c0.4-0.4,1.6,0.3,2.9,1.6c0.3,0.3,0.5,0.5,0.7,0.8
	C1471.6,6.9,1471.6,6.6,1471.6,6.2z M1444.6,4.1c1.6,0.4,2.8,1.5,2.5,2.3c-0.2,0.9-1.7,1.2-3.3,0.8c-1.6-0.4-2.8-1.4-2.5-2.3
	C1441.5,4.1,1443,3.7,1444.6,4.1z M1424.3,4.9c0.2,0.9-0.9,1.9-2.5,2.3c-1.6,0.4-3.1,0.1-3.3-0.8c-0.2-0.9,0.9-1.9,2.5-2.3
	C1422.6,3.7,1424.1,4.1,1424.3,4.9z M1420.4,10.9c-0.5-0.7,0.3-2.1,1.6-3c1.4-0.9,2.9-1.1,3.4-0.3c0.5,0.7-0.3,2.1-1.6,3
	C1422.4,11.5,1420.9,11.6,1420.4,10.9z M1423.7,14.4c-0.7-0.5-0.4-2,0.6-3.4c1-1.3,2.4-2,3.1-1.4c0.7,0.5,0.4,2-0.6,3.4
	C1425.8,14.3,1424.4,15,1423.7,14.4z M1428,16.7c-0.8-0.3-1.1-1.8-0.5-3.4c0.5-1.6,1.7-2.6,2.5-2.3c0.8,0.3,1.1,1.8,0.5,3.4
	C1429.9,16,1428.8,17,1428,16.7z M1432.8,17.5c-0.9,0-1.6-1.4-1.6-3c0-1.7,0.7-3,1.6-3c0.9,0,1.6,1.4,1.6,3
	C1434.4,16.2,1433.7,17.5,1432.8,17.5z M1437.6,16.7c-0.8,0.3-1.9-0.8-2.5-2.3c-0.5-1.6-0.3-3.1,0.5-3.4c0.8-0.3,1.9,0.8,2.5,2.3
	C1438.6,14.9,1438.4,16.5,1437.6,16.7z M1441.9,14.4c-0.7,0.5-2.1-0.1-3.1-1.4c-1-1.3-1.3-2.8-0.6-3.4c0.7-0.5,2.1,0.1,3.1,1.4
	C1442.3,12.4,1442.5,13.9,1441.9,14.4z M1445.2,10.9c-0.5,0.7-2,0.6-3.4-0.3c-1.4-0.9-2.1-2.3-1.6-3c0.5-0.7,2-0.6,3.4,0.3
	C1444.9,8.8,1445.6,10.1,1445.2,10.9z M1450,8.9c-0.3-1.3,1.4-2.9,4-3.6c2.5-0.7,4.9-0.1,5.2,1.2c0.3,1.3-1.4,2.9-4,3.6
	C1452.7,10.8,1450.4,10.3,1450,8.9z M1453.1,15.9c-0.8-1.2,0.4-3.3,2.6-4.7c2.2-1.4,4.6-1.7,5.3-0.5c0.8,1.2-0.4,3.3-2.6,4.7
	C1456.3,16.8,1453.9,17,1453.1,15.9z M1458.3,21.5c-1.1-0.8-0.7-3.2,0.9-5.3c1.6-2.1,3.8-3.1,4.9-2.2c1.1,0.8,0.7,3.2-0.9,5.3
	C1461.6,21.3,1459.4,22.3,1458.3,21.5z M1465,25.1c-1.3-0.4-1.7-2.8-0.8-5.3c0.8-2.5,2.6-4.1,3.9-3.7c1.3,0.4,1.7,2.8,0.8,5.3
	C1468.1,23.9,1466.3,25.5,1465,25.1z M1472.5,26.3c-1.4,0-2.5-2.1-2.5-4.7c0-2.6,1.1-4.7,2.5-4.7c1.4,0,2.5,2.1,2.5,4.7
	C1475,24.2,1473.9,26.3,1472.5,26.3z M1480,25.1c-1.3,0.4-3-1.2-3.9-3.7c-0.8-2.5-0.5-4.8,0.8-5.3c1.3-0.4,3,1.2,3.9,3.7
	C1481.7,22.3,1481.3,24.6,1480,25.1z M1486.7,21.5c-1.1,0.8-3.3-0.2-4.9-2.2c-1.6-2.1-2-4.4-0.9-5.3c1.1-0.8,3.3,0.2,4.9,2.2
	C1487.4,18.3,1487.8,20.6,1486.7,21.5z M1491.9,15.9c-0.8,1.2-3.1,0.9-5.3-0.5c-2.2-1.4-3.3-3.5-2.6-4.7c0.8-1.2,3.1-0.9,5.3,0.5
	C1491.5,12.6,1492.7,14.7,1491.9,15.9z M1495,8.9c-0.3,1.3-2.7,1.9-5.2,1.2c-2.5-0.7-4.3-2.3-4-3.6c0.3-1.3,2.7-1.9,5.2-1.2
	C1493.6,6,1495.4,7.6,1495,8.9z M1501.3,4.1c1.6-0.4,3.1-0.1,3.3,0.8c0.2,0.9-0.9,1.9-2.5,2.3c-1.6,0.4-3.1,0.1-3.3-0.8
	C1498.6,5.6,1499.7,4.6,1501.3,4.1z M1500.8,10.9c-0.5-0.7,0.3-2.1,1.6-3c1.4-0.9,2.9-1.1,3.4-0.3c0.5,0.7-0.3,2.1-1.6,3
	C1502.8,11.5,1501.2,11.6,1500.8,10.9z M1504.1,14.4c-0.7-0.5-0.4-2,0.6-3.4c1-1.3,2.4-2,3.1-1.4c0.7,0.5,0.4,2-0.6,3.4
	C1506.2,14.3,1504.8,15,1504.1,14.4z M1508.3,16.7c-0.8-0.3-1.1-1.8-0.5-3.4c0.5-1.6,1.7-2.6,2.5-2.3c0.8,0.3,1.1,1.8,0.5,3.4
	C1510.3,16,1509.2,17,1508.3,16.7z M1513.1,17.5c-0.9,0-1.6-1.4-1.6-3c0-1.7,0.7-3,1.6-3c0.9,0,1.6,1.4,1.6,3
	C1514.7,16.2,1514,17.5,1513.1,17.5z M1517.9,16.7c-0.8,0.3-1.9-0.8-2.5-2.3c-0.5-1.6-0.3-3.1,0.5-3.4c0.8-0.3,1.9,0.8,2.5,2.3
	C1519,14.9,1518.8,16.5,1517.9,16.7z M1522.2,14.4c-0.7,0.5-2.1-0.1-3.1-1.4c-1-1.3-1.3-2.8-0.6-3.4c0.7-0.5,2.1,0.1,3.1,1.4
	C1522.6,12.4,1522.9,13.9,1522.2,14.4z M1525.5,10.9c-0.5,0.7-2,0.6-3.4-0.3c-1.4-0.9-2.1-2.3-1.6-3c0.5-0.7,2-0.6,3.4,0.3
	C1525.3,8.8,1526,10.1,1525.5,10.9z M1525,4.1c1.6,0.4,2.8,1.5,2.5,2.3c-0.2,0.9-1.7,1.2-3.3,0.8c-1.6-0.4-2.8-1.4-2.5-2.3
	C1521.9,4.1,1523.3,3.7,1525,4.1z M1513.7,4.7c0,0.2,0,0.5,0,0.7c0.1-0.2,0.3-0.3,0.5-0.5c0.8-0.8,1.6-1.2,1.8-1
	c0.2,0.2-0.2,1.1-1,1.8c-0.2,0.2-0.3,0.3-0.5,0.5c0.2,0,0.4,0,0.7,0c1.1,0,2,0.3,2,0.6c0,0.3-0.9,0.6-2,0.6c-0.2,0-0.5,0-0.7,0
	c0.2,0.1,0.3,0.3,0.5,0.5c0.8,0.8,1.2,1.6,1,1.8c-0.2,0.2-1.1-0.2-1.8-1c-0.2-0.2-0.3-0.3-0.5-0.5c0,0.2,0,0.4,0,0.7
	c0,1.1-0.3,2-0.6,2c-0.3,0-0.6-0.9-0.6-2c0-0.2,0-0.5,0-0.7c-0.1,0.2-0.3,0.3-0.5,0.5c-0.8,0.8-1.6,1.2-1.8,1
	c-0.2-0.2,0.2-1.1,1-1.8c0.2-0.2,0.3-0.3,0.5-0.5c-0.2,0-0.4,0-0.7,0c-1.1,0-2-0.3-2-0.6c0-0.3,0.9-0.6,2-0.6c0.2,0,0.5,0,0.7,0
	c-0.2-0.1-0.3-0.3-0.5-0.5c-0.8-0.8-1.2-1.6-1-1.8c0.2-0.2,1.1,0.2,1.8,1c0.2,0.2,0.3,0.3,0.5,0.5c0-0.2,0-0.4,0-0.7
	c0-1.1,0.3-2,0.6-2C1513.5,2.7,1513.7,3.6,1513.7,4.7z M1501.8,2.2c-0.3,0-0.7,0.1-1,0.1c-2.1,0.5-3.5,1.8-3.9,3.2
	c-1.1-1.4-2.9-2.5-5.1-3.1c-0.4-0.1-0.9-0.2-1.3-0.3H1501.8z M1454.6,2.2c-0.4,0.1-0.9,0.1-1.3,0.3c-1.9,0.5-3.4,1.4-4.5,2.4
	c-0.6-1.1-1.9-2.1-3.6-2.5c-0.3-0.1-0.7-0.1-1-0.1H1454.6z M1421.5,2.2c-0.3,0-0.7,0.1-1,0.1c-2.1,0.5-3.5,1.8-3.9,3.2
	c-1.1-1.4-2.9-2.5-5.1-3.1c-0.4-0.1-0.9-0.2-1.3-0.3H1421.5z M1374.2,2.2c-0.4,0.1-0.9,0.1-1.3,0.3c-1.9,0.5-3.4,1.4-4.5,2.4
	c-0.6-1.1-1.9-2.1-3.6-2.5c-0.3-0.1-0.7-0.1-1-0.1H1374.2z M1341.1,2.2c-0.3,0-0.7,0.1-1,0.1c-2.1,0.5-3.5,1.8-3.9,3.2
	c-1.1-1.4-2.9-2.5-5.1-3.1c-0.4-0.1-0.9-0.2-1.3-0.3H1341.1z M1315,8.4c1.7,0,3.1,0.4,3.1,0.9c0,0.5-1.4,0.9-3.1,0.9
	c-0.4,0-0.7,0-1.1-0.1c0.3,0.2,0.5,0.4,0.8,0.7c1.2,1.2,1.9,2.5,1.6,2.9c-0.4,0.4-1.6-0.3-2.9-1.6c-0.3-0.3-0.5-0.5-0.7-0.8
	c0,0.3,0.1,0.7,0.1,1.1c0,1.7-0.4,3.1-0.9,3.1c-0.5,0-0.9-1.4-0.9-3.1c0-0.4,0-0.7,0.1-1.1c-0.2,0.3-0.4,0.5-0.7,0.8
	c-1.2,1.2-2.5,1.9-2.9,1.6c-0.4-0.4,0.3-1.6,1.6-2.9c0.3-0.3,0.5-0.5,0.8-0.7c-0.3,0-0.7,0.1-1.1,0.1c-1.7,0-3.1-0.4-3.1-0.9
	c0-0.5,1.4-0.9,3.1-0.9c0.4,0,0.7,0,1.1,0.1c-0.3-0.2-0.5-0.4-0.8-0.7c-1.2-1.2-1.9-2.5-1.6-2.9c0.4-0.4,1.6,0.3,2.9,1.6
	c0.3,0.3,0.5,0.5,0.7,0.8c0-0.3-0.1-0.7-0.1-1.1c0-1.7,0.4-3.1,0.9-3.1c0.5,0,0.9,1.4,0.9,3.1c0,0.4,0,0.7-0.1,1.1
	c0.2-0.3,0.4-0.5,0.7-0.8c1.2-1.2,2.5-1.9,2.9-1.6c0.4,0.4-0.3,1.6-1.6,2.9c-0.3,0.3-0.5,0.5-0.8,0.7
	C1314.2,8.4,1314.6,8.4,1315,8.4z M1273.9,7.7c0.8,0.8,1.2,1.6,1,1.8c-0.2,0.2-1.1-0.2-1.8-1c-0.2-0.2-0.3-0.3-0.5-0.5
	c0,0.2,0,0.4,0,0.7c0,1.1-0.3,2-0.6,2c-0.3,0-0.6-0.9-0.6-2c0-0.2,0-0.5,0-0.7c-0.1,0.2-0.3,0.3-0.5,0.5c-0.8,0.8-1.6,1.2-1.8,1
	c-0.2-0.2,0.2-1.1,1-1.8c0.2-0.2,0.3-0.3,0.5-0.5c-0.2,0-0.4,0-0.7,0c-1.1,0-2-0.3-2-0.6c0-0.3,0.9-0.6,2-0.6c0.2,0,0.5,0,0.7,0
	c-0.2-0.1-0.3-0.3-0.5-0.5c-0.8-0.8-1.2-1.6-1-1.8c0.2-0.2,1.1,0.2,1.8,1c0.2,0.2,0.3,0.3,0.5,0.5c0-0.2,0-0.4,0-0.7
	c0-1.1,0.3-2,0.6-2c0.3,0,0.6,0.9,0.6,2c0,0.2,0,0.5,0,0.7c0.1-0.2,0.3-0.3,0.5-0.5c0.8-0.8,1.6-1.2,1.8-1c0.2,0.2-0.2,1.1-1,1.8
	c-0.2,0.2-0.3,0.3-0.5,0.5c0.2,0,0.4,0,0.7,0c1.1,0,2,0.3,2,0.6c0,0.3-0.9,0.6-2,0.6c-0.2,0-0.5,0-0.7,0
	C1273.6,7.4,1273.7,7.5,1273.9,7.7z M1261,7.2c-1.6,0.4-3.1,0.1-3.3-0.8c-0.2-0.9,0.9-1.9,2.5-2.3c1.6-0.4,3.1-0.1,3.3,0.8
	C1263.8,5.8,1262.7,6.8,1261,7.2z M1280.5,4.9c0.2-0.9,1.7-1.2,3.3-0.8c1.6,0.4,2.8,1.5,2.5,2.3c-0.2,0.9-1.7,1.2-3.3,0.8
	C1281.5,6.8,1280.3,5.8,1280.5,4.9z M1293.8,2.2c-0.4,0.1-0.9,0.1-1.3,0.3c-1.9,0.5-3.4,1.4-4.5,2.4c-0.6-1.1-1.9-2.1-3.6-2.5
	c-0.3-0.1-0.7-0.1-1-0.1H1293.8z M1260.8,2.2c-0.3,0-0.7,0.1-1,0.1c-2.1,0.5-3.5,1.8-3.9,3.2c-1.1-1.4-2.9-2.5-5.1-3.1
	c-0.4-0.1-0.9-0.2-1.3-0.3H1260.8z M1234.6,8.4c1.7,0,3.1,0.4,3.1,0.9c0,0.5-1.4,0.9-3.1,0.9c-0.4,0-0.7,0-1.1-0.1
	c0.3,0.2,0.5,0.4,0.8,0.7c1.2,1.2,1.9,2.5,1.6,2.9c-0.4,0.4-1.6-0.3-2.9-1.6c-0.3-0.3-0.5-0.5-0.7-0.8c0,0.3,0.1,0.7,0.1,1.1
	c0,1.7-0.4,3.1-0.9,3.1c-0.5,0-0.9-1.4-0.9-3.1c0-0.4,0-0.7,0.1-1.1c-0.2,0.3-0.4,0.5-0.7,0.8c-1.2,1.2-2.5,1.9-2.9,1.6
	c-0.4-0.4,0.3-1.6,1.6-2.9c0.3-0.3,0.5-0.5,0.8-0.7c-0.3,0-0.7,0.1-1.1,0.1c-1.7,0-3.1-0.4-3.1-0.9c0-0.5,1.4-0.9,3.1-0.9
	c0.4,0,0.7,0,1.1,0.1c-0.3-0.2-0.5-0.4-0.8-0.7c-1.2-1.2-1.9-2.5-1.6-2.9c0.4-0.4,1.6,0.3,2.9,1.6c0.3,0.3,0.5,0.5,0.7,0.8
	c0-0.3-0.1-0.7-0.1-1.1c0-1.7,0.4-3.1,0.9-3.1c0.5,0,0.9,1.4,0.9,3.1c0,0.4,0,0.7-0.1,1.1c0.2-0.3,0.4-0.5,0.7-0.8
	c1.2-1.2,2.5-1.9,2.9-1.6c0.4,0.4-0.3,1.6-1.6,2.9c-0.3,0.3-0.5,0.5-0.8,0.7C1233.9,8.4,1234.2,8.4,1234.6,8.4z M1193.5,7.7
	c0.8,0.8,1.2,1.6,1,1.8c-0.2,0.2-1.1-0.2-1.8-1c-0.2-0.2-0.3-0.3-0.5-0.5c0,0.2,0,0.4,0,0.7c0,1.1-0.3,2-0.6,2c-0.3,0-0.6-0.9-0.6-2
	c0-0.2,0-0.5,0-0.7c-0.1,0.2-0.3,0.3-0.5,0.5c-0.8,0.8-1.6,1.2-1.8,1c-0.2-0.2,0.2-1.1,1-1.8c0.2-0.2,0.3-0.3,0.5-0.5
	c-0.2,0-0.4,0-0.7,0c-1.1,0-2-0.3-2-0.6c0-0.3,0.9-0.6,2-0.6c0.2,0,0.5,0,0.7,0c-0.2-0.1-0.3-0.3-0.5-0.5c-0.8-0.8-1.2-1.6-1-1.8
	c0.2-0.2,1.1,0.2,1.8,1c0.2,0.2,0.3,0.3,0.5,0.5c0-0.2,0-0.4,0-0.7c0-1.1,0.3-2,0.6-2c0.3,0,0.6,0.9,0.6,2c0,0.2,0,0.5,0,0.7
	c0.1-0.2,0.3-0.3,0.5-0.5c0.8-0.8,1.6-1.2,1.8-1c0.2,0.2-0.2,1.1-1,1.8c-0.2,0.2-0.3,0.3-0.5,0.5c0.2,0,0.4,0,0.7,0
	c1.1,0,2,0.3,2,0.6c0,0.3-0.9,0.6-2,0.6c-0.2,0-0.5,0-0.7,0C1193.2,7.4,1193.4,7.5,1193.5,7.7z M1180.7,7.2
	c-1.6,0.4-3.1,0.1-3.3-0.8c-0.2-0.9,0.9-1.9,2.5-2.3c1.6-0.4,3.1-0.1,3.3,0.8C1183.4,5.8,1182.3,6.8,1180.7,7.2z M1200.2,4.9
	c0.2-0.9,1.7-1.2,3.3-0.8c1.6,0.4,2.8,1.5,2.5,2.3c-0.2,0.9-1.7,1.2-3.3,0.8C1201.1,6.8,1200,5.8,1200.2,4.9z M1213.5,2.2
	c-0.4,0.1-0.9,0.1-1.3,0.3c-1.9,0.5-3.4,1.4-4.5,2.4c-0.6-1.1-1.9-2.1-3.6-2.5c-0.3-0.1-0.7-0.1-1-0.1H1213.5z M1180.4,2.2
	c-0.3,0-0.7,0.1-1,0.1c-2.1,0.5-3.5,1.8-3.9,3.2c-1.1-1.4-2.9-2.5-5.1-3.1c-0.4-0.1-0.9-0.2-1.3-0.3H1180.4z M1154.2,8.4
	c1.7,0,3.1,0.4,3.1,0.9c0,0.5-1.4,0.9-3.1,0.9c-0.4,0-0.7,0-1.1-0.1c0.3,0.2,0.5,0.4,0.8,0.7c1.2,1.2,1.9,2.5,1.6,2.9
	c-0.4,0.4-1.6-0.3-2.9-1.6c-0.3-0.3-0.5-0.5-0.7-0.8c0,0.3,0.1,0.7,0.1,1.1c0,1.7-0.4,3.1-0.9,3.1c-0.5,0-0.9-1.4-0.9-3.1
	c0-0.4,0-0.7,0.1-1.1c-0.2,0.3-0.4,0.5-0.7,0.8c-1.2,1.2-2.5,1.9-2.9,1.6c-0.4-0.4,0.3-1.6,1.6-2.9c0.3-0.3,0.5-0.5,0.8-0.7
	c-0.3,0-0.7,0.1-1.1,0.1c-1.7,0-3.1-0.4-3.1-0.9c0-0.5,1.4-0.9,3.1-0.9c0.4,0,0.7,0,1.1,0.1c-0.3-0.2-0.5-0.4-0.8-0.7
	c-1.2-1.2-1.9-2.5-1.6-2.9c0.4-0.4,1.6,0.3,2.9,1.6c0.3,0.3,0.5,0.5,0.7,0.8c0-0.3-0.1-0.7-0.1-1.1c0-1.7,0.4-3.1,0.9-3.1
	c0.5,0,0.9,1.4,0.9,3.1c0,0.4,0,0.7-0.1,1.1c0.2-0.3,0.4-0.5,0.7-0.8c1.2-1.2,2.5-1.9,2.9-1.6c0.4,0.4-0.3,1.6-1.6,2.9
	c-0.3,0.3-0.5,0.5-0.8,0.7C1153.5,8.4,1153.9,8.4,1154.2,8.4z M1113.2,7.7c0.8,0.8,1.2,1.6,1,1.8c-0.2,0.2-1.1-0.2-1.8-1
	c-0.2-0.2-0.3-0.3-0.5-0.5c0,0.2,0,0.4,0,0.7c0,1.1-0.3,2-0.6,2s-0.6-0.9-0.6-2c0-0.2,0-0.5,0-0.7c-0.1,0.2-0.3,0.3-0.5,0.5
	c-0.8,0.8-1.6,1.2-1.8,1c-0.2-0.2,0.2-1.1,1-1.8c0.2-0.2,0.3-0.3,0.5-0.5c-0.2,0-0.4,0-0.7,0c-1.1,0-2-0.3-2-0.6
	c0-0.3,0.9-0.6,2-0.6c0.2,0,0.5,0,0.7,0c-0.2-0.1-0.3-0.3-0.5-0.5c-0.8-0.8-1.2-1.6-1-1.8c0.2-0.2,1.1,0.2,1.8,1
	c0.2,0.2,0.3,0.3,0.5,0.5c0-0.2,0-0.4,0-0.7c0-1.1,0.3-2,0.6-2s0.6,0.9,0.6,2c0,0.2,0,0.5,0,0.7c0.1-0.2,0.3-0.3,0.5-0.5
	c0.8-0.8,1.6-1.2,1.8-1c0.2,0.2-0.2,1.1-1,1.8c-0.2,0.2-0.3,0.3-0.5,0.5c0.2,0,0.4,0,0.7,0c1.1,0,2,0.3,2,0.6c0,0.3-0.9,0.6-2,0.6
	c-0.2,0-0.5,0-0.7,0C1112.8,7.4,1113,7.5,1113.2,7.7z M1100.3,7.2c-1.6,0.4-3.1,0.1-3.3-0.8c-0.2-0.9,0.9-1.9,2.5-2.3
	c1.6-0.4,3.1-0.1,3.3,0.8C1103.1,5.8,1101.9,6.8,1100.3,7.2z M1119.8,4.9c0.2-0.9,1.7-1.2,3.3-0.8c1.6,0.4,2.8,1.5,2.5,2.3
	c-0.2,0.9-1.7,1.2-3.3,0.8C1120.7,6.8,1119.6,5.8,1119.8,4.9z M1133.1,2.2c-0.4,0.1-0.9,0.1-1.3,0.3c-1.9,0.5-3.4,1.4-4.5,2.4
	c-0.6-1.1-1.9-2.1-3.6-2.5c-0.3-0.1-0.7-0.1-1-0.1H1133.1z M1100,2.2c-0.3,0-0.7,0.1-1,0.1c-2.1,0.5-3.5,1.8-3.9,3.2
	c-1.1-1.4-2.9-2.5-5.1-3.1c-0.4-0.1-0.9-0.2-1.3-0.3H1100z M1073.9,8.4c1.7,0,3.1,0.4,3.1,0.9c0,0.5-1.4,0.9-3.1,0.9
	c-0.4,0-0.7,0-1.1-0.1c0.3,0.2,0.5,0.4,0.8,0.7c1.2,1.2,1.9,2.5,1.6,2.9c-0.4,0.4-1.6-0.3-2.9-1.6c-0.3-0.3-0.5-0.5-0.7-0.8
	c0,0.3,0.1,0.7,0.1,1.1c0,1.7-0.4,3.1-0.9,3.1c-0.5,0-0.9-1.4-0.9-3.1c0-0.4,0-0.7,0.1-1.1c-0.2,0.3-0.4,0.5-0.7,0.8
	c-1.2,1.2-2.5,1.9-2.9,1.6c-0.4-0.4,0.3-1.6,1.6-2.9c0.3-0.3,0.5-0.5,0.8-0.7c-0.3,0-0.7,0.1-1.1,0.1c-1.7,0-3.1-0.4-3.1-0.9
	c0-0.5,1.4-0.9,3.1-0.9c0.4,0,0.7,0,1.1,0.1c-0.3-0.2-0.5-0.4-0.8-0.7c-1.2-1.2-1.9-2.5-1.6-2.9c0.4-0.4,1.6,0.3,2.9,1.6
	c0.3,0.3,0.5,0.5,0.7,0.8c0-0.3-0.1-0.7-0.1-1.1c0-1.7,0.4-3.1,0.9-3.1c0.5,0,0.9,1.4,0.9,3.1c0,0.4,0,0.7-0.1,1.1
	c0.2-0.3,0.4-0.5,0.7-0.8c1.2-1.2,2.5-1.9,2.9-1.6c0.4,0.4-0.3,1.6-1.6,2.9c-0.3,0.3-0.5,0.5-0.8,0.7
	C1073.1,8.4,1073.5,8.4,1073.9,8.4z M1032.8,7.7c0.8,0.8,1.2,1.6,1,1.8c-0.2,0.2-1.1-0.2-1.8-1c-0.2-0.2-0.3-0.3-0.5-0.5
	c0,0.2,0,0.4,0,0.7c0,1.1-0.3,2-0.6,2c-0.3,0-0.6-0.9-0.6-2c0-0.2,0-0.5,0-0.7c-0.1,0.2-0.3,0.3-0.5,0.5c-0.8,0.8-1.6,1.2-1.8,1
	c-0.2-0.2,0.2-1.1,1-1.8c0.2-0.2,0.3-0.3,0.5-0.5c-0.2,0-0.4,0-0.7,0c-1.1,0-2-0.3-2-0.6c0-0.3,0.9-0.6,2-0.6c0.2,0,0.5,0,0.7,0
	c-0.2-0.1-0.3-0.3-0.5-0.5c-0.8-0.8-1.2-1.6-1-1.8c0.2-0.2,1.1,0.2,1.8,1c0.2,0.2,0.3,0.3,0.5,0.5c0-0.2,0-0.4,0-0.7
	c0-1.1,0.3-2,0.6-2c0.3,0,0.6,0.9,0.6,2c0,0.2,0,0.5,0,0.7c0.1-0.2,0.3-0.3,0.5-0.5c0.8-0.8,1.6-1.2,1.8-1c0.2,0.2-0.2,1.1-1,1.8
	c-0.2,0.2-0.3,0.3-0.5,0.5c0.2,0,0.4,0,0.7,0c1.1,0,2,0.3,2,0.6c0,0.3-0.9,0.6-2,0.6c-0.2,0-0.5,0-0.7,0
	C1032.5,7.4,1032.6,7.5,1032.8,7.7z M1019.9,7.2c-1.6,0.4-3.1,0.1-3.3-0.8c-0.2-0.9,0.9-1.9,2.5-2.3c1.6-0.4,3.1-0.1,3.3,0.8
	C1022.7,5.8,1021.6,6.8,1019.9,7.2z M1039.5,4.9c0.2-0.9,1.7-1.2,3.3-0.8c1.6,0.4,2.8,1.5,2.5,2.3c-0.2,0.9-1.7,1.2-3.3,0.8
	C1040.4,6.8,1039.2,5.8,1039.5,4.9z M1052.8,2.2c-0.4,0.1-0.9,0.1-1.3,0.3c-1.9,0.5-3.4,1.4-4.5,2.4c-0.6-1.1-1.9-2.1-3.6-2.5
	c-0.3-0.1-0.7-0.1-1-0.1H1052.8z M1019.7,2.2c-0.3,0-0.7,0.1-1,0.1c-2.1,0.5-3.5,1.8-3.9,3.2c-1.1-1.4-2.9-2.5-5.1-3.1
	c-0.4-0.1-0.9-0.2-1.3-0.3H1019.7z M993.5,8.4c1.7,0,3.1,0.4,3.1,0.9c0,0.5-1.4,0.9-3.1,0.9c-0.4,0-0.7,0-1.1-0.1
	c0.3,0.2,0.5,0.4,0.8,0.7c1.2,1.2,1.9,2.5,1.6,2.9c-0.4,0.4-1.7-0.3-2.9-1.6c-0.3-0.3-0.5-0.5-0.7-0.8c0,0.3,0.1,0.7,0.1,1.1
	c0,1.7-0.4,3.1-0.9,3.1c-0.5,0-0.9-1.4-0.9-3.1c0-0.4,0-0.7,0.1-1.1c-0.2,0.3-0.4,0.5-0.7,0.8c-1.2,1.2-2.5,1.9-2.9,1.6
	c-0.4-0.4,0.3-1.6,1.6-2.9c0.3-0.3,0.5-0.5,0.8-0.7c-0.3,0-0.7,0.1-1.1,0.1c-1.7,0-3.1-0.4-3.1-0.9c0-0.5,1.4-0.9,3.1-0.9
	c0.4,0,0.7,0,1.1,0.1c-0.3-0.2-0.5-0.4-0.8-0.7c-1.2-1.2-1.9-2.5-1.6-2.9c0.4-0.4,1.6,0.3,2.9,1.6c0.3,0.3,0.5,0.5,0.7,0.8
	c0-0.3-0.1-0.7-0.1-1.1c0-1.7,0.4-3.1,0.9-3.1c0.5,0,0.9,1.4,0.9,3.1c0,0.4,0,0.7-0.1,1.1c0.2-0.3,0.4-0.5,0.7-0.8
	c1.2-1.2,2.5-1.9,2.9-1.6c0.4,0.4-0.3,1.6-1.6,2.9c-0.3,0.3-0.5,0.5-0.8,0.7C992.8,8.4,993.1,8.4,993.5,8.4z M952.4,7.7
	c0.8,0.8,1.2,1.6,1,1.8c-0.2,0.2-1.1-0.2-1.8-1c-0.2-0.2-0.3-0.3-0.5-0.5c0,0.2,0,0.4,0,0.7c0,1.1-0.3,2-0.6,2c-0.3,0-0.6-0.9-0.6-2
	c0-0.2,0-0.5,0-0.7c-0.1,0.2-0.3,0.3-0.5,0.5c-0.8,0.8-1.6,1.2-1.8,1c-0.2-0.2,0.2-1.1,1-1.8c0.2-0.2,0.3-0.3,0.5-0.5
	c-0.2,0-0.4,0-0.7,0c-1.1,0-2-0.3-2-0.6c0-0.3,0.9-0.6,2-0.6c0.2,0,0.5,0,0.7,0c-0.2-0.1-0.3-0.3-0.5-0.5c-0.8-0.8-1.2-1.6-1-1.8
	c0.2-0.2,1.1,0.2,1.8,1c0.2,0.2,0.3,0.3,0.5,0.5c0-0.2,0-0.4,0-0.7c0-1.1,0.3-2,0.6-2c0.3,0,0.6,0.9,0.6,2c0,0.2,0,0.5,0,0.7
	c0.1-0.2,0.3-0.3,0.5-0.5c0.8-0.8,1.6-1.2,1.8-1c0.2,0.2-0.2,1.1-1,1.8c-0.2,0.2-0.3,0.3-0.5,0.5c0.2,0,0.4,0,0.7,0
	c1.1,0,2,0.3,2,0.6c0,0.3-0.9,0.6-2,0.6c-0.2,0-0.5,0-0.7,0C952.1,7.4,952.3,7.5,952.4,7.7z M939.6,7.2c-1.6,0.4-3.1,0.1-3.3-0.8
	c-0.2-0.9,0.9-1.9,2.5-2.3c1.6-0.4,3.1-0.1,3.3,0.8C942.3,5.8,941.2,6.8,939.6,7.2z M959.1,4.9c0.2-0.9,1.7-1.2,3.3-0.8
	c1.6,0.4,2.8,1.5,2.5,2.3c-0.2,0.9-1.7,1.2-3.3,0.8C960,6.8,958.9,5.8,959.1,4.9z M972.4,2.2c-0.4,0.1-0.9,0.1-1.3,0.3
	c-1.9,0.5-3.4,1.4-4.5,2.4c-0.6-1.1-1.9-2.1-3.6-2.5c-0.3-0.1-0.7-0.1-1-0.1H972.4z M939.3,2.2c-0.3,0-0.7,0.1-1,0.1
	c-2.1,0.5-3.5,1.8-3.9,3.2c-1.1-1.4-2.9-2.5-5.1-3.1c-0.4-0.1-0.9-0.2-1.3-0.3H939.3z M913.1,8.4c1.7,0,3.1,0.4,3.1,0.9
	c0,0.5-1.4,0.9-3.1,0.9c-0.4,0-0.7,0-1.1-0.1c0.3,0.2,0.5,0.4,0.8,0.7c1.2,1.2,1.9,2.5,1.6,2.9c-0.4,0.4-1.7-0.3-2.9-1.6
	c-0.3-0.3-0.5-0.5-0.7-0.8c0,0.3,0.1,0.7,0.1,1.1c0,1.7-0.4,3.1-0.9,3.1c-0.5,0-0.9-1.4-0.9-3.1c0-0.4,0-0.7,0.1-1.1
	c-0.2,0.3-0.4,0.5-0.7,0.8c-1.2,1.2-2.5,1.9-2.9,1.6c-0.4-0.4,0.3-1.6,1.6-2.9c0.3-0.3,0.5-0.5,0.8-0.7c-0.3,0-0.7,0.1-1.1,0.1
	c-1.7,0-3.1-0.4-3.1-0.9c0-0.5,1.4-0.9,3.1-0.9c0.4,0,0.7,0,1.1,0.1c-0.3-0.2-0.5-0.4-0.8-0.7c-1.2-1.2-1.9-2.5-1.6-2.9
	c0.4-0.4,1.6,0.3,2.9,1.6c0.3,0.3,0.5,0.5,0.7,0.8c0-0.3-0.1-0.7-0.1-1.1c0-1.7,0.4-3.1,0.9-3.1c0.5,0,0.9,1.4,0.9,3.1
	c0,0.4,0,0.7-0.1,1.1c0.2-0.3,0.4-0.5,0.7-0.8c1.2-1.2,2.5-1.9,2.9-1.6c0.4,0.4-0.3,1.6-1.6,2.9c-0.3,0.3-0.5,0.5-0.8,0.7
	C912.4,8.4,912.8,8.4,913.1,8.4z M872.1,7.7c0.8,0.8,1.2,1.6,1,1.8c-0.2,0.2-1.1-0.2-1.8-1c-0.2-0.2-0.3-0.3-0.5-0.5
	c0,0.2,0,0.4,0,0.7c0,1.1-0.3,2-0.6,2c-0.3,0-0.6-0.9-0.6-2c0-0.2,0-0.5,0-0.7c-0.1,0.2-0.3,0.3-0.5,0.5c-0.8,0.8-1.6,1.2-1.8,1
	c-0.2-0.2,0.2-1.1,1-1.8c0.2-0.2,0.3-0.3,0.5-0.5c-0.2,0-0.4,0-0.7,0c-1.1,0-2-0.3-2-0.6c0-0.3,0.9-0.6,2-0.6c0.2,0,0.5,0,0.7,0
	c-0.2-0.1-0.3-0.3-0.5-0.5c-0.8-0.8-1.2-1.6-1-1.8c0.2-0.2,1.1,0.2,1.8,1c0.2,0.2,0.3,0.3,0.5,0.5c0-0.2,0-0.4,0-0.7
	c0-1.1,0.3-2,0.6-2c0.3,0,0.6,0.9,0.6,2c0,0.2,0,0.5,0,0.7c0.1-0.2,0.3-0.3,0.5-0.5c0.8-0.8,1.6-1.2,1.8-1c0.2,0.2-0.2,1.1-1,1.8
	c-0.2,0.2-0.3,0.3-0.5,0.5c0.2,0,0.4,0,0.7,0c1.1,0,2,0.3,2,0.6c0,0.3-0.9,0.6-2,0.6c-0.2,0-0.5,0-0.7,0
	C871.7,7.4,871.9,7.5,872.1,7.7z M859.2,7.2c-1.6,0.4-3.1,0.1-3.3-0.8c-0.2-0.9,0.9-1.9,2.5-2.3c1.6-0.4,3.1-0.1,3.3,0.8
	C862,5.8,860.8,6.8,859.2,7.2z M878.7,4.9c0.2-0.9,1.7-1.2,3.3-0.8c1.6,0.4,2.8,1.5,2.5,2.3c-0.2,0.9-1.7,1.2-3.3,0.8
	C879.7,6.8,878.5,5.8,878.7,4.9z M892,2.2c-0.4,0.1-0.9,0.1-1.3,0.3c-1.9,0.5-3.4,1.4-4.5,2.4c-0.6-1.1-1.9-2.1-3.6-2.5
	c-0.3-0.1-0.7-0.1-1-0.1H892z M859,2.2c-0.3,0-0.7,0.1-1,0.1c-2.1,0.5-3.5,1.8-3.9,3.2c-1.1-1.4-2.9-2.5-5.1-3.1
	c-0.4-0.1-0.9-0.2-1.3-0.3H859z M832.8,8.4c1.7,0,3.1,0.4,3.1,0.9c0,0.5-1.4,0.9-3.1,0.9c-0.4,0-0.7,0-1.1-0.1
	c0.3,0.2,0.5,0.4,0.8,0.7c1.2,1.2,1.9,2.5,1.6,2.9c-0.4,0.4-1.7-0.3-2.9-1.6c-0.3-0.3-0.5-0.5-0.7-0.8c0,0.3,0.1,0.7,0.1,1.1
	c0,1.7-0.4,3.1-0.9,3.1c-0.5,0-0.9-1.4-0.9-3.1c0-0.4,0-0.7,0.1-1.1c-0.2,0.3-0.4,0.5-0.7,0.8c-1.2,1.2-2.5,1.9-2.9,1.6
	c-0.4-0.4,0.3-1.6,1.6-2.9c0.3-0.3,0.5-0.5,0.8-0.7c-0.3,0-0.7,0.1-1.1,0.1c-1.7,0-3.1-0.4-3.1-0.9c0-0.5,1.4-0.9,3.1-0.9
	c0.4,0,0.7,0,1.1,0.1c-0.3-0.2-0.5-0.4-0.8-0.7c-1.2-1.2-1.9-2.5-1.6-2.9c0.4-0.4,1.6,0.3,2.9,1.6c0.3,0.3,0.5,0.5,0.7,0.8
	c0-0.3-0.1-0.7-0.1-1.1c0-1.7,0.4-3.1,0.9-3.1c0.5,0,0.9,1.4,0.9,3.1c0,0.4,0,0.7-0.1,1.1c0.2-0.3,0.4-0.5,0.7-0.8
	c1.2-1.2,2.5-1.9,2.9-1.6c0.4,0.4-0.3,1.6-1.6,2.9c-0.3,0.3-0.5,0.5-0.8,0.7C832.1,8.4,832.4,8.4,832.8,8.4z M711.3,7.7
	c0.8,0.8,1.2,1.6,1,1.8c-0.2,0.2-1.1-0.2-1.8-1c-0.2-0.2-0.3-0.3-0.5-0.5c0,0.2,0,0.4,0,0.7c0,1.1-0.3,2-0.6,2c-0.3,0-0.6-0.9-0.6-2
	c0-0.2,0-0.5,0-0.7c-0.1,0.2-0.3,0.3-0.5,0.5c-0.8,0.8-1.6,1.2-1.8,1c-0.2-0.2,0.2-1.1,1-1.8c0.2-0.2,0.3-0.3,0.5-0.5
	c-0.2,0-0.4,0-0.7,0c-1.1,0-2-0.3-2-0.6c0-0.3,0.9-0.6,2-0.6c0.2,0,0.5,0,0.7,0c-0.2-0.1-0.3-0.3-0.5-0.5c-0.8-0.8-1.2-1.6-1-1.8
	c0.2-0.2,1.1,0.2,1.8,1c0.2,0.2,0.3,0.3,0.5,0.5c0-0.2,0-0.4,0-0.7c0-1.1,0.3-2,0.6-2c0.3,0,0.6,0.9,0.6,2c0,0.2,0,0.5,0,0.7
	c0.1-0.2,0.3-0.3,0.5-0.5c0.8-0.8,1.6-1.2,1.8-1c0.2,0.2-0.2,1.1-1,1.8c-0.2,0.2-0.3,0.3-0.5,0.5c0.2,0,0.4,0,0.7,0
	c1.1,0,2,0.3,2,0.6c0,0.3-0.9,0.6-2,0.6c-0.2,0-0.5,0-0.7,0C711,7.4,711.2,7.5,711.3,7.7z M672,8.4c1.7,0,3.1,0.4,3.1,0.9
	c0,0.5-1.4,0.9-3.1,0.9c-0.4,0-0.7,0-1.1-0.1c0.3,0.2,0.5,0.4,0.8,0.7c1.2,1.2,1.9,2.5,1.6,2.9c-0.4,0.4-1.6-0.3-2.9-1.6
	c-0.3-0.3-0.5-0.5-0.7-0.8c0,0.3,0.1,0.7,0.1,1.1c0,1.7-0.4,3.1-0.9,3.1c-0.5,0-0.9-1.4-0.9-3.1c0-0.4,0-0.7,0.1-1.1
	c-0.2,0.3-0.4,0.5-0.7,0.8c-1.2,1.2-2.5,1.9-2.9,1.6c-0.4-0.4,0.3-1.6,1.6-2.9c0.3-0.3,0.5-0.5,0.8-0.7c-0.3,0-0.7,0.1-1.1,0.1
	c-1.7,0-3.1-0.4-3.1-0.9c0-0.5,1.4-0.9,3.1-0.9c0.4,0,0.7,0,1.1,0.1c-0.3-0.2-0.5-0.4-0.8-0.7c-1.2-1.2-1.9-2.5-1.6-2.9
	c0.4-0.4,1.6,0.3,2.9,1.6c0.3,0.3,0.5,0.5,0.7,0.8c0-0.3-0.1-0.7-0.1-1.1c0-1.7,0.4-3.1,0.9-3.1c0.5,0,0.9,1.4,0.9,3.1
	c0,0.4,0,0.7-0.1,1.1c0.2-0.3,0.4-0.5,0.7-0.8c1.2-1.2,2.5-1.9,2.9-1.6c0.4,0.4-0.3,1.6-1.6,2.9c-0.3,0.3-0.5,0.5-0.8,0.7
	C671.3,8.4,671.7,8.4,672,8.4z M631,7.7c0.8,0.8,1.2,1.6,1,1.8c-0.2,0.2-1.1-0.2-1.8-1c-0.2-0.2-0.3-0.3-0.5-0.5c0,0.2,0,0.4,0,0.7
	c0,1.1-0.3,2-0.6,2c-0.3,0-0.6-0.9-0.6-2c0-0.2,0-0.5,0-0.7c-0.1,0.2-0.3,0.3-0.5,0.5c-0.8,0.8-1.6,1.2-1.8,1
	c-0.2-0.2,0.2-1.1,1-1.8c0.2-0.2,0.3-0.3,0.5-0.5c-0.2,0-0.4,0-0.7,0c-1.1,0-2-0.3-2-0.6c0-0.3,0.9-0.6,2-0.6c0.2,0,0.5,0,0.7,0
	c-0.2-0.1-0.3-0.3-0.5-0.5c-0.8-0.8-1.2-1.6-1-1.8c0.2-0.2,1.1,0.2,1.8,1c0.2,0.2,0.3,0.3,0.5,0.5c0-0.2,0-0.4,0-0.7
	c0-1.1,0.3-2,0.6-2c0.3,0,0.6,0.9,0.6,2c0,0.2,0,0.5,0,0.7c0.1-0.2,0.3-0.3,0.5-0.5c0.8-0.8,1.6-1.2,1.8-1c0.2,0.2-0.2,1.1-1,1.8
	c-0.2,0.2-0.3,0.3-0.5,0.5c0.2,0,0.4,0,0.7,0c1.1,0,2,0.3,2,0.6c0,0.3-0.9,0.6-2,0.6c-0.2,0-0.5,0-0.7,0
	C630.6,7.4,630.8,7.5,631,7.7z M591.7,8.4c1.7,0,3.1,0.4,3.1,0.9c0,0.5-1.4,0.9-3.1,0.9c-0.4,0-0.7,0-1.1-0.1
	c0.3,0.2,0.5,0.4,0.8,0.7c1.2,1.2,1.9,2.5,1.6,2.9c-0.4,0.4-1.6-0.3-2.9-1.6c-0.3-0.3-0.5-0.5-0.7-0.8c0,0.3,0.1,0.7,0.1,1.1
	c0,1.7-0.4,3.1-0.9,3.1c-0.5,0-0.9-1.4-0.9-3.1c0-0.4,0-0.7,0.1-1.1c-0.2,0.3-0.4,0.5-0.7,0.8c-1.2,1.2-2.5,1.9-2.9,1.6
	c-0.4-0.4,0.3-1.6,1.6-2.9c0.3-0.3,0.5-0.5,0.8-0.7c-0.3,0-0.7,0.1-1.1,0.1c-1.7,0-3.1-0.4-3.1-0.9c0-0.5,1.4-0.9,3.1-0.9
	c0.4,0,0.7,0,1.1,0.1c-0.3-0.2-0.5-0.4-0.8-0.7c-1.2-1.2-1.9-2.5-1.6-2.9c0.4-0.4,1.6,0.3,2.9,1.6c0.3,0.3,0.5,0.5,0.7,0.8
	c0-0.3-0.1-0.7-0.1-1.1c0-1.7,0.4-3.1,0.9-3.1c0.5,0,0.9,1.4,0.9,3.1c0,0.4,0,0.7-0.1,1.1c0.2-0.3,0.4-0.5,0.7-0.8
	c1.2-1.2,2.5-1.9,2.9-1.6c0.4,0.4-0.3,1.6-1.6,2.9c-0.3,0.3-0.5,0.5-0.8,0.7C591,8.4,591.3,8.4,591.7,8.4z M550.6,7.7
	c0.8,0.8,1.2,1.6,1,1.8c-0.2,0.2-1.1-0.2-1.8-1c-0.2-0.2-0.3-0.3-0.5-0.5c0,0.2,0,0.4,0,0.7c0,1.1-0.3,2-0.6,2c-0.3,0-0.6-0.9-0.6-2
	c0-0.2,0-0.5,0-0.7c-0.1,0.2-0.3,0.3-0.5,0.5c-0.8,0.8-1.6,1.2-1.8,1c-0.2-0.2,0.2-1.1,1-1.8c0.2-0.2,0.3-0.3,0.5-0.5
	c-0.2,0-0.4,0-0.7,0c-1.1,0-2-0.3-2-0.6c0-0.3,0.9-0.6,2-0.6c0.2,0,0.5,0,0.7,0c-0.2-0.1-0.3-0.3-0.5-0.5c-0.8-0.8-1.2-1.6-1-1.8
	c0.2-0.2,1.1,0.2,1.8,1c0.2,0.2,0.3,0.3,0.5,0.5c0-0.2,0-0.4,0-0.7c0-1.1,0.3-2,0.6-2c0.3,0,0.6,0.9,0.6,2c0,0.2,0,0.5,0,0.7
	c0.1-0.2,0.3-0.3,0.5-0.5c0.8-0.8,1.6-1.2,1.8-1c0.2,0.2-0.2,1.1-1,1.8c-0.2,0.2-0.3,0.3-0.5,0.5c0.2,0,0.4,0,0.7,0
	c1.1,0,2,0.3,2,0.6c0,0.3-0.9,0.6-2,0.6c-0.2,0-0.5,0-0.7,0C550.3,7.4,550.5,7.5,550.6,7.7z M511.3,8.4c1.7,0,3.1,0.4,3.1,0.9
	c0,0.5-1.4,0.9-3.1,0.9c-0.4,0-0.7,0-1.1-0.1c0.3,0.2,0.5,0.4,0.8,0.7c1.2,1.2,1.9,2.5,1.6,2.9c-0.4,0.4-1.6-0.3-2.9-1.6
	c-0.3-0.3-0.5-0.5-0.7-0.8c0,0.3,0.1,0.7,0.1,1.1c0,1.7-0.4,3.1-0.9,3.1s-0.9-1.4-0.9-3.1c0-0.4,0-0.7,0.1-1.1
	c-0.2,0.3-0.4,0.5-0.7,0.8c-1.2,1.2-2.5,1.9-2.9,1.6c-0.4-0.4,0.3-1.6,1.6-2.9c0.3-0.3,0.5-0.5,0.8-0.7c-0.3,0-0.7,0.1-1.1,0.1
	c-1.7,0-3.1-0.4-3.1-0.9c0-0.5,1.4-0.9,3.1-0.9c0.4,0,0.7,0,1.1,0.1c-0.3-0.2-0.5-0.4-0.8-0.7c-1.2-1.2-1.9-2.5-1.6-2.9
	c0.4-0.4,1.6,0.3,2.9,1.6c0.3,0.3,0.5,0.5,0.7,0.8c0-0.3-0.1-0.7-0.1-1.1c0-1.7,0.4-3.1,0.9-3.1s0.9,1.4,0.9,3.1
	c0,0.4,0,0.7-0.1,1.1c0.2-0.3,0.4-0.5,0.7-0.8c1.2-1.2,2.5-1.9,2.9-1.6c0.4,0.4-0.3,1.6-1.6,2.9c-0.3,0.3-0.5,0.5-0.8,0.7
	C510.6,8.4,511,8.4,511.3,8.4z M470.3,7.7c0.8,0.8,1.2,1.6,1,1.8c-0.2,0.2-1.1-0.2-1.8-1c-0.2-0.2-0.3-0.3-0.5-0.5
	c0,0.2,0,0.4,0,0.7c0,1.1-0.3,2-0.6,2c-0.3,0-0.6-0.9-0.6-2c0-0.2,0-0.5,0-0.7c-0.1,0.2-0.3,0.3-0.5,0.5c-0.8,0.8-1.6,1.2-1.8,1
	c-0.2-0.2,0.2-1.1,1-1.8c0.2-0.2,0.3-0.3,0.5-0.5c-0.2,0-0.4,0-0.7,0c-1.1,0-2-0.3-2-0.6c0-0.3,0.9-0.6,2-0.6c0.2,0,0.5,0,0.7,0
	c-0.2-0.1-0.3-0.3-0.5-0.5c-0.8-0.8-1.2-1.6-1-1.8c0.2-0.2,1.1,0.2,1.8,1c0.2,0.2,0.3,0.3,0.5,0.5c0-0.2,0-0.4,0-0.7
	c0-1.1,0.3-2,0.6-2c0.3,0,0.6,0.9,0.6,2c0,0.2,0,0.5,0,0.7c0.1-0.2,0.3-0.3,0.5-0.5c0.8-0.8,1.6-1.2,1.8-1c0.2,0.2-0.2,1.1-1,1.8
	c-0.2,0.2-0.3,0.3-0.5,0.5c0.2,0,0.4,0,0.7,0c1.1,0,2,0.3,2,0.6c0,0.3-0.9,0.6-2,0.6c-0.2,0-0.5,0-0.7,0
	C469.9,7.4,470.1,7.5,470.3,7.7z M431,8.4c1.7,0,3.1,0.4,3.1,0.9c0,0.5-1.4,0.9-3.1,0.9c-0.4,0-0.7,0-1.1-0.1
	c0.3,0.2,0.5,0.4,0.8,0.7c1.2,1.2,1.9,2.5,1.6,2.9c-0.4,0.4-1.6-0.3-2.9-1.6c-0.3-0.3-0.5-0.5-0.7-0.8c0,0.3,0.1,0.7,0.1,1.1
	c0,1.7-0.4,3.1-0.9,3.1c-0.5,0-0.9-1.4-0.9-3.1c0-0.4,0-0.7,0.1-1.1c-0.2,0.3-0.4,0.5-0.7,0.8c-1.2,1.2-2.5,1.9-2.9,1.6
	c-0.4-0.4,0.3-1.6,1.6-2.9c0.3-0.3,0.5-0.5,0.8-0.7c-0.3,0-0.7,0.1-1.1,0.1c-1.7,0-3.1-0.4-3.1-0.9c0-0.5,1.4-0.9,3.1-0.9
	c0.4,0,0.7,0,1.1,0.1c-0.3-0.2-0.5-0.4-0.8-0.7c-1.2-1.2-1.9-2.5-1.6-2.9c0.4-0.4,1.6,0.3,2.9,1.6c0.3,0.3,0.5,0.5,0.7,0.8
	c0-0.3-0.1-0.7-0.1-1.1c0-1.7,0.4-3.1,0.9-3.1c0.5,0,0.9,1.4,0.9,3.1c0,0.4,0,0.7-0.1,1.1c0.2-0.3,0.4-0.5,0.7-0.8
	c1.2-1.2,2.5-1.9,2.9-1.6c0.4,0.4-0.3,1.6-1.6,2.9c-0.3,0.3-0.5,0.5-0.8,0.7C430.2,8.4,430.6,8.4,431,8.4z M389.9,7.7
	c0.8,0.8,1.2,1.6,1,1.8c-0.2,0.2-1.1-0.2-1.8-1c-0.2-0.2-0.3-0.3-0.5-0.5c0,0.2,0,0.4,0,0.7c0,1.1-0.3,2-0.6,2s-0.6-0.9-0.6-2
	c0-0.2,0-0.5,0-0.7c-0.1,0.2-0.3,0.3-0.5,0.5c-0.8,0.8-1.6,1.2-1.8,1c-0.2-0.2,0.2-1.1,1-1.8c0.2-0.2,0.3-0.3,0.5-0.5
	c-0.2,0-0.4,0-0.7,0c-1.1,0-2-0.3-2-0.6c0-0.3,0.9-0.6,2-0.6c0.2,0,0.5,0,0.7,0c-0.2-0.1-0.3-0.3-0.5-0.5c-0.8-0.8-1.2-1.6-1-1.8
	c0.2-0.2,1.1,0.2,1.8,1c0.2,0.2,0.3,0.3,0.5,0.5c0-0.2,0-0.4,0-0.7c0-1.1,0.3-2,0.6-2s0.6,0.9,0.6,2c0,0.2,0,0.5,0,0.7
	c0.1-0.2,0.3-0.3,0.5-0.5c0.8-0.8,1.6-1.2,1.8-1c0.2,0.2-0.2,1.1-1,1.8c-0.2,0.2-0.3,0.3-0.5,0.5c0.2,0,0.4,0,0.7,0
	c1.1,0,2,0.3,2,0.6c0,0.3-0.9,0.6-2,0.6c-0.2,0-0.5,0-0.7,0C389.6,7.4,389.7,7.5,389.9,7.7z M350.6,8.4c1.7,0,3.1,0.4,3.1,0.9
	c0,0.5-1.4,0.9-3.1,0.9c-0.4,0-0.7,0-1.1-0.1c0.3,0.2,0.5,0.4,0.8,0.7c1.2,1.2,1.9,2.5,1.6,2.9c-0.4,0.4-1.6-0.3-2.9-1.6
	c-0.3-0.3-0.5-0.5-0.7-0.8c0,0.3,0.1,0.7,0.1,1.1c0,1.7-0.4,3.1-0.9,3.1s-0.9-1.4-0.9-3.1c0-0.4,0-0.7,0.1-1.1
	c-0.2,0.3-0.4,0.5-0.7,0.8c-1.2,1.2-2.5,1.9-2.9,1.6c-0.4-0.4,0.3-1.6,1.6-2.9c0.3-0.3,0.5-0.5,0.8-0.7c-0.3,0-0.7,0.1-1.1,0.1
	c-1.7,0-3.1-0.4-3.1-0.9c0-0.5,1.4-0.9,3.1-0.9c0.4,0,0.7,0,1.1,0.1c-0.3-0.2-0.5-0.4-0.8-0.7c-1.2-1.2-1.9-2.5-1.6-2.9
	c0.4-0.4,1.6,0.3,2.9,1.6c0.3,0.3,0.5,0.5,0.7,0.8c0-0.3-0.1-0.7-0.1-1.1c0-1.7,0.4-3.1,0.9-3.1s0.9,1.4,0.9,3.1
	c0,0.4,0,0.7-0.1,1.1c0.2-0.3,0.4-0.5,0.7-0.8c1.2-1.2,2.5-1.9,2.9-1.6c0.4,0.4-0.3,1.6-1.6,2.9c-0.3,0.3-0.5,0.5-0.8,0.7
	C349.9,8.4,350.2,8.4,350.6,8.4z M309.5,7.7c0.8,0.8,1.2,1.6,1,1.8c-0.2,0.2-1.1-0.2-1.8-1c-0.2-0.2-0.3-0.3-0.5-0.5
	c0,0.2,0,0.4,0,0.7c0,1.1-0.3,2-0.6,2c-0.3,0-0.6-0.9-0.6-2c0-0.2,0-0.5,0-0.7c-0.1,0.2-0.3,0.3-0.5,0.5c-0.8,0.8-1.6,1.2-1.8,1
	c-0.2-0.2,0.2-1.1,1-1.8c0.2-0.2,0.3-0.3,0.5-0.5c-0.2,0-0.4,0-0.7,0c-1.1,0-2-0.3-2-0.6c0-0.3,0.9-0.6,2-0.6c0.2,0,0.5,0,0.7,0
	c-0.2-0.1-0.3-0.3-0.5-0.5c-0.8-0.8-1.2-1.6-1-1.8c0.2-0.2,1.1,0.2,1.8,1c0.2,0.2,0.3,0.3,0.5,0.5c0-0.2,0-0.4,0-0.7
	c0-1.1,0.3-2,0.6-2c0.3,0,0.6,0.9,0.6,2c0,0.2,0,0.5,0,0.7c0.1-0.2,0.3-0.3,0.5-0.5c0.8-0.8,1.6-1.2,1.8-1c0.2,0.2-0.2,1.1-1,1.8
	c-0.2,0.2-0.3,0.3-0.5,0.5c0.2,0,0.4,0,0.7,0c1.1,0,2,0.3,2,0.6c0,0.3-0.9,0.6-2,0.6c-0.2,0-0.5,0-0.7,0
	C309.2,7.4,309.4,7.5,309.5,7.7z M270.2,8.4c1.7,0,3.1,0.4,3.1,0.9c0,0.5-1.4,0.9-3.1,0.9c-0.4,0-0.7,0-1.1-0.1
	c0.3,0.2,0.5,0.4,0.8,0.7c1.2,1.2,1.9,2.5,1.6,2.9c-0.4,0.4-1.7-0.3-2.9-1.6c-0.3-0.3-0.5-0.5-0.7-0.8c0,0.3,0.1,0.7,0.1,1.1
	c0,1.7-0.4,3.1-0.9,3.1c-0.5,0-0.9-1.4-0.9-3.1c0-0.4,0-0.7,0.1-1.1c-0.2,0.3-0.4,0.5-0.7,0.8c-1.2,1.2-2.5,1.9-2.9,1.6
	c-0.4-0.4,0.3-1.6,1.6-2.9c0.3-0.3,0.5-0.5,0.8-0.7c-0.3,0-0.7,0.1-1.1,0.1c-1.7,0-3.1-0.4-3.1-0.9c0-0.5,1.4-0.9,3.1-0.9
	c0.4,0,0.7,0,1.1,0.1c-0.3-0.2-0.5-0.4-0.8-0.7c-1.2-1.2-1.9-2.5-1.6-2.9c0.4-0.4,1.6,0.3,2.9,1.6c0.3,0.3,0.5,0.5,0.7,0.8
	c0-0.3-0.1-0.7-0.1-1.1c0-1.7,0.4-3.1,0.9-3.1c0.5,0,0.9,1.4,0.9,3.1c0,0.4,0,0.7-0.1,1.1c0.2-0.3,0.4-0.5,0.7-0.8
	c1.2-1.2,2.5-1.9,2.9-1.6c0.4,0.4-0.3,1.6-1.6,2.9c-0.3,0.3-0.5,0.5-0.8,0.7C269.5,8.4,269.9,8.4,270.2,8.4z M229.2,7.7
	c0.8,0.8,1.2,1.6,1,1.8c-0.2,0.2-1.1-0.2-1.8-1c-0.2-0.2-0.3-0.3-0.5-0.5c0,0.2,0,0.4,0,0.7c0,1.1-0.3,2-0.6,2c-0.3,0-0.6-0.9-0.6-2
	c0-0.2,0-0.5,0-0.7c-0.1,0.2-0.3,0.3-0.5,0.5c-0.8,0.8-1.6,1.2-1.8,1c-0.2-0.2,0.2-1.1,1-1.8c0.2-0.2,0.3-0.3,0.5-0.5
	c-0.2,0-0.4,0-0.7,0c-1.1,0-2-0.3-2-0.6c0-0.3,0.9-0.6,2-0.6c0.2,0,0.5,0,0.7,0c-0.2-0.1-0.3-0.3-0.5-0.5c-0.8-0.8-1.2-1.6-1-1.8
	c0.2-0.2,1.1,0.2,1.8,1c0.2,0.2,0.3,0.3,0.5,0.5c0-0.2,0-0.4,0-0.7c0-1.1,0.3-2,0.6-2c0.3,0,0.6,0.9,0.6,2c0,0.2,0,0.5,0,0.7
	c0.1-0.2,0.3-0.3,0.5-0.5c0.8-0.8,1.6-1.2,1.8-1c0.2,0.2-0.2,1.1-1,1.8c-0.2,0.2-0.3,0.3-0.5,0.5c0.2,0,0.4,0,0.7,0
	c1.1,0,2,0.3,2,0.6c0,0.3-0.9,0.6-2,0.6c-0.2,0-0.5,0-0.7,0C228.8,7.4,229,7.5,229.2,7.7z M189.9,8.4c1.7,0,3.1,0.4,3.1,0.9
	c0,0.5-1.4,0.9-3.1,0.9c-0.4,0-0.7,0-1.1-0.1c0.3,0.2,0.5,0.4,0.8,0.7c1.2,1.2,1.9,2.5,1.6,2.9c-0.4,0.4-1.7-0.3-2.9-1.6
	c-0.3-0.3-0.5-0.5-0.7-0.8c0,0.3,0.1,0.7,0.1,1.1c0,1.7-0.4,3.1-0.9,3.1s-0.9-1.4-0.9-3.1c0-0.4,0-0.7,0.1-1.1
	c-0.2,0.3-0.4,0.5-0.7,0.8c-1.2,1.2-2.5,1.9-2.9,1.6c-0.4-0.4,0.3-1.6,1.6-2.9c0.3-0.3,0.5-0.5,0.8-0.7c-0.3,0-0.7,0.1-1.1,0.1
	c-1.7,0-3.1-0.4-3.1-0.9c0-0.5,1.4-0.9,3.1-0.9c0.4,0,0.7,0,1.1,0.1c-0.3-0.2-0.5-0.4-0.8-0.7c-1.2-1.2-1.9-2.5-1.6-2.9
	c0.4-0.4,1.6,0.3,2.9,1.6c0.3,0.3,0.5,0.5,0.7,0.8c0-0.3-0.1-0.7-0.1-1.1c0-1.7,0.4-3.1,0.9-3.1s0.9,1.4,0.9,3.1
	c0,0.4,0,0.7-0.1,1.1c0.2-0.3,0.4-0.5,0.7-0.8c1.2-1.2,2.5-1.9,2.9-1.6c0.4,0.4-0.3,1.6-1.6,2.9c-0.3,0.3-0.5,0.5-0.8,0.7
	C189.2,8.4,189.5,8.4,189.9,8.4z M148.8,7.7c0.8,0.8,1.2,1.6,1,1.8c-0.2,0.2-1.1-0.2-1.8-1c-0.2-0.2-0.3-0.3-0.5-0.5
	c0,0.2,0,0.4,0,0.7c0,1.1-0.3,2-0.6,2c-0.3,0-0.6-0.9-0.6-2c0-0.2,0-0.5,0-0.7c-0.1,0.2-0.3,0.3-0.5,0.5c-0.8,0.8-1.6,1.2-1.8,1
	c-0.2-0.2,0.2-1.1,1-1.8c0.2-0.2,0.3-0.3,0.5-0.5c-0.2,0-0.4,0-0.7,0c-1.1,0-2-0.3-2-0.6c0-0.3,0.9-0.6,2-0.6c0.2,0,0.5,0,0.7,0
	c-0.2-0.1-0.3-0.3-0.5-0.5c-0.8-0.8-1.2-1.6-1-1.8c0.2-0.2,1.1,0.2,1.8,1c0.2,0.2,0.3,0.3,0.5,0.5c0-0.2,0-0.4,0-0.7
	c0-1.1,0.3-2,0.6-2c0.3,0,0.6,0.9,0.6,2c0,0.2,0,0.5,0,0.7c0.1-0.2,0.3-0.3,0.5-0.5c0.8-0.8,1.6-1.2,1.8-1c0.2,0.2-0.2,1.1-1,1.8
	c-0.2,0.2-0.3,0.3-0.5,0.5c0.2,0,0.4,0,0.7,0c1.1,0,2,0.3,2,0.6c0,0.3-0.9,0.6-2,0.6c-0.2,0-0.5,0-0.7,0
	C148.5,7.4,148.6,7.5,148.8,7.7z M109.5,8.4c1.7,0,3.1,0.4,3.1,0.9c0,0.5-1.4,0.9-3.1,0.9c-0.4,0-0.7,0-1.1-0.1
	c0.3,0.2,0.5,0.4,0.8,0.7c1.2,1.2,1.9,2.5,1.6,2.9c-0.4,0.4-1.7-0.3-2.9-1.6c-0.3-0.3-0.5-0.5-0.7-0.8c0,0.3,0.1,0.7,0.1,1.1
	c0,1.7-0.4,3.1-0.9,3.1s-0.9-1.4-0.9-3.1c0-0.4,0-0.7,0.1-1.1c-0.2,0.3-0.4,0.5-0.7,0.8c-1.2,1.2-2.5,1.9-2.9,1.6
	c-0.4-0.4,0.3-1.6,1.6-2.9c0.3-0.3,0.5-0.5,0.8-0.7c-0.3,0-0.7,0.1-1.1,0.1c-1.7,0-3.1-0.4-3.1-0.9c0-0.5,1.4-0.9,3.1-0.9
	c0.4,0,0.7,0,1.1,0.1c-0.3-0.2-0.5-0.4-0.8-0.7c-1.2-1.2-1.9-2.5-1.6-2.9c0.4-0.4,1.6,0.3,2.9,1.6c0.3,0.3,0.5,0.5,0.7,0.8
	c0-0.3-0.1-0.7-0.1-1.1c0-1.7,0.4-3.1,0.9-3.1s0.9,1.4,0.9,3.1c0,0.4,0,0.7-0.1,1.1c0.2-0.3,0.4-0.5,0.7-0.8
	c1.2-1.2,2.5-1.9,2.9-1.6c0.4,0.4-0.3,1.6-1.6,2.9c-0.3,0.3-0.5,0.5-0.8,0.7C108.8,8.4,109.1,8.4,109.5,8.4z M68.5,7.7
	c0.8,0.8,1.2,1.6,1,1.8c-0.2,0.2-1.1-0.2-1.8-1c-0.2-0.2-0.3-0.3-0.5-0.5c0,0.2,0,0.4,0,0.7c0,1.1-0.3,2-0.6,2c-0.3,0-0.6-0.9-0.6-2
	c0-0.2,0-0.5,0-0.7c-0.1,0.2-0.3,0.3-0.5,0.5c-0.8,0.8-1.6,1.2-1.8,1c-0.2-0.2,0.2-1.1,1-1.8c0.2-0.2,0.3-0.3,0.5-0.5
	c-0.2,0-0.4,0-0.7,0c-1.1,0-2-0.3-2-0.6c0-0.3,0.9-0.6,2-0.6c0.2,0,0.5,0,0.7,0c-0.2-0.1-0.3-0.3-0.5-0.5c-0.8-0.8-1.2-1.6-1-1.8
	c0.2-0.2,1.1,0.2,1.8,1c0.2,0.2,0.3,0.3,0.5,0.5c0-0.2,0-0.4,0-0.7c0-1.1,0.3-2,0.6-2c0.3,0,0.6,0.9,0.6,2c0,0.2,0,0.5,0,0.7
	c0.1-0.2,0.3-0.3,0.5-0.5c0.8-0.8,1.6-1.2,1.8-1c0.2,0.2-0.2,1.1-1,1.8c-0.2,0.2-0.3,0.3-0.5,0.5c0.2,0,0.4,0,0.7,0
	c1.1,0,2,0.3,2,0.6c0,0.3-0.9,0.6-2,0.6c-0.2,0-0.5,0-0.7,0C68.1,7.4,68.3,7.5,68.5,7.7z M55.6,7.2c-1.6,0.4-3.1,0.1-3.3-0.8
	c-0.2-0.9,0.9-1.9,2.5-2.3c1.6-0.4,3.1-0.1,3.3,0.8C58.3,5.8,57.2,6.8,55.6,7.2z M78.9,2.3c-0.3-0.1-0.7-0.1-1-0.1h10.5
	c-0.4,0.1-0.9,0.1-1.3,0.3c-1.9,0.5-3.4,1.4-4.5,2.4C82,3.7,80.7,2.8,78.9,2.3z M75.1,4.9c0.2-0.9,1.7-1.2,3.3-0.8
	c1.6,0.4,2.8,1.5,2.5,2.3c-0.2,0.9-1.7,1.2-3.3,0.8C76,6.8,74.9,5.8,75.1,4.9z M125.6,2.4c-0.4-0.1-0.9-0.2-1.3-0.3h11.4
	c-0.3,0-0.7,0.1-1,0.1c-2.1,0.5-3.5,1.8-3.9,3.2C129.7,4.1,127.9,3,125.6,2.4z M158.3,2.2h10.5c-0.4,0.1-0.9,0.1-1.3,0.3
	c-1.9,0.5-3.4,1.4-4.5,2.4c-0.6-1.1-1.9-2.1-3.6-2.5C158.9,2.2,158.6,2.2,158.3,2.2z M135.2,4.1c1.6-0.4,3.1-0.1,3.3,0.8
	c0.2,0.9-0.9,1.9-2.5,2.3c-1.6,0.4-3.1,0.1-3.3-0.8C132.4,5.6,133.5,4.6,135.2,4.1z M155.5,4.9c0.2-0.9,1.7-1.2,3.3-0.8
	c1.6,0.4,2.8,1.5,2.5,2.3c-0.2,0.9-1.7,1.2-3.3,0.8C156.4,6.8,155.3,5.8,155.5,4.9z M206,2.4c-0.4-0.1-0.9-0.2-1.3-0.3H216
	c-0.3,0-0.7,0.1-1,0.1c-2.1,0.5-3.5,1.8-3.9,3.2C210.1,4.1,208.3,3,206,2.4z M238.6,2.2h10.5c-0.4,0.1-0.9,0.1-1.3,0.3
	c-1.9,0.5-3.4,1.4-4.5,2.4c-0.6-1.1-1.9-2.1-3.6-2.5C239.3,2.2,239,2.2,238.6,2.2z M215.5,4.1c1.6-0.4,3.1-0.1,3.3,0.8
	c0.2,0.9-0.9,1.9-2.5,2.3c-1.6,0.4-3.1,0.1-3.3-0.8C212.8,5.6,213.9,4.6,215.5,4.1z M235.8,4.9c0.2-0.9,1.7-1.2,3.3-0.8
	c1.6,0.4,2.8,1.5,2.5,2.3c-0.2,0.9-1.7,1.2-3.3,0.8C236.7,6.8,235.6,5.8,235.8,4.9z M286.4,2.4c-0.4-0.1-0.9-0.2-1.3-0.3h11.4
	c-0.3,0-0.7,0.1-1,0.1c-2.1,0.5-3.5,1.8-3.9,3.2C290.4,4.1,288.6,3,286.4,2.4z M319,2.2h10.5c-0.4,0.1-0.9,0.1-1.3,0.3
	c-1.9,0.5-3.4,1.4-4.5,2.4c-0.6-1.1-1.9-2.1-3.6-2.5C319.7,2.2,319.3,2.2,319,2.2z M295.9,4.1c1.6-0.4,3.1-0.1,3.3,0.8
	c0.2,0.9-0.9,1.9-2.5,2.3c-1.6,0.4-3.1,0.1-3.3-0.8C293.1,5.6,294.3,4.6,295.9,4.1z M316.2,4.9c0.2-0.9,1.7-1.2,3.3-0.8
	c1.6,0.4,2.8,1.5,2.5,2.3c-0.2,0.9-1.7,1.2-3.3,0.8C317.1,6.8,316,5.8,316.2,4.9z M366.7,2.4c-0.4-0.1-0.9-0.2-1.3-0.3h11.4
	c-0.3,0-0.7,0.1-1,0.1c-2.1,0.5-3.5,1.8-3.9,3.2C370.8,4.1,369,3,366.7,2.4z M399.4,2.2h10.5c-0.4,0.1-0.9,0.1-1.3,0.3
	c-1.9,0.5-3.4,1.4-4.5,2.4c-0.6-1.1-1.9-2.1-3.6-2.5C400,2.2,399.7,2.2,399.4,2.2z M376.2,4.1c1.6-0.4,3.1-0.1,3.3,0.8
	c0.2,0.9-0.9,1.9-2.5,2.3c-1.6,0.4-3.1,0.1-3.3-0.8C373.5,5.6,374.6,4.6,376.2,4.1z M396.6,4.9c0.2-0.9,1.7-1.2,3.3-0.8
	c1.6,0.4,2.8,1.5,2.5,2.3c-0.2,0.9-1.7,1.2-3.3,0.8C397.5,6.8,396.3,5.8,396.6,4.9z M447.1,2.4c-0.4-0.1-0.9-0.2-1.3-0.3h11.4
	c-0.3,0-0.7,0.1-1,0.1c-2.1,0.5-3.5,1.8-3.9,3.2C451.1,4.1,449.3,3,447.1,2.4z M479.7,2.2h10.5c-0.4,0.1-0.9,0.1-1.3,0.3
	c-1.9,0.5-3.4,1.4-4.5,2.4c-0.6-1.1-1.9-2.1-3.6-2.5C480.4,2.2,480.1,2.2,479.7,2.2z M456.6,4.1c1.6-0.4,3.1-0.1,3.3,0.8
	c0.2,0.9-0.9,1.9-2.5,2.3c-1.6,0.4-3.1,0.1-3.3-0.8C453.9,5.6,455,4.6,456.6,4.1z M476.9,4.9c0.2-0.9,1.7-1.2,3.3-0.8
	c1.6,0.4,2.8,1.5,2.5,2.3c-0.2,0.9-1.7,1.2-3.3,0.8C477.8,6.8,476.7,5.8,476.9,4.9z M527.5,2.4c-0.4-0.1-0.9-0.2-1.3-0.3h11.4
	c-0.3,0-0.7,0.1-1,0.1c-2.1,0.5-3.5,1.8-3.9,3.2C531.5,4.1,529.7,3,527.5,2.4z M560.1,2.2h10.5c-0.4,0.1-0.9,0.1-1.3,0.3
	c-1.9,0.5-3.4,1.4-4.5,2.4c-0.6-1.1-1.9-2.1-3.6-2.5C560.8,2.2,560.4,2.2,560.1,2.2z M537,4.1c1.6-0.4,3.1-0.1,3.3,0.8
	c0.2,0.9-0.9,1.9-2.5,2.3c-1.6,0.4-3.1,0.1-3.3-0.8C534.2,5.6,535.3,4.6,537,4.1z M557.3,4.9c0.2-0.9,1.7-1.2,3.3-0.8
	c1.6,0.4,2.8,1.5,2.5,2.3c-0.2,0.9-1.7,1.2-3.3,0.8C558.2,6.8,557.1,5.8,557.3,4.9z M607.8,2.4c-0.4-0.1-0.9-0.2-1.3-0.3h11.4
	c-0.3,0-0.7,0.1-1,0.1c-2.1,0.5-3.5,1.8-3.9,3.2C611.9,4.1,610.1,3,607.8,2.4z M640.4,2.2h10.5c-0.4,0.1-0.9,0.1-1.3,0.3
	c-1.9,0.5-3.4,1.4-4.5,2.4c-0.6-1.1-1.9-2.1-3.6-2.5C641.1,2.2,640.8,2.2,640.4,2.2z M617.3,4.1c1.6-0.4,3.1-0.1,3.3,0.8
	c0.2,0.9-0.9,1.9-2.5,2.3c-1.6,0.4-3.1,0.1-3.3-0.8C614.6,5.6,615.7,4.6,617.3,4.1z M637.6,4.9c0.2-0.9,1.7-1.2,3.3-0.8
	c1.6,0.4,2.8,1.5,2.5,2.3c-0.2,0.9-1.7,1.2-3.3,0.8C638.6,6.8,637.4,5.8,637.6,4.9z M688.2,2.4c-0.4-0.1-0.9-0.2-1.3-0.3h11.4
	c-0.3,0-0.7,0.1-1,0.1c-2.1,0.5-3.5,1.8-3.9,3.2C692.2,4.1,690.4,3,688.2,2.4z M697.7,4.1c1.6-0.4,3.1-0.1,3.3,0.8
	c0.2,0.9-0.9,1.9-2.5,2.3c-1.6,0.4-3.1,0.1-3.3-0.8C694.9,5.6,696.1,4.6,697.7,4.1z M718,4.9c0.2-0.9,1.7-1.2,3.3-0.8
	c1.6,0.4,2.8,1.5,2.5,2.3c-0.2,0.9-1.7,1.2-3.3,0.8C718.9,6.8,717.8,5.8,718,4.9z M801.3,11.3c-0.7,0-1.6-0.2-2.5-0.8
	c-1.4-0.9-2.1-2.3-1.6-3c0.2-0.3,0.5-0.4,0.9-0.5c0.7-0.1,1.6,0.2,2.5,0.8c1.4,0.9,2.1,2.3,1.6,3C802.1,11.2,801.7,11.3,801.3,11.3z
	 M785.1,16.7c-0.8-0.3-1.1-1.8-0.5-3.4c0.5-1.4,1.4-2.4,2.2-2.4c0.1,0,0.2,0,0.3,0c0.8,0.3,1.1,1.8,0.5,3.4
	c-0.5,1.4-1.4,2.4-2.2,2.4C785.3,16.8,785.2,16.8,785.1,16.7z M780.8,14.4c-0.7-0.5-0.4-2,0.6-3.4c0.8-1,1.7-1.6,2.5-1.6
	c0.2,0,0.5,0.1,0.6,0.2c0.7,0.5,0.4,2-0.6,3.4c-0.8,1-1.7,1.6-2.5,1.6C781.2,14.6,781,14.6,780.8,14.4z M777.5,10.9
	c-0.5-0.7,0.3-2.1,1.6-3c0.9-0.6,1.8-0.8,2.5-0.8c0.4,0,0.7,0.2,0.9,0.5c0.5,0.7-0.3,2.1-1.6,3c-0.9,0.6-1.8,0.8-2.5,0.8
	C778,11.3,777.7,11.2,777.5,10.9z M767.2,16.6c-1.1,0.1-2.5-0.3-3.9-1.2c-2.2-1.4-3.3-3.5-2.6-4.7c0.3-0.4,0.8-0.7,1.4-0.7
	c1.1-0.1,2.5,0.3,3.9,1.2c2.2,1.4,3.3,3.5,2.6,4.7C768.4,16.3,767.9,16.5,767.2,16.6z M741.8,25.1c-1.3-0.4-1.7-2.8-0.8-5.3
	c0.7-2.2,2.2-3.7,3.4-3.7c0.2,0,0.3,0,0.5,0.1c1.3,0.4,1.7,2.8,0.8,5.3c-0.7,2.2-2.2,3.7-3.4,3.8C742.1,25.1,741.9,25.1,741.8,25.1z
	 M735.1,21.5c-1.1-0.8-0.7-3.2,0.9-5.3c1.2-1.6,2.7-2.5,3.9-2.5c0.4,0,0.7,0.1,1,0.3c1.1,0.8,0.7,3.2-0.9,5.3
	c-1.2,1.6-2.7,2.5-3.9,2.5C735.7,21.8,735.3,21.7,735.1,21.5z M729.9,15.9c-0.8-1.2,0.4-3.3,2.6-4.7c1.4-0.9,2.8-1.3,3.9-1.2
	c0.6,0.1,1.2,0.3,1.4,0.7c0.8,1.2-0.4,3.3-2.6,4.7c-1.4,0.9-2.8,1.3-3.9,1.2C730.7,16.5,730.2,16.3,729.9,15.9z M747.7,6.5
	c0.3,0.3,0.5,0.5,0.7,0.8c0,0,0,0,0,0c0,0,0,0,0,0c0-0.3-0.1-0.7-0.1-1.1c0-1.7,0.4-3.1,0.9-3.1c0.5,0,0.9,1.4,0.9,3.1
	c0,0.4,0,0.7-0.1,1.1c0,0,0,0,0,0c0,0,0,0,0,0c0.2-0.3,0.4-0.5,0.7-0.8c1.1-1.1,2.2-1.7,2.7-1.7c0.1,0,0.1,0,0.2,0.1
	c0.4,0.4-0.3,1.6-1.6,2.9c-0.3,0.3-0.5,0.5-0.8,0.7c0,0,0,0,0,0c0,0,0,0,0,0c0.3,0,0.7-0.1,1.1-0.1c1.7,0,3.1,0.4,3.1,0.9
	c0,0.5-1.4,0.9-3.1,0.9c-0.4,0-0.7,0-1.1-0.1l0,0c0,0,0,0,0,0c0.3,0.2,0.5,0.4,0.8,0.7c1.2,1.2,1.9,2.5,1.6,2.9c0,0-0.1,0.1-0.2,0.1
	c-0.5,0.1-1.6-0.6-2.7-1.7c-0.3-0.3-0.5-0.5-0.7-0.8c0,0,0,0,0,0c0,0,0,0,0,0c0,0.3,0.1,0.7,0.1,1.1c0,1.7-0.4,3.1-0.9,3.1
	c-0.5,0-0.9-1.4-0.9-3.1c0-0.4,0-0.7,0.1-1.1c0,0,0,0,0,0c0,0,0,0,0,0c-0.2,0.3-0.4,0.5-0.7,0.8c-1.1,1.1-2.2,1.7-2.7,1.7
	c-0.1,0-0.1,0-0.2-0.1c-0.4-0.4,0.3-1.6,1.6-2.9c0.3-0.3,0.5-0.5,0.8-0.7c0,0,0,0,0,0c0,0,0,0,0,0c-0.3,0-0.7,0.1-1,0.1
	c-1.7,0-3.1-0.4-3.1-0.9c0-0.5,1.4-0.9,3.1-0.9c0.4,0,0.7,0,1,0.1c0,0,0,0,0,0c0,0,0,0,0,0c-0.3-0.2-0.5-0.4-0.8-0.7
	c-1.2-1.2-1.9-2.5-1.6-2.9c0,0,0.1-0.1,0.2-0.1C745.5,4.7,746.6,5.4,747.7,6.5z M790.5,4.7c0,0.2,0,0.5,0,0.7c0,0,0,0,0,0
	c0,0,0,0,0,0c0.1-0.2,0.3-0.3,0.5-0.5c0.7-0.7,1.4-1.1,1.7-1.1c0,0,0.1,0,0.1,0.1c0.2,0.2-0.2,1.1-1,1.8c-0.2,0.2-0.3,0.3-0.5,0.5
	c0,0,0,0,0,0c0,0,0,0,0,0c0.2,0,0.4,0,0.7,0c1.1,0,2,0.3,2,0.6c0,0.3-0.9,0.6-2,0.6c-0.2,0-0.5,0-0.7,0c0,0,0,0,0,0c0,0,0,0,0,0
	c0.2,0.1,0.3,0.3,0.5,0.5c0.8,0.8,1.2,1.6,1,1.8c0,0-0.1,0-0.1,0.1c-0.3,0-1-0.4-1.7-1.1c-0.2-0.2-0.3-0.3-0.5-0.5c0,0,0,0,0,0
	c0,0,0,0,0,0c0,0.2,0,0.4,0,0.7c0,1.1-0.3,2-0.6,2c-0.3,0-0.6-0.9-0.6-2c0-0.2,0-0.5,0-0.7c0,0,0,0,0,0c0,0,0,0,0,0
	c-0.1,0.2-0.3,0.3-0.5,0.5c-0.7,0.7-1.4,1.1-1.7,1.1c0,0-0.1,0-0.1-0.1c-0.2-0.2,0.2-1.1,1-1.8c0.2-0.2,0.3-0.3,0.5-0.5c0,0,0,0,0,0
	l0,0c-0.2,0-0.4,0-0.7,0c-1.1,0-2-0.3-2-0.6c0-0.3,0.9-0.6,2-0.6c0.2,0,0.5,0,0.7,0l0,0c0,0,0,0,0,0c-0.2-0.1-0.3-0.3-0.5-0.5
	c-0.8-0.8-1.2-1.6-1-1.8c0,0,0.1,0,0.1-0.1c0.3,0,1,0.4,1.7,1.1c0.2,0.2,0.3,0.3,0.5,0.5c0,0,0,0,0,0c0,0,0,0,0,0c0-0.2,0-0.4,0-0.7
	c0-1.1,0.3-2,0.6-2C790.2,2.7,790.5,3.6,790.5,4.7z M801.7,4.1c1.6,0.4,2.8,1.5,2.5,2.3c-0.2,0.6-1,1-2.1,1c-0.4,0-0.8-0.1-1.2-0.2
	c-1.6-0.4-2.8-1.4-2.5-2.3c0.2-0.6,1-1,2.1-1C800.9,4,801.3,4,801.7,4.1z M775.5,6.4c-0.2-0.9,0.9-1.9,2.5-2.3
	c0.4-0.1,0.8-0.2,1.2-0.2c1.1,0,2,0.3,2.1,1c0.2,0.9-0.9,1.9-2.5,2.3c-0.4,0.1-0.8,0.2-1.2,0.2C776.6,7.4,775.7,7.1,775.5,6.4z
	 M730.8,5.3c0.6-0.2,1.3-0.3,1.8-0.3c1.7-0.1,3.1,0.5,3.4,1.5c0.3,1.3-1.4,2.9-4,3.6c-0.6,0.2-1.3,0.3-1.8,0.3
	c-1.7,0.1-3.1-0.5-3.4-1.5C726.4,7.6,728.2,6,730.8,5.3z M746.8,21.6c0-2.6,1.1-4.7,2.5-4.7c1.4,0,2.5,2.1,2.5,4.7
	c0,2.6-1.1,4.7-2.5,4.7C747.9,26.3,746.8,24.2,746.8,21.6z M756.3,25.1c-1.2-0.1-2.6-1.6-3.4-3.8c-0.8-2.5-0.5-4.8,0.8-5.3
	c0.2-0.1,0.3-0.1,0.5-0.1c1.2,0.1,2.6,1.6,3.4,3.7c0.8,2.5,0.5,4.8-0.8,5.3C756.6,25.1,756.4,25.1,756.3,25.1z M762.5,21.8
	c-1.1,0-2.7-1-3.9-2.5c-1.6-2.1-2-4.4-0.9-5.3c0.3-0.2,0.6-0.3,1-0.3c1.1,0,2.7,1,3.9,2.5c1.6,2.1,2,4.4,0.9,5.3
	C763.2,21.7,762.9,21.8,762.5,21.8z M766.5,10.1c-2.5-0.7-4.3-2.3-4-3.6c0.3-1,1.6-1.6,3.4-1.5c0.6,0,1.2,0.1,1.8,0.3
	c2.5,0.7,4.3,2.3,4,3.6c-0.3,1-1.6,1.6-3.4,1.5C767.8,10.4,767.2,10.3,766.5,10.1z M788.3,14.5c0-1.7,0.7-3,1.6-3
	c0.9,0,1.6,1.4,1.6,3c0,1.7-0.7,3-1.6,3C789,17.5,788.3,16.2,788.3,14.5z M794.4,16.8c-0.8,0-1.7-1-2.2-2.4
	c-0.5-1.6-0.3-3.1,0.5-3.4c0.1,0,0.2,0,0.3,0c0.8,0,1.7,1,2.2,2.4c0.5,1.6,0.3,3.1-0.5,3.4C794.6,16.8,794.5,16.8,794.4,16.8z
	 M798.3,14.6c-0.7,0-1.7-0.6-2.5-1.6c-1-1.3-1.3-2.8-0.6-3.4c0.2-0.1,0.4-0.2,0.6-0.2c0.7,0,1.7,0.6,2.5,1.6c1,1.3,1.3,2.8,0.6,3.4
	C798.8,14.6,798.6,14.6,798.3,14.6z M777.6,2.3c-2.1,0.5-3.5,1.8-3.9,3.2c-1.1-1.4-2.9-2.5-5.1-3.1c-0.4-0.1-0.9-0.2-1.3-0.3h11.3
	C778.2,2.2,777.9,2.2,777.6,2.3z M811.7,2.2c-0.4,0.1-0.9,0.1-1.3,0.3c-1.9,0.5-3.4,1.4-4.5,2.4c-0.1-0.2-0.2-0.3-0.3-0.5
	c0,0,0,0,0,0c-0.1-0.2-0.3-0.3-0.4-0.5c0,0-0.1-0.1-0.1-0.1c-0.3-0.3-0.7-0.6-1.2-0.9c0,0,0,0,0,0c-0.2-0.1-0.5-0.2-0.7-0.3
	c0,0,0,0-0.1,0c-0.3-0.1-0.5-0.2-0.8-0.3c-0.3-0.1-0.7-0.1-1-0.1h5H811.7z M731.3,2.2c-0.4,0.1-0.9,0.1-1.3,0.3c0,0-0.1,0-0.1,0
	c-0.4,0.1-0.7,0.2-1.1,0.3c-0.1,0-0.2,0.1-0.3,0.1c-0.3,0.1-0.6,0.3-0.9,0.4c-0.1,0.1-0.3,0.1-0.4,0.2c-0.2,0.1-0.5,0.3-0.7,0.4
	c-0.1,0.1-0.3,0.2-0.4,0.3c-0.2,0.1-0.4,0.3-0.5,0.4c-0.1,0.1-0.1,0.1-0.2,0.2c-0.6-1.1-1.9-2.1-3.6-2.5c-0.3-0.1-0.7-0.1-1-0.1h8.6
	H731.3z M44,2.2h11.4c-0.3,0-0.7,0.1-1,0.1c-2.1,0.5-3.5,1.8-3.9,3.2c-1.1-1.4-2.9-2.5-5.1-3.1C44.8,2.3,44.4,2.2,44,2.2z M24.4,6.5
	c0.3,0.3,0.5,0.5,0.7,0.8c0-0.3-0.1-0.7-0.1-1.1c0-1.7,0.4-3.1,0.9-3.1s0.9,1.4,0.9,3.1c0,0.4,0,0.7-0.1,1.1
	c0.2-0.3,0.4-0.5,0.7-0.8c1.2-1.2,2.5-1.9,2.9-1.6c0.4,0.4-0.3,1.6-1.6,2.9c-0.3,0.3-0.5,0.5-0.8,0.7c0.3,0,0.7-0.1,1.1-0.1
	c1.7,0,3.1,0.4,3.1,0.9c0,0.5-1.4,0.9-3.1,0.9c-0.4,0-0.7,0-1.1-0.1c0.3,0.2,0.5,0.4,0.8,0.7c1.2,1.2,1.9,2.5,1.6,2.9
	c-0.4,0.4-1.7-0.3-2.9-1.6c-0.3-0.3-0.5-0.5-0.7-0.8c0,0.3,0.1,0.7,0.1,1.1c0,1.7-0.4,3.1-0.9,3.1s-0.9-1.4-0.9-3.1
	c0-0.4,0-0.7,0.1-1.1c-0.2,0.3-0.4,0.5-0.7,0.8c-1.2,1.2-2.5,1.9-2.9,1.6c-0.4-0.4,0.3-1.6,1.6-2.9c0.3-0.3,0.5-0.5,0.8-0.7
	c-0.3,0-0.7,0.1-1.1,0.1c-1.7,0-3.1-0.4-3.1-0.9c0-0.5,1.4-0.9,3.1-0.9c0.4,0,0.7,0,1.1,0.1c-0.3-0.2-0.5-0.4-0.8-0.7
	c-1.2-1.2-1.9-2.5-1.6-2.9C21.9,4.5,23.2,5.2,24.4,6.5z M3.5,8.9C3.2,7.6,5,6,7.5,5.3c2.5-0.7,4.9-0.1,5.2,1.2
	c0.3,1.3-1.4,2.9-4,3.6C6.2,10.8,3.9,10.3,3.5,8.9z M6.6,15.9c-0.8-1.2,0.4-3.3,2.6-4.7c2.2-1.4,4.6-1.7,5.3-0.5
	c0.8,1.2-0.4,3.3-2.6,4.7C9.8,16.8,7.4,17,6.6,15.9z M11.8,21.5c-1.1-0.8-0.7-3.2,0.9-5.3c1.6-2.1,3.8-3.1,4.9-2.2
	c1.1,0.8,0.7,3.2-0.9,5.3C15.1,21.3,12.9,22.3,11.8,21.5z M18.5,25.1c-1.3-0.4-1.7-2.8-0.8-5.3c0.8-2.5,2.6-4.1,3.9-3.7
	c1.3,0.4,1.7,2.8,0.8,5.3C21.5,23.9,19.8,25.5,18.5,25.1z M26,26.3c-1.4,0-2.5-2.1-2.5-4.7c0-2.6,1.1-4.7,2.5-4.7s2.5,2.1,2.5,4.7
	C28.5,24.2,27.4,26.3,26,26.3z M33.5,25.1c-1.3,0.4-3-1.2-3.9-3.7c-0.8-2.5-0.5-4.8,0.8-5.3c1.3-0.4,3,1.2,3.9,3.7
	C35.2,22.3,34.8,24.6,33.5,25.1z M40.2,21.5c-1.1,0.8-3.3-0.2-4.9-2.2c-1.6-2.1-2-4.4-0.9-5.3c1.1-0.8,3.3,0.2,4.9,2.2
	C40.9,18.3,41.3,20.6,40.2,21.5z M45.4,15.9c-0.8,1.2-3.1,0.9-5.3-0.5c-2.2-1.4-3.3-3.5-2.6-4.7c0.8-1.2,3.1-0.9,5.3,0.5
	C45,12.6,46.2,14.7,45.4,15.9z M48.5,8.9c-0.3,1.3-2.7,1.9-5.2,1.2c-2.5-0.7-4.3-2.3-4-3.6c0.3-1.3,2.7-1.9,5.2-1.2
	C47.1,6,48.8,7.6,48.5,8.9z M54.2,10.9c-0.5-0.7,0.3-2.1,1.6-3c1.4-0.9,2.9-1.1,3.4-0.3s-0.3,2.1-1.6,3
	C56.2,11.5,54.7,11.6,54.2,10.9z M57.5,14.4c-0.7-0.5-0.4-2,0.6-3.4c1-1.3,2.4-2,3.1-1.4c0.7,0.5,0.4,2-0.6,3.4
	C59.6,14.3,58.2,15,57.5,14.4z M61.8,16.7c-0.8-0.3-1.1-1.8-0.5-3.4c0.5-1.6,1.7-2.6,2.5-2.3c0.8,0.3,1.1,1.8,0.5,3.4
	C63.8,16,62.7,17,61.8,16.7z M66.6,17.5c-0.9,0-1.6-1.4-1.6-3c0-1.7,0.7-3,1.6-3c0.9,0,1.6,1.4,1.6,3C68.2,16.2,67.5,17.5,66.6,17.5
	z M71.4,16.7c-0.8,0.3-1.9-0.8-2.5-2.3c-0.5-1.6-0.3-3.1,0.5-3.4c0.8-0.3,1.9,0.8,2.5,2.3C72.5,14.9,72.2,16.5,71.4,16.7z
	 M75.7,14.4C75,15,73.6,14.3,72.6,13c-1-1.3-1.3-2.8-0.6-3.4c0.7-0.5,2.1,0.1,3.1,1.4C76.1,12.4,76.4,13.9,75.7,14.4z M79,10.9
	c-0.5,0.7-2,0.6-3.4-0.3c-1.4-0.9-2.1-2.3-1.6-3s2-0.6,3.4,0.3C78.7,8.8,79.5,10.1,79,10.9z M83.9,8.9c-0.3-1.3,1.4-2.9,4-3.6
	c2.5-0.7,4.9-0.1,5.2,1.2c0.3,1.3-1.4,2.9-4,3.6C86.6,10.8,84.2,10.3,83.9,8.9z M87,15.9c-0.8-1.2,0.4-3.3,2.6-4.7
	c2.2-1.4,4.6-1.7,5.3-0.5c0.8,1.2-0.4,3.3-2.6,4.7C90.1,16.8,87.7,17,87,15.9z M92.2,21.5c-1.1-0.8-0.7-3.2,0.9-5.3
	c1.6-2.1,3.8-3.1,4.9-2.2c1.1,0.8,0.7,3.2-0.9,5.3C95.4,21.3,93.2,22.3,92.2,21.5z M98.9,25.1c-1.3-0.4-1.7-2.8-0.8-5.3
	c0.8-2.5,2.6-4.1,3.9-3.7c1.3,0.4,1.7,2.8,0.8,5.3C101.9,23.9,100.2,25.5,98.9,25.1z M106.4,26.3c-1.4,0-2.5-2.1-2.5-4.7
	c0-2.6,1.1-4.7,2.5-4.7s2.5,2.1,2.5,4.7C108.9,24.2,107.7,26.3,106.4,26.3z M113.9,25.1c-1.3,0.4-3-1.2-3.9-3.7
	c-0.8-2.5-0.5-4.8,0.8-5.3c1.3-0.4,3,1.2,3.9,3.7C115.6,22.3,115.2,24.6,113.9,25.1z M120.6,21.5c-1.1,0.8-3.3-0.2-4.9-2.2
	c-1.6-2.1-2-4.4-0.9-5.3c1.1-0.8,3.3,0.2,4.9,2.2C121.3,18.3,121.7,20.6,120.6,21.5z M125.8,15.9c-0.8,1.2-3.1,0.9-5.3-0.5
	c-2.2-1.4-3.3-3.5-2.6-4.7c0.8-1.2,3.1-0.9,5.3,0.5C125.4,12.6,126.5,14.7,125.8,15.9z M128.9,8.9c-0.3,1.3-2.7,1.9-5.2,1.2
	c-2.5-0.7-4.3-2.3-4-3.6c0.3-1.3,2.7-1.9,5.2-1.2C127.4,6,129.2,7.6,128.9,8.9z M134.6,10.9c-0.5-0.7,0.3-2.1,1.6-3
	c1.4-0.9,2.9-1.1,3.4-0.3s-0.3,2.1-1.6,3C136.6,11.5,135.1,11.6,134.6,10.9z M137.9,14.4c-0.7-0.5-0.4-2,0.6-3.4
	c1-1.3,2.4-2,3.1-1.4c0.7,0.5,0.4,2-0.6,3.4C140,14.3,138.6,15,137.9,14.4z M142.2,16.7c-0.8-0.3-1.1-1.8-0.5-3.4
	c0.5-1.6,1.7-2.6,2.5-2.3c0.8,0.3,1.1,1.8,0.5,3.4C144.1,16,143,17,142.2,16.7z M147,17.5c-0.9,0-1.6-1.4-1.6-3c0-1.7,0.7-3,1.6-3
	c0.9,0,1.6,1.4,1.6,3C148.6,16.2,147.9,17.5,147,17.5z M151.8,16.7c-0.8,0.3-1.9-0.8-2.5-2.3c-0.5-1.6-0.3-3.1,0.5-3.4
	c0.8-0.3,1.9,0.8,2.5,2.3C152.8,14.9,152.6,16.5,151.8,16.7z M156.1,14.4c-0.7,0.5-2.1-0.1-3.1-1.4c-1-1.3-1.3-2.8-0.6-3.4
	c0.7-0.5,2.1,0.1,3.1,1.4C156.5,12.4,156.7,13.9,156.1,14.4z M159.4,10.9c-0.5,0.7-2,0.6-3.4-0.3c-1.4-0.9-2.1-2.3-1.6-3
	s2-0.6,3.4,0.3C159.1,8.8,159.8,10.1,159.4,10.9z M164.2,8.9c-0.3-1.3,1.4-2.9,4-3.6c2.5-0.7,4.9-0.1,5.2,1.2c0.3,1.3-1.4,2.9-4,3.6
	C166.9,10.8,164.6,10.3,164.2,8.9z M167.3,15.9c-0.8-1.2,0.4-3.3,2.6-4.7c2.2-1.4,4.6-1.7,5.3-0.5c0.8,1.2-0.4,3.3-2.6,4.7
	C170.5,16.8,168.1,17,167.3,15.9z M172.5,21.5c-1.1-0.8-0.7-3.2,0.9-5.3c1.6-2.1,3.8-3.1,4.9-2.2c1.1,0.8,0.7,3.2-0.9,5.3
	C175.8,21.3,173.6,22.3,172.5,21.5z M179.2,25.1c-1.3-0.4-1.7-2.8-0.8-5.3c0.8-2.5,2.6-4.1,3.9-3.7c1.3,0.4,1.7,2.8,0.8,5.3
	C182.3,23.9,180.5,25.5,179.2,25.1z M186.7,26.3c-1.4,0-2.5-2.1-2.5-4.7c0-2.6,1.1-4.7,2.5-4.7c1.4,0,2.5,2.1,2.5,4.7
	C189.2,24.2,188.1,26.3,186.7,26.3z M194.2,25.1c-1.3,0.4-3-1.2-3.9-3.7c-0.8-2.5-0.5-4.8,0.8-5.3c1.3-0.4,3,1.2,3.9,3.7
	C195.9,22.3,195.5,24.6,194.2,25.1z M200.9,21.5c-1.1,0.8-3.3-0.2-4.9-2.2c-1.6-2.1-2-4.4-0.9-5.3c1.1-0.8,3.3,0.2,4.9,2.2
	C201.6,18.3,202,20.6,200.9,21.5z M206.1,15.9c-0.8,1.2-3.1,0.9-5.3-0.5c-2.2-1.4-3.3-3.5-2.6-4.7c0.8-1.2,3.1-0.9,5.3,0.5
	C205.7,12.6,206.9,14.7,206.1,15.9z M209.2,8.9c-0.3,1.3-2.7,1.9-5.2,1.2c-2.5-0.7-4.3-2.3-4-3.6c0.3-1.3,2.7-1.9,5.2-1.2
	C207.8,6,209.6,7.6,209.2,8.9z M215,10.9c-0.5-0.7,0.3-2.1,1.6-3c1.4-0.9,2.9-1.1,3.4-0.3s-0.3,2.1-1.6,3
	C217,11.5,215.4,11.6,215,10.9z M218.3,14.4c-0.7-0.5-0.4-2,0.6-3.4c1-1.3,2.4-2,3.1-1.4c0.7,0.5,0.4,2-0.6,3.4
	C220.4,14.3,219,15,218.3,14.4z M222.5,16.7c-0.8-0.3-1.1-1.8-0.5-3.4c0.5-1.6,1.7-2.6,2.5-2.3c0.8,0.3,1.1,1.8,0.5,3.4
	C224.5,16,223.4,17,222.5,16.7z M227.3,17.5c-0.9,0-1.6-1.4-1.6-3c0-1.7,0.7-3,1.6-3c0.9,0,1.6,1.4,1.6,3
	C228.9,16.2,228.2,17.5,227.3,17.5z M232.1,16.7c-0.8,0.3-1.9-0.8-2.5-2.3c-0.5-1.6-0.3-3.1,0.5-3.4c0.8-0.3,1.9,0.8,2.5,2.3
	C233.2,14.9,233,16.5,232.1,16.7z M236.4,14.4c-0.7,0.5-2.1-0.1-3.1-1.4c-1-1.3-1.3-2.8-0.6-3.4c0.7-0.5,2.1,0.1,3.1,1.4
	C236.8,12.4,237.1,13.9,236.4,14.4z M239.7,10.9c-0.5,0.7-2,0.6-3.4-0.3c-1.4-0.9-2.1-2.3-1.6-3c0.5-0.7,2-0.6,3.4,0.3
	C239.5,8.8,240.2,10.1,239.7,10.9z M244.6,8.9c-0.3-1.3,1.4-2.9,4-3.6c2.5-0.7,4.9-0.1,5.2,1.2c0.3,1.3-1.4,2.9-4,3.6
	C247.3,10.8,245,10.3,244.6,8.9z M247.7,15.9c-0.8-1.2,0.4-3.3,2.6-4.7c2.2-1.4,4.6-1.7,5.3-0.5c0.8,1.2-0.4,3.3-2.6,4.7
	C250.8,16.8,248.5,17,247.7,15.9z M252.9,21.5c-1.1-0.8-0.7-3.2,0.9-5.3c1.6-2.1,3.8-3.1,4.9-2.2c1.1,0.8,0.7,3.2-0.9,5.3
	C256.1,21.3,254,22.3,252.9,21.5z M259.6,25.1c-1.3-0.4-1.7-2.8-0.8-5.3c0.8-2.5,2.6-4.1,3.9-3.7c1.3,0.4,1.7,2.8,0.8,5.3
	C262.6,23.9,260.9,25.5,259.6,25.1z M267.1,26.3c-1.4,0-2.5-2.1-2.5-4.7c0-2.6,1.1-4.7,2.5-4.7s2.5,2.1,2.5,4.7
	C269.6,24.2,268.5,26.3,267.1,26.3z M274.6,25.1c-1.3,0.4-3-1.2-3.9-3.7c-0.8-2.5-0.5-4.8,0.8-5.3c1.3-0.4,3,1.2,3.9,3.7
	C276.3,22.3,275.9,24.6,274.6,25.1z M281.3,21.5c-1.1,0.8-3.3-0.2-4.9-2.2c-1.6-2.1-2-4.4-0.9-5.3c1.1-0.8,3.3,0.2,4.9,2.2
	C282,18.3,282.4,20.6,281.3,21.5z M286.5,15.9c-0.8,1.2-3.1,0.9-5.3-0.5c-2.2-1.4-3.3-3.5-2.6-4.7c0.8-1.2,3.1-0.9,5.3,0.5
	C286.1,12.6,287.2,14.7,286.5,15.9z M289.6,8.9c-0.3,1.3-2.7,1.9-5.2,1.2c-2.5-0.7-4.3-2.3-4-3.6c0.3-1.3,2.7-1.9,5.2-1.2
	C288.1,6,289.9,7.6,289.6,8.9z M295.3,10.9c-0.5-0.7,0.3-2.1,1.6-3c1.4-0.9,2.9-1.1,3.4-0.3s-0.3,2.1-1.6,3
	C297.3,11.5,295.8,11.6,295.3,10.9z M298.6,14.4c-0.7-0.5-0.4-2,0.6-3.4c1-1.3,2.4-2,3.1-1.4c0.7,0.5,0.4,2-0.6,3.4
	C300.7,14.3,299.3,15,298.6,14.4z M302.9,16.7c-0.8-0.3-1.1-1.8-0.5-3.4c0.5-1.6,1.7-2.6,2.5-2.3c0.8,0.3,1.1,1.8,0.5,3.4
	C304.9,16,303.7,17,302.9,16.7z M307.7,17.5c-0.9,0-1.6-1.4-1.6-3c0-1.7,0.7-3,1.6-3c0.9,0,1.6,1.4,1.6,3
	C309.3,16.2,308.6,17.5,307.7,17.5z M312.5,16.7c-0.8,0.3-1.9-0.8-2.5-2.3c-0.5-1.6-0.3-3.1,0.5-3.4c0.8-0.3,1.9,0.8,2.5,2.3
	C313.6,14.9,313.3,16.5,312.5,16.7z M316.8,14.4c-0.7,0.5-2.1-0.1-3.1-1.4c-1-1.3-1.3-2.8-0.6-3.4c0.7-0.5,2.1,0.1,3.1,1.4
	C317.2,12.4,317.5,13.9,316.8,14.4z M320.1,10.9c-0.5,0.7-2,0.6-3.4-0.3c-1.4-0.9-2.1-2.3-1.6-3c0.5-0.7,2-0.6,3.4,0.3
	C319.8,8.8,320.6,10.1,320.1,10.9z M325,8.9c-0.3-1.3,1.4-2.9,4-3.6c2.5-0.7,4.9-0.1,5.2,1.2c0.3,1.3-1.4,2.9-4,3.6
	C327.6,10.8,325.3,10.3,325,8.9z M328.1,15.9c-0.8-1.2,0.4-3.3,2.6-4.7c2.2-1.4,4.6-1.7,5.3-0.5c0.8,1.2-0.4,3.3-2.6,4.7
	C331.2,16.8,328.8,17,328.1,15.9z M333.2,21.5c-1.1-0.8-0.7-3.2,0.9-5.3c1.6-2.1,3.8-3.1,4.9-2.2c1.1,0.8,0.7,3.2-0.9,5.3
	C336.5,21.3,334.3,22.3,333.2,21.5z M339.9,25.1c-1.3-0.4-1.7-2.8-0.8-5.3c0.8-2.5,2.6-4.1,3.9-3.7c1.3,0.4,1.7,2.8,0.8,5.3
	C343,23.9,341.2,25.5,339.9,25.1z M347.5,26.3c-1.4,0-2.5-2.1-2.5-4.7c0-2.6,1.1-4.7,2.5-4.7c1.4,0,2.5,2.1,2.5,4.7
	C349.9,24.2,348.8,26.3,347.5,26.3z M355,25.1c-1.3,0.4-3-1.2-3.9-3.7c-0.8-2.5-0.5-4.8,0.8-5.3c1.3-0.4,3,1.2,3.9,3.7
	C356.6,22.3,356.3,24.6,355,25.1z M361.7,21.5c-1.1,0.8-3.3-0.2-4.9-2.2c-1.6-2.1-2-4.4-0.9-5.3c1.1-0.8,3.3,0.2,4.9,2.2
	C362.3,18.3,362.8,20.6,361.7,21.5z M366.8,15.9c-0.8,1.2-3.1,0.9-5.3-0.5c-2.2-1.4-3.3-3.5-2.6-4.7c0.8-1.2,3.1-0.9,5.3,0.5
	C366.4,12.6,367.6,14.7,366.8,15.9z M369.9,8.9c-0.3,1.3-2.7,1.9-5.2,1.2c-2.5-0.7-4.3-2.3-4-3.6c0.3-1.3,2.7-1.9,5.2-1.2
	C368.5,6,370.3,7.6,369.9,8.9z M375.7,10.9c-0.5-0.7,0.3-2.1,1.6-3c1.4-0.9,2.9-1.1,3.4-0.3s-0.3,2.1-1.6,3
	C377.7,11.5,376.2,11.6,375.7,10.9z M379,14.4c-0.7-0.5-0.4-2,0.6-3.4c1-1.3,2.4-2,3.1-1.4c0.7,0.5,0.4,2-0.6,3.4
	C381.1,14.3,379.7,15,379,14.4z M383.3,16.7c-0.8-0.3-1.1-1.8-0.5-3.4c0.5-1.6,1.7-2.6,2.5-2.3c0.8,0.3,1.1,1.8,0.5,3.4
	C385.2,16,384.1,17,383.3,16.7z M388.1,17.5c-0.9,0-1.6-1.4-1.6-3c0-1.7,0.7-3,1.6-3s1.6,1.4,1.6,3
	C389.7,16.2,388.9,17.5,388.1,17.5z M392.9,16.7c-0.8,0.3-1.9-0.8-2.5-2.3c-0.5-1.6-0.3-3.1,0.5-3.4c0.8-0.3,1.9,0.8,2.5,2.3
	C393.9,14.9,393.7,16.5,392.9,16.7z M397.1,14.4c-0.7,0.5-2.1-0.1-3.1-1.4c-1-1.3-1.3-2.8-0.6-3.4c0.7-0.5,2.1,0.1,3.1,1.4
	C397.6,12.4,397.8,13.9,397.1,14.4z M400.4,10.9c-0.5,0.7-2,0.6-3.4-0.3c-1.4-0.9-2.1-2.3-1.6-3s2-0.6,3.4,0.3
	C400.2,8.8,400.9,10.1,400.4,10.9z M405.3,8.9c-0.3-1.3,1.4-2.9,4-3.6c2.5-0.7,4.9-0.1,5.2,1.2c0.3,1.3-1.4,2.9-4,3.6
	C408,10.8,405.7,10.3,405.3,8.9z M408.4,15.9c-0.8-1.2,0.4-3.3,2.6-4.7s4.6-1.7,5.3-0.5c0.8,1.2-0.4,3.3-2.6,4.7
	C411.6,16.8,409.2,17,408.4,15.9z M413.6,21.5c-1.1-0.8-0.7-3.2,0.9-5.3c1.6-2.1,3.8-3.1,4.9-2.2c1.1,0.8,0.7,3.2-0.9,5.3
	C416.9,21.3,414.7,22.3,413.6,21.5z M420.3,25.1c-1.3-0.4-1.7-2.8-0.8-5.3c0.8-2.5,2.6-4.1,3.9-3.7c1.3,0.4,1.7,2.8,0.8,5.3
	C423.4,23.9,421.6,25.5,420.3,25.1z M427.8,26.3c-1.4,0-2.5-2.1-2.5-4.7c0-2.6,1.1-4.7,2.5-4.7s2.5,2.1,2.5,4.7
	C430.3,24.2,429.2,26.3,427.8,26.3z M435.3,25.1c-1.3,0.4-3-1.2-3.9-3.7c-0.8-2.5-0.5-4.8,0.8-5.3c1.3-0.4,3,1.2,3.9,3.7
	C437,22.3,436.6,24.6,435.3,25.1z M442,21.5c-1.1,0.8-3.3-0.2-4.9-2.2c-1.6-2.1-2-4.4-0.9-5.3c1.1-0.8,3.3,0.2,4.9,2.2
	C442.7,18.3,443.1,20.6,442,21.5z M447.2,15.9c-0.8,1.2-3.1,0.9-5.3-0.5c-2.2-1.4-3.3-3.5-2.6-4.7c0.8-1.2,3.1-0.9,5.3,0.5
	S448,14.7,447.2,15.9z M450.3,8.9c-0.3,1.3-2.7,1.9-5.2,1.2c-2.5-0.7-4.3-2.3-4-3.6c0.3-1.3,2.7-1.9,5.2-1.2
	C448.9,6,450.6,7.6,450.3,8.9z M456,10.9c-0.5-0.7,0.3-2.1,1.6-3c1.4-0.9,2.9-1.1,3.4-0.3c0.5,0.7-0.3,2.1-1.6,3
	C458.1,11.5,456.5,11.6,456,10.9z M459.4,14.4c-0.7-0.5-0.4-2,0.6-3.4c1-1.3,2.4-2,3.1-1.4c0.7,0.5,0.4,2-0.6,3.4
	C461.4,14.3,460,15,459.4,14.4z M463.6,16.7c-0.8-0.3-1.1-1.8-0.5-3.4c0.5-1.6,1.7-2.6,2.5-2.3c0.8,0.3,1.1,1.8,0.5,3.4
	C465.6,16,464.5,17,463.6,16.7z M468.4,17.5c-0.9,0-1.6-1.4-1.6-3c0-1.7,0.7-3,1.6-3c0.9,0,1.6,1.4,1.6,3
	C470,16.2,469.3,17.5,468.4,17.5z M473.2,16.7c-0.8,0.3-1.9-0.8-2.5-2.3c-0.5-1.6-0.3-3.1,0.5-3.4c0.8-0.3,1.9,0.8,2.5,2.3
	C474.3,14.9,474.1,16.5,473.2,16.7z M477.5,14.4c-0.7,0.5-2.1-0.1-3.1-1.4c-1-1.3-1.3-2.8-0.6-3.4c0.7-0.5,2.1,0.1,3.1,1.4
	C477.9,12.4,478.2,13.9,477.5,14.4z M480.8,10.9c-0.5,0.7-2,0.6-3.4-0.3c-1.4-0.9-2.1-2.3-1.6-3c0.5-0.7,2-0.6,3.4,0.3
	C480.5,8.8,481.3,10.1,480.8,10.9z M485.7,8.9c-0.3-1.3,1.4-2.9,4-3.6c2.5-0.7,4.9-0.1,5.2,1.2c0.3,1.3-1.4,2.9-4,3.6
	C488.4,10.8,486,10.3,485.7,8.9z M488.8,15.9c-0.8-1.2,0.4-3.3,2.6-4.7c2.2-1.4,4.6-1.7,5.3-0.5c0.8,1.2-0.4,3.3-2.6,4.7
	C491.9,16.8,489.5,17,488.8,15.9z M494,21.5c-1.1-0.8-0.7-3.2,0.9-5.3c1.6-2.1,3.8-3.1,4.9-2.2c1.1,0.8,0.7,3.2-0.9,5.3
	C497.2,21.3,495.1,22.3,494,21.5z M500.7,25.1c-1.3-0.4-1.7-2.8-0.8-5.3c0.8-2.5,2.6-4.1,3.9-3.7c1.3,0.4,1.7,2.8,0.8,5.3
	C503.7,23.9,502,25.5,500.7,25.1z M508.2,26.3c-1.4,0-2.5-2.1-2.5-4.7c0-2.6,1.1-4.7,2.5-4.7c1.4,0,2.5,2.1,2.5,4.7
	C510.7,24.2,509.6,26.3,508.2,26.3z M515.7,25.1c-1.3,0.4-3-1.2-3.9-3.7c-0.8-2.5-0.5-4.8,0.8-5.3c1.3-0.4,3,1.2,3.9,3.7
	C517.4,22.3,517,24.6,515.7,25.1z M522.4,21.5c-1.1,0.8-3.3-0.2-4.9-2.2c-1.6-2.1-2-4.4-0.9-5.3c1.1-0.8,3.3,0.2,4.9,2.2
	C523.1,18.3,523.5,20.6,522.4,21.5z M527.6,15.9c-0.8,1.2-3.1,0.9-5.3-0.5c-2.2-1.4-3.3-3.5-2.6-4.7c0.8-1.2,3.1-0.9,5.3,0.5
	C527.2,12.6,528.3,14.7,527.6,15.9z M530.7,8.9c-0.3,1.3-2.7,1.9-5.2,1.2c-2.5-0.7-4.3-2.3-4-3.6c0.3-1.3,2.7-1.9,5.2-1.2
	C529.2,6,531,7.6,530.7,8.9z M536.4,10.9c-0.5-0.7,0.3-2.1,1.6-3c1.4-0.9,2.9-1.1,3.4-0.3c0.5,0.7-0.3,2.1-1.6,3
	C538.4,11.5,536.9,11.6,536.4,10.9z M539.7,14.4c-0.7-0.5-0.4-2,0.6-3.4c1-1.3,2.4-2,3.1-1.4c0.7,0.5,0.4,2-0.6,3.4
	C541.8,14.3,540.4,15,539.7,14.4z M544,16.7c-0.8-0.3-1.1-1.8-0.5-3.4c0.5-1.6,1.7-2.6,2.5-2.3c0.8,0.3,1.1,1.8,0.5,3.4
	C545.9,16,544.8,17,544,16.7z M548.8,17.5c-0.9,0-1.6-1.4-1.6-3c0-1.7,0.7-3,1.6-3c0.9,0,1.6,1.4,1.6,3
	C550.4,16.2,549.7,17.5,548.8,17.5z M553.6,16.7c-0.8,0.3-1.9-0.8-2.5-2.3c-0.5-1.6-0.3-3.1,0.5-3.4c0.8-0.3,1.9,0.8,2.5,2.3
	C554.6,14.9,554.4,16.5,553.6,16.7z M557.9,14.4c-0.7,0.5-2.1-0.1-3.1-1.4c-1-1.3-1.3-2.8-0.6-3.4c0.7-0.5,2.1,0.1,3.1,1.4
	C558.3,12.4,558.6,13.9,557.9,14.4z M561.2,10.9c-0.5,0.7-2,0.6-3.4-0.3c-1.4-0.9-2.1-2.3-1.6-3c0.5-0.7,2-0.6,3.4,0.3
	C560.9,8.8,561.6,10.1,561.2,10.9z M566.1,8.9c-0.3-1.3,1.4-2.9,4-3.6c2.5-0.7,4.9-0.1,5.2,1.2c0.3,1.3-1.4,2.9-4,3.6
	C568.7,10.8,566.4,10.3,566.1,8.9z M569.1,15.9c-0.8-1.2,0.4-3.3,2.6-4.7s4.6-1.7,5.3-0.5c0.8,1.2-0.4,3.3-2.6,4.7
	C572.3,16.8,569.9,17,569.1,15.9z M574.3,21.5c-1.1-0.8-0.7-3.2,0.9-5.3c1.6-2.1,3.8-3.1,4.9-2.2c1.1,0.8,0.7,3.2-0.9,5.3
	C577.6,21.3,575.4,22.3,574.3,21.5z M581,25.1c-1.3-0.4-1.7-2.8-0.8-5.3c0.8-2.5,2.6-4.1,3.9-3.7c1.3,0.4,1.7,2.8,0.8,5.3
	C584.1,23.9,582.3,25.5,581,25.1z M588.5,26.3c-1.4,0-2.5-2.1-2.5-4.7c0-2.6,1.1-4.7,2.5-4.7c1.4,0,2.5,2.1,2.5,4.7
	C591,24.2,589.9,26.3,588.5,26.3z M596.1,25.1c-1.3,0.4-3-1.2-3.9-3.7c-0.8-2.5-0.5-4.8,0.8-5.3c1.3-0.4,3,1.2,3.9,3.7
	C597.7,22.3,597.4,24.6,596.1,25.1z M602.8,21.5c-1.1,0.8-3.3-0.2-4.9-2.2c-1.6-2.1-2-4.4-0.9-5.3c1.1-0.8,3.3,0.2,4.9,2.2
	C603.4,18.3,603.8,20.6,602.8,21.5z M607.9,15.9c-0.8,1.2-3.1,0.9-5.3-0.5c-2.2-1.4-3.3-3.5-2.6-4.7c0.8-1.2,3.1-0.9,5.3,0.5
	S608.7,14.7,607.9,15.9z M611,8.9c-0.3,1.3-2.7,1.9-5.2,1.2c-2.5-0.7-4.3-2.3-4-3.6c0.3-1.3,2.7-1.9,5.2-1.2
	C609.6,6,611.4,7.6,611,8.9z M616.8,10.9c-0.5-0.7,0.3-2.1,1.6-3c1.4-0.9,2.9-1.1,3.4-0.3c0.5,0.7-0.3,2.1-1.6,3
	C618.8,11.5,617.3,11.6,616.8,10.9z M620.1,14.4c-0.7-0.5-0.4-2,0.6-3.4c1-1.3,2.4-2,3.1-1.4c0.7,0.5,0.4,2-0.6,3.4
	C622.2,14.3,620.8,15,620.1,14.4z M624.4,16.7c-0.8-0.3-1.1-1.8-0.5-3.4c0.5-1.6,1.7-2.6,2.5-2.3c0.8,0.3,1.1,1.8,0.5,3.4
	C626.3,16,625.2,17,624.4,16.7z M629.1,17.5c-0.9,0-1.6-1.4-1.6-3c0-1.7,0.7-3,1.6-3c0.9,0,1.6,1.4,1.6,3
	C630.7,16.2,630,17.5,629.1,17.5z M633.9,16.7c-0.8,0.3-1.9-0.8-2.5-2.3c-0.5-1.6-0.3-3.1,0.5-3.4c0.8-0.3,1.9,0.8,2.5,2.3
	C635,14.9,634.8,16.5,633.9,16.7z M638.2,14.4c-0.7,0.5-2.1-0.1-3.1-1.4c-1-1.3-1.3-2.8-0.6-3.4c0.7-0.5,2.1,0.1,3.1,1.4
	C638.7,12.4,638.9,13.9,638.2,14.4z M641.5,10.9c-0.5,0.7-2,0.6-3.4-0.3c-1.4-0.9-2.1-2.3-1.6-3c0.5-0.7,2-0.6,3.4,0.3
	C641.3,8.8,642,10.1,641.5,10.9z M646.4,8.9c-0.3-1.3,1.4-2.9,4-3.6c2.5-0.7,4.9-0.1,5.2,1.2c0.3,1.3-1.4,2.9-4,3.6
	C649.1,10.8,646.8,10.3,646.4,8.9z M649.5,15.9c-0.8-1.2,0.4-3.3,2.6-4.7c2.2-1.4,4.6-1.7,5.3-0.5c0.8,1.2-0.4,3.3-2.6,4.7
	C652.7,16.8,650.3,17,649.5,15.9z M654.7,21.5c-1.1-0.8-0.7-3.2,0.9-5.3c1.6-2.1,3.8-3.1,4.9-2.2c1.1,0.8,0.7,3.2-0.9,5.3
	C658,21.3,655.8,22.3,654.7,21.5z M661.4,25.1c-1.3-0.4-1.7-2.8-0.8-5.3c0.8-2.5,2.6-4.1,3.9-3.7c1.3,0.4,1.7,2.8,0.8,5.3
	C664.4,23.9,662.7,25.5,661.4,25.1z M668.9,26.3c-1.4,0-2.5-2.1-2.5-4.7c0-2.6,1.1-4.7,2.5-4.7c1.4,0,2.5,2.1,2.5,4.7
	C671.4,24.2,670.3,26.3,668.9,26.3z M676.4,25.1c-1.3,0.4-3-1.2-3.9-3.7c-0.8-2.5-0.5-4.8,0.8-5.3c1.3-0.4,3,1.2,3.9,3.7
	C678.1,22.3,677.7,24.6,676.4,25.1z M683.1,21.5c-1.1,0.8-3.3-0.2-4.9-2.2c-1.6-2.1-2-4.4-0.9-5.3c1.1-0.8,3.3,0.2,4.9,2.2
	C683.8,18.3,684.2,20.6,683.1,21.5z M688.3,15.9c-0.8,1.2-3.1,0.9-5.3-0.5c-2.2-1.4-3.3-3.5-2.6-4.7c0.8-1.2,3.1-0.9,5.3,0.5
	C687.9,12.6,689.1,14.7,688.3,15.9z M691.4,8.9c-0.3,1.3-2.7,1.9-5.2,1.2c-2.5-0.7-4.3-2.3-4-3.6c0.3-1.3,2.7-1.9,5.2-1.2
	C690,6,691.7,7.6,691.4,8.9z M697.1,10.9c-0.5-0.7,0.3-2.1,1.6-3c1.4-0.9,2.9-1.1,3.4-0.3c0.5,0.7-0.3,2.1-1.6,3
	C699.1,11.5,697.6,11.6,697.1,10.9z M700.4,14.4c-0.7-0.5-0.4-2,0.6-3.4c1-1.3,2.4-2,3.1-1.4c0.7,0.5,0.4,2-0.6,3.4
	C702.5,14.3,701.1,15,700.4,14.4z M704.7,16.7c-0.8-0.3-1.1-1.8-0.5-3.4c0.5-1.6,1.7-2.6,2.5-2.3c0.8,0.3,1.1,1.8,0.5,3.4
	C706.7,16,705.5,17,704.7,16.7z M709.5,17.5c-0.9,0-1.6-1.4-1.6-3c0-1.7,0.7-3,1.6-3c0.9,0,1.6,1.4,1.6,3
	C711.1,16.2,710.4,17.5,709.5,17.5z M714.3,16.7c-0.8,0.3-1.9-0.8-2.5-2.3c-0.5-1.6-0.3-3.1,0.5-3.4c0.8-0.3,1.9,0.8,2.5,2.3
	C715.4,14.9,715.1,16.5,714.3,16.7z M718.6,14.4c-0.7,0.5-2.1-0.1-3.1-1.4c-1-1.3-1.3-2.8-0.6-3.4c0.7-0.5,2.1,0.1,3.1,1.4
	C719,12.4,719.3,13.9,718.6,14.4z M721.9,10.9c-0.5,0.7-2,0.6-3.4-0.3c-1.4-0.9-2.1-2.3-1.6-3c0.5-0.7,2-0.6,3.4,0.3
	C721.6,8.8,722.4,10.1,721.9,10.9z M807.2,8.9c-0.3-1.3,1.4-2.9,4-3.6c2.5-0.7,4.9-0.1,5.2,1.2c0.3,1.3-1.4,2.9-4,3.6
	C809.8,10.8,807.5,10.3,807.2,8.9z M810.2,15.9c-0.8-1.2,0.4-3.3,2.6-4.7c2.2-1.4,4.6-1.7,5.3-0.5c0.8,1.2-0.4,3.3-2.6,4.7
	C813.4,16.8,811,17,810.2,15.9z M815.4,21.5c-1.1-0.8-0.7-3.2,0.9-5.3c1.6-2.1,3.8-3.1,4.9-2.2c1.1,0.8,0.7,3.2-0.9,5.3
	C818.7,21.3,816.5,22.3,815.4,21.5z M822.1,25.1c-1.3-0.4-1.7-2.8-0.8-5.3c0.8-2.5,2.6-4.1,3.9-3.7c1.3,0.4,1.7,2.8,0.8,5.3
	C825.2,23.9,823.4,25.5,822.1,25.1z M829.6,26.3c-1.4,0-2.5-2.1-2.5-4.7c0-2.6,1.1-4.7,2.5-4.7s2.5,2.1,2.5,4.7
	C832.1,24.2,831,26.3,829.6,26.3z M837.2,25.1c-1.3,0.4-3-1.2-3.9-3.7c-0.8-2.5-0.5-4.8,0.8-5.3c1.3-0.4,3,1.2,3.9,3.7
	C838.8,22.3,838.5,24.6,837.2,25.1z M843.9,21.5c-1.1,0.8-3.3-0.2-4.9-2.2c-1.6-2.1-2-4.4-0.9-5.3c1.1-0.8,3.3,0.2,4.9,2.2
	C844.5,18.3,844.9,20.6,843.9,21.5z M849,15.9c-0.8,1.2-3.1,0.9-5.3-0.5c-2.2-1.4-3.3-3.5-2.6-4.7c0.8-1.2,3.1-0.9,5.3,0.5
	C848.6,12.6,849.8,14.7,849,15.9z M852.1,8.9c-0.3,1.3-2.7,1.9-5.2,1.2c-2.5-0.7-4.3-2.3-4-3.6c0.3-1.3,2.7-1.9,5.2-1.2
	C850.7,6,852.5,7.6,852.1,8.9z M857.9,10.9c-0.5-0.7,0.3-2.1,1.6-3c1.4-0.9,2.9-1.1,3.4-0.3c0.5,0.7-0.3,2.1-1.6,3
	C859.9,11.5,858.4,11.6,857.9,10.9z M861.2,14.4c-0.7-0.5-0.4-2,0.6-3.4c1-1.3,2.4-2,3.1-1.4c0.7,0.5,0.4,2-0.6,3.4
	C863.3,14.3,861.9,15,861.2,14.4z M865.5,16.7c-0.8-0.3-1.1-1.8-0.5-3.4c0.5-1.6,1.7-2.6,2.5-2.3c0.8,0.3,1.1,1.8,0.5,3.4
	C867.4,16,866.3,17,865.5,16.7z M870.2,17.5c-0.9,0-1.6-1.4-1.6-3c0-1.7,0.7-3,1.6-3c0.9,0,1.6,1.4,1.6,3
	C871.8,16.2,871.1,17.5,870.2,17.5z M875,16.7c-0.8,0.3-1.9-0.8-2.5-2.3c-0.5-1.6-0.3-3.1,0.5-3.4c0.8-0.3,1.9,0.8,2.5,2.3
	C876.1,14.9,875.9,16.5,875,16.7z M879.3,14.4c-0.7,0.5-2.1-0.1-3.1-1.4c-1-1.3-1.3-2.8-0.6-3.4c0.7-0.5,2.1,0.1,3.1,1.4
	C879.8,12.4,880,13.9,879.3,14.4z M882.6,10.9c-0.5,0.7-2,0.6-3.4-0.3c-1.4-0.9-2.1-2.3-1.6-3s2-0.6,3.4,0.3
	C882.4,8.8,883.1,10.1,882.6,10.9z M887.5,8.9c-0.3-1.3,1.4-2.9,4-3.6c2.5-0.7,4.9-0.1,5.2,1.2c0.3,1.3-1.4,2.9-4,3.6
	C890.2,10.8,887.9,10.3,887.5,8.9z M890.6,15.9c-0.8-1.2,0.4-3.3,2.6-4.7c2.2-1.4,4.6-1.7,5.3-0.5c0.8,1.2-0.4,3.3-2.6,4.7
	C893.8,16.8,891.4,17,890.6,15.9z M895.8,21.5c-1.1-0.8-0.7-3.2,0.9-5.3c1.6-2.1,3.8-3.1,4.9-2.2c1.1,0.8,0.7,3.2-0.9,5.3
	C899.1,21.3,896.9,22.3,895.8,21.5z M902.5,25.1c-1.3-0.4-1.7-2.8-0.8-5.3c0.8-2.5,2.6-4.1,3.9-3.7c1.3,0.4,1.7,2.8,0.8,5.3
	C905.5,23.9,903.8,25.5,902.5,25.1z M910,26.3c-1.4,0-2.5-2.1-2.5-4.7c0-2.6,1.1-4.7,2.5-4.7c1.4,0,2.5,2.1,2.5,4.7
	C912.5,24.2,911.4,26.3,910,26.3z M917.5,25.1c-1.3,0.4-3-1.2-3.9-3.7c-0.8-2.5-0.5-4.8,0.8-5.3c1.3-0.4,3,1.2,3.9,3.7
	C919.2,22.3,918.8,24.6,917.5,25.1z M924.2,21.5c-1.1,0.8-3.3-0.2-4.9-2.2c-1.6-2.1-2-4.4-0.9-5.3c1.1-0.8,3.3,0.2,4.9,2.2
	C924.9,18.3,925.3,20.6,924.2,21.5z M929.4,15.9c-0.8,1.2-3.1,0.9-5.3-0.5c-2.2-1.4-3.3-3.5-2.6-4.7c0.8-1.2,3.1-0.9,5.3,0.5
	C929,12.6,930.2,14.7,929.4,15.9z M932.5,8.9c-0.3,1.3-2.7,1.9-5.2,1.2c-2.5-0.7-4.3-2.3-4-3.6c0.3-1.3,2.7-1.9,5.2-1.2
	C931.1,6,932.8,7.6,932.5,8.9z M938.2,10.9c-0.5-0.7,0.3-2.1,1.6-3c1.4-0.9,2.9-1.1,3.4-0.3c0.5,0.7-0.3,2.1-1.6,3
	C940.2,11.5,938.7,11.6,938.2,10.9z M941.5,14.4c-0.7-0.5-0.4-2,0.6-3.4c1-1.3,2.4-2,3.1-1.4c0.7,0.5,0.4,2-0.6,3.4
	C943.6,14.3,942.2,15,941.5,14.4z M945.8,16.7c-0.8-0.3-1.1-1.8-0.5-3.4c0.5-1.6,1.7-2.6,2.5-2.3c0.8,0.3,1.1,1.8,0.5,3.4
	C947.8,16,946.6,17,945.8,16.7z M950.6,17.5c-0.9,0-1.6-1.4-1.6-3c0-1.7,0.7-3,1.6-3c0.9,0,1.6,1.4,1.6,3
	C952.2,16.2,951.5,17.5,950.6,17.5z M955.4,16.7c-0.8,0.3-1.9-0.8-2.5-2.3c-0.5-1.6-0.3-3.1,0.5-3.4c0.8-0.3,1.9,0.8,2.5,2.3
	C956.5,14.9,956.2,16.5,955.4,16.7z M959.7,14.4c-0.7,0.5-2.1-0.1-3.1-1.4c-1-1.3-1.3-2.8-0.6-3.4c0.7-0.5,2.1,0.1,3.1,1.4
	C960.1,12.4,960.4,13.9,959.7,14.4z M963,10.9c-0.5,0.7-2,0.6-3.4-0.3c-1.4-0.9-2.1-2.3-1.6-3c0.5-0.7,2-0.6,3.4,0.3
	C962.7,8.8,963.5,10.1,963,10.9z M967.9,8.9c-0.3-1.3,1.4-2.9,4-3.6c2.5-0.7,4.9-0.1,5.2,1.2c0.3,1.3-1.4,2.9-4,3.6
	C970.6,10.8,968.2,10.3,967.9,8.9z M971,15.9c-0.8-1.2,0.4-3.3,2.6-4.7c2.2-1.4,4.6-1.7,5.3-0.5c0.8,1.2-0.4,3.3-2.6,4.7
	C974.1,16.8,971.7,17,971,15.9z M976.1,21.5c-1.1-0.8-0.7-3.2,0.9-5.3c1.6-2.1,3.8-3.1,4.9-2.2c1.1,0.8,0.7,3.2-0.9,5.3
	C979.4,21.3,977.2,22.3,976.1,21.5z M982.8,25.1c-1.3-0.4-1.7-2.8-0.8-5.3c0.8-2.5,2.6-4.1,3.9-3.7c1.3,0.4,1.7,2.8,0.8,5.3
	C985.9,23.9,984.2,25.5,982.8,25.1z M990.4,26.3c-1.4,0-2.5-2.1-2.5-4.7c0-2.6,1.1-4.7,2.5-4.7c1.4,0,2.5,2.1,2.5,4.7
	C992.9,24.2,991.7,26.3,990.4,26.3z M997.9,25.1c-1.3,0.4-3-1.2-3.9-3.7c-0.8-2.5-0.5-4.8,0.8-5.3c1.3-0.4,3,1.2,3.9,3.7
	C999.5,22.3,999.2,24.6,997.9,25.1z M1004.6,21.5c-1.1,0.8-3.3-0.2-4.9-2.2c-1.6-2.1-2-4.4-0.9-5.3c1.1-0.8,3.3,0.2,4.9,2.2
	C1005.3,18.3,1005.7,20.6,1004.6,21.5z M1009.8,15.9c-0.8,1.2-3.1,0.9-5.3-0.5c-2.2-1.4-3.3-3.5-2.6-4.7c0.8-1.2,3.1-0.9,5.3,0.5
	C1009.4,12.6,1010.5,14.7,1009.8,15.9z M1012.8,8.9c-0.3,1.3-2.7,1.9-5.2,1.2c-2.5-0.7-4.3-2.3-4-3.6c0.3-1.3,2.7-1.9,5.2-1.2
	C1011.4,6,1013.2,7.6,1012.8,8.9z M1018.6,10.9c-0.5-0.7,0.3-2.1,1.6-3c1.4-0.9,2.9-1.1,3.4-0.3c0.5,0.7-0.3,2.1-1.6,3
	C1020.6,11.5,1019.1,11.6,1018.6,10.9z M1021.9,14.4c-0.7-0.5-0.4-2,0.6-3.4c1-1.3,2.4-2,3.1-1.4c0.7,0.5,0.4,2-0.6,3.4
	C1024,14.3,1022.6,15,1021.9,14.4z M1026.2,16.7c-0.8-0.3-1.1-1.8-0.5-3.4c0.5-1.6,1.7-2.6,2.5-2.3c0.8,0.3,1.1,1.8,0.5,3.4
	C1028.1,16,1027,17,1026.2,16.7z M1031,17.5c-0.9,0-1.6-1.4-1.6-3c0-1.7,0.7-3,1.6-3c0.9,0,1.6,1.4,1.6,3
	C1032.6,16.2,1031.8,17.5,1031,17.5z M1035.8,16.7c-0.8,0.3-1.9-0.8-2.5-2.3c-0.5-1.6-0.3-3.1,0.5-3.4c0.8-0.3,1.9,0.8,2.5,2.3
	C1036.8,14.9,1036.6,16.5,1035.8,16.7z M1040,14.4c-0.7,0.5-2.1-0.1-3.1-1.4c-1-1.3-1.3-2.8-0.6-3.4c0.7-0.5,2.1,0.1,3.1,1.4
	C1040.5,12.4,1040.7,13.9,1040,14.4z M1043.3,10.9c-0.5,0.7-2,0.6-3.4-0.3c-1.4-0.9-2.1-2.3-1.6-3c0.5-0.7,2-0.6,3.4,0.3
	C1043.1,8.8,1043.8,10.1,1043.3,10.9z M1048.2,8.9c-0.3-1.3,1.4-2.9,4-3.6c2.5-0.7,4.9-0.1,5.2,1.2c0.3,1.3-1.4,2.9-4,3.6
	C1050.9,10.8,1048.6,10.3,1048.2,8.9z M1051.3,15.9c-0.8-1.2,0.4-3.3,2.6-4.7c2.2-1.4,4.6-1.7,5.3-0.5c0.8,1.2-0.4,3.3-2.6,4.7
	C1054.5,16.8,1052.1,17,1051.3,15.9z M1056.5,21.5c-1.1-0.8-0.7-3.2,0.9-5.3c1.6-2.1,3.8-3.1,4.9-2.2c1.1,0.8,0.7,3.2-0.9,5.3
	C1059.8,21.3,1057.6,22.3,1056.5,21.5z M1063.2,25.1c-1.3-0.4-1.7-2.8-0.8-5.3c0.8-2.5,2.6-4.1,3.9-3.7c1.3,0.4,1.7,2.8,0.8,5.3
	C1066.3,23.9,1064.5,25.5,1063.2,25.1z M1070.7,26.3c-1.4,0-2.5-2.1-2.5-4.7c0-2.6,1.1-4.7,2.5-4.7c1.4,0,2.5,2.1,2.5,4.7
	C1073.2,24.2,1072.1,26.3,1070.7,26.3z M1078.2,25.1c-1.3,0.4-3-1.2-3.9-3.7c-0.8-2.5-0.5-4.8,0.8-5.3c1.3-0.4,3,1.2,3.9,3.7
	C1079.9,22.3,1079.5,24.6,1078.2,25.1z M1084.9,21.5c-1.1,0.8-3.3-0.2-4.9-2.2c-1.6-2.1-2-4.4-0.9-5.3c1.1-0.8,3.3,0.2,4.9,2.2
	C1085.6,18.3,1086,20.6,1084.9,21.5z M1090.1,15.9c-0.8,1.2-3.1,0.9-5.3-0.5c-2.2-1.4-3.3-3.5-2.6-4.7c0.8-1.2,3.1-0.9,5.3,0.5
	C1089.7,12.6,1090.9,14.7,1090.1,15.9z M1093.2,8.9c-0.3,1.3-2.7,1.9-5.2,1.2c-2.5-0.7-4.3-2.3-4-3.6c0.3-1.3,2.7-1.9,5.2-1.2
	C1091.8,6,1093.6,7.6,1093.2,8.9z M1099,10.9c-0.5-0.7,0.3-2.1,1.6-3c1.4-0.9,2.9-1.1,3.4-0.3s-0.3,2.1-1.6,3
	C1101,11.5,1099.4,11.6,1099,10.9z M1102.3,14.4c-0.7-0.5-0.4-2,0.6-3.4c1-1.3,2.4-2,3.1-1.4c0.7,0.5,0.4,2-0.6,3.4
	C1104.3,14.3,1103,15,1102.3,14.4z M1106.5,16.7c-0.8-0.3-1.1-1.8-0.5-3.4c0.5-1.6,1.7-2.6,2.5-2.3c0.8,0.3,1.1,1.8,0.5,3.4
	C1108.5,16,1107.4,17,1106.5,16.7z M1111.3,17.5c-0.9,0-1.6-1.4-1.6-3c0-1.7,0.7-3,1.6-3s1.6,1.4,1.6,3
	C1112.9,16.2,1112.2,17.5,1111.3,17.5z M1116.1,16.7c-0.8,0.3-1.9-0.8-2.5-2.3c-0.5-1.6-0.3-3.1,0.5-3.4c0.8-0.3,1.9,0.8,2.5,2.3
	C1117.2,14.9,1117,16.5,1116.1,16.7z M1120.4,14.4c-0.7,0.5-2.1-0.1-3.1-1.4c-1-1.3-1.3-2.8-0.6-3.4c0.7-0.5,2.1,0.1,3.1,1.4
	C1120.8,12.4,1121.1,13.9,1120.4,14.4z M1123.7,10.9c-0.5,0.7-2,0.6-3.4-0.3c-1.4-0.9-2.1-2.3-1.6-3c0.5-0.7,2-0.6,3.4,0.3
	C1123.5,8.8,1124.2,10.1,1123.7,10.9z M1128.6,8.9c-0.3-1.3,1.4-2.9,4-3.6c2.5-0.7,4.9-0.1,5.2,1.2c0.3,1.3-1.4,2.9-4,3.6
	C1131.3,10.8,1128.9,10.3,1128.6,8.9z M1131.7,15.9c-0.8-1.2,0.4-3.3,2.6-4.7c2.2-1.4,4.6-1.7,5.3-0.5c0.8,1.2-0.4,3.3-2.6,4.7
	C1134.8,16.8,1132.5,17,1131.7,15.9z M1136.9,21.5c-1.1-0.8-0.7-3.2,0.9-5.3c1.6-2.1,3.8-3.1,4.9-2.2c1.1,0.8,0.7,3.2-0.9,5.3
	C1140.1,21.3,1138,22.3,1136.9,21.5z M1143.6,25.1c-1.3-0.4-1.7-2.8-0.8-5.3c0.8-2.5,2.6-4.1,3.9-3.7c1.3,0.4,1.7,2.8,0.8,5.3
	C1146.6,23.9,1144.9,25.5,1143.6,25.1z M1151.1,26.3c-1.4,0-2.5-2.1-2.5-4.7c0-2.6,1.1-4.7,2.5-4.7s2.5,2.1,2.5,4.7
	C1153.6,24.2,1152.5,26.3,1151.1,26.3z M1158.6,25.1c-1.3,0.4-3-1.2-3.9-3.7c-0.8-2.5-0.5-4.8,0.8-5.3c1.3-0.4,3,1.2,3.9,3.7
	C1160.3,22.3,1159.9,24.6,1158.6,25.1z M1165.3,21.5c-1.1,0.8-3.3-0.2-4.9-2.2c-1.6-2.1-2-4.4-0.9-5.3c1.1-0.8,3.3,0.2,4.9,2.2
	C1166,18.3,1166.4,20.6,1165.3,21.5z M1170.5,15.9c-0.8,1.2-3.1,0.9-5.3-0.5c-2.2-1.4-3.3-3.5-2.6-4.7c0.8-1.2,3.1-0.9,5.3,0.5
	C1170.1,12.6,1171.2,14.7,1170.5,15.9z M1173.6,8.9c-0.3,1.3-2.7,1.9-5.2,1.2c-2.5-0.7-4.3-2.3-4-3.6c0.3-1.3,2.7-1.9,5.2-1.2
	C1172.1,6,1173.9,7.6,1173.6,8.9z M1179.3,10.9c-0.5-0.7,0.3-2.1,1.6-3c1.4-0.9,2.9-1.1,3.4-0.3c0.5,0.7-0.3,2.1-1.6,3
	C1181.3,11.5,1179.8,11.6,1179.3,10.9z M1182.6,14.4c-0.7-0.5-0.4-2,0.6-3.4c1-1.3,2.4-2,3.1-1.4c0.7,0.5,0.4,2-0.6,3.4
	C1184.7,14.3,1183.3,15,1182.6,14.4z M1186.9,16.7c-0.8-0.3-1.1-1.8-0.5-3.4c0.5-1.6,1.7-2.6,2.5-2.3c0.8,0.3,1.1,1.8,0.5,3.4
	C1188.8,16,1187.7,17,1186.9,16.7z M1191.7,17.5c-0.9,0-1.6-1.4-1.6-3c0-1.7,0.7-3,1.6-3c0.9,0,1.6,1.4,1.6,3
	C1193.3,16.2,1192.6,17.5,1191.7,17.5z M1196.5,16.7c-0.8,0.3-1.9-0.8-2.5-2.3c-0.5-1.6-0.3-3.1,0.5-3.4c0.8-0.3,1.9,0.8,2.5,2.3
	C1197.6,14.9,1197.3,16.5,1196.5,16.7z M1200.8,14.4c-0.7,0.5-2.1-0.1-3.1-1.4c-1-1.3-1.3-2.8-0.6-3.4c0.7-0.5,2.1,0.1,3.1,1.4
	C1201.2,12.4,1201.5,13.9,1200.8,14.4z M1204.1,10.9c-0.5,0.7-2,0.6-3.4-0.3c-1.4-0.9-2.1-2.3-1.6-3c0.5-0.7,2-0.6,3.4,0.3
	C1203.8,8.8,1204.6,10.1,1204.1,10.9z M1209,8.9c-0.3-1.3,1.4-2.9,4-3.6c2.5-0.7,4.9-0.1,5.2,1.2c0.3,1.3-1.4,2.9-4,3.6
	C1211.6,10.8,1209.3,10.3,1209,8.9z M1212.1,15.9c-0.8-1.2,0.4-3.3,2.6-4.7c2.2-1.4,4.6-1.7,5.3-0.5c0.8,1.2-0.4,3.3-2.6,4.7
	C1215.2,16.8,1212.8,17,1212.1,15.9z M1217.2,21.5c-1.1-0.8-0.7-3.2,0.9-5.3c1.6-2.1,3.8-3.1,4.9-2.2c1.1,0.8,0.7,3.2-0.9,5.3
	C1220.5,21.3,1218.3,22.3,1217.2,21.5z M1223.9,25.1c-1.3-0.4-1.7-2.8-0.8-5.3c0.8-2.5,2.6-4.1,3.9-3.7c1.3,0.4,1.7,2.8,0.8,5.3
	C1227,23.9,1225.2,25.5,1223.9,25.1z M1231.4,26.3c-1.4,0-2.5-2.1-2.5-4.7c0-2.6,1.1-4.7,2.5-4.7s2.5,2.1,2.5,4.7
	C1233.9,24.2,1232.8,26.3,1231.4,26.3z M1239,25.1c-1.3,0.4-3-1.2-3.9-3.7c-0.8-2.5-0.5-4.8,0.8-5.3c1.3-0.4,3,1.2,3.9,3.7
	C1240.6,22.3,1240.3,24.6,1239,25.1z M1245.7,21.5c-1.1,0.8-3.3-0.2-4.9-2.2c-1.6-2.1-2-4.4-0.9-5.3c1.1-0.8,3.3,0.2,4.9,2.2
	C1246.3,18.3,1246.8,20.6,1245.7,21.5z M1250.8,15.9c-0.8,1.2-3.1,0.9-5.3-0.5c-2.2-1.4-3.3-3.5-2.6-4.7c0.8-1.2,3.1-0.9,5.3,0.5
	C1250.4,12.6,1251.6,14.7,1250.8,15.9z M1253.9,8.9c-0.3,1.3-2.7,1.9-5.2,1.2c-2.5-0.7-4.3-2.3-4-3.6c0.3-1.3,2.7-1.9,5.2-1.2
	C1252.5,6,1254.3,7.6,1253.9,8.9z M1259.7,10.9c-0.5-0.7,0.3-2.1,1.6-3c1.4-0.9,2.9-1.1,3.4-0.3c0.5,0.7-0.3,2.1-1.6,3
	C1261.7,11.5,1260.2,11.6,1259.7,10.9z M1263,14.4c-0.7-0.5-0.4-2,0.6-3.4c1-1.3,2.4-2,3.1-1.4c0.7,0.5,0.4,2-0.6,3.4
	C1265.1,14.3,1263.7,15,1263,14.4z M1267.3,16.7c-0.8-0.3-1.1-1.8-0.5-3.4c0.5-1.6,1.7-2.6,2.5-2.3c0.8,0.3,1.1,1.8,0.5,3.4
	C1269.2,16,1268.1,17,1267.3,16.7z M1272.1,17.5c-0.9,0-1.6-1.4-1.6-3c0-1.7,0.7-3,1.6-3c0.9,0,1.6,1.4,1.6,3
	C1273.6,16.2,1272.9,17.5,1272.1,17.5z M1276.8,16.7c-0.8,0.3-1.9-0.8-2.5-2.3c-0.5-1.6-0.3-3.1,0.5-3.4c0.8-0.3,1.9,0.8,2.5,2.3
	C1277.9,14.9,1277.7,16.5,1276.8,16.7z M1281.1,14.4c-0.7,0.5-2.1-0.1-3.1-1.4c-1-1.3-1.3-2.8-0.6-3.4c0.7-0.5,2.1,0.1,3.1,1.4
	C1281.6,12.4,1281.8,13.9,1281.1,14.4z M1284.4,10.9c-0.5,0.7-2,0.6-3.4-0.3c-1.4-0.9-2.1-2.3-1.6-3c0.5-0.7,2-0.6,3.4,0.3
	C1284.2,8.8,1284.9,10.1,1284.4,10.9z M1289.3,8.9c-0.3-1.3,1.4-2.9,4-3.6c2.5-0.7,4.9-0.1,5.2,1.2c0.3,1.3-1.4,2.9-4,3.6
	C1292,10.8,1289.7,10.3,1289.3,8.9z M1292.4,15.9c-0.8-1.2,0.4-3.3,2.6-4.7c2.2-1.4,4.6-1.7,5.3-0.5c0.8,1.2-0.4,3.3-2.6,4.7
	C1295.6,16.8,1293.2,17,1292.4,15.9z M1297.6,21.5c-1.1-0.8-0.7-3.2,0.9-5.3c1.6-2.1,3.8-3.1,4.9-2.2c1.1,0.8,0.7,3.2-0.9,5.3
	C1300.9,21.3,1298.7,22.3,1297.6,21.5z M1304.3,25.1c-1.3-0.4-1.7-2.8-0.8-5.3c0.8-2.5,2.6-4.1,3.9-3.7c1.3,0.4,1.7,2.8,0.8,5.3
	C1307.3,23.9,1305.6,25.5,1304.3,25.1z M1311.8,26.3c-1.4,0-2.5-2.1-2.5-4.7c0-2.6,1.1-4.7,2.5-4.7c1.4,0,2.5,2.1,2.5,4.7
	C1314.3,24.2,1313.2,26.3,1311.8,26.3z M1319.3,25.1c-1.3,0.4-3-1.2-3.9-3.7c-0.8-2.5-0.5-4.8,0.8-5.3c1.3-0.4,3,1.2,3.9,3.7
	C1321,22.3,1320.6,24.6,1319.3,25.1z M1326,21.5c-1.1,0.8-3.3-0.2-4.9-2.2c-1.6-2.1-2-4.4-0.9-5.3c1.1-0.8,3.3,0.2,4.9,2.2
	C1326.7,18.3,1327.1,20.6,1326,21.5z M1331.2,15.9c-0.8,1.2-3.1,0.9-5.3-0.5c-2.2-1.4-3.3-3.5-2.6-4.7c0.8-1.2,3.1-0.9,5.3,0.5
	C1330.8,12.6,1332,14.7,1331.2,15.9z M1334.3,8.9c-0.3,1.3-2.7,1.9-5.2,1.2c-2.5-0.7-4.3-2.3-4-3.6c0.3-1.3,2.7-1.9,5.2-1.2
	C1332.9,6,1334.6,7.6,1334.3,8.9z M1340,10.9c-0.5-0.7,0.3-2.1,1.6-3c1.4-0.9,2.9-1.1,3.4-0.3c0.5,0.7-0.3,2.1-1.6,3
	C1342,11.5,1340.5,11.6,1340,10.9z M1343.3,14.4c-0.7-0.5-0.4-2,0.6-3.4c1-1.3,2.4-2,3.1-1.4c0.7,0.5,0.4,2-0.6,3.4
	C1345.4,14.3,1344,15,1343.3,14.4z M1347.6,16.7c-0.8-0.3-1.1-1.8-0.5-3.4c0.5-1.6,1.7-2.6,2.5-2.3c0.8,0.3,1.1,1.8,0.5,3.4
	C1349.6,16,1348.5,17,1347.6,16.7z M1352.4,17.5c-0.9,0-1.6-1.4-1.6-3c0-1.7,0.7-3,1.6-3c0.9,0,1.6,1.4,1.6,3
	C1354,16.2,1353.3,17.5,1352.4,17.5z M1357.2,16.7c-0.8,0.3-1.9-0.8-2.5-2.3c-0.5-1.6-0.3-3.1,0.5-3.4c0.8-0.3,1.9,0.8,2.5,2.3
	C1358.3,14.9,1358,16.5,1357.2,16.7z M1361.5,14.4c-0.7,0.5-2.1-0.1-3.1-1.4c-1-1.3-1.3-2.8-0.6-3.4c0.7-0.5,2.1,0.1,3.1,1.4
	C1361.9,12.4,1362.2,13.9,1361.5,14.4z M1364.8,10.9c-0.5,0.7-2,0.6-3.4-0.3c-1.4-0.9-2.1-2.3-1.6-3c0.5-0.7,2-0.6,3.4,0.3
	C1364.5,8.8,1365.3,10.1,1364.8,10.9z M1369.7,8.9c-0.3-1.3,1.4-2.9,4-3.6c2.5-0.7,4.9-0.1,5.2,1.2c0.3,1.3-1.4,2.9-4,3.6
	C1372.4,10.8,1370,10.3,1369.7,8.9z M1372.8,15.9c-0.8-1.2,0.4-3.3,2.6-4.7c2.2-1.4,4.6-1.7,5.3-0.5c0.8,1.2-0.4,3.3-2.6,4.7
	C1375.9,16.8,1373.5,17,1372.8,15.9z M1378,21.5c-1.1-0.8-0.7-3.2,0.9-5.3c1.6-2.1,3.8-3.1,4.9-2.2c1.1,0.8,0.7,3.2-0.9,5.3
	C1381.2,21.3,1379,22.3,1378,21.5z M1384.7,25.1c-1.3-0.4-1.7-2.8-0.8-5.3c0.8-2.5,2.6-4.1,3.9-3.7c1.3,0.4,1.7,2.8,0.8,5.3
	C1387.7,23.9,1386,25.5,1384.7,25.1z M1389.7,21.6c0-2.6,1.1-4.7,2.5-4.7c1.4,0,2.5,2.1,2.5,4.7c0,2.6-1.1,4.7-2.5,4.7
	C1390.8,26.3,1389.7,24.2,1389.7,21.6z"/>
</svg>
