<?xml version="1.0" encoding="iso-8859-1"?>
<!-- Generator: Adobe Illustrator 19.0.0, SVG Export Plug-In . SVG Version: 6.00 Build 0)  -->
<svg version="1.1" id="Layer_1" xmlns="http://www.w3.org/2000/svg" xmlns:xlink="http://www.w3.org/1999/xlink" x="0px" y="0px"
	 viewBox="0 0 480.001 480.001" style="enable-background:new 0 0 480.001 480.001;" xml:space="preserve">
	 <style>
      path {
        fill: #ab132d;
      }
  </style>
<g id="XMLID_1087_">
	<g>
		<g>
			<path d="M379.889,191.194c-3.156-1.945-7.129-1.985-10.324-0.104c-9.37,5.519-20.086,8.436-30.992,8.436
				c-21.09,0-40.431-10.667-51.737-28.535c-1.776-2.807-4.829-4.549-8.149-4.648c-25.122-0.759-50.219-4.232-74.594-10.326
				c-3.101-0.778-6.386-0.021-8.838,2.028c-2.453,2.05-3.777,5.148-3.565,8.338l5.853,87.788
				c3.209,48.13,43.508,85.831,91.745,85.831c48.237,0,88.536-37.701,91.745-85.831l3.587-53.799
				C384.865,196.672,383.044,193.14,379.889,191.194z M361.075,252.84c-2.51,37.66-34.044,67.161-71.789,67.161
				s-69.278-29.501-71.789-67.161l-4.958-74.357c19.878,4.197,40.128,6.766,60.422,7.66c15.28,21.001,39.426,33.383,65.61,33.383
				c8.519,0,16.952-1.342,24.986-3.94L361.075,252.84z"/>
			<path d="M289.258,0c-75.695,0-139.524,51.821-157.914,121.866c-0.136,0.412-0.246,0.837-0.328,1.271
				c-3.265,12.862-5.001,26.335-5.001,40.198v103.582c0,48.839-39.707,88.572-88.514,88.572c-5.523,0-10,4.478-10,10
				c0,20.961,29.724,36.361,47.441,43.676c26.316,10.864,58.53,17.954,91.687,20.26c-4.013,14.513-3.151,29.689,2.725,44.306
				c1.523,3.788,5.196,6.27,9.278,6.27h227.833c4.466,0,8.39-2.961,9.616-7.255l1.751-6.135
				c6.171-21.613,1.681-43.974-12.644-62.962c-3.771-4.998-8.088-9.629-12.876-13.857c35.599-45.482,55.833-106.683,60.171-182.072
				c0.011-0.191,0.017-0.383,0.017-0.574v-43.81C452.501,73.271,379.271,0,289.258,0z M289.258,20
				c62.044,0,115.001,39.675,134.864,95.003h-54.66c0.354-2.031,0.539-4.119,0.539-6.25c0-19.988-16.262-36.25-36.25-36.25
				c-3.506,0-6.957,0.502-10.265,1.479c-8.302-11.775-21.841-18.979-36.717-18.979c-14.294,0-27.42,6.664-35.835,17.809
				c-1.551-0.205-3.114-0.309-4.683-0.309c-19.988,0-36.25,16.262-36.25,36.25c0,2.131,0.185,4.219,0.539,6.25h-56.146
				C174.256,59.675,227.214,20,289.258,20z M350.001,108.753c0,8.96-7.29,16.25-16.25,16.25c-5.254,0-10.215-2.58-13.269-6.901
				c-1.736-2.456-4.485-4-7.485-4.205c-0.228-0.016-0.456-0.023-0.683-0.023c-2.758,0-5.407,1.142-7.304,3.171
				c-4.797,5.133-11.276,7.959-18.242,7.959c-5.746,0-11.156-1.91-15.647-5.523c-3.983-3.205-9.747-2.888-13.355,0.735
				c-3.074,3.088-7.164,4.788-11.515,4.788c-8.96,0-16.25-7.29-16.25-16.25c0-8.96,7.29-16.25,16.25-16.25
				c1.936,0,3.872,0.362,5.755,1.077c4.777,1.812,10.159-0.271,12.469-4.832c4.293-8.479,12.835-13.745,22.293-13.745
				c10.233,0,19.328,6.143,23.17,15.648c1.127,2.788,3.449,4.921,6.323,5.808c2.873,0.886,5.994,0.433,8.496-1.236
				c2.668-1.779,5.778-2.72,8.993-2.72C342.711,92.503,350.001,99.793,350.001,108.753z M398.909,460H185.813
				c-4.712-17.623,1.379-32.131,7.759-41.57c3.643-5.391,8.135-10.315,13.332-14.71C230.479,420.711,260.131,430,291.2,430
				c13.243,0,26.319-1.688,38.866-5.02c5.338-1.417,8.517-6.893,7.1-12.23c-1.417-5.338-6.894-8.521-12.23-7.1
				c-10.874,2.886-22.224,4.35-33.735,4.35c-23.777,0-46.504-6.223-65.402-17.73c15.684-7.973,34.352-12.269,53.925-12.269h26.675
				c34.479,0,66.216,13.677,82.825,35.692C396.48,425.313,403.962,440.738,398.909,460z M432.501,206.855
				c-4.136,71.157-22.974,128.54-56.018,170.711c-19.657-11.366-43.762-17.565-68.71-17.565h-29.426
				c-42.827,0-81.661,18.098-101.347,47.23c-0.597,0.883-1.172,1.771-1.727,2.664c-33.165-1.568-66.813-8.53-92.699-19.217
				c-14.287-5.897-23.363-11.742-28.694-16.424c52.092-7.924,92.135-53.04,92.135-107.338V163.335c0-9.696,0.967-19.171,2.81-28.332
				h71.176c0.406,0,0.806-0.024,1.2-0.071c6.514,6.235,15.343,10.071,25.05,10.071c6.863,0,13.432-1.895,19.115-5.436
				c6.543,3.538,13.92,5.436,21.403,5.436c8.879,0,17.549-2.681,24.876-7.549c6.269,4.83,14.028,7.549,22.106,7.549
				c9.708,0,18.537-3.836,25.05-10.071c0.394,0.047,0.793,0.071,1.2,0.071h69.69c1.843,9.161,2.81,18.636,2.81,28.332V206.855z"/>
			<path d="M268.056,199.202c-4.955-2.374-10.898-0.306-13.307,4.626c-0.319,0.401-1.875,1.411-4.443,1.411s-4.123-1.01-4.443-1.411
				c-2.41-4.931-8.352-7.002-13.307-4.626c-4.98,2.387-7.082,8.36-4.695,13.34c3.697,7.713,12.507,12.697,22.445,12.697
				c9.938,0,18.748-4.984,22.445-12.697C275.139,207.562,273.037,201.589,268.056,199.202z"/>
		</g>
	</g>
</g>
<g>
</g>
<g>
</g>
<g>
</g>
<g>
</g>
<g>
</g>
<g>
</g>
<g>
</g>
<g>
</g>
<g>
</g>
<g>
</g>
<g>
</g>
<g>
</g>
<g>
</g>
<g>
</g>
<g>
</g>
</svg>
