<?xml version="1.0" encoding="iso-8859-1"?>
<!-- Generator: Adobe Illustrator 18.0.0, SVG Export Plug-In . SVG Version: 6.00 Build 0)  -->
<!DOCTYPE svg PUBLIC "-//W3C//DTD SVG 1.1//EN" "http://www.w3.org/Graphics/SVG/1.1/DTD/svg11.dtd">
<svg version="1.1" id="Capa_1" xmlns="http://www.w3.org/2000/svg" xmlns:xlink="http://www.w3.org/1999/xlink" x="0px" y="0px"
	 viewBox="0 0 390.26 390.26" style="enable-background:new 0 0 390.26 390.26;" xml:space="preserve">
	 <style>
      path {
        fill: #ab132d;
      }
  </style>
<g>
	<g>
		<path d="M335.726,190.184h-15.293v-78.269c0-4.143-3.357-7.5-7.5-7.5h-25.906c-4.143,0-7.5,3.357-7.5,7.5v78.269h-15.293
			c-4.143,0-7.5,3.357-7.5,7.5c0,21.287,15.465,39.02,35.746,42.582v23.229c0,9.172-7.461,16.633-16.633,16.633H202.63v-73.193
			c20.281-3.563,35.746-21.295,35.746-42.582c0-4.143-3.357-7.5-7.5-7.5h-15.293V78.58c0-4.143-3.357-7.5-7.5-7.5h-25.906
			c-4.143,0-7.5,3.357-7.5,7.5v78.271h-15.293c-4.143,0-7.5,3.357-7.5,7.5c0,21.287,15.465,39.02,35.746,42.582v73.193h-73.217
			c-9.17,0-16.633-7.461-16.633-16.633v-23.229c20.283-3.563,35.748-21.295,35.748-42.582c0-4.143-3.357-7.5-7.5-7.5h-15.295
			v-78.269c0-4.143-3.357-7.5-7.5-7.5H77.327c-4.143,0-7.5,3.357-7.5,7.5v78.269H54.534c-4.143,0-7.5,3.357-7.5,7.5
			c0,21.287,15.465,39.02,35.746,42.582v23.229c0,17.443,14.191,31.633,31.633,31.633h73.217v40.203
			c-39.051,2.287-68.648,22.293-68.648,47.43c0,4.143,3.357,7.5,7.5,7.5h137.297c4.143,0,7.5-3.357,7.5-7.5
			c0-25.137-29.598-45.143-68.648-47.43v-40.203h73.217c17.443,0,31.633-14.189,31.633-31.633v-23.229
			c20.281-3.563,35.746-21.295,35.746-42.582C343.226,193.541,339.868,190.184,335.726,190.184z M117.517,205.184
			c-3.293,11.947-14.256,20.746-27.236,20.746c-12.979,0-23.941-8.799-27.234-20.746H117.517z M84.827,119.414h10.906v70.769H84.827
			V119.414z M135.683,375.26c6.541-14.229,31.115-25.154,59.447-25.154c28.334,0,52.908,10.926,59.447,25.154H135.683z
			 M222.366,171.852c-3.293,11.947-14.256,20.746-27.236,20.746c-12.979,0-23.941-8.799-27.234-20.746H222.366z M189.677,86.08
			h10.906v70.771h-10.906V86.08z M299.98,225.93c-12.979,0-23.941-8.799-27.234-20.746h54.471
			C323.921,217.131,312.958,225.93,299.98,225.93z M294.526,119.414h10.906v70.769h-10.906V119.414z"/>
		<path d="M77.575,96.502c3.918,2.5,8.334,2.5,11.881,2.5h1.648c3.547,0,7.963,0,11.881-2.5c4.43-2.828,6.676-7.863,6.676-14.965
			c0-6.178-1.551-17.094-3.688-25.955c-2.66-11.023-6.604-22.295-15.693-22.295c-9.088,0-13.033,11.269-15.691,22.295
			c-2.139,8.861-3.69,19.777-3.69,25.955C70.899,88.639,73.145,93.674,77.575,96.502z M90.28,54.848
			c2.322,8.125,4.381,20.25,4.381,26.689c0,1.148-0.092,1.895-0.18,2.348c-0.955,0.117-7.447,0.117-8.402,0
			c-0.088-0.453-0.18-1.199-0.18-2.348C85.899,75.098,87.958,62.973,90.28,54.848z"/>
		<path d="M287.274,96.502c3.918,2.5,8.334,2.5,11.881,2.5h1.648c3.547,0,7.963,0,11.881-2.5c4.432-2.828,6.678-7.863,6.678-14.965
			c0-6.178-1.553-17.094-3.689-25.955c-2.66-11.025-6.604-22.295-15.693-22.295c-9.09,0-13.033,11.271-15.691,22.295
			c-2.137,8.861-3.689,19.777-3.689,25.955C280.599,88.639,282.845,93.674,287.274,96.502z M299.98,54.848
			c2.322,8.125,4.383,20.25,4.383,26.689c0,1.148-0.092,1.895-0.182,2.348c-0.955,0.117-7.445,0.117-8.4,0
			c-0.09-0.453-0.182-1.199-0.182-2.348C295.599,75.098,297.659,62.973,299.98,54.848z"/>
		<path d="M182.421,63.211c3.906,2.494,8.305,2.502,11.846,2.502c0.01,0,0.021,0,0.033,0h1.662c3.545,0,7.959,0,11.877-2.502
			c4.43-2.828,6.674-7.861,6.674-14.963c0-6.176-1.551-17.092-3.689-25.953C208.163,11.271,204.22,0,195.13,0
			c-9.088,0-13.033,11.271-15.691,22.295c-2.139,8.861-3.689,19.777-3.689,25.953C175.749,55.35,177.993,60.383,182.421,63.211z
			 M195.13,21.559c2.322,8.125,4.383,20.252,4.383,26.689c0,1.148-0.092,1.896-0.18,2.348c-0.955,0.117-7.449,0.117-8.404,0
			c-0.088-0.451-0.18-1.199-0.18-2.348C190.749,41.811,192.808,29.684,195.13,21.559z"/>
	</g>
</g>
<g>
</g>
<g>
</g>
<g>
</g>
<g>
</g>
<g>
</g>
<g>
</g>
<g>
</g>
<g>
</g>
<g>
</g>
<g>
</g>
<g>
</g>
<g>
</g>
<g>
</g>
<g>
</g>
<g>
</g>
</svg>
