<?xml version="1.0" encoding="utf-8"?>
<!-- Generator: Adobe Illustrator 21.1.0, SVG Export Plug-In . SVG Version: 6.00 Build 0)  -->
<svg version="1.1" id="Isolation_Mode" xmlns="http://www.w3.org/2000/svg" xmlns:xlink="http://www.w3.org/1999/xlink" x="0px"
	 y="0px" viewBox="0 0 800 482.1" style="enable-background:new 0 0 800 482.1;" xml:space="preserve">
<style type="text/css">
	.st0{fill:#AB132D;}
</style>
<path class="st0" d="M7,12l-1,1l0.5,1.4c2.9,7.4,8,13.4,14.6,18.2c-7.7,2.9-14,7.4-18.8,13.8l-0.9,1.1l0.7,1.3
	c3.5,7.1,9,12.8,16,16.9C10.9,69.4,5,74.4,0.8,81.2L0,82.5l0.8,1.2c4.2,6.9,10.1,11.9,17.5,15.4c-7,4.3-12.5,9.8-16,16.9l-0.7,1.2
	l0.9,1.2c4.7,6.5,11.1,11,18.8,13.9c-6.7,4.7-11.6,10.7-14.6,18.1l-0.5,1.3l0.9,1.1c5.2,6,12,9.9,19.9,12.2
	c-6.3,5.3-10.7,11.7-13,19.4l-0.4,1.3l1,1c5.8,5.5,12.8,8.9,20.9,10.4c-5.7,5.9-9.5,12.6-11.2,20.4l-0.2,1.4l1,1
	c6.3,5,13.6,7.7,21.8,8.5c-5.1,6.4-8.4,13.4-9.4,21.4l-0.1,1.4l1.1,0.8c6.6,4.5,14.2,6.6,22.4,6.7c-4.6,6.7-7.3,14.1-7.5,22l0,1.4
	L55,283c7,3.9,14.7,5.3,22.9,4.7c-4,7.1-5.9,14.6-5.5,22.6l0.1,1.4l1.3,0.6c7.3,3.2,15.1,3.9,23.2,2.6c-3.3,7.5-4.7,15.2-3.5,23
	l0.2,1.4l1.4,0.6c7.5,2.5,15.3,2.6,23.3,0.5c-2.7,7.8-3.3,15.5-1.5,23.3l0.4,1.3l1.4,0.4c7.7,1.9,15.5,1.3,23.3-1.4
	c-2,7.9-2,15.7,0.5,23.2l0.5,1.4l1.4,0.2c7.9,1.3,15.6-0.1,23.1-3.5c-1.3,8.1-0.6,15.9,2.6,23.1l0.6,1.3l1.4,0.2
	c8,0.5,15.5-1.5,22.7-5.5c-0.6,8.2,0.7,15.8,4.5,22.7l0.8,1.3l1.4,0c8-0.3,15.3-2.8,22.2-7.5c0.1,8.2,2.2,15.7,6.5,22.3l0.9,1.1
	l1.4-0.1c8-0.9,15-4.2,21.4-9.4c0.8,8.2,3.6,15.5,8.5,21.7l0.9,1.1l1.4-0.3c7.9-1.6,14.7-5.4,20.6-11.2c1.5,8.1,4.8,15.1,10.3,20.8
	l1,1l1.3-0.4c7.7-2.3,14.1-6.6,19.5-12.9c2.3,7.9,6.1,14.6,12.1,19.9l1,1l1.4-0.5c7.4-2.9,13.4-8,18.2-14.6
	c2.9,7.7,7.4,14,13.8,18.8l1.1,0.9l1.3-0.7c7.1-3.5,12.8-9,17-16c3.5,7.3,8.5,13.2,15.4,17.4l1.2,0.8l1.2-0.8
	c6.9-4.2,11.9-10.1,15.4-17.5c4.3,7,9.8,12.5,16.9,16l1.2,0.7l1.2-0.9c6.5-4.7,11-11.1,13.9-18.8c4.7,6.7,10.7,11.6,18.1,14.6
	l1.3,0.5l1.1-0.9c6-5.2,9.9-12,12.2-19.9c5.3,6.3,11.7,10.7,19.4,13l1.3,0.4l1-1c5.5-5.8,8.9-12.8,10.4-20.9
	c5.9,5.7,12.6,9.5,20.4,11.2l1.4,0.2l1-1c5-6.3,7.7-13.6,8.5-21.8c6.4,5.1,13.4,8.4,21.4,9.4l1.4,0.1l0.8-1.1
	c4.5-6.6,6.6-14.2,6.7-22.4c6.7,4.6,14.1,7.3,22,7.5l1.4,0l0.7-1.2c3.9-7,5.3-14.7,4.7-22.9c7.1,4,14.6,5.9,22.6,5.5l1.4-0.1
	l0.6-1.3c3.2-7.3,3.9-15.1,2.6-23.2c7.5,3.3,15.2,4.7,23,3.5l1.4-0.2l0.6-1.4c2.5-7.5,2.6-15.3,0.5-23.3c7.8,2.7,15.5,3.3,23.3,1.5
	l1.3-0.4l0.4-1.4c1.9-7.7,1.3-15.5-1.4-23.3c7.9,2,15.7,2,23.2-0.5l1.4-0.5l0.2-1.4c1.3-7.9-0.1-15.6-3.5-23.1
	c8.1,1.3,15.9,0.6,23.1-2.6l1.3-0.6l0.2-1.4c0.5-8-1.5-15.5-5.5-22.7c8.2,0.6,15.8-0.7,22.7-4.5l1.3-0.8l0-1.4
	c-0.3-8-2.8-15.3-7.5-22.2c8.2-0.1,15.7-2.2,22.4-6.5l1.1-0.9l-0.1-1.4c-0.9-8-4.2-15-9.4-21.4c8.2-0.8,15.5-3.6,21.7-8.5l1.1-0.9
	l-0.3-1.4c-1.6-7.9-5.4-14.6-11.2-20.6c8.1-1.5,15.1-4.8,20.8-10.3l1-1l-0.4-1.3c-2.3-7.7-6.6-14.1-12.9-19.5
	c7.9-2.3,14.7-6.2,19.9-12.1l1-1l-0.5-1.4c-2.9-7.4-8-13.4-14.6-18.2c7.7-2.9,14-7.4,18.8-13.8l0.9-1.1l-0.7-1.3
	c-3.5-7.1-9-12.8-16-17c7.3-3.5,13.2-8.5,17.4-15.4l0.8-1.2l-0.8-1.2c-4.2-6.9-10.1-11.9-17.5-15.4c7-4.3,12.5-9.8,16-16.9l0.7-1.2
	l-0.9-1.2c-4.7-6.5-11.1-11-18.8-13.9c6.7-4.7,11.6-10.7,14.6-18.1l0.5-1.3l-1-1.1c-4.6-5.3-10.5-9-17.3-11.4H26.4
	C18.7,2.3,12.1,6.1,7,12z M761.5,149.1c-4.1-1.1-7.4-3.4-9.9-7.3c3.6-2.8,7.6-4,11.8-3.5c4.2,1.1,7.5,3.4,9.9,7.3
	C769.7,148.5,765.7,149.6,761.5,149.1z M766.2,117.3c-4.3-0.7-7.8-2.8-10.5-6.5c3.3-3.2,7.2-4.6,11.5-4.5c4.2,0.7,7.7,2.8,10.4,6.5
	C774.3,116,770.5,117.4,766.2,117.3z M779,79.7c-3,3.4-6.8,5.2-11,5.5c-4.3-0.3-7.9-2.1-10.9-5.5c3-3.5,6.7-5.2,10.9-5.6
	C772.2,74.4,776,76.2,779,79.7z M767.1,53c-4.3,0.1-8.2-1.3-11.5-4.6c2.8-3.7,6.3-5.8,10.6-6.4c4.3,0,8.1,1.4,11.4,4.6
	C774.8,50.2,771.2,52.3,767.1,53z M761.3,10.1c4.3-0.4,8.3,0.7,11.8,3.5c-2.4,4-5.7,6.4-9.9,7.4c-4.2,0.5-8.2-0.7-11.8-3.5
	C753.8,13.5,757.3,11.1,761.3,10.1z M757,169.8c4.1,1.3,7.1,4,9.2,8.2c-3.8,2.6-7.9,3.3-12.1,2.4c-4.1-1.4-7.1-4.1-9.2-8.2
	C748.7,169.7,752.8,169,757,169.8z M747.8,200.7c3.9,1.7,6.7,4.7,8.4,8.9c-4.1,2.2-8.1,2.6-12.3,1.4c-3.9-1.7-6.7-4.7-8.4-9
	C739.6,199.8,743.7,199.5,747.8,200.7z M735.9,230.6c3.7,2.1,6.4,5.2,7.6,9.7c-4.2,1.8-8.3,1.8-12.3,0.3c-3.8-2.1-6.4-5.2-7.6-9.6
	C727.8,229.1,731.9,229.1,735.9,230.6z M721.5,259.4c3.5,2.4,5.9,5.8,6.7,10.3c-4.4,1.5-8.5,1.2-12.3-0.7c-3.5-2.4-5.9-5.8-6.7-10.3
	C713.6,257.2,717.7,257.5,721.5,259.4z M704.6,286.8c3.3,2.8,5.3,6.3,5.9,10.8c-4.5,1.1-8.6,0.5-12.3-1.8c-3.3-2.7-5.3-6.2-5.8-10.8
	C696.9,284,701,284.7,704.6,286.8z M685.5,312.8c3,3,4.7,6.7,4.8,11.3c-4.6,0.7-8.5-0.4-12-2.9c-3-3-4.7-6.8-4.8-11.3
	C678.1,309.1,682,310.2,685.5,312.8z M652.3,332.9c4.7-0.4,8.5,1.1,11.7,3.8c2.8,3.2,4.2,7.1,3.9,11.7c-4.6,0.4-8.5-1.1-11.7-3.8
	C653.5,341.4,652,337.5,652.3,332.9z M629.4,354c4.6,0.1,8.3,1.8,11.3,5c2.5,3.4,3.5,7.4,2.8,12c-4.7-0.1-8.4-1.8-11.3-5
	C629.7,362.6,628.6,358.6,629.4,354z M604.6,373.1c4.6,0.6,8.1,2.6,10.8,5.9c2.2,3.6,2.8,7.7,1.8,12.2c-4.7-0.5-8.2-2.5-10.8-5.9
	C604.1,381.6,603.5,377.5,604.6,373.1z M578.3,389.9c4.6,0.9,7.9,3.2,10.3,6.8c1.9,3.8,2.2,7.9,0.7,12.3c-4.6-0.9-7.9-3.2-10.3-6.8
	C577.1,398.4,576.8,394.3,578.3,389.9z M550.6,404.3c4.5,1.3,7.6,3.9,9.7,7.7c1.5,4,1.4,8.1-0.4,12.3c-4.5-1.2-7.6-3.9-9.7-7.6
	C548.6,412.7,548.7,408.6,550.6,404.3z M521.7,416.3c4.3,1.7,7.2,4.6,8.9,8.5c1.1,4.1,0.7,8.2-1.5,12.3c-4.3-1.7-7.2-4.6-8.9-8.5
	C519.1,424.4,519.5,420.4,521.7,416.3z M492,425.8c4.1,2,6.7,5.1,8.2,9.2c0.8,4.2,0.1,8.2-2.5,12c-4.2-2-6.8-5.1-8.2-9.1
	C488.6,433.6,489.4,429.6,492,425.8z M461.4,432.6c3.9,2.4,6.4,5.7,7.3,9.9c0.5,4.3-0.6,8.2-3.5,11.8c-3.9-2.4-6.3-5.7-7.3-9.9
	C457.4,440.1,458.6,436.2,461.4,432.6z M430.4,436.7c3.7,2.7,5.8,6.3,6.4,10.5c0.1,4.3-1.3,8.2-4.5,11.5c-3.8-2.8-5.8-6.3-6.4-10.6
	C425.8,443.8,427.3,440,430.4,436.7z M393.7,449.1c0.3-4.3,2.1-8,5.5-11c3.5,3,5.2,6.8,5.5,11l0,0.1c-0.3,4.3-2,8-5.5,11
	C395.8,457.2,394,453.5,393.7,449.1L393.7,449.1z M368,436.9c3.1,3.3,4.6,7.1,4.5,11.4c-0.7,4.3-2.8,7.8-6.5,10.4
	c-3.2-3.3-4.6-7.1-4.5-11.4C362.2,443,364.3,439.5,368,436.9z M329.7,442.7c1-4.2,3.3-7.5,7.3-9.9c2.8,3.6,4,7.5,3.5,11.8
	c-1.1,4.2-3.4,7.5-7.3,9.9C330.3,450.9,329.2,447,329.7,442.7z M298.4,435.2c1.3-4,4-7.1,8.2-9.1c2.6,3.8,3.3,7.8,2.4,12.1
	c-1.4,4-4.1,7.1-8.2,9.1C298.2,443.5,297.5,439.5,298.4,435.2z M267.8,425.2c1.7-3.9,4.7-6.8,9-8.4c2.2,4,2.6,8.1,1.4,12.2
	c-1.7,4-4.7,6.8-9,8.4C267,433.3,266.5,429.3,267.8,425.2z M238.1,412.4c2.1-3.7,5.3-6.3,9.7-7.6c1.9,4.2,1.9,8.3,0.4,12.3
	c-2.1,3.8-5.2,6.4-9.7,7.7C236.7,420.5,236.6,416.4,238.1,412.4z M209.8,397.1c2.4-3.5,5.8-5.8,10.3-6.7c1.5,4.4,1.1,8.5-0.7,12.3
	c-2.5,3.6-5.8,5.9-10.4,6.8C207.6,405.1,207.9,401,209.8,397.1z M182.8,379.5c2.8-3.3,6.3-5.3,10.9-5.9c1.1,4.5,0.5,8.6-1.7,12.3
	c-2.8,3.3-6.3,5.3-10.9,5.8C180,387.2,180.7,383.2,182.8,379.5z M157.6,359.5c3-3,6.8-4.7,11.3-4.8c0.7,4.6-0.3,8.6-2.9,12
	c-3,3.1-6.7,4.7-11.3,4.8C154.1,367,155.1,363,157.6,359.5z M134.1,337.5c3.2-2.8,7.1-4.2,11.7-3.9c0.3,4.6-1.1,8.5-3.9,11.7
	c-3.2,2.8-7,4.2-11.7,3.9C130,344.5,131.4,340.7,134.1,337.5z M112.7,313.4c3.5-2.5,7.4-3.5,12-2.8c-0.1,4.7-1.8,8.4-4.9,11.3
	c-3.4,2.6-7.4,3.5-12,2.8C107.9,320.1,109.7,316.3,112.7,313.4z M31.5,42.8c4.2,0.7,7.7,2.8,10.4,6.5c-3.3,3.2-7.1,4.6-11.5,4.5
	c-4.2-0.7-7.7-2.8-10.4-6.5C23.4,44.1,27.3,42.7,31.5,42.8z M18.6,80.5c3-3.5,6.8-5.2,11-5.6c4.3,0.4,8,2.1,11,5.6
	c-3,3.4-6.8,5.2-11,5.5C25.4,85.8,21.7,83.9,18.6,80.5z M20.1,113.6c2.8-3.7,6.3-5.8,10.6-6.4c4.3-0.1,8.1,1.3,11.4,4.6
	c-2.8,3.7-6.3,5.8-10.5,6.4C27.3,118.3,23.4,116.8,20.1,113.6z M93.5,287.6c3.7-2.2,7.7-2.8,12.2-1.8c-0.5,4.6-2.5,8.2-5.8,10.8
	c-3.7,2.2-7.7,2.8-12.2,1.8C88.1,293.9,90.1,290.2,93.5,287.6z M88.9,259.5c-0.9,4.5-3.3,7.9-6.8,10.3c-3.9,1.8-8,2.2-12.3,0.6
	c0.9-4.5,3.2-7.9,6.8-10.3C80.4,258.3,84.5,258,88.9,259.5z M74.4,231.8c-1.2,4.5-3.9,7.6-7.6,9.7c-4,1.5-8.1,1.5-12.3-0.4
	c1.2-4.4,3.8-7.5,7.6-9.6C66.1,229.9,70.2,229.9,74.4,231.8z M62.4,202.9c-1.7,4.3-4.6,7.2-8.5,8.9c-4.2,1.2-8.2,0.8-12.3-1.5
	c1.7-4.3,4.6-7.1,8.5-8.9C54.3,200.4,58.3,200.7,62.4,202.9z M43.7,181.3c-4.2,0.9-8.2,0.1-12.1-2.5c2.1-4.1,5.1-6.7,9.2-8.2
	c4.2-0.8,8.3-0.1,12.1,2.5C51,177.3,47.8,180,43.7,181.3z M36.3,150c-4.3,0.5-8.2-0.7-11.8-3.5c2.4-4,5.7-6.4,9.9-7.4
	c4.3-0.4,8.2,0.7,11.8,3.6C43.8,146.6,40.5,149,36.3,150z M46,18.3c-3.6,2.9-7.5,4-11.8,3.5c-4.2-1.1-7.5-3.4-9.9-7.3
	c3.6-2.8,7.5-4,11.8-3.5C40.4,12,43.7,14.4,46,18.3z"/>
</svg>
