<?xml version="1.0" encoding="utf-8"?>
<!-- Generator: Adobe Illustrator 21.1.0, SVG Export Plug-In . SVG Version: 6.00 Build 0)  -->
<svg version="1.1" id="Isolation_Mode" xmlns="http://www.w3.org/2000/svg" xmlns:xlink="http://www.w3.org/1999/xlink" x="0px"
	 y="0px" viewBox="0 0 1529 28.9" style="enable-background:new 0 0 1529 28.9;" xml:space="preserve">
<style type="text/css">
	.st0{fill:#FFFFFF;}
</style>
<path class="st0" d="M1391.7,28.9c1.6,0,3-0.8,4-2.3c1.4,1,3,1.4,4.5,0.9c1.5-0.5,2.6-1.7,3-3.4c1.7,0.5,3.3,0.3,4.5-0.6
	c1.1-0.9,1.8-2.3,1.8-3.9c0-0.1,0-0.2,0-0.3c1.7,0,3.2-0.7,4.1-2.1c0.5-0.7,0.7-1.6,0.7-2.5c0-0.7-0.2-1.4-0.4-2.1
	c1.7-0.6,2.8-1.8,3.2-3.3c0.1-0.4,0.1-0.7,0.1-1.1c0,0,0,0,0-0.1c0.3,0.2,0.6,0.4,0.9,0.5c-0.2,0.4-0.3,0.9-0.3,1.3
	c0,0.6,0.2,1.1,0.5,1.6c0.6,0.9,1.5,1.3,2.6,1.3c0,0.1,0,0.1,0,0.2c0,1,0.4,1.9,1.1,2.5c0.8,0.6,1.8,0.8,2.9,0.4
	c0.3,1.1,1,1.9,1.9,2.2c0.9,0.3,2,0.1,2.9-0.5c0.6,0.9,1.5,1.4,2.5,1.4c1,0,1.9-0.5,2.5-1.4c0.9,0.7,1.9,0.9,2.9,0.5
	c1-0.3,1.6-1.1,1.9-2.2c1.1,0.3,2.1,0.2,2.9-0.4c0.7-0.6,1.1-1.4,1.1-2.5c0-0.1,0-0.1,0-0.2c1.1,0,2-0.5,2.6-1.3
	c0.3-0.5,0.5-1,0.5-1.6c0-0.4-0.1-0.9-0.3-1.3c0,0,0.1,0,0.1,0c0,0.2,0.1,0.5,0.1,0.7c0.4,1.5,1.5,2.7,3.2,3.3
	c-0.3,0.7-0.4,1.4-0.4,2.1c0,0.9,0.3,1.8,0.7,2.5c0.9,1.4,2.4,2,4.1,2.1c0,0.1,0,0.2,0,0.3c0,1.6,0.6,3,1.8,3.9
	c1.2,1,2.9,1.2,4.5,0.6c0.5,1.7,1.5,2.9,3,3.4c1.5,0.5,3.1,0.2,4.5-0.9c1,1.4,2.4,2.3,4,2.3c1.6,0,3-0.8,4-2.3c1.4,1,3,1.4,4.5,0.9
	c1.5-0.5,2.6-1.7,3-3.4c1.7,0.5,3.3,0.3,4.5-0.6c1.1-0.9,1.8-2.3,1.8-3.9c0-0.1,0-0.2,0-0.3c1.7,0,3.2-0.7,4.1-2.1
	c0.5-0.7,0.7-1.6,0.7-2.5c0-0.7-0.2-1.4-0.4-2.1c1.7-0.6,2.8-1.8,3.2-3.3c0.1-0.4,0.1-0.7,0.1-1.1c0,0,0,0,0-0.1
	c0.3,0.2,0.6,0.4,0.9,0.5c-0.2,0.4-0.3,0.9-0.3,1.3c0,0.6,0.2,1.1,0.5,1.6c0.6,0.9,1.5,1.3,2.6,1.3c0,0.1,0,0.1,0,0.2
	c0,1,0.4,1.9,1.1,2.5c0.8,0.6,1.8,0.8,2.9,0.4c0.3,1.1,1,1.9,1.9,2.2c0.9,0.3,2,0.1,2.9-0.5c0.6,0.9,1.5,1.4,2.5,1.4
	c1,0,1.9-0.5,2.5-1.4c0.9,0.7,1.9,0.9,2.9,0.5c1-0.3,1.6-1.1,1.9-2.2c1.1,0.3,2.1,0.2,2.9-0.4c0.7-0.6,1.1-1.4,1.1-2.5
	c0-0.1,0-0.1,0-0.2c1.1,0,2-0.5,2.6-1.3c0.3-0.5,0.5-1,0.5-1.6c0-0.4-0.1-0.9-0.3-1.3c1.1-0.4,1.8-1.1,2.1-2.1
	c0.1-0.2,0.1-0.5,0.1-0.7c0-1.7-1.6-3.3-4-3.9c-0.3-0.1-0.7-0.1-1-0.1h5V0H805.7h-74.9v0H729v0H7.6v0H5.7v1.7h1.9
	C7.1,1.8,6.7,1.8,6.3,1.9C2.5,2.9,0,5.4,0,8.1c0,0.4,0,0.7,0.1,1.1c0.4,1.5,1.5,2.7,3.2,3.3c-0.3,0.7-0.4,1.4-0.4,2.1
	c0,0.9,0.3,1.8,0.7,2.5c0.9,1.4,2.4,2,4.1,2.1c0,0.1,0,0.2,0,0.3c0,1.6,0.6,3,1.8,3.9c1.2,1,2.9,1.2,4.5,0.6c0.5,1.7,1.5,2.9,3,3.4
	c1.5,0.5,3.1,0.2,4.5-0.9c1,1.4,2.4,2.3,4,2.3c1.6,0,3-0.8,4-2.3c1.4,1,3,1.4,4.5,0.9c1.5-0.5,2.6-1.7,3-3.4
	c1.7,0.5,3.3,0.3,4.5-0.6c1.1-0.9,1.8-2.3,1.8-3.9c0-0.1,0-0.2,0-0.3c1.7,0,3.2-0.7,4.1-2.1c0.5-0.7,0.7-1.6,0.7-2.5
	c0-0.7-0.2-1.4-0.4-2.1c1.7-0.6,2.8-1.8,3.2-3.3c0.1-0.4,0.1-0.7,0.1-1.1c0,0,0,0,0-0.1c0.3,0.2,0.6,0.4,0.9,0.5
	c-0.2,0.4-0.3,0.9-0.3,1.3c0,0.6,0.2,1.1,0.5,1.6c0.6,0.9,1.5,1.3,2.6,1.3c0,0.1,0,0.1,0,0.2c0,1,0.4,1.9,1.1,2.5
	c0.8,0.6,1.8,0.8,2.9,0.4c0.3,1.1,1,1.9,1.9,2.2c0.9,0.3,2,0.1,2.9-0.5c0.6,0.9,1.5,1.4,2.5,1.4c1,0,1.9-0.5,2.5-1.4
	c0.9,0.7,1.9,0.9,2.9,0.5c1-0.3,1.6-1.1,1.9-2.2c1.1,0.3,2.1,0.2,2.9-0.4c0.7-0.6,1.1-1.4,1.1-2.5c0-0.1,0-0.1,0-0.2
	c1.1,0,2-0.5,2.6-1.3c0.3-0.5,0.5-1,0.5-1.6c0-0.4-0.1-0.9-0.3-1.3c0,0,0.1,0,0.1,0c0,0.2,0.1,0.5,0.1,0.7c0.4,1.5,1.5,2.7,3.2,3.3
	c-0.3,0.7-0.4,1.4-0.4,2.1c0,0.9,0.3,1.8,0.7,2.5c0.9,1.4,2.4,2,4.1,2.1c0,0.1,0,0.2,0,0.3c0,1.6,0.6,3,1.8,3.9
	c1.2,1,2.9,1.2,4.5,0.6c0.5,1.7,1.5,2.9,3,3.4c1.5,0.5,3.1,0.2,4.5-0.9c1,1.4,2.4,2.3,4,2.3c1.6,0,3-0.8,4-2.3c1.4,1,3,1.4,4.5,0.9
	c1.5-0.5,2.6-1.7,3-3.4c1.7,0.5,3.3,0.3,4.5-0.6c1.1-0.9,1.8-2.3,1.8-3.9c0-0.1,0-0.2,0-0.3c1.7,0,3.2-0.7,4.1-2.1
	c0.5-0.7,0.7-1.6,0.7-2.5c0-0.7-0.2-1.4-0.4-2.1c1.7-0.6,2.8-1.8,3.2-3.3c0.1-0.4,0.1-0.7,0.1-1.1c0,0,0,0,0-0.1
	c0.3,0.2,0.6,0.4,0.9,0.5c-0.2,0.4-0.3,0.9-0.3,1.3c0,0.6,0.2,1.1,0.5,1.6c0.6,0.9,1.5,1.3,2.6,1.3c0,0.1,0,0.1,0,0.2
	c0,1,0.4,1.9,1.1,2.5c0.8,0.6,1.8,0.8,2.9,0.4c0.3,1.1,1,1.9,1.9,2.2c0.9,0.3,2,0.1,2.9-0.5c0.6,0.9,1.5,1.4,2.5,1.4
	c1,0,1.9-0.5,2.5-1.4c0.9,0.7,1.9,0.9,2.9,0.5c1-0.3,1.6-1.1,1.9-2.2c1.1,0.3,2.1,0.2,2.9-0.4c0.7-0.6,1.1-1.4,1.1-2.5
	c0-0.1,0-0.1,0-0.2c1.1,0,2-0.5,2.6-1.3c0.3-0.5,0.5-1,0.5-1.6c0-0.4-0.1-0.9-0.3-1.3c0,0,0.1,0,0.1,0c0,0.2,0.1,0.5,0.1,0.7
	c0.4,1.5,1.5,2.7,3.2,3.3c-0.3,0.7-0.4,1.4-0.4,2.1c0,0.9,0.3,1.8,0.7,2.5c0.9,1.4,2.4,2,4.1,2.1c0,0.1,0,0.2,0,0.3
	c0,1.6,0.6,3,1.8,3.9c1.2,1,2.9,1.2,4.5,0.6c0.5,1.7,1.5,2.9,3,3.4c1.5,0.5,3.1,0.2,4.5-0.9c1,1.4,2.4,2.3,4,2.3c1.6,0,3-0.8,4-2.3
	c1.4,1,3,1.4,4.5,0.9c1.5-0.5,2.6-1.7,3-3.4c1.7,0.5,3.3,0.3,4.5-0.6c1.1-0.9,1.8-2.3,1.8-3.9c0-0.1,0-0.2,0-0.3
	c1.7,0,3.2-0.7,4.1-2.1c0.5-0.7,0.7-1.6,0.7-2.5c0-0.7-0.2-1.4-0.4-2.1c1.7-0.6,2.8-1.8,3.2-3.3c0.1-0.4,0.1-0.7,0.1-1.1
	c0,0,0,0,0-0.1c0.3,0.2,0.6,0.4,0.9,0.5c-0.2,0.4-0.3,0.9-0.3,1.3c0,0.6,0.2,1.1,0.5,1.6c0.6,0.9,1.5,1.3,2.6,1.3c0,0.1,0,0.1,0,0.2
	c0,1,0.4,1.9,1.1,2.5c0.8,0.6,1.8,0.8,2.9,0.4c0.3,1.1,1,1.9,1.9,2.2c0.9,0.3,2,0.1,2.9-0.5c0.6,0.9,1.5,1.4,2.5,1.4
	c1,0,1.9-0.5,2.5-1.4c0.9,0.7,1.9,0.9,2.9,0.5c1-0.3,1.6-1.1,1.9-2.2c1.1,0.3,2.1,0.2,2.9-0.4c0.7-0.6,1.1-1.4,1.1-2.5
	c0-0.1,0-0.1,0-0.2c1.1,0,2-0.5,2.6-1.3c0.3-0.5,0.5-1,0.5-1.6c0-0.4-0.1-0.9-0.3-1.3c0,0,0.1,0,0.1,0c0,0.2,0.1,0.5,0.1,0.7
	c0.4,1.5,1.5,2.7,3.2,3.3c-0.3,0.7-0.4,1.4-0.4,2.1c0,0.9,0.3,1.8,0.7,2.5c0.9,1.4,2.4,2,4.1,2.1c0,0.1,0,0.2,0,0.3
	c0,1.6,0.6,3,1.8,3.9c1.2,1,2.9,1.2,4.5,0.6c0.5,1.7,1.5,2.9,3,3.4c1.5,0.5,3.1,0.2,4.5-0.9c1,1.4,2.4,2.3,4,2.3c1.6,0,3-0.8,4-2.3
	c1.4,1,3,1.4,4.5,0.9c1.5-0.5,2.6-1.7,3-3.4c1.7,0.5,3.3,0.3,4.5-0.6c1.1-0.9,1.8-2.3,1.8-3.9c0-0.1,0-0.2,0-0.3
	c1.7,0,3.2-0.7,4.1-2.1c0.5-0.7,0.7-1.6,0.7-2.5c0-0.7-0.2-1.4-0.4-2.1c1.7-0.6,2.8-1.8,3.2-3.3c0.1-0.4,0.1-0.7,0.1-1.1
	c0,0,0,0,0-0.1c0.3,0.2,0.6,0.4,0.9,0.5c-0.2,0.4-0.3,0.9-0.3,1.3c0,0.6,0.2,1.1,0.5,1.6c0.6,0.9,1.5,1.3,2.6,1.3c0,0.1,0,0.1,0,0.2
	c0,1,0.4,1.9,1.1,2.5c0.8,0.6,1.8,0.8,2.9,0.4c0.3,1.1,1,1.9,1.9,2.2c0.9,0.3,2,0.1,2.9-0.5c0.6,0.9,1.5,1.4,2.5,1.4
	c1,0,1.9-0.5,2.5-1.4c0.9,0.7,1.9,0.9,2.9,0.5c1-0.3,1.6-1.1,1.9-2.2c1.1,0.3,2.1,0.2,2.9-0.4c0.7-0.6,1.1-1.4,1.1-2.5
	c0-0.1,0-0.1,0-0.2c1.1,0,2-0.5,2.6-1.3c0.3-0.5,0.5-1,0.5-1.6c0-0.4-0.1-0.9-0.3-1.3c0,0,0.1,0,0.1,0c0,0.2,0.1,0.5,0.1,0.7
	c0.4,1.5,1.5,2.7,3.2,3.3c-0.3,0.7-0.4,1.4-0.4,2.1c0,0.9,0.3,1.8,0.7,2.5c0.9,1.4,2.4,2,4.1,2.1c0,0.1,0,0.2,0,0.3
	c0,1.6,0.6,3,1.8,3.9c1.2,1,2.9,1.2,4.5,0.6c0.5,1.7,1.5,2.9,3,3.4c1.5,0.5,3.1,0.2,4.5-0.9c1,1.4,2.4,2.3,4,2.3c1.6,0,3-0.8,4-2.3
	c1.4,1,3,1.4,4.5,0.9c1.5-0.5,2.6-1.7,3-3.4c1.7,0.5,3.3,0.3,4.5-0.6c1.1-0.9,1.8-2.3,1.8-3.9c0-0.1,0-0.2,0-0.3
	c1.7,0,3.2-0.7,4.1-2.1c0.5-0.7,0.7-1.6,0.7-2.5c0-0.7-0.2-1.4-0.4-2.1c1.7-0.6,2.8-1.8,3.2-3.3c0.1-0.4,0.1-0.7,0.1-1.1
	c0,0,0,0,0-0.1c0.3,0.2,0.6,0.4,0.9,0.5c-0.2,0.4-0.3,0.9-0.3,1.3c0,0.6,0.2,1.1,0.5,1.6c0.6,0.9,1.5,1.3,2.6,1.3c0,0.1,0,0.1,0,0.2
	c0,1,0.4,1.9,1.1,2.5c0.8,0.6,1.8,0.8,2.9,0.4c0.3,1.1,1,1.9,1.9,2.2c0.9,0.3,2,0.1,2.9-0.5c0.6,0.9,1.5,1.4,2.5,1.4
	s1.9-0.5,2.5-1.4c0.9,0.7,1.9,0.9,2.9,0.5c1-0.3,1.6-1.1,1.9-2.2c1.1,0.3,2.1,0.2,2.9-0.4c0.7-0.6,1.1-1.4,1.1-2.5
	c0-0.1,0-0.1,0-0.2c1.1,0,2-0.5,2.6-1.3c0.3-0.5,0.5-1,0.5-1.6c0-0.4-0.1-0.9-0.3-1.3c0,0,0.1,0,0.1,0c0,0.2,0.1,0.5,0.1,0.7
	c0.4,1.5,1.5,2.7,3.2,3.3c-0.3,0.7-0.4,1.4-0.4,2.1c0,0.9,0.3,1.8,0.7,2.5c0.9,1.4,2.4,2,4.1,2.1c0,0.1,0,0.2,0,0.3
	c0,1.6,0.6,3,1.8,3.9c1.2,1,2.9,1.2,4.5,0.6c0.5,1.7,1.5,2.9,3,3.4c1.5,0.5,3.1,0.2,4.5-0.9c1,1.4,2.4,2.3,4,2.3s3-0.8,4-2.3
	c1.4,1,3,1.4,4.5,0.9c1.5-0.5,2.6-1.7,3-3.4c1.7,0.5,3.3,0.3,4.5-0.6c1.1-0.9,1.8-2.3,1.8-3.9c0-0.1,0-0.2,0-0.3
	c1.7,0,3.2-0.7,4.1-2.1c0.5-0.7,0.7-1.6,0.7-2.5c0-0.7-0.2-1.4-0.4-2.1c1.7-0.6,2.8-1.8,3.2-3.3c0.1-0.4,0.1-0.7,0.1-1.1
	c0,0,0,0,0-0.1c0.3,0.2,0.6,0.4,0.9,0.5c-0.2,0.4-0.3,0.9-0.3,1.3c0,0.6,0.2,1.1,0.5,1.6c0.6,0.9,1.5,1.3,2.6,1.3c0,0.1,0,0.1,0,0.2
	c0,1,0.4,1.9,1.1,2.5c0.8,0.6,1.8,0.8,2.9,0.4c0.3,1.1,1,1.9,1.9,2.2c0.9,0.3,2,0.1,2.9-0.5c0.6,0.9,1.5,1.4,2.5,1.4
	c1,0,1.9-0.5,2.5-1.4c0.9,0.7,1.9,0.9,2.9,0.5c1-0.3,1.6-1.1,1.9-2.2c1.1,0.3,2.1,0.2,2.9-0.4c0.7-0.6,1.1-1.4,1.1-2.5
	c0-0.1,0-0.1,0-0.2c1.1,0,2-0.5,2.6-1.3c0.3-0.5,0.5-1,0.5-1.6c0-0.4-0.1-0.9-0.3-1.3c0,0,0.1,0,0.1,0c0,0.2,0.1,0.5,0.1,0.7
	c0.4,1.5,1.5,2.7,3.2,3.3c-0.3,0.7-0.4,1.4-0.4,2.1c0,0.9,0.3,1.8,0.7,2.5c0.9,1.4,2.4,2,4.1,2.1c0,0.1,0,0.2,0,0.3
	c0,1.6,0.6,3,1.8,3.9c1.2,1,2.9,1.2,4.5,0.6c0.5,1.7,1.5,2.9,3,3.4c1.5,0.5,3.1,0.2,4.5-0.9c1,1.4,2.4,2.3,4,2.3c1.6,0,3-0.8,4-2.3
	c1.4,1,3,1.4,4.5,0.9c1.5-0.5,2.6-1.7,3-3.4c1.7,0.5,3.3,0.3,4.5-0.6c1.1-0.9,1.8-2.3,1.8-3.9c0-0.1,0-0.2,0-0.3
	c1.7,0,3.2-0.7,4.1-2.1c0.5-0.7,0.7-1.6,0.7-2.5c0-0.7-0.2-1.4-0.4-2.1c1.7-0.6,2.8-1.8,3.2-3.3c0.1-0.4,0.1-0.7,0.1-1.1
	c0,0,0,0,0-0.1c0.3,0.2,0.6,0.4,0.9,0.5c-0.2,0.4-0.3,0.9-0.3,1.3c0,0.6,0.2,1.1,0.5,1.6c0.6,0.9,1.5,1.3,2.6,1.3c0,0.1,0,0.1,0,0.2
	c0,1,0.4,1.9,1.1,2.5c0.8,0.6,1.8,0.8,2.9,0.4c0.3,1.1,1,1.9,1.9,2.2c0.9,0.3,2,0.1,2.9-0.5c0.6,0.9,1.5,1.4,2.5,1.4
	c1,0,1.9-0.5,2.5-1.4c0.9,0.7,1.9,0.9,2.9,0.5c1-0.3,1.6-1.1,1.9-2.2c1.1,0.3,2.1,0.2,2.9-0.4c0.7-0.6,1.1-1.4,1.1-2.5
	c0-0.1,0-0.1,0-0.2c1.1,0,2-0.5,2.6-1.3c0.3-0.5,0.5-1,0.5-1.6c0-0.4-0.1-0.9-0.3-1.3c0,0,0.1,0,0.1,0c0,0.2,0.1,0.5,0.1,0.7
	c0.4,1.5,1.5,2.7,3.2,3.3c-0.3,0.7-0.4,1.4-0.4,2.1c0,0.9,0.3,1.8,0.7,2.5c0.9,1.4,2.4,2,4.1,2.1c0,0.1,0,0.2,0,0.3
	c0,1.6,0.6,3,1.8,3.9c1.2,1,2.9,1.2,4.5,0.6c0.5,1.7,1.5,2.9,3,3.4c1.5,0.5,3.1,0.2,4.5-0.9c1,1.4,2.4,2.3,4,2.3c1.6,0,3-0.8,4-2.3
	c1.4,1,3,1.4,4.5,0.9c1.5-0.5,2.6-1.7,3-3.4c1.7,0.5,3.3,0.3,4.5-0.6c1.1-0.9,1.8-2.3,1.8-3.9c0-0.1,0-0.2,0-0.3
	c1.7,0,3.2-0.7,4.1-2.1c0.5-0.7,0.7-1.6,0.7-2.5c0-0.7-0.2-1.4-0.4-2.1c1.7-0.6,2.8-1.8,3.2-3.3c0.1-0.4,0.1-0.7,0.1-1.1
	c0,0,0,0,0-0.1c0.3,0.2,0.6,0.4,0.9,0.5c-0.2,0.4-0.3,0.9-0.3,1.3c0,0.6,0.2,1.1,0.5,1.6c0.6,0.9,1.5,1.3,2.6,1.3c0,0.1,0,0.1,0,0.2
	c0,1,0.4,1.9,1.1,2.5c0.8,0.6,1.8,0.8,2.9,0.4c0.3,1.1,1,1.9,1.9,2.2c0.9,0.3,2,0.1,2.9-0.5c0.6,0.9,1.5,1.4,2.5,1.4
	c1,0,1.9-0.5,2.5-1.4c0.9,0.7,1.9,0.9,2.9,0.5c1-0.3,1.6-1.1,1.9-2.2c1.1,0.3,2.1,0.2,2.9-0.4c0.7-0.6,1.1-1.4,1.1-2.5
	c0-0.1,0-0.1,0-0.2c1.1,0,2-0.5,2.6-1.3c0.3-0.5,0.5-1,0.5-1.6c0-0.4-0.1-0.9-0.3-1.3c0,0,0.1,0,0.1,0c0,0.2,0.1,0.5,0.1,0.7
	c0.4,1.5,1.5,2.7,3.2,3.3c-0.3,0.7-0.4,1.4-0.4,2.1c0,0.9,0.3,1.8,0.7,2.5c0.9,1.4,2.4,2,4.1,2.1c0,0.1,0,0.2,0,0.3
	c0,1.6,0.6,3,1.8,3.9c1.2,1,2.9,1.2,4.5,0.6c0.5,1.7,1.5,2.9,3,3.4c1.5,0.5,3.1,0.2,4.5-0.9c1,1.4,2.4,2.3,4,2.3c1.6,0,3-0.8,4-2.3
	c1.4,1,3,1.4,4.5,0.9c1.5-0.5,2.6-1.7,3-3.4c1.7,0.5,3.3,0.3,4.5-0.6c1.1-0.9,1.8-2.3,1.8-3.9c0-0.1,0-0.2,0-0.3
	c1.7,0,3.2-0.7,4.1-2.1c0.5-0.7,0.7-1.6,0.7-2.5c0-0.7-0.2-1.4-0.4-2.1c1.7-0.6,2.8-1.8,3.2-3.3c0.1-0.4,0.1-0.7,0.1-1.1
	c0,0,0,0,0-0.1c0.3,0.2,0.6,0.4,0.9,0.5c-0.2,0.4-0.3,0.9-0.3,1.3c0,0.6,0.2,1.1,0.5,1.6c0.6,0.9,1.5,1.3,2.6,1.3c0,0.1,0,0.1,0,0.2
	c0,1,0.4,1.9,1.1,2.5c0.8,0.6,1.8,0.8,2.9,0.4c0.3,1.1,1,1.9,1.9,2.2c0.9,0.3,2,0.1,2.9-0.5c0.6,0.9,1.5,1.4,2.5,1.4
	c1,0,1.9-0.5,2.5-1.4c0.9,0.7,1.9,0.9,2.9,0.5c1-0.3,1.6-1.1,1.9-2.2c1.1,0.3,2.1,0.2,2.9-0.4c0.7-0.6,1.1-1.4,1.1-2.5
	c0-0.1,0-0.1,0-0.2c1.1,0,2-0.5,2.6-1.3c0.3-0.5,0.5-1,0.5-1.6c0-0.4-0.1-0.9-0.3-1.3c0,0,0.1,0,0.1,0c0,0.1,0,0.1,0,0.2
	c0,0,0,0,0,0c0,0.2,0,0.4,0.1,0.5c0.4,1.5,1.5,2.7,3.2,3.3c-0.3,0.7-0.4,1.4-0.4,2.1c0,0.9,0.3,1.8,0.7,2.5c0.9,1.4,2.4,2,4.1,2.1
	c0,0.1,0,0.2,0,0.3c0,1.6,0.6,3,1.8,3.9c0.8,0.6,1.7,0.9,2.7,0.9c0.6,0,1.2-0.1,1.8-0.3c0.5,1.7,1.5,2.9,3,3.4
	c0.6,0.2,1.1,0.3,1.7,0.2c1-0.1,1.9-0.4,2.8-1.1c1,1.4,2.4,2.3,4,2.3c0,0,0,0,0,0s0,0,0,0c1.6,0,3-0.8,4-2.3c0.9,0.7,1.8,1,2.8,1.1
	c0.6,0,1.1,0,1.7-0.2c1.5-0.5,2.6-1.7,3-3.4c0.6,0.2,1.2,0.3,1.8,0.3c1,0,1.9-0.3,2.7-0.9c1.1-0.9,1.8-2.3,1.8-3.9
	c0-0.1,0-0.2,0-0.3c1.7,0,3.2-0.7,4.1-2.1c0.5-0.7,0.7-1.6,0.7-2.5c0-0.7-0.2-1.4-0.4-2.1c1.7-0.6,2.8-1.8,3.2-3.3
	c0.1-0.4,0.1-0.7,0.1-1.1c0,0,0,0,0-0.1c0.3,0.2,0.6,0.4,0.9,0.5c-0.2,0.4-0.3,0.9-0.3,1.3c0,0.6,0.2,1.1,0.5,1.6
	c0.6,0.9,1.5,1.3,2.6,1.3c0,0.1,0,0.1,0,0.2c0,1,0.4,1.9,1.1,2.5c0.6,0.5,1.3,0.7,2.1,0.6c0.3,0,0.5-0.1,0.8-0.2
	c0.3,1.1,1,1.9,1.9,2.2c0.2,0.1,0.5,0.1,0.7,0.1c0.7,0,1.5-0.2,2.1-0.7c0.6,0.9,1.5,1.4,2.5,1.4c0,0,0,0,0,0s0,0,0,0
	c1,0,1.9-0.5,2.5-1.4c0.7,0.5,1.4,0.7,2.1,0.7c0.2,0,0.5-0.1,0.7-0.1c1-0.3,1.6-1.1,1.9-2.2c0.3,0.1,0.5,0.1,0.8,0.2
	c0.8,0.1,1.5-0.1,2.1-0.6c0.7-0.6,1.1-1.4,1.1-2.5c0-0.1,0-0.1,0-0.2c1.1,0,2-0.5,2.6-1.3c0.3-0.5,0.5-1,0.5-1.6
	c0-0.4-0.1-0.9-0.3-1.3c0,0,0.1,0,0.1,0c0,0.2,0.1,0.5,0.1,0.7c0.4,1.5,1.5,2.7,3.2,3.3c-0.3,0.7-0.4,1.4-0.4,2.1
	c0,0.9,0.3,1.8,0.7,2.5c0.9,1.4,2.4,2,4.1,2.1c0,0.1,0,0.2,0,0.3c0,1.6,0.6,3,1.8,3.9c1.2,1,2.9,1.2,4.5,0.6c0.5,1.7,1.5,2.9,3,3.4
	c1.5,0.5,3.1,0.2,4.5-0.9c1,1.4,2.4,2.3,4,2.3c1.6,0,3-0.8,4-2.3c1.4,1,3,1.4,4.5,0.9c1.5-0.5,2.6-1.7,3-3.4
	c1.7,0.5,3.3,0.3,4.5-0.6c1.1-0.9,1.8-2.3,1.8-3.9c0-0.1,0-0.2,0-0.3c1.7,0,3.2-0.7,4.1-2.1c0.5-0.7,0.7-1.6,0.7-2.5
	c0-0.7-0.2-1.4-0.4-2.1c1.7-0.6,2.8-1.8,3.2-3.3c0.1-0.4,0.1-0.7,0.1-1.1c0,0,0,0,0-0.1c0.3,0.2,0.6,0.4,0.9,0.5
	c-0.2,0.4-0.3,0.9-0.3,1.3c0,0.6,0.2,1.1,0.5,1.6c0.6,0.9,1.5,1.3,2.6,1.3c0,0.1,0,0.1,0,0.2c0,1,0.4,1.9,1.1,2.5
	c0.8,0.6,1.8,0.8,2.9,0.4c0.3,1.1,1,1.9,1.9,2.2c0.9,0.3,2,0.1,2.9-0.5c0.6,0.9,1.5,1.4,2.5,1.4c1,0,1.9-0.5,2.5-1.4
	c0.9,0.7,1.9,0.9,2.9,0.5c1-0.3,1.6-1.1,1.9-2.2c1.1,0.3,2.1,0.2,2.9-0.4c0.7-0.6,1.1-1.4,1.1-2.5c0-0.1,0-0.1,0-0.2
	c1.1,0,2-0.5,2.6-1.3c0.3-0.5,0.5-1,0.5-1.6c0-0.4-0.1-0.9-0.3-1.3c0,0,0.1,0,0.1,0c0,0.2,0.1,0.5,0.1,0.7c0.4,1.5,1.5,2.7,3.2,3.3
	c-0.3,0.7-0.4,1.4-0.4,2.1c0,0.9,0.3,1.8,0.7,2.5c0.9,1.4,2.4,2,4.1,2.1c0,0.1,0,0.2,0,0.3c0,1.6,0.6,3,1.8,3.9
	c1.2,1,2.9,1.2,4.5,0.6c0.5,1.7,1.5,2.9,3,3.4c1.5,0.5,3.1,0.2,4.5-0.9c1,1.4,2.4,2.3,4,2.3c1.6,0,3-0.8,4-2.3c1.4,1,3,1.4,4.5,0.9
	c1.5-0.5,2.6-1.7,3-3.4c1.7,0.5,3.3,0.3,4.5-0.6c1.1-0.9,1.8-2.3,1.8-3.9c0-0.1,0-0.2,0-0.3c1.7,0,3.2-0.7,4.1-2.1
	c0.5-0.7,0.7-1.6,0.7-2.5c0-0.7-0.2-1.4-0.4-2.1c1.7-0.6,2.8-1.8,3.2-3.3c0.1-0.4,0.1-0.7,0.1-1.1c0,0,0,0,0-0.1
	c0.3,0.2,0.6,0.4,0.9,0.5c-0.2,0.4-0.3,0.9-0.3,1.3c0,0.6,0.2,1.1,0.5,1.6c0.6,0.9,1.5,1.3,2.6,1.3c0,0.1,0,0.1,0,0.2
	c0,1,0.4,1.9,1.1,2.5c0.8,0.6,1.8,0.8,2.9,0.4c0.3,1.1,1,1.9,1.9,2.2c0.9,0.3,2,0.1,2.9-0.5c0.6,0.9,1.5,1.4,2.5,1.4
	c1,0,1.9-0.5,2.5-1.4c0.9,0.7,1.9,0.9,2.9,0.5c1-0.3,1.6-1.1,1.9-2.2c1.1,0.3,2.1,0.2,2.9-0.4c0.7-0.6,1.1-1.4,1.1-2.5
	c0-0.1,0-0.1,0-0.2c1.1,0,2-0.5,2.6-1.3c0.3-0.5,0.5-1,0.5-1.6c0-0.4-0.1-0.9-0.3-1.3c0,0,0.1,0,0.1,0c0,0.2,0.1,0.5,0.1,0.7
	c0.4,1.5,1.5,2.7,3.2,3.3c-0.3,0.7-0.4,1.4-0.4,2.1c0,0.9,0.3,1.8,0.7,2.5c0.9,1.4,2.4,2,4.1,2.1c0,0.1,0,0.2,0,0.3
	c0,1.6,0.6,3,1.8,3.9c1.2,1,2.9,1.2,4.5,0.6c0.5,1.7,1.5,2.9,3,3.4c1.5,0.5,3.1,0.2,4.5-0.9c1,1.4,2.4,2.3,4,2.3c1.6,0,3-0.8,4-2.3
	c1.4,1,3,1.4,4.5,0.9c1.5-0.5,2.6-1.7,3-3.4c1.7,0.5,3.3,0.3,4.5-0.6c1.1-0.9,1.8-2.3,1.8-3.9c0-0.1,0-0.2,0-0.3
	c1.7,0,3.2-0.7,4.1-2.1c0.5-0.7,0.7-1.6,0.7-2.5c0-0.7-0.2-1.4-0.4-2.1c1.7-0.6,2.8-1.8,3.2-3.3c0.1-0.4,0.1-0.7,0.1-1.1
	c0,0,0,0,0-0.1c0.3,0.2,0.6,0.4,0.9,0.5c-0.2,0.4-0.3,0.9-0.3,1.3c0,0.6,0.2,1.1,0.5,1.6c0.6,0.9,1.5,1.3,2.6,1.3c0,0.1,0,0.1,0,0.2
	c0,1,0.4,1.9,1.1,2.5c0.8,0.6,1.8,0.8,2.9,0.4c0.3,1.1,1,1.9,1.9,2.2c0.9,0.3,2,0.1,2.9-0.5c0.6,0.9,1.5,1.4,2.5,1.4
	c1,0,1.9-0.5,2.5-1.4c0.9,0.7,1.9,0.9,2.9,0.5c1-0.3,1.6-1.1,1.9-2.2c1.1,0.3,2.1,0.2,2.9-0.4c0.7-0.6,1.1-1.4,1.1-2.5
	c0-0.1,0-0.1,0-0.2c1.1,0,2-0.5,2.6-1.3c0.3-0.5,0.5-1,0.5-1.6c0-0.4-0.1-0.9-0.3-1.3c0,0,0.1,0,0.1,0c0,0.2,0.1,0.5,0.1,0.7
	c0.4,1.5,1.5,2.7,3.2,3.3c-0.3,0.7-0.4,1.4-0.4,2.1c0,0.9,0.3,1.8,0.7,2.5c0.9,1.4,2.4,2,4.1,2.1c0,0.1,0,0.2,0,0.3
	c0,1.6,0.6,3,1.8,3.9c1.2,1,2.9,1.2,4.5,0.6c0.5,1.7,1.5,2.9,3,3.4c1.5,0.5,3.1,0.2,4.5-0.9c1,1.4,2.4,2.3,4,2.3c1.6,0,3-0.8,4-2.3
	c1.4,1,3,1.4,4.5,0.9c1.5-0.5,2.6-1.7,3-3.4c1.7,0.5,3.3,0.3,4.5-0.6c1.1-0.9,1.8-2.3,1.8-3.9c0-0.1,0-0.2,0-0.3
	c1.7,0,3.2-0.7,4.1-2.1c0.5-0.7,0.7-1.6,0.7-2.5c0-0.7-0.2-1.4-0.4-2.1c1.7-0.6,2.8-1.8,3.2-3.3c0.1-0.4,0.1-0.7,0.1-1.1
	c0,0,0,0,0-0.1c0.3,0.2,0.6,0.4,0.9,0.5c-0.2,0.4-0.3,0.9-0.3,1.3c0,0.6,0.2,1.1,0.5,1.6c0.6,0.9,1.5,1.3,2.6,1.3c0,0.1,0,0.1,0,0.2
	c0,1,0.4,1.9,1.1,2.5c0.8,0.6,1.8,0.8,2.9,0.4c0.3,1.1,1,1.9,1.9,2.2c0.9,0.3,2,0.1,2.9-0.5c0.6,0.9,1.5,1.4,2.5,1.4
	s1.9-0.5,2.5-1.4c0.9,0.7,1.9,0.9,2.9,0.5c1-0.3,1.6-1.1,1.9-2.2c1.1,0.3,2.1,0.2,2.9-0.4c0.7-0.6,1.1-1.4,1.1-2.5
	c0-0.1,0-0.1,0-0.2c1.1,0,2-0.5,2.6-1.3c0.3-0.5,0.5-1,0.5-1.6c0-0.4-0.1-0.9-0.3-1.3c0,0,0.1,0,0.1,0c0,0.2,0.1,0.5,0.1,0.7
	c0.4,1.5,1.5,2.7,3.2,3.3c-0.3,0.7-0.4,1.4-0.4,2.1c0,0.9,0.3,1.8,0.7,2.5c0.9,1.4,2.4,2,4.1,2.1c0,0.1,0,0.2,0,0.3
	c0,1.6,0.6,3,1.8,3.9c1.2,1,2.9,1.2,4.5,0.6c0.5,1.7,1.5,2.9,3,3.4c1.5,0.5,3.1,0.2,4.5-0.9c1,1.4,2.4,2.3,4,2.3s3-0.8,4-2.3
	c1.4,1,3,1.4,4.5,0.9c1.5-0.5,2.6-1.7,3-3.4c1.7,0.5,3.3,0.3,4.5-0.6c1.1-0.9,1.8-2.3,1.8-3.9c0-0.1,0-0.2,0-0.3
	c1.7,0,3.2-0.7,4.1-2.1c0.5-0.7,0.7-1.6,0.7-2.5c0-0.7-0.2-1.4-0.4-2.1c1.7-0.6,2.8-1.8,3.2-3.3c0.1-0.4,0.1-0.7,0.1-1.1
	c0,0,0,0,0-0.1c0.3,0.2,0.6,0.4,0.9,0.5c-0.2,0.4-0.3,0.9-0.3,1.3c0,0.6,0.2,1.1,0.5,1.6c0.6,0.9,1.5,1.3,2.6,1.3c0,0.1,0,0.1,0,0.2
	c0,1,0.4,1.9,1.1,2.5c0.8,0.6,1.8,0.8,2.9,0.4c0.3,1.1,1,1.9,1.9,2.2c0.9,0.3,2,0.1,2.9-0.5c0.6,0.9,1.5,1.4,2.5,1.4
	c1,0,1.9-0.5,2.5-1.4c0.9,0.7,1.9,0.9,2.9,0.5c1-0.3,1.6-1.1,1.9-2.2c1.1,0.3,2.1,0.2,2.9-0.4c0.7-0.6,1.1-1.4,1.1-2.5
	c0-0.1,0-0.1,0-0.2c1.1,0,2-0.5,2.6-1.3c0.3-0.5,0.5-1,0.5-1.6c0-0.4-0.1-0.9-0.3-1.3c0,0,0.1,0,0.1,0c0,0.2,0.1,0.5,0.1,0.7
	c0.4,1.5,1.5,2.7,3.2,3.3c-0.3,0.7-0.4,1.4-0.4,2.1c0,0.9,0.3,1.8,0.7,2.5c0.9,1.4,2.4,2,4.1,2.1c0,0.1,0,0.2,0,0.3
	c0,1.6,0.6,3,1.8,3.9c1.2,1,2.9,1.2,4.5,0.6c0.5,1.7,1.5,2.9,3,3.4c1.5,0.5,3.1,0.2,4.5-0.9c1,1.4,2.4,2.3,4,2.3s3-0.8,4-2.3
	c1.4,1,3,1.4,4.5,0.9c1.5-0.5,2.6-1.7,3-3.4c1.7,0.5,3.3,0.3,4.5-0.6c1.1-0.9,1.8-2.3,1.8-3.9c0-0.1,0-0.2,0-0.3
	c1.7,0,3.2-0.7,4.1-2.1c0.5-0.7,0.7-1.6,0.7-2.5c0-0.7-0.2-1.4-0.4-2.1c1.7-0.6,2.8-1.8,3.2-3.3c0.1-0.4,0.1-0.7,0.1-1.1
	c0,0,0,0,0-0.1c0.3,0.2,0.6,0.4,0.9,0.5c-0.2,0.4-0.3,0.9-0.3,1.3c0,0.6,0.2,1.1,0.5,1.6c0.6,0.9,1.5,1.3,2.6,1.3c0,0.1,0,0.1,0,0.2
	c0,1,0.4,1.9,1.1,2.5c0.8,0.6,1.8,0.8,2.9,0.4c0.3,1.1,1,1.9,1.9,2.2c0.9,0.3,2,0.1,2.9-0.5c0.6,0.9,1.5,1.4,2.5,1.4
	c1,0,1.9-0.5,2.5-1.4c0.9,0.7,1.9,0.9,2.9,0.5c1-0.3,1.6-1.1,1.9-2.2c1.1,0.3,2.1,0.2,2.9-0.4c0.7-0.6,1.1-1.4,1.1-2.5
	c0-0.1,0-0.1,0-0.2c1.1,0,2-0.5,2.6-1.3c0.3-0.5,0.5-1,0.5-1.6c0-0.4-0.1-0.9-0.3-1.3c0,0,0.1,0,0.1,0c0,0.2,0.1,0.5,0.1,0.7
	c0.4,1.5,1.5,2.7,3.2,3.3c-0.3,0.7-0.4,1.4-0.4,2.1c0,0.9,0.3,1.8,0.7,2.5c0.9,1.4,2.4,2,4.1,2.1c0,0.1,0,0.2,0,0.3
	c0,1.6,0.6,3,1.8,3.9c1.2,1,2.9,1.2,4.5,0.6c0.5,1.7,1.5,2.9,3,3.4c1.5,0.5,3.1,0.2,4.5-0.9c1,1.4,2.4,2.3,4,2.3c1.6,0,3-0.8,4-2.3
	c1.4,1,3,1.4,4.5,0.9c1.5-0.5,2.6-1.7,3-3.4c1.7,0.5,3.3,0.3,4.5-0.6c1.1-0.9,1.8-2.3,1.8-3.9c0-0.1,0-0.2,0-0.3
	c1.7,0,3.2-0.7,4.1-2.1c0.5-0.7,0.7-1.6,0.7-2.5c0-0.7-0.2-1.4-0.4-2.1c1.7-0.6,2.8-1.8,3.2-3.3c0.1-0.4,0.1-0.7,0.1-1.1
	c0,0,0,0,0-0.1c0.3,0.2,0.6,0.4,0.9,0.5c-0.2,0.4-0.3,0.9-0.3,1.3c0,0.6,0.2,1.1,0.5,1.6c0.6,0.9,1.5,1.3,2.6,1.3c0,0.1,0,0.1,0,0.2
	c0,1,0.4,1.9,1.1,2.5c0.8,0.6,1.8,0.8,2.9,0.4c0.3,1.1,1,1.9,1.9,2.2c0.9,0.3,2,0.1,2.9-0.5c0.6,0.9,1.5,1.4,2.5,1.4
	c1,0,1.9-0.5,2.5-1.4c0.9,0.7,1.9,0.9,2.9,0.5c1-0.3,1.6-1.1,1.9-2.2c1.1,0.3,2.1,0.2,2.9-0.4c0.7-0.6,1.1-1.4,1.1-2.5
	c0-0.1,0-0.1,0-0.2c1.1,0,2-0.5,2.6-1.3c0.3-0.5,0.5-1,0.5-1.6c0-0.4-0.1-0.9-0.3-1.3c0,0,0.1,0,0.1,0c0,0.2,0.1,0.5,0.1,0.7
	c0.4,1.5,1.5,2.7,3.2,3.3c-0.3,0.7-0.4,1.4-0.4,2.1c0,0.9,0.3,1.8,0.7,2.5c0.9,1.4,2.4,2,4.1,2.1c0,0.1,0,0.2,0,0.3
	c0,1.6,0.6,3,1.8,3.9c1.2,1,2.9,1.2,4.5,0.6c0.5,1.7,1.5,2.9,3,3.4c1.5,0.5,3.1,0.2,4.5-0.9C1388.7,28,1390.1,28.9,1391.7,28.9z
	 M1399.2,24.6c-1.3,0.4-3-1.2-3.9-3.7c-0.8-2.5-0.5-4.8,0.8-5.3c1.3-0.4,3,1.2,3.9,3.7C1400.9,21.8,1400.5,24.2,1399.2,24.6z
	 M1405.9,21c-1.1,0.8-3.3-0.2-4.9-2.2c-1.6-2.1-2-4.4-0.9-5.3c1.1-0.8,3.3,0.2,4.9,2.2C1406.6,17.8,1407,20.2,1405.9,21z
	 M1390.1,11.8c-1.2,1.2-2.5,1.9-2.9,1.6c-0.4-0.4,0.3-1.6,1.6-2.9c0.3-0.3,0.5-0.5,0.8-0.7c-0.3,0-0.7,0.1-1.1,0.1
	c-1.7,0-3.1-0.4-3.1-0.9c0-0.5,1.4-0.9,3.1-0.9c0.4,0,0.7,0,1.1,0.1c-0.3-0.2-0.5-0.4-0.8-0.7c-1.2-1.2-1.9-2.5-1.6-2.9
	c0.4-0.4,1.6,0.3,2.9,1.6c0.3,0.3,0.5,0.5,0.7,0.8c0-0.3-0.1-0.7-0.1-1.1c0-1.7,0.4-3.1,0.9-3.1c0.5,0,0.9,1.4,0.9,3.1
	c0,0.4,0,0.7-0.1,1.1c0.2-0.3,0.4-0.5,0.7-0.8c1.2-1.2,2.5-1.9,2.9-1.6c0.4,0.4-0.3,1.6-1.6,2.9c-0.3,0.3-0.5,0.5-0.8,0.7
	c0.3,0,0.7-0.1,1.1-0.1c1.7,0,3.1,0.4,3.1,0.9c0,0.5-1.4,0.9-3.1,0.9c-0.4,0-0.7,0-1.1-0.1c0.3,0.2,0.5,0.4,0.8,0.7
	c1.2,1.2,1.9,2.5,1.6,2.9c-0.4,0.4-1.6-0.3-2.9-1.6c-0.3-0.3-0.5-0.5-0.7-0.8c0,0.3,0.1,0.7,0.1,1.1c0,1.7-0.4,3.1-0.9,3.1
	c-0.5,0-0.9-1.4-0.9-3.1c0-0.4,0-0.7,0.1-1.1C1390.6,11.2,1390.4,11.5,1390.1,11.8z M1353.8,7.2c0.8,0.8,1.2,1.6,1,1.8
	c-0.2,0.2-1.1-0.2-1.8-1c-0.2-0.2-0.3-0.3-0.5-0.5c0,0.2,0,0.4,0,0.7c0,1.1-0.3,2-0.6,2c-0.3,0-0.6-0.9-0.6-2c0-0.2,0-0.5,0-0.7
	c-0.1,0.2-0.3,0.3-0.5,0.5c-0.8,0.8-1.6,1.2-1.8,1c-0.2-0.2,0.2-1.1,1-1.8c0.2-0.2,0.3-0.3,0.5-0.5c-0.2,0-0.4,0-0.7,0
	c-1.1,0-2-0.3-2-0.6c0-0.3,0.9-0.6,2-0.6c0.2,0,0.5,0,0.7,0c-0.2-0.1-0.3-0.3-0.5-0.5c-0.8-0.8-1.2-1.6-1-1.8c0.2-0.2,1.1,0.2,1.8,1
	c0.2,0.2,0.3,0.3,0.5,0.5c0-0.2,0-0.4,0-0.7c0-1.1,0.3-2,0.6-2c0.3,0,0.6,0.9,0.6,2c0,0.2,0,0.5,0,0.7c0.1-0.2,0.3-0.3,0.5-0.5
	c0.8-0.8,1.6-1.2,1.8-1c0.2,0.2-0.2,1.1-1,1.8c-0.2,0.2-0.3,0.3-0.5,0.5c0.2,0,0.4,0,0.7,0c1.1,0,2,0.3,2,0.6c0,0.3-0.9,0.6-2,0.6
	c-0.2,0-0.5,0-0.7,0C1353.4,6.9,1353.6,7.1,1353.8,7.2z M1340.9,6.8c-1.6,0.4-3.1,0.1-3.3-0.8c-0.2-0.9,0.9-1.9,2.5-2.3
	c1.6-0.4,3.1-0.1,3.3,0.8C1343.7,5.3,1342.5,6.3,1340.9,6.8z M1360.4,4.5c0.2-0.9,1.7-1.2,3.3-0.8c1.6,0.4,2.8,1.5,2.5,2.3
	c-0.2,0.9-1.7,1.2-3.3,0.8C1361.3,6.3,1360.2,5.3,1360.4,4.5z M1411.1,15.4c-0.8,1.2-3.1,0.9-5.3-0.5c-2.2-1.4-3.3-3.5-2.6-4.7
	c0.8-1.2,3.1-0.9,5.3,0.5C1410.7,12.2,1411.8,14.3,1411.1,15.4z M1414.2,8.5c-0.3,1.3-2.7,1.9-5.2,1.2c-2.5-0.7-4.3-2.3-4-3.6
	c0.3-1.3,2.7-1.9,5.2-1.2C1412.7,5.5,1414.5,7.1,1414.2,8.5z M1431.7,4.2c0-1.1,0.3-2,0.6-2c0.3,0,0.6,0.9,0.6,2c0,0.2,0,0.5,0,0.7
	c0.1-0.2,0.3-0.3,0.5-0.5c0.8-0.8,1.6-1.2,1.8-1c0.2,0.2-0.2,1.1-1,1.8c-0.2,0.2-0.3,0.3-0.5,0.5c0.2,0,0.4,0,0.7,0
	c1.1,0,2,0.3,2,0.6c0,0.3-0.9,0.6-2,0.6c-0.2,0-0.5,0-0.7,0c0.2,0.1,0.3,0.3,0.5,0.5c0.8,0.8,1.2,1.6,1,1.8c-0.2,0.2-1.1-0.2-1.8-1
	c-0.2-0.2-0.3-0.3-0.5-0.5c0,0.2,0,0.4,0,0.7c0,1.1-0.3,2-0.6,2c-0.3,0-0.6-0.9-0.6-2c0-0.2,0-0.5,0-0.7c-0.1,0.2-0.3,0.3-0.5,0.5
	c-0.8,0.8-1.6,1.2-1.8,1c-0.2-0.2,0.2-1.1,1-1.8c0.2-0.2,0.3-0.3,0.5-0.5c-0.2,0-0.4,0-0.7,0c-1.1,0-2-0.3-2-0.6
	c0-0.3,0.9-0.6,2-0.6c0.2,0,0.5,0,0.7,0c-0.2-0.1-0.3-0.3-0.5-0.5c-0.8-0.8-1.2-1.6-1-1.8c0.2-0.2,1.1,0.2,1.8,1
	c0.2,0.2,0.3,0.3,0.5,0.5C1431.7,4.7,1431.7,4.5,1431.7,4.2z M1471.1,5.7c0-1.7,0.4-3.1,0.9-3.1c0.5,0,0.9,1.4,0.9,3.1
	c0,0.4,0,0.7-0.1,1.1c0.2-0.3,0.4-0.5,0.7-0.8c1.2-1.2,2.5-1.9,2.9-1.6c0.4,0.4-0.3,1.6-1.6,2.9c-0.3,0.3-0.5,0.5-0.8,0.7
	c0.3,0,0.7-0.1,1.1-0.1c1.7,0,3.1,0.4,3.1,0.9c0,0.5-1.4,0.9-3.1,0.9c-0.4,0-0.7,0-1.1-0.1c0.3,0.2,0.5,0.4,0.8,0.7
	c1.2,1.2,1.9,2.5,1.6,2.9c-0.4,0.4-1.6-0.3-2.9-1.6c-0.3-0.3-0.5-0.5-0.7-0.8c0,0.3,0.1,0.7,0.1,1.1c0,1.7-0.4,3.1-0.9,3.1
	c-0.5,0-0.9-1.4-0.9-3.1c0-0.4,0-0.7,0.1-1.1c-0.2,0.3-0.4,0.5-0.7,0.8c-1.2,1.2-2.5,1.9-2.9,1.6c-0.4-0.4,0.3-1.6,1.6-2.9
	c0.3-0.3,0.5-0.5,0.8-0.7c-0.3,0-0.7,0.1-1.1,0.1c-1.7,0-3.1-0.4-3.1-0.9c0-0.5,1.4-0.9,3.1-0.9c0.4,0,0.7,0,1.1,0.1
	c-0.3-0.2-0.5-0.4-0.8-0.7c-1.2-1.2-1.9-2.5-1.6-2.9c0.4-0.4,1.6,0.3,2.9,1.6c0.3,0.3,0.5,0.5,0.7,0.8
	C1471.2,6.5,1471.1,6.1,1471.1,5.7z M1444.1,3.7c1.6,0.4,2.8,1.5,2.5,2.3c-0.2,0.9-1.7,1.2-3.3,0.8c-1.6-0.4-2.8-1.4-2.5-2.3
	C1441,3.6,1442.5,3.2,1444.1,3.7z M1423.8,4.5c0.2,0.9-0.9,1.9-2.5,2.3c-1.6,0.4-3.1,0.1-3.3-0.8c-0.2-0.9,0.9-1.9,2.5-2.3
	C1422.1,3.2,1423.6,3.6,1423.8,4.5z M1419.9,10.4c-0.5-0.7,0.3-2.1,1.6-3c1.4-0.9,2.9-1.1,3.4-0.3c0.5,0.7-0.3,2.1-1.6,3
	C1421.9,11,1420.4,11.1,1419.9,10.4z M1423.2,14c-0.7-0.5-0.4-2,0.6-3.4c1-1.3,2.4-2,3.1-1.4c0.7,0.5,0.4,2-0.6,3.4
	C1425.3,13.9,1423.9,14.5,1423.2,14z M1427.5,16.3c-0.8-0.3-1.1-1.8-0.5-3.4c0.5-1.6,1.7-2.6,2.5-2.3c0.8,0.3,1.1,1.8,0.5,3.4
	C1429.4,15.5,1428.3,16.6,1427.5,16.3z M1432.3,17.1c-0.9,0-1.6-1.4-1.6-3c0-1.7,0.7-3,1.6-3c0.9,0,1.6,1.4,1.6,3
	C1433.9,15.7,1433.2,17.1,1432.3,17.1z M1437.1,16.3c-0.8,0.3-1.9-0.8-2.5-2.3c-0.5-1.6-0.3-3.1,0.5-3.4c0.8-0.3,1.9,0.8,2.5,2.3
	C1438.2,14.5,1437.9,16,1437.1,16.3z M1441.4,14c-0.7,0.5-2.1-0.1-3.1-1.4c-1-1.3-1.3-2.8-0.6-3.4c0.7-0.5,2.1,0.1,3.1,1.4
	C1441.8,11.9,1442.1,13.4,1441.4,14z M1444.7,10.4c-0.5,0.7-2,0.6-3.4-0.3c-1.4-0.9-2.1-2.3-1.6-3c0.5-0.7,2-0.6,3.4,0.3
	C1444.4,8.3,1445.2,9.7,1444.7,10.4z M1449.6,8.5c-0.3-1.3,1.4-2.9,4-3.6c2.5-0.7,4.9-0.1,5.2,1.2c0.3,1.3-1.4,2.9-4,3.6
	C1452.2,10.3,1449.9,9.8,1449.6,8.5z M1452.7,15.4c-0.8-1.2,0.4-3.3,2.6-4.7c2.2-1.4,4.6-1.7,5.3-0.5c0.8,1.2-0.4,3.3-2.6,4.7
	C1455.8,16.3,1453.4,16.6,1452.7,15.4z M1457.8,21c-1.1-0.8-0.7-3.2,0.9-5.3c1.6-2.1,3.8-3.1,4.9-2.2c1.1,0.8,0.7,3.2-0.9,5.3
	C1461.1,20.8,1458.9,21.8,1457.8,21z M1464.5,24.6c-1.3-0.4-1.7-2.8-0.8-5.3c0.8-2.5,2.6-4.1,3.9-3.7c1.3,0.4,1.7,2.8,0.8,5.3
	C1467.6,23.4,1465.8,25.1,1464.5,24.6z M1472.1,25.9c-1.4,0-2.5-2.1-2.5-4.7c0-2.6,1.1-4.7,2.5-4.7c1.4,0,2.5,2.1,2.5,4.7
	C1474.5,23.7,1473.4,25.9,1472.1,25.9z M1479.6,24.6c-1.3,0.4-3-1.2-3.9-3.7c-0.8-2.5-0.5-4.8,0.8-5.3c1.3-0.4,3,1.2,3.9,3.7
	C1481.2,21.8,1480.9,24.2,1479.6,24.6z M1486.3,21c-1.1,0.8-3.3-0.2-4.9-2.2c-1.6-2.1-2-4.4-0.9-5.3c1.1-0.8,3.3,0.2,4.9,2.2
	C1486.9,17.8,1487.4,20.2,1486.3,21z M1491.4,15.4c-0.8,1.2-3.1,0.9-5.3-0.5c-2.2-1.4-3.3-3.5-2.6-4.7c0.8-1.2,3.1-0.9,5.3,0.5
	C1491,12.2,1492.2,14.3,1491.4,15.4z M1494.5,8.5c-0.3,1.3-2.7,1.9-5.2,1.2c-2.5-0.7-4.3-2.3-4-3.6c0.3-1.3,2.7-1.9,5.2-1.2
	C1493.1,5.5,1494.9,7.1,1494.5,8.5z M1500.8,3.7c1.6-0.4,3.1-0.1,3.3,0.8c0.2,0.9-0.9,1.9-2.5,2.3c-1.6,0.4-3.1,0.1-3.3-0.8
	C1498.1,5.1,1499.2,4.1,1500.8,3.7z M1500.3,10.4c-0.5-0.7,0.3-2.1,1.6-3c1.4-0.9,2.9-1.1,3.4-0.3c0.5,0.7-0.3,2.1-1.6,3
	C1502.3,11,1500.8,11.1,1500.3,10.4z M1503.6,14c-0.7-0.5-0.4-2,0.6-3.4c1-1.3,2.4-2,3.1-1.4c0.7,0.5,0.4,2-0.6,3.4
	C1505.7,13.9,1504.3,14.5,1503.6,14z M1507.9,16.3c-0.8-0.3-1.1-1.8-0.5-3.4c0.5-1.6,1.7-2.6,2.5-2.3c0.8,0.3,1.1,1.8,0.5,3.4
	C1509.8,15.5,1508.7,16.6,1507.9,16.3z M1512.7,17.1c-0.9,0-1.6-1.4-1.6-3c0-1.7,0.7-3,1.6-3c0.9,0,1.6,1.4,1.6,3
	C1514.3,15.7,1513.5,17.1,1512.7,17.1z M1517.5,16.3c-0.8,0.3-1.9-0.8-2.5-2.3c-0.5-1.6-0.3-3.1,0.5-3.4c0.8-0.3,1.9,0.8,2.5,2.3
	C1518.5,14.5,1518.3,16,1517.5,16.3z M1521.7,14c-0.7,0.5-2.1-0.1-3.1-1.4c-1-1.3-1.3-2.8-0.6-3.4c0.7-0.5,2.1,0.1,3.1,1.4
	C1522.2,11.9,1522.4,13.4,1521.7,14z M1525,10.4c-0.5,0.7-2,0.6-3.4-0.3c-1.4-0.9-2.1-2.3-1.6-3c0.5-0.7,2-0.6,3.4,0.3
	C1524.8,8.3,1525.5,9.7,1525,10.4z M1524.5,3.7c1.6,0.4,2.8,1.5,2.5,2.3c-0.2,0.9-1.7,1.2-3.3,0.8c-1.6-0.4-2.8-1.4-2.5-2.3
	C1521.4,3.6,1522.9,3.2,1524.5,3.7z M1513.2,4.2c0,0.2,0,0.5,0,0.7c0.1-0.2,0.3-0.3,0.5-0.5c0.8-0.8,1.6-1.2,1.8-1
	c0.2,0.2-0.2,1.1-1,1.8c-0.2,0.2-0.3,0.3-0.5,0.5c0.2,0,0.4,0,0.7,0c1.1,0,2,0.3,2,0.6c0,0.3-0.9,0.6-2,0.6c-0.2,0-0.5,0-0.7,0
	c0.2,0.1,0.3,0.3,0.5,0.5c0.8,0.8,1.2,1.6,1,1.8c-0.2,0.2-1.1-0.2-1.8-1c-0.2-0.2-0.3-0.3-0.5-0.5c0,0.2,0,0.4,0,0.7
	c0,1.1-0.3,2-0.6,2c-0.3,0-0.6-0.9-0.6-2c0-0.2,0-0.5,0-0.7c-0.1,0.2-0.3,0.3-0.5,0.5c-0.8,0.8-1.6,1.2-1.8,1
	c-0.2-0.2,0.2-1.1,1-1.8c0.2-0.2,0.3-0.3,0.5-0.5c-0.2,0-0.4,0-0.7,0c-1.1,0-2-0.3-2-0.6c0-0.3,0.9-0.6,2-0.6c0.2,0,0.5,0,0.7,0
	c-0.2-0.1-0.3-0.3-0.5-0.5c-0.8-0.8-1.2-1.6-1-1.8c0.2-0.2,1.1,0.2,1.8,1c0.2,0.2,0.3,0.3,0.5,0.5c0-0.2,0-0.4,0-0.7
	c0-1.1,0.3-2,0.6-2C1513,2.2,1513.2,3.1,1513.2,4.2z M1501.4,1.7c-0.3,0-0.7,0.1-1,0.1c-2.1,0.5-3.5,1.8-3.9,3.2
	c-1.1-1.4-2.9-2.5-5.1-3.1c-0.4-0.1-0.9-0.2-1.3-0.3H1501.4z M1454.1,1.7c-0.4,0.1-0.9,0.1-1.3,0.3c-1.9,0.5-3.4,1.4-4.5,2.4
	c-0.6-1.1-1.9-2.1-3.6-2.5c-0.3-0.1-0.7-0.1-1-0.1H1454.1z M1421,1.7c-0.3,0-0.7,0.1-1,0.1c-2.1,0.5-3.5,1.8-3.9,3.2
	c-1.1-1.4-2.9-2.5-5.1-3.1c-0.4-0.1-0.9-0.2-1.3-0.3H1421z M1373.7,1.7c-0.4,0.1-0.9,0.1-1.3,0.3c-1.9,0.5-3.4,1.4-4.5,2.4
	c-0.6-1.1-1.9-2.1-3.6-2.5c-0.3-0.1-0.7-0.1-1-0.1H1373.7z M1340.6,1.7c-0.3,0-0.7,0.1-1,0.1c-2.1,0.5-3.5,1.8-3.9,3.2
	c-1.1-1.4-2.9-2.5-5.1-3.1c-0.4-0.1-0.9-0.2-1.3-0.3H1340.6z M1314.5,8c1.7,0,3.1,0.4,3.1,0.9c0,0.5-1.4,0.9-3.1,0.9
	c-0.4,0-0.7,0-1.1-0.1c0.3,0.2,0.5,0.4,0.8,0.7c1.2,1.2,1.9,2.5,1.6,2.9c-0.4,0.4-1.6-0.3-2.9-1.6c-0.3-0.3-0.5-0.5-0.7-0.8
	c0,0.3,0.1,0.7,0.1,1.1c0,1.7-0.4,3.1-0.9,3.1c-0.5,0-0.9-1.4-0.9-3.1c0-0.4,0-0.7,0.1-1.1c-0.2,0.3-0.4,0.5-0.7,0.8
	c-1.2,1.2-2.5,1.9-2.9,1.6c-0.4-0.4,0.3-1.6,1.6-2.9c0.3-0.3,0.5-0.5,0.8-0.7c-0.3,0-0.7,0.1-1.1,0.1c-1.7,0-3.1-0.4-3.1-0.9
	c0-0.5,1.4-0.9,3.1-0.9c0.4,0,0.7,0,1.1,0.1c-0.3-0.2-0.5-0.4-0.8-0.7c-1.2-1.2-1.9-2.5-1.6-2.9c0.4-0.4,1.6,0.3,2.9,1.6
	c0.3,0.3,0.5,0.5,0.7,0.8c0-0.3-0.1-0.7-0.1-1.1c0-1.7,0.4-3.1,0.9-3.1c0.5,0,0.9,1.4,0.9,3.1c0,0.4,0,0.7-0.1,1.1
	c0.2-0.3,0.4-0.5,0.7-0.8c1.2-1.2,2.5-1.9,2.9-1.6c0.4,0.4-0.3,1.6-1.6,2.9c-0.3,0.3-0.5,0.5-0.8,0.7C1313.7,8,1314.1,8,1314.5,8z
	 M1273.4,7.2c0.8,0.8,1.2,1.6,1,1.8c-0.2,0.2-1.1-0.2-1.8-1c-0.2-0.2-0.3-0.3-0.5-0.5c0,0.2,0,0.4,0,0.7c0,1.1-0.3,2-0.6,2
	c-0.3,0-0.6-0.9-0.6-2c0-0.2,0-0.5,0-0.7c-0.1,0.2-0.3,0.3-0.5,0.5c-0.8,0.8-1.6,1.2-1.8,1c-0.2-0.2,0.2-1.1,1-1.8
	c0.2-0.2,0.3-0.3,0.5-0.5c-0.2,0-0.4,0-0.7,0c-1.1,0-2-0.3-2-0.6c0-0.3,0.9-0.6,2-0.6c0.2,0,0.5,0,0.7,0c-0.2-0.1-0.3-0.3-0.5-0.5
	c-0.8-0.8-1.2-1.6-1-1.8c0.2-0.2,1.1,0.2,1.8,1c0.2,0.2,0.3,0.3,0.5,0.5c0-0.2,0-0.4,0-0.7c0-1.1,0.3-2,0.6-2c0.3,0,0.6,0.9,0.6,2
	c0,0.2,0,0.5,0,0.7c0.1-0.2,0.3-0.3,0.5-0.5c0.8-0.8,1.6-1.2,1.8-1c0.2,0.2-0.2,1.1-1,1.8c-0.2,0.2-0.3,0.3-0.5,0.5
	c0.2,0,0.4,0,0.7,0c1.1,0,2,0.3,2,0.6c0,0.3-0.9,0.6-2,0.6c-0.2,0-0.5,0-0.7,0C1273.1,6.9,1273.2,7.1,1273.4,7.2z M1260.6,6.8
	c-1.6,0.4-3.1,0.1-3.3-0.8c-0.2-0.9,0.9-1.9,2.5-2.3c1.6-0.4,3.1-0.1,3.3,0.8C1263.3,5.3,1262.2,6.3,1260.6,6.8z M1280.1,4.5
	c0.2-0.9,1.7-1.2,3.3-0.8c1.6,0.4,2.8,1.5,2.5,2.3c-0.2,0.9-1.7,1.2-3.3,0.8C1281,6.3,1279.8,5.3,1280.1,4.5z M1293.4,1.7
	c-0.4,0.1-0.9,0.1-1.3,0.3c-1.9,0.5-3.4,1.4-4.5,2.4c-0.6-1.1-1.9-2.1-3.6-2.5c-0.3-0.1-0.7-0.1-1-0.1H1293.4z M1260.3,1.7
	c-0.3,0-0.7,0.1-1,0.1c-2.1,0.5-3.5,1.8-3.9,3.2c-1.1-1.4-2.9-2.5-5.1-3.1c-0.4-0.1-0.9-0.2-1.3-0.3H1260.3z M1234.1,8
	c1.7,0,3.1,0.4,3.1,0.9c0,0.5-1.4,0.9-3.1,0.9c-0.4,0-0.7,0-1.1-0.1c0.3,0.2,0.5,0.4,0.8,0.7c1.2,1.2,1.9,2.5,1.6,2.9
	c-0.4,0.4-1.6-0.3-2.9-1.6c-0.3-0.3-0.5-0.5-0.7-0.8c0,0.3,0.1,0.7,0.1,1.1c0,1.7-0.4,3.1-0.9,3.1c-0.5,0-0.9-1.4-0.9-3.1
	c0-0.4,0-0.7,0.1-1.1c-0.2,0.3-0.4,0.5-0.7,0.8c-1.2,1.2-2.5,1.9-2.9,1.6c-0.4-0.4,0.3-1.6,1.6-2.9c0.3-0.3,0.5-0.5,0.8-0.7
	c-0.3,0-0.7,0.1-1.1,0.1c-1.7,0-3.1-0.4-3.1-0.9c0-0.5,1.4-0.9,3.1-0.9c0.4,0,0.7,0,1.1,0.1c-0.3-0.2-0.5-0.4-0.8-0.7
	c-1.2-1.2-1.9-2.5-1.6-2.9c0.4-0.4,1.6,0.3,2.9,1.6c0.3,0.3,0.5,0.5,0.7,0.8c0-0.3-0.1-0.7-0.1-1.1c0-1.7,0.4-3.1,0.9-3.1
	c0.5,0,0.9,1.4,0.9,3.1c0,0.4,0,0.7-0.1,1.1c0.2-0.3,0.4-0.5,0.7-0.8c1.2-1.2,2.5-1.9,2.9-1.6c0.4,0.4-0.3,1.6-1.6,2.9
	c-0.3,0.3-0.5,0.5-0.8,0.7C1233.4,8,1233.7,8,1234.1,8z M1193,7.2c0.8,0.8,1.2,1.6,1,1.8c-0.2,0.2-1.1-0.2-1.8-1
	c-0.2-0.2-0.3-0.3-0.5-0.5c0,0.2,0,0.4,0,0.7c0,1.1-0.3,2-0.6,2c-0.3,0-0.6-0.9-0.6-2c0-0.2,0-0.5,0-0.7c-0.1,0.2-0.3,0.3-0.5,0.5
	c-0.8,0.8-1.6,1.2-1.8,1c-0.2-0.2,0.2-1.1,1-1.8c0.2-0.2,0.3-0.3,0.5-0.5c-0.2,0-0.4,0-0.7,0c-1.1,0-2-0.3-2-0.6
	c0-0.3,0.9-0.6,2-0.6c0.2,0,0.5,0,0.7,0c-0.2-0.1-0.3-0.3-0.5-0.5c-0.8-0.8-1.2-1.6-1-1.8c0.2-0.2,1.1,0.2,1.8,1
	c0.2,0.2,0.3,0.3,0.5,0.5c0-0.2,0-0.4,0-0.7c0-1.1,0.3-2,0.6-2c0.3,0,0.6,0.9,0.6,2c0,0.2,0,0.5,0,0.7c0.1-0.2,0.3-0.3,0.5-0.5
	c0.8-0.8,1.6-1.2,1.8-1c0.2,0.2-0.2,1.1-1,1.8c-0.2,0.2-0.3,0.3-0.5,0.5c0.2,0,0.4,0,0.7,0c1.1,0,2,0.3,2,0.6c0,0.3-0.9,0.6-2,0.6
	c-0.2,0-0.5,0-0.7,0C1192.7,6.9,1192.9,7.1,1193,7.2z M1180.2,6.8c-1.6,0.4-3.1,0.1-3.3-0.8c-0.2-0.9,0.9-1.9,2.5-2.3
	c1.6-0.4,3.1-0.1,3.3,0.8C1182.9,5.3,1181.8,6.3,1180.2,6.8z M1199.7,4.5c0.2-0.9,1.7-1.2,3.3-0.8c1.6,0.4,2.8,1.5,2.5,2.3
	c-0.2,0.9-1.7,1.2-3.3,0.8C1200.6,6.3,1199.5,5.3,1199.7,4.5z M1213,1.7c-0.4,0.1-0.9,0.1-1.3,0.3c-1.9,0.5-3.4,1.4-4.5,2.4
	c-0.6-1.1-1.9-2.1-3.6-2.5c-0.3-0.1-0.7-0.1-1-0.1H1213z M1179.9,1.7c-0.3,0-0.7,0.1-1,0.1c-2.1,0.5-3.5,1.8-3.9,3.2
	c-1.1-1.4-2.9-2.5-5.1-3.1c-0.4-0.1-0.9-0.2-1.3-0.3H1179.9z M1153.8,8c1.7,0,3.1,0.4,3.1,0.9c0,0.5-1.4,0.9-3.1,0.9
	c-0.4,0-0.7,0-1.1-0.1c0.3,0.2,0.5,0.4,0.8,0.7c1.2,1.2,1.9,2.5,1.6,2.9c-0.4,0.4-1.6-0.3-2.9-1.6c-0.3-0.3-0.5-0.5-0.7-0.8
	c0,0.3,0.1,0.7,0.1,1.1c0,1.7-0.4,3.1-0.9,3.1c-0.5,0-0.9-1.4-0.9-3.1c0-0.4,0-0.7,0.1-1.1c-0.2,0.3-0.4,0.5-0.7,0.8
	c-1.2,1.2-2.5,1.9-2.9,1.6c-0.4-0.4,0.3-1.6,1.6-2.9c0.3-0.3,0.5-0.5,0.8-0.7c-0.3,0-0.7,0.1-1.1,0.1c-1.7,0-3.1-0.4-3.1-0.9
	c0-0.5,1.4-0.9,3.1-0.9c0.4,0,0.7,0,1.1,0.1c-0.3-0.2-0.5-0.4-0.8-0.7c-1.2-1.2-1.9-2.5-1.6-2.9c0.4-0.4,1.6,0.3,2.9,1.6
	c0.3,0.3,0.5,0.5,0.7,0.8c0-0.3-0.1-0.7-0.1-1.1c0-1.7,0.4-3.1,0.9-3.1c0.5,0,0.9,1.4,0.9,3.1c0,0.4,0,0.7-0.1,1.1
	c0.2-0.3,0.4-0.5,0.7-0.8c1.2-1.2,2.5-1.9,2.9-1.6c0.4,0.4-0.3,1.6-1.6,2.9c-0.3,0.3-0.5,0.5-0.8,0.7C1153,8,1153.4,8,1153.8,8z
	 M1112.7,7.2c0.8,0.8,1.2,1.6,1,1.8c-0.2,0.2-1.1-0.2-1.8-1c-0.2-0.2-0.3-0.3-0.5-0.5c0,0.2,0,0.4,0,0.7c0,1.1-0.3,2-0.6,2
	s-0.6-0.9-0.6-2c0-0.2,0-0.5,0-0.7c-0.1,0.2-0.3,0.3-0.5,0.5c-0.8,0.8-1.6,1.2-1.8,1c-0.2-0.2,0.2-1.1,1-1.8
	c0.2-0.2,0.3-0.3,0.5-0.5c-0.2,0-0.4,0-0.7,0c-1.1,0-2-0.3-2-0.6c0-0.3,0.9-0.6,2-0.6c0.2,0,0.5,0,0.7,0c-0.2-0.1-0.3-0.3-0.5-0.5
	c-0.8-0.8-1.2-1.6-1-1.8c0.2-0.2,1.1,0.2,1.8,1c0.2,0.2,0.3,0.3,0.5,0.5c0-0.2,0-0.4,0-0.7c0-1.1,0.3-2,0.6-2s0.6,0.9,0.6,2
	c0,0.2,0,0.5,0,0.7c0.1-0.2,0.3-0.3,0.5-0.5c0.8-0.8,1.6-1.2,1.8-1c0.2,0.2-0.2,1.1-1,1.8c-0.2,0.2-0.3,0.3-0.5,0.5
	c0.2,0,0.4,0,0.7,0c1.1,0,2,0.3,2,0.6c0,0.3-0.9,0.6-2,0.6c-0.2,0-0.5,0-0.7,0C1112.4,6.9,1112.5,7.1,1112.7,7.2z M1099.8,6.8
	c-1.6,0.4-3.1,0.1-3.3-0.8c-0.2-0.9,0.9-1.9,2.5-2.3c1.6-0.4,3.1-0.1,3.3,0.8C1102.6,5.3,1101.4,6.3,1099.8,6.8z M1119.3,4.5
	c0.2-0.9,1.7-1.2,3.3-0.8c1.6,0.4,2.8,1.5,2.5,2.3c-0.2,0.9-1.7,1.2-3.3,0.8C1120.3,6.3,1119.1,5.3,1119.3,4.5z M1132.6,1.7
	c-0.4,0.1-0.9,0.1-1.3,0.3c-1.9,0.5-3.4,1.4-4.5,2.4c-0.6-1.1-1.9-2.1-3.6-2.5c-0.3-0.1-0.7-0.1-1-0.1H1132.6z M1099.6,1.7
	c-0.3,0-0.7,0.1-1,0.1c-2.1,0.5-3.5,1.8-3.9,3.2c-1.1-1.4-2.9-2.5-5.1-3.1c-0.4-0.1-0.9-0.2-1.3-0.3H1099.6z M1073.4,8
	c1.7,0,3.1,0.4,3.1,0.9c0,0.5-1.4,0.9-3.1,0.9c-0.4,0-0.7,0-1.1-0.1c0.3,0.2,0.5,0.4,0.8,0.7c1.2,1.2,1.9,2.5,1.6,2.9
	c-0.4,0.4-1.6-0.3-2.9-1.6c-0.3-0.3-0.5-0.5-0.7-0.8c0,0.3,0.1,0.7,0.1,1.1c0,1.7-0.4,3.1-0.9,3.1c-0.5,0-0.9-1.4-0.9-3.1
	c0-0.4,0-0.7,0.1-1.1c-0.2,0.3-0.4,0.5-0.7,0.8c-1.2,1.2-2.5,1.9-2.9,1.6c-0.4-0.4,0.3-1.6,1.6-2.9c0.3-0.3,0.5-0.5,0.8-0.7
	c-0.3,0-0.7,0.1-1.1,0.1c-1.7,0-3.1-0.4-3.1-0.9c0-0.5,1.4-0.9,3.1-0.9c0.4,0,0.7,0,1.1,0.1c-0.3-0.2-0.5-0.4-0.8-0.7
	c-1.2-1.2-1.9-2.5-1.6-2.9c0.4-0.4,1.6,0.3,2.9,1.6c0.3,0.3,0.5,0.5,0.7,0.8c0-0.3-0.1-0.7-0.1-1.1c0-1.7,0.4-3.1,0.9-3.1
	c0.5,0,0.9,1.4,0.9,3.1c0,0.4,0,0.7-0.1,1.1c0.2-0.3,0.4-0.5,0.7-0.8c1.2-1.2,2.5-1.9,2.9-1.6c0.4,0.4-0.3,1.6-1.6,2.9
	c-0.3,0.3-0.5,0.5-0.8,0.7C1072.7,8,1073,8,1073.4,8z M1032.3,7.2c0.8,0.8,1.2,1.6,1,1.8c-0.2,0.2-1.1-0.2-1.8-1
	c-0.2-0.2-0.3-0.3-0.5-0.5c0,0.2,0,0.4,0,0.7c0,1.1-0.3,2-0.6,2c-0.3,0-0.6-0.9-0.6-2c0-0.2,0-0.5,0-0.7c-0.1,0.2-0.3,0.3-0.5,0.5
	c-0.8,0.8-1.6,1.2-1.8,1c-0.2-0.2,0.2-1.1,1-1.8c0.2-0.2,0.3-0.3,0.5-0.5c-0.2,0-0.4,0-0.7,0c-1.1,0-2-0.3-2-0.6
	c0-0.3,0.9-0.6,2-0.6c0.2,0,0.5,0,0.7,0c-0.2-0.1-0.3-0.3-0.5-0.5c-0.8-0.8-1.2-1.6-1-1.8c0.2-0.2,1.1,0.2,1.8,1
	c0.2,0.2,0.3,0.3,0.5,0.5c0-0.2,0-0.4,0-0.7c0-1.1,0.3-2,0.6-2c0.3,0,0.6,0.9,0.6,2c0,0.2,0,0.5,0,0.7c0.1-0.2,0.3-0.3,0.5-0.5
	c0.8-0.8,1.6-1.2,1.8-1c0.2,0.2-0.2,1.1-1,1.8c-0.2,0.2-0.3,0.3-0.5,0.5c0.2,0,0.4,0,0.7,0c1.1,0,2,0.3,2,0.6c0,0.3-0.9,0.6-2,0.6
	c-0.2,0-0.5,0-0.7,0C1032,6.9,1032.2,7.1,1032.3,7.2z M1019.5,6.8c-1.6,0.4-3.1,0.1-3.3-0.8c-0.2-0.9,0.9-1.9,2.5-2.3
	c1.6-0.4,3.1-0.1,3.3,0.8C1022.2,5.3,1021.1,6.3,1019.5,6.8z M1039,4.5c0.2-0.9,1.7-1.2,3.3-0.8c1.6,0.4,2.8,1.5,2.5,2.3
	c-0.2,0.9-1.7,1.2-3.3,0.8C1039.9,6.3,1038.8,5.3,1039,4.5z M1052.3,1.7c-0.4,0.1-0.9,0.1-1.3,0.3c-1.9,0.5-3.4,1.4-4.5,2.4
	c-0.6-1.1-1.9-2.1-3.6-2.5c-0.3-0.1-0.7-0.1-1-0.1H1052.3z M1019.2,1.7c-0.3,0-0.7,0.1-1,0.1c-2.1,0.5-3.5,1.8-3.9,3.2
	c-1.1-1.4-2.9-2.5-5.1-3.1c-0.4-0.1-0.9-0.2-1.3-0.3H1019.2z M993,8c1.7,0,3.1,0.4,3.1,0.9c0,0.5-1.4,0.9-3.1,0.9
	c-0.4,0-0.7,0-1.1-0.1c0.3,0.2,0.5,0.4,0.8,0.7c1.2,1.2,1.9,2.5,1.6,2.9c-0.4,0.4-1.7-0.3-2.9-1.6c-0.3-0.3-0.5-0.5-0.7-0.8
	c0,0.3,0.1,0.7,0.1,1.1c0,1.7-0.4,3.1-0.9,3.1c-0.5,0-0.9-1.4-0.9-3.1c0-0.4,0-0.7,0.1-1.1c-0.2,0.3-0.4,0.5-0.7,0.8
	c-1.2,1.2-2.5,1.9-2.9,1.6c-0.4-0.4,0.3-1.6,1.6-2.9c0.3-0.3,0.5-0.5,0.8-0.7c-0.3,0-0.7,0.1-1.1,0.1c-1.7,0-3.1-0.4-3.1-0.9
	c0-0.5,1.4-0.9,3.1-0.9c0.4,0,0.7,0,1.1,0.1c-0.3-0.2-0.5-0.4-0.8-0.7c-1.2-1.2-1.9-2.5-1.6-2.9c0.4-0.4,1.6,0.3,2.9,1.6
	c0.3,0.3,0.5,0.5,0.7,0.8c0-0.3-0.1-0.7-0.1-1.1c0-1.7,0.4-3.1,0.9-3.1c0.5,0,0.9,1.4,0.9,3.1c0,0.4,0,0.7-0.1,1.1
	c0.2-0.3,0.4-0.5,0.7-0.8c1.2-1.2,2.5-1.9,2.9-1.6c0.4,0.4-0.3,1.6-1.6,2.9c-0.3,0.3-0.5,0.5-0.8,0.7C992.3,8,992.7,8,993,8z
	 M952,7.2c0.8,0.8,1.2,1.6,1,1.8c-0.2,0.2-1.1-0.2-1.8-1c-0.2-0.2-0.3-0.3-0.5-0.5c0,0.2,0,0.4,0,0.7c0,1.1-0.3,2-0.6,2
	c-0.3,0-0.6-0.9-0.6-2c0-0.2,0-0.5,0-0.7c-0.1,0.2-0.3,0.3-0.5,0.5c-0.8,0.8-1.6,1.2-1.8,1c-0.2-0.2,0.2-1.1,1-1.8
	c0.2-0.2,0.3-0.3,0.5-0.5c-0.2,0-0.4,0-0.7,0c-1.1,0-2-0.3-2-0.6c0-0.3,0.9-0.6,2-0.6c0.2,0,0.5,0,0.7,0c-0.2-0.1-0.3-0.3-0.5-0.5
	c-0.8-0.8-1.2-1.6-1-1.8c0.2-0.2,1.1,0.2,1.8,1c0.2,0.2,0.3,0.3,0.5,0.5c0-0.2,0-0.4,0-0.7c0-1.1,0.3-2,0.6-2c0.3,0,0.6,0.9,0.6,2
	c0,0.2,0,0.5,0,0.7c0.1-0.2,0.3-0.3,0.5-0.5c0.8-0.8,1.6-1.2,1.8-1c0.2,0.2-0.2,1.1-1,1.8c-0.2,0.2-0.3,0.3-0.5,0.5
	c0.2,0,0.4,0,0.7,0c1.1,0,2,0.3,2,0.6c0,0.3-0.9,0.6-2,0.6c-0.2,0-0.5,0-0.7,0C951.6,6.9,951.8,7.1,952,7.2z M939.1,6.8
	c-1.6,0.4-3.1,0.1-3.3-0.8c-0.2-0.9,0.9-1.9,2.5-2.3c1.6-0.4,3.1-0.1,3.3,0.8C941.9,5.3,940.7,6.3,939.1,6.8z M958.6,4.5
	c0.2-0.9,1.7-1.2,3.3-0.8c1.6,0.4,2.8,1.5,2.5,2.3c-0.2,0.9-1.7,1.2-3.3,0.8C959.5,6.3,958.4,5.3,958.6,4.5z M971.9,1.7
	c-0.4,0.1-0.9,0.1-1.3,0.3c-1.9,0.5-3.4,1.4-4.5,2.4c-0.6-1.1-1.9-2.1-3.6-2.5c-0.3-0.1-0.7-0.1-1-0.1H971.9z M938.8,1.7
	c-0.3,0-0.7,0.1-1,0.1c-2.1,0.5-3.5,1.8-3.9,3.2c-1.1-1.4-2.9-2.5-5.1-3.1c-0.4-0.1-0.9-0.2-1.3-0.3H938.8z M912.7,8
	c1.7,0,3.1,0.4,3.1,0.9c0,0.5-1.4,0.9-3.1,0.9c-0.4,0-0.7,0-1.1-0.1c0.3,0.2,0.5,0.4,0.8,0.7c1.2,1.2,1.9,2.5,1.6,2.9
	c-0.4,0.4-1.7-0.3-2.9-1.6c-0.3-0.3-0.5-0.5-0.7-0.8c0,0.3,0.1,0.7,0.1,1.1c0,1.7-0.4,3.1-0.9,3.1c-0.5,0-0.9-1.4-0.9-3.1
	c0-0.4,0-0.7,0.1-1.1c-0.2,0.3-0.4,0.5-0.7,0.8c-1.2,1.2-2.5,1.9-2.9,1.6c-0.4-0.4,0.3-1.6,1.6-2.9c0.3-0.3,0.5-0.5,0.8-0.7
	c-0.3,0-0.7,0.1-1.1,0.1c-1.7,0-3.1-0.4-3.1-0.9c0-0.5,1.4-0.9,3.1-0.9c0.4,0,0.7,0,1.1,0.1c-0.3-0.2-0.5-0.4-0.8-0.7
	c-1.2-1.2-1.9-2.5-1.6-2.9c0.4-0.4,1.6,0.3,2.9,1.6c0.3,0.3,0.5,0.5,0.7,0.8c0-0.3-0.1-0.7-0.1-1.1c0-1.7,0.4-3.1,0.9-3.1
	c0.5,0,0.9,1.4,0.9,3.1c0,0.4,0,0.7-0.1,1.1c0.2-0.3,0.4-0.5,0.7-0.8c1.2-1.2,2.5-1.9,2.9-1.6c0.4,0.4-0.3,1.6-1.6,2.9
	c-0.3,0.3-0.5,0.5-0.8,0.7C911.9,8,912.3,8,912.7,8z M871.6,7.2c0.8,0.8,1.2,1.6,1,1.8c-0.2,0.2-1.1-0.2-1.8-1
	c-0.2-0.2-0.3-0.3-0.5-0.5c0,0.2,0,0.4,0,0.7c0,1.1-0.3,2-0.6,2c-0.3,0-0.6-0.9-0.6-2c0-0.2,0-0.5,0-0.7c-0.1,0.2-0.3,0.3-0.5,0.5
	c-0.8,0.8-1.6,1.2-1.8,1c-0.2-0.2,0.2-1.1,1-1.8c0.2-0.2,0.3-0.3,0.5-0.5c-0.2,0-0.4,0-0.7,0c-1.1,0-2-0.3-2-0.6
	c0-0.3,0.9-0.6,2-0.6c0.2,0,0.5,0,0.7,0c-0.2-0.1-0.3-0.3-0.5-0.5c-0.8-0.8-1.2-1.6-1-1.8c0.2-0.2,1.1,0.2,1.8,1
	c0.2,0.2,0.3,0.3,0.5,0.5c0-0.2,0-0.4,0-0.7c0-1.1,0.3-2,0.6-2c0.3,0,0.6,0.9,0.6,2c0,0.2,0,0.5,0,0.7c0.1-0.2,0.3-0.3,0.5-0.5
	c0.8-0.8,1.6-1.2,1.8-1c0.2,0.2-0.2,1.1-1,1.8c-0.2,0.2-0.3,0.3-0.5,0.5c0.2,0,0.4,0,0.7,0c1.1,0,2,0.3,2,0.6c0,0.3-0.9,0.6-2,0.6
	c-0.2,0-0.5,0-0.7,0C871.3,6.9,871.4,7.1,871.6,7.2z M858.7,6.8c-1.6,0.4-3.1,0.1-3.3-0.8c-0.2-0.9,0.9-1.9,2.5-2.3
	c1.6-0.4,3.1-0.1,3.3,0.8C861.5,5.3,860.4,6.3,858.7,6.8z M878.3,4.5c0.2-0.9,1.7-1.2,3.3-0.8c1.6,0.4,2.8,1.5,2.5,2.3
	c-0.2,0.9-1.7,1.2-3.3,0.8C879.2,6.3,878,5.3,878.3,4.5z M891.6,1.7c-0.4,0.1-0.9,0.1-1.3,0.3c-1.9,0.5-3.4,1.4-4.5,2.4
	c-0.6-1.1-1.9-2.1-3.6-2.5c-0.3-0.1-0.7-0.1-1-0.1H891.6z M858.5,1.7c-0.3,0-0.7,0.1-1,0.1c-2.1,0.5-3.5,1.8-3.9,3.2
	c-1.1-1.4-2.9-2.5-5.1-3.1c-0.4-0.1-0.9-0.2-1.3-0.3H858.5z M832.3,8c1.7,0,3.1,0.4,3.1,0.9c0,0.5-1.4,0.9-3.1,0.9
	c-0.4,0-0.7,0-1.1-0.1c0.3,0.2,0.5,0.4,0.8,0.7c1.2,1.2,1.9,2.5,1.6,2.9c-0.4,0.4-1.7-0.3-2.9-1.6c-0.3-0.3-0.5-0.5-0.7-0.8
	c0,0.3,0.1,0.7,0.1,1.1c0,1.7-0.4,3.1-0.9,3.1c-0.5,0-0.9-1.4-0.9-3.1c0-0.4,0-0.7,0.1-1.1c-0.2,0.3-0.4,0.5-0.7,0.8
	c-1.2,1.2-2.5,1.9-2.9,1.6c-0.4-0.4,0.3-1.6,1.6-2.9c0.3-0.3,0.5-0.5,0.8-0.7c-0.3,0-0.7,0.1-1.1,0.1c-1.7,0-3.1-0.4-3.1-0.9
	c0-0.5,1.4-0.9,3.1-0.9c0.4,0,0.7,0,1.1,0.1c-0.3-0.2-0.5-0.4-0.8-0.7c-1.2-1.2-1.9-2.5-1.6-2.9c0.4-0.4,1.6,0.3,2.9,1.6
	c0.3,0.3,0.5,0.5,0.7,0.8c0-0.3-0.1-0.7-0.1-1.1c0-1.7,0.4-3.1,0.9-3.1c0.5,0,0.9,1.4,0.9,3.1c0,0.4,0,0.7-0.1,1.1
	c0.2-0.3,0.4-0.5,0.7-0.8c1.2-1.2,2.5-1.9,2.9-1.6c0.4,0.4-0.3,1.6-1.6,2.9c-0.3,0.3-0.5,0.5-0.8,0.7C831.6,8,831.9,8,832.3,8z
	 M710.9,7.2c0.8,0.8,1.2,1.6,1,1.8c-0.2,0.2-1.1-0.2-1.8-1c-0.2-0.2-0.3-0.3-0.5-0.5c0,0.2,0,0.4,0,0.7c0,1.1-0.3,2-0.6,2
	c-0.3,0-0.6-0.9-0.6-2c0-0.2,0-0.5,0-0.7c-0.1,0.2-0.3,0.3-0.5,0.5c-0.8,0.8-1.6,1.2-1.8,1c-0.2-0.2,0.2-1.1,1-1.8
	c0.2-0.2,0.3-0.3,0.5-0.5c-0.2,0-0.4,0-0.7,0c-1.1,0-2-0.3-2-0.6c0-0.3,0.9-0.6,2-0.6c0.2,0,0.5,0,0.7,0c-0.2-0.1-0.3-0.3-0.5-0.5
	c-0.8-0.8-1.2-1.6-1-1.8c0.2-0.2,1.1,0.2,1.8,1c0.2,0.2,0.3,0.3,0.5,0.5c0-0.2,0-0.4,0-0.7c0-1.1,0.3-2,0.6-2c0.3,0,0.6,0.9,0.6,2
	c0,0.2,0,0.5,0,0.7c0.1-0.2,0.3-0.3,0.5-0.5c0.8-0.8,1.6-1.2,1.8-1c0.2,0.2-0.2,1.1-1,1.8c-0.2,0.2-0.3,0.3-0.5,0.5
	c0.2,0,0.4,0,0.7,0c1.1,0,2,0.3,2,0.6c0,0.3-0.9,0.6-2,0.6c-0.2,0-0.5,0-0.7,0C710.5,6.9,710.7,7.1,710.9,7.2z M671.6,8
	c1.7,0,3.1,0.4,3.1,0.9c0,0.5-1.4,0.9-3.1,0.9c-0.4,0-0.7,0-1.1-0.1c0.3,0.2,0.5,0.4,0.8,0.7c1.2,1.2,1.9,2.5,1.6,2.9
	c-0.4,0.4-1.6-0.3-2.9-1.6c-0.3-0.3-0.5-0.5-0.7-0.8c0,0.3,0.1,0.7,0.1,1.1c0,1.7-0.4,3.1-0.9,3.1c-0.5,0-0.9-1.4-0.9-3.1
	c0-0.4,0-0.7,0.1-1.1c-0.2,0.3-0.4,0.5-0.7,0.8c-1.2,1.2-2.5,1.9-2.9,1.6c-0.4-0.4,0.3-1.6,1.6-2.9c0.3-0.3,0.5-0.5,0.8-0.7
	c-0.3,0-0.7,0.1-1.1,0.1c-1.7,0-3.1-0.4-3.1-0.9c0-0.5,1.4-0.9,3.1-0.9c0.4,0,0.7,0,1.1,0.1c-0.3-0.2-0.5-0.4-0.8-0.7
	c-1.2-1.2-1.9-2.5-1.6-2.9c0.4-0.4,1.6,0.3,2.9,1.6c0.3,0.3,0.5,0.5,0.7,0.8c0-0.3-0.1-0.7-0.1-1.1c0-1.7,0.4-3.1,0.9-3.1
	c0.5,0,0.9,1.4,0.9,3.1c0,0.4,0,0.7-0.1,1.1c0.2-0.3,0.4-0.5,0.7-0.8c1.2-1.2,2.5-1.9,2.9-1.6c0.4,0.4-0.3,1.6-1.6,2.9
	c-0.3,0.3-0.5,0.5-0.8,0.7C670.8,8,671.2,8,671.6,8z M630.5,7.2c0.8,0.8,1.2,1.6,1,1.8c-0.2,0.2-1.1-0.2-1.8-1
	c-0.2-0.2-0.3-0.3-0.5-0.5c0,0.2,0,0.4,0,0.7c0,1.1-0.3,2-0.6,2c-0.3,0-0.6-0.9-0.6-2c0-0.2,0-0.5,0-0.7c-0.1,0.2-0.3,0.3-0.5,0.5
	c-0.8,0.8-1.6,1.2-1.8,1c-0.2-0.2,0.2-1.1,1-1.8c0.2-0.2,0.3-0.3,0.5-0.5c-0.2,0-0.4,0-0.7,0c-1.1,0-2-0.3-2-0.6
	c0-0.3,0.9-0.6,2-0.6c0.2,0,0.5,0,0.7,0c-0.2-0.1-0.3-0.3-0.5-0.5c-0.8-0.8-1.2-1.6-1-1.8c0.2-0.2,1.1,0.2,1.8,1
	c0.2,0.2,0.3,0.3,0.5,0.5c0-0.2,0-0.4,0-0.7c0-1.1,0.3-2,0.6-2c0.3,0,0.6,0.9,0.6,2c0,0.2,0,0.5,0,0.7c0.1-0.2,0.3-0.3,0.5-0.5
	c0.8-0.8,1.6-1.2,1.8-1c0.2,0.2-0.2,1.1-1,1.8c-0.2,0.2-0.3,0.3-0.5,0.5c0.2,0,0.4,0,0.7,0c1.1,0,2,0.3,2,0.6c0,0.3-0.9,0.6-2,0.6
	c-0.2,0-0.5,0-0.7,0C630.2,6.9,630.3,7.1,630.5,7.2z M591.2,8c1.7,0,3.1,0.4,3.1,0.9c0,0.5-1.4,0.9-3.1,0.9c-0.4,0-0.7,0-1.1-0.1
	c0.3,0.2,0.5,0.4,0.8,0.7c1.2,1.2,1.9,2.5,1.6,2.9c-0.4,0.4-1.6-0.3-2.9-1.6c-0.3-0.3-0.5-0.5-0.7-0.8c0,0.3,0.1,0.7,0.1,1.1
	c0,1.7-0.4,3.1-0.9,3.1c-0.5,0-0.9-1.4-0.9-3.1c0-0.4,0-0.7,0.1-1.1c-0.2,0.3-0.4,0.5-0.7,0.8c-1.2,1.2-2.5,1.9-2.9,1.6
	c-0.4-0.4,0.3-1.6,1.6-2.9c0.3-0.3,0.5-0.5,0.8-0.7c-0.3,0-0.7,0.1-1.1,0.1c-1.7,0-3.1-0.4-3.1-0.9c0-0.5,1.4-0.9,3.1-0.9
	c0.4,0,0.7,0,1.1,0.1c-0.3-0.2-0.5-0.4-0.8-0.7c-1.2-1.2-1.9-2.5-1.6-2.9c0.4-0.4,1.6,0.3,2.9,1.6c0.3,0.3,0.5,0.5,0.7,0.8
	c0-0.3-0.1-0.7-0.1-1.1c0-1.7,0.4-3.1,0.9-3.1c0.5,0,0.9,1.4,0.9,3.1c0,0.4,0,0.7-0.1,1.1c0.2-0.3,0.4-0.5,0.7-0.8
	c1.2-1.2,2.5-1.9,2.9-1.6c0.4,0.4-0.3,1.6-1.6,2.9c-0.3,0.3-0.5,0.5-0.8,0.7C590.5,8,590.8,8,591.2,8z M550.1,7.2
	c0.8,0.8,1.2,1.6,1,1.8c-0.2,0.2-1.1-0.2-1.8-1c-0.2-0.2-0.3-0.3-0.5-0.5c0,0.2,0,0.4,0,0.7c0,1.1-0.3,2-0.6,2c-0.3,0-0.6-0.9-0.6-2
	c0-0.2,0-0.5,0-0.7c-0.1,0.2-0.3,0.3-0.5,0.5c-0.8,0.8-1.6,1.2-1.8,1c-0.2-0.2,0.2-1.1,1-1.8c0.2-0.2,0.3-0.3,0.5-0.5
	c-0.2,0-0.4,0-0.7,0c-1.1,0-2-0.3-2-0.6c0-0.3,0.9-0.6,2-0.6c0.2,0,0.5,0,0.7,0c-0.2-0.1-0.3-0.3-0.5-0.5c-0.8-0.8-1.2-1.6-1-1.8
	c0.2-0.2,1.1,0.2,1.8,1c0.2,0.2,0.3,0.3,0.5,0.5c0-0.2,0-0.4,0-0.7c0-1.1,0.3-2,0.6-2c0.3,0,0.6,0.9,0.6,2c0,0.2,0,0.5,0,0.7
	c0.1-0.2,0.3-0.3,0.5-0.5c0.8-0.8,1.6-1.2,1.8-1c0.2,0.2-0.2,1.1-1,1.8c-0.2,0.2-0.3,0.3-0.5,0.5c0.2,0,0.4,0,0.7,0
	c1.1,0,2,0.3,2,0.6c0,0.3-0.9,0.6-2,0.6c-0.2,0-0.5,0-0.7,0C549.8,6.9,550,7.1,550.1,7.2z M510.8,8c1.7,0,3.1,0.4,3.1,0.9
	c0,0.5-1.4,0.9-3.1,0.9c-0.4,0-0.7,0-1.1-0.1c0.3,0.2,0.5,0.4,0.8,0.7c1.2,1.2,1.9,2.5,1.6,2.9c-0.4,0.4-1.6-0.3-2.9-1.6
	c-0.3-0.3-0.5-0.5-0.7-0.8c0,0.3,0.1,0.7,0.1,1.1c0,1.7-0.4,3.1-0.9,3.1s-0.9-1.4-0.9-3.1c0-0.4,0-0.7,0.1-1.1
	c-0.2,0.3-0.4,0.5-0.7,0.8c-1.2,1.2-2.5,1.9-2.9,1.6c-0.4-0.4,0.3-1.6,1.6-2.9c0.3-0.3,0.5-0.5,0.8-0.7c-0.3,0-0.7,0.1-1.1,0.1
	c-1.7,0-3.1-0.4-3.1-0.9c0-0.5,1.4-0.9,3.1-0.9c0.4,0,0.7,0,1.1,0.1c-0.3-0.2-0.5-0.4-0.8-0.7c-1.2-1.2-1.9-2.5-1.6-2.9
	c0.4-0.4,1.6,0.3,2.9,1.6c0.3,0.3,0.5,0.5,0.7,0.8c0-0.3-0.1-0.7-0.1-1.1c0-1.7,0.4-3.1,0.9-3.1s0.9,1.4,0.9,3.1
	c0,0.4,0,0.7-0.1,1.1c0.2-0.3,0.4-0.5,0.7-0.8c1.2-1.2,2.5-1.9,2.9-1.6c0.4,0.4-0.3,1.6-1.6,2.9c-0.3,0.3-0.5,0.5-0.8,0.7
	C510.1,8,510.5,8,510.8,8z M469.8,7.2c0.8,0.8,1.2,1.6,1,1.8c-0.2,0.2-1.1-0.2-1.8-1c-0.2-0.2-0.3-0.3-0.5-0.5c0,0.2,0,0.4,0,0.7
	c0,1.1-0.3,2-0.6,2c-0.3,0-0.6-0.9-0.6-2c0-0.2,0-0.5,0-0.7c-0.1,0.2-0.3,0.3-0.5,0.5c-0.8,0.8-1.6,1.2-1.8,1
	c-0.2-0.2,0.2-1.1,1-1.8c0.2-0.2,0.3-0.3,0.5-0.5c-0.2,0-0.4,0-0.7,0c-1.1,0-2-0.3-2-0.6c0-0.3,0.9-0.6,2-0.6c0.2,0,0.5,0,0.7,0
	c-0.2-0.1-0.3-0.3-0.5-0.5c-0.8-0.8-1.2-1.6-1-1.8c0.2-0.2,1.1,0.2,1.8,1c0.2,0.2,0.3,0.3,0.5,0.5c0-0.2,0-0.4,0-0.7
	c0-1.1,0.3-2,0.6-2c0.3,0,0.6,0.9,0.6,2c0,0.2,0,0.5,0,0.7c0.1-0.2,0.3-0.3,0.5-0.5c0.8-0.8,1.6-1.2,1.8-1c0.2,0.2-0.2,1.1-1,1.8
	c-0.2,0.2-0.3,0.3-0.5,0.5c0.2,0,0.4,0,0.7,0c1.1,0,2,0.3,2,0.6c0,0.3-0.9,0.6-2,0.6c-0.2,0-0.5,0-0.7,0
	C469.4,6.9,469.6,7.1,469.8,7.2z M430.5,8c1.7,0,3.1,0.4,3.1,0.9c0,0.5-1.4,0.9-3.1,0.9c-0.4,0-0.7,0-1.1-0.1
	c0.3,0.2,0.5,0.4,0.8,0.7c1.2,1.2,1.9,2.5,1.6,2.9c-0.4,0.4-1.6-0.3-2.9-1.6c-0.3-0.3-0.5-0.5-0.7-0.8c0,0.3,0.1,0.7,0.1,1.1
	c0,1.7-0.4,3.1-0.9,3.1c-0.5,0-0.9-1.4-0.9-3.1c0-0.4,0-0.7,0.1-1.1c-0.2,0.3-0.4,0.5-0.7,0.8c-1.2,1.2-2.5,1.9-2.9,1.6
	c-0.4-0.4,0.3-1.6,1.6-2.9c0.3-0.3,0.5-0.5,0.8-0.7c-0.3,0-0.7,0.1-1.1,0.1c-1.7,0-3.1-0.4-3.1-0.9c0-0.5,1.4-0.9,3.1-0.9
	c0.4,0,0.7,0,1.1,0.1c-0.3-0.2-0.5-0.4-0.8-0.7c-1.2-1.2-1.9-2.5-1.6-2.9c0.4-0.4,1.6,0.3,2.9,1.6c0.3,0.3,0.5,0.5,0.7,0.8
	c0-0.3-0.1-0.7-0.1-1.1c0-1.7,0.4-3.1,0.9-3.1c0.5,0,0.9,1.4,0.9,3.1c0,0.4,0,0.7-0.1,1.1c0.2-0.3,0.4-0.5,0.7-0.8
	c1.2-1.2,2.5-1.9,2.9-1.6c0.4,0.4-0.3,1.6-1.6,2.9c-0.3,0.3-0.5,0.5-0.8,0.7C429.8,8,430.1,8,430.5,8z M389.4,7.2
	c0.8,0.8,1.2,1.6,1,1.8c-0.2,0.2-1.1-0.2-1.8-1c-0.2-0.2-0.3-0.3-0.5-0.5c0,0.2,0,0.4,0,0.7c0,1.1-0.3,2-0.6,2s-0.6-0.9-0.6-2
	c0-0.2,0-0.5,0-0.7c-0.1,0.2-0.3,0.3-0.5,0.5c-0.8,0.8-1.6,1.2-1.8,1c-0.2-0.2,0.2-1.1,1-1.8c0.2-0.2,0.3-0.3,0.5-0.5
	c-0.2,0-0.4,0-0.7,0c-1.1,0-2-0.3-2-0.6c0-0.3,0.9-0.6,2-0.6c0.2,0,0.5,0,0.7,0c-0.2-0.1-0.3-0.3-0.5-0.5c-0.8-0.8-1.2-1.6-1-1.8
	c0.2-0.2,1.1,0.2,1.8,1c0.2,0.2,0.3,0.3,0.5,0.5c0-0.2,0-0.4,0-0.7c0-1.1,0.3-2,0.6-2s0.6,0.9,0.6,2c0,0.2,0,0.5,0,0.7
	c0.1-0.2,0.3-0.3,0.5-0.5c0.8-0.8,1.6-1.2,1.8-1c0.2,0.2-0.2,1.1-1,1.8c-0.2,0.2-0.3,0.3-0.5,0.5c0.2,0,0.4,0,0.7,0
	c1.1,0,2,0.3,2,0.6c0,0.3-0.9,0.6-2,0.6c-0.2,0-0.5,0-0.7,0C389.1,6.9,389.3,7.1,389.4,7.2z M350.1,8c1.7,0,3.1,0.4,3.1,0.9
	c0,0.5-1.4,0.9-3.1,0.9c-0.4,0-0.7,0-1.1-0.1c0.3,0.2,0.5,0.4,0.8,0.7c1.2,1.2,1.9,2.5,1.6,2.9c-0.4,0.4-1.6-0.3-2.9-1.6
	c-0.3-0.3-0.5-0.5-0.7-0.8c0,0.3,0.1,0.7,0.1,1.1c0,1.7-0.4,3.1-0.9,3.1s-0.9-1.4-0.9-3.1c0-0.4,0-0.7,0.1-1.1
	c-0.2,0.3-0.4,0.5-0.7,0.8c-1.2,1.2-2.5,1.9-2.9,1.6c-0.4-0.4,0.3-1.6,1.6-2.9c0.3-0.3,0.5-0.5,0.8-0.7c-0.3,0-0.7,0.1-1.1,0.1
	c-1.7,0-3.1-0.4-3.1-0.9c0-0.5,1.4-0.9,3.1-0.9c0.4,0,0.7,0,1.1,0.1c-0.3-0.2-0.5-0.4-0.8-0.7c-1.2-1.2-1.9-2.5-1.6-2.9
	c0.4-0.4,1.6,0.3,2.9,1.6c0.3,0.3,0.5,0.5,0.7,0.8c0-0.3-0.1-0.7-0.1-1.1c0-1.7,0.4-3.1,0.9-3.1s0.9,1.4,0.9,3.1
	c0,0.4,0,0.7-0.1,1.1c0.2-0.3,0.4-0.5,0.7-0.8c1.2-1.2,2.5-1.9,2.9-1.6c0.4,0.4-0.3,1.6-1.6,2.9c-0.3,0.3-0.5,0.5-0.8,0.7
	C349.4,8,349.7,8,350.1,8z M309.1,7.2c0.8,0.8,1.2,1.6,1,1.8c-0.2,0.2-1.1-0.2-1.8-1c-0.2-0.2-0.3-0.3-0.5-0.5c0,0.2,0,0.4,0,0.7
	c0,1.1-0.3,2-0.6,2c-0.3,0-0.6-0.9-0.6-2c0-0.2,0-0.5,0-0.7c-0.1,0.2-0.3,0.3-0.5,0.5c-0.8,0.8-1.6,1.2-1.8,1
	c-0.2-0.2,0.2-1.1,1-1.8c0.2-0.2,0.3-0.3,0.5-0.5c-0.2,0-0.4,0-0.7,0c-1.1,0-2-0.3-2-0.6c0-0.3,0.9-0.6,2-0.6c0.2,0,0.5,0,0.7,0
	c-0.2-0.1-0.3-0.3-0.5-0.5c-0.8-0.8-1.2-1.6-1-1.8c0.2-0.2,1.1,0.2,1.8,1c0.2,0.2,0.3,0.3,0.5,0.5c0-0.2,0-0.4,0-0.7
	c0-1.1,0.3-2,0.6-2c0.3,0,0.6,0.9,0.6,2c0,0.2,0,0.5,0,0.7c0.1-0.2,0.3-0.3,0.5-0.5c0.8-0.8,1.6-1.2,1.8-1c0.2,0.2-0.2,1.1-1,1.8
	c-0.2,0.2-0.3,0.3-0.5,0.5c0.2,0,0.4,0,0.7,0c1.1,0,2,0.3,2,0.6c0,0.3-0.9,0.6-2,0.6c-0.2,0-0.5,0-0.7,0
	C308.7,6.9,308.9,7.1,309.1,7.2z M269.8,8c1.7,0,3.1,0.4,3.1,0.9c0,0.5-1.4,0.9-3.1,0.9c-0.4,0-0.7,0-1.1-0.1
	c0.3,0.2,0.5,0.4,0.8,0.7c1.2,1.2,1.9,2.5,1.6,2.9c-0.4,0.4-1.7-0.3-2.9-1.6c-0.3-0.3-0.5-0.5-0.7-0.8c0,0.3,0.1,0.7,0.1,1.1
	c0,1.7-0.4,3.1-0.9,3.1c-0.5,0-0.9-1.4-0.9-3.1c0-0.4,0-0.7,0.1-1.1c-0.2,0.3-0.4,0.5-0.7,0.8c-1.2,1.2-2.5,1.9-2.9,1.6
	c-0.4-0.4,0.3-1.6,1.6-2.9c0.3-0.3,0.5-0.5,0.8-0.7c-0.3,0-0.7,0.1-1.1,0.1c-1.7,0-3.1-0.4-3.1-0.9c0-0.5,1.4-0.9,3.1-0.9
	c0.4,0,0.7,0,1.1,0.1c-0.3-0.2-0.5-0.4-0.8-0.7c-1.2-1.2-1.9-2.5-1.6-2.9c0.4-0.4,1.6,0.3,2.9,1.6c0.3,0.3,0.5,0.5,0.7,0.8
	c0-0.3-0.1-0.7-0.1-1.1c0-1.7,0.4-3.1,0.9-3.1c0.5,0,0.9,1.4,0.9,3.1c0,0.4,0,0.7-0.1,1.1c0.2-0.3,0.4-0.5,0.7-0.8
	c1.2-1.2,2.5-1.9,2.9-1.6c0.4,0.4-0.3,1.6-1.6,2.9c-0.3,0.3-0.5,0.5-0.8,0.7C269,8,269.4,8,269.8,8z M228.7,7.2
	c0.8,0.8,1.2,1.6,1,1.8c-0.2,0.2-1.1-0.2-1.8-1c-0.2-0.2-0.3-0.3-0.5-0.5c0,0.2,0,0.4,0,0.7c0,1.1-0.3,2-0.6,2c-0.3,0-0.6-0.9-0.6-2
	c0-0.2,0-0.5,0-0.7c-0.1,0.2-0.3,0.3-0.5,0.5c-0.8,0.8-1.6,1.2-1.8,1c-0.2-0.2,0.2-1.1,1-1.8c0.2-0.2,0.3-0.3,0.5-0.5
	c-0.2,0-0.4,0-0.7,0c-1.1,0-2-0.3-2-0.6c0-0.3,0.9-0.6,2-0.6c0.2,0,0.5,0,0.7,0c-0.2-0.1-0.3-0.3-0.5-0.5c-0.8-0.8-1.2-1.6-1-1.8
	c0.2-0.2,1.1,0.2,1.8,1c0.2,0.2,0.3,0.3,0.5,0.5c0-0.2,0-0.4,0-0.7c0-1.1,0.3-2,0.6-2c0.3,0,0.6,0.9,0.6,2c0,0.2,0,0.5,0,0.7
	c0.1-0.2,0.3-0.3,0.5-0.5c0.8-0.8,1.6-1.2,1.8-1c0.2,0.2-0.2,1.1-1,1.8c-0.2,0.2-0.3,0.3-0.5,0.5c0.2,0,0.4,0,0.7,0
	c1.1,0,2,0.3,2,0.6c0,0.3-0.9,0.6-2,0.6c-0.2,0-0.5,0-0.7,0C228.4,6.9,228.5,7.1,228.7,7.2z M189.4,8c1.7,0,3.1,0.4,3.1,0.9
	c0,0.5-1.4,0.9-3.1,0.9c-0.4,0-0.7,0-1.1-0.1c0.3,0.2,0.5,0.4,0.8,0.7c1.2,1.2,1.9,2.5,1.6,2.9c-0.4,0.4-1.7-0.3-2.9-1.6
	c-0.3-0.3-0.5-0.5-0.7-0.8c0,0.3,0.1,0.7,0.1,1.1c0,1.7-0.4,3.1-0.9,3.1s-0.9-1.4-0.9-3.1c0-0.4,0-0.7,0.1-1.1
	c-0.2,0.3-0.4,0.5-0.7,0.8c-1.2,1.2-2.5,1.9-2.9,1.6c-0.4-0.4,0.3-1.6,1.6-2.9c0.3-0.3,0.5-0.5,0.8-0.7c-0.3,0-0.7,0.1-1.1,0.1
	c-1.7,0-3.1-0.4-3.1-0.9c0-0.5,1.4-0.9,3.1-0.9c0.4,0,0.7,0,1.1,0.1c-0.3-0.2-0.5-0.4-0.8-0.7c-1.2-1.2-1.9-2.5-1.6-2.9
	c0.4-0.4,1.6,0.3,2.9,1.6c0.3,0.3,0.5,0.5,0.7,0.8c0-0.3-0.1-0.7-0.1-1.1c0-1.7,0.4-3.1,0.9-3.1s0.9,1.4,0.9,3.1
	c0,0.4,0,0.7-0.1,1.1c0.2-0.3,0.4-0.5,0.7-0.8c1.2-1.2,2.5-1.9,2.9-1.6c0.4,0.4-0.3,1.6-1.6,2.9c-0.3,0.3-0.5,0.5-0.8,0.7
	C188.7,8,189,8,189.4,8z M148.3,7.2c0.8,0.8,1.2,1.6,1,1.8c-0.2,0.2-1.1-0.2-1.8-1c-0.2-0.2-0.3-0.3-0.5-0.5c0,0.2,0,0.4,0,0.7
	c0,1.1-0.3,2-0.6,2c-0.3,0-0.6-0.9-0.6-2c0-0.2,0-0.5,0-0.7c-0.1,0.2-0.3,0.3-0.5,0.5c-0.8,0.8-1.6,1.2-1.8,1
	c-0.2-0.2,0.2-1.1,1-1.8c0.2-0.2,0.3-0.3,0.5-0.5c-0.2,0-0.4,0-0.7,0c-1.1,0-2-0.3-2-0.6c0-0.3,0.9-0.6,2-0.6c0.2,0,0.5,0,0.7,0
	c-0.2-0.1-0.3-0.3-0.5-0.5c-0.8-0.8-1.2-1.6-1-1.8c0.2-0.2,1.1,0.2,1.8,1c0.2,0.2,0.3,0.3,0.5,0.5c0-0.2,0-0.4,0-0.7
	c0-1.1,0.3-2,0.6-2c0.3,0,0.6,0.9,0.6,2c0,0.2,0,0.5,0,0.7c0.1-0.2,0.3-0.3,0.5-0.5c0.8-0.8,1.6-1.2,1.8-1c0.2,0.2-0.2,1.1-1,1.8
	c-0.2,0.2-0.3,0.3-0.5,0.5c0.2,0,0.4,0,0.7,0c1.1,0,2,0.3,2,0.6c0,0.3-0.9,0.6-2,0.6c-0.2,0-0.5,0-0.7,0
	C148,6.9,148.2,7.1,148.3,7.2z M109,8c1.7,0,3.1,0.4,3.1,0.9c0,0.5-1.4,0.9-3.1,0.9c-0.4,0-0.7,0-1.1-0.1c0.3,0.2,0.5,0.4,0.8,0.7
	c1.2,1.2,1.9,2.5,1.6,2.9c-0.4,0.4-1.7-0.3-2.9-1.6c-0.3-0.3-0.5-0.5-0.7-0.8c0,0.3,0.1,0.7,0.1,1.1c0,1.7-0.4,3.1-0.9,3.1
	S105,13.8,105,12c0-0.4,0-0.7,0.1-1.1c-0.2,0.3-0.4,0.5-0.7,0.8c-1.2,1.2-2.5,1.9-2.9,1.6c-0.4-0.4,0.3-1.6,1.6-2.9
	c0.3-0.3,0.5-0.5,0.8-0.7c-0.3,0-0.7,0.1-1.1,0.1c-1.7,0-3.1-0.4-3.1-0.9c0-0.5,1.4-0.9,3.1-0.9c0.4,0,0.7,0,1.1,0.1
	c-0.3-0.2-0.5-0.4-0.8-0.7c-1.2-1.2-1.9-2.5-1.6-2.9c0.4-0.4,1.6,0.3,2.9,1.6c0.3,0.3,0.5,0.5,0.7,0.8c0-0.3-0.1-0.7-0.1-1.1
	c0-1.7,0.4-3.1,0.9-3.1s0.9,1.4,0.9,3.1c0,0.4,0,0.7-0.1,1.1c0.2-0.3,0.4-0.5,0.7-0.8c1.2-1.2,2.5-1.9,2.9-1.6
	c0.4,0.4-0.3,1.6-1.6,2.9c-0.3,0.3-0.5,0.5-0.8,0.7C108.3,8,108.7,8,109,8z M68,7.2c0.8,0.8,1.2,1.6,1,1.8c-0.2,0.2-1.1-0.2-1.8-1
	c-0.2-0.2-0.3-0.3-0.5-0.5c0,0.2,0,0.4,0,0.7c0,1.1-0.3,2-0.6,2c-0.3,0-0.6-0.9-0.6-2c0-0.2,0-0.5,0-0.7c-0.1,0.2-0.3,0.3-0.5,0.5
	c-0.8,0.8-1.6,1.2-1.8,1c-0.2-0.2,0.2-1.1,1-1.8c0.2-0.2,0.3-0.3,0.5-0.5c-0.2,0-0.4,0-0.7,0c-1.1,0-2-0.3-2-0.6
	c0-0.3,0.9-0.6,2-0.6c0.2,0,0.5,0,0.7,0c-0.2-0.1-0.3-0.3-0.5-0.5c-0.8-0.8-1.2-1.6-1-1.8c0.2-0.2,1.1,0.2,1.8,1
	c0.2,0.2,0.3,0.3,0.5,0.5c0-0.2,0-0.4,0-0.7c0-1.1,0.3-2,0.6-2c0.3,0,0.6,0.9,0.6,2c0,0.2,0,0.5,0,0.7c0.1-0.2,0.3-0.3,0.5-0.5
	c0.8-0.8,1.6-1.2,1.8-1c0.2,0.2-0.2,1.1-1,1.8c-0.2,0.2-0.3,0.3-0.5,0.5c0.2,0,0.4,0,0.7,0c1.1,0,2,0.3,2,0.6c0,0.3-0.9,0.6-2,0.6
	c-0.2,0-0.5,0-0.7,0C67.6,6.9,67.8,7.1,68,7.2z M55.1,6.8C53.5,7.2,52,6.8,51.8,6c-0.2-0.9,0.9-1.9,2.5-2.3c1.6-0.4,3.1-0.1,3.3,0.8
	C57.9,5.3,56.7,6.3,55.1,6.8z M78.4,1.8c-0.3-0.1-0.7-0.1-1-0.1h10.5c-0.4,0.1-0.9,0.1-1.3,0.3c-1.9,0.5-3.4,1.4-4.5,2.4
	C81.5,3.2,80.2,2.3,78.4,1.8z M74.6,4.5c0.2-0.9,1.7-1.2,3.3-0.8c1.6,0.4,2.8,1.5,2.5,2.3c-0.2,0.9-1.7,1.2-3.3,0.8
	C75.5,6.3,74.4,5.3,74.6,4.5z M125.2,1.9c-0.4-0.1-0.9-0.2-1.3-0.3h11.4c-0.3,0-0.7,0.1-1,0.1c-2.1,0.5-3.5,1.8-3.9,3.2
	C129.2,3.7,127.4,2.5,125.2,1.9z M157.8,1.7h10.5c-0.4,0.1-0.9,0.1-1.3,0.3c-1.9,0.5-3.4,1.4-4.5,2.4c-0.6-1.1-1.9-2.1-3.6-2.5
	C158.5,1.7,158.1,1.7,157.8,1.7z M134.7,3.7c1.6-0.4,3.1-0.1,3.3,0.8c0.2,0.9-0.9,1.9-2.5,2.3c-1.6,0.4-3.1,0.1-3.3-0.8
	C131.9,5.1,133.1,4.1,134.7,3.7z M155,4.5c0.2-0.9,1.7-1.2,3.3-0.8c1.6,0.4,2.8,1.5,2.5,2.3c-0.2,0.9-1.7,1.2-3.3,0.8
	C155.9,6.3,154.8,5.3,155,4.5z M205.5,1.9c-0.4-0.1-0.9-0.2-1.3-0.3h11.4c-0.3,0-0.7,0.1-1,0.1c-2.1,0.5-3.5,1.8-3.9,3.2
	C209.6,3.7,207.8,2.5,205.5,1.9z M238.2,1.7h10.5c-0.4,0.1-0.9,0.1-1.3,0.3c-1.9,0.5-3.4,1.4-4.5,2.4c-0.6-1.1-1.9-2.1-3.6-2.5
	C238.8,1.7,238.5,1.7,238.2,1.7z M215,3.7c1.6-0.4,3.1-0.1,3.3,0.8c0.2,0.9-0.9,1.9-2.5,2.3c-1.6,0.4-3.1,0.1-3.3-0.8
	C212.3,5.1,213.4,4.1,215,3.7z M235.4,4.5c0.2-0.9,1.7-1.2,3.3-0.8c1.6,0.4,2.8,1.5,2.5,2.3c-0.2,0.9-1.7,1.2-3.3,0.8
	C236.3,6.3,235.1,5.3,235.4,4.5z M285.9,1.9c-0.4-0.1-0.9-0.2-1.3-0.3h11.4c-0.3,0-0.7,0.1-1,0.1c-2.1,0.5-3.5,1.8-3.9,3.2
	C289.9,3.7,288.1,2.5,285.9,1.9z M318.5,1.7H329c-0.4,0.1-0.9,0.1-1.3,0.3c-1.9,0.5-3.4,1.4-4.5,2.4c-0.6-1.1-1.9-2.1-3.6-2.5
	C319.2,1.7,318.8,1.7,318.5,1.7z M295.4,3.7c1.6-0.4,3.1-0.1,3.3,0.8c0.2,0.9-0.9,1.9-2.5,2.3c-1.6,0.4-3.1,0.1-3.3-0.8
	C292.6,5.1,293.8,4.1,295.4,3.7z M315.7,4.5c0.2-0.9,1.7-1.2,3.3-0.8c1.6,0.4,2.8,1.5,2.5,2.3c-0.2,0.9-1.7,1.2-3.3,0.8
	C316.6,6.3,315.5,5.3,315.7,4.5z M366.2,1.9c-0.4-0.1-0.9-0.2-1.3-0.3h11.4c-0.3,0-0.7,0.1-1,0.1c-2.1,0.5-3.5,1.8-3.9,3.2
	C370.3,3.7,368.5,2.5,366.2,1.9z M398.9,1.7h10.5c-0.4,0.1-0.9,0.1-1.3,0.3c-1.9,0.5-3.4,1.4-4.5,2.4c-0.6-1.1-1.9-2.1-3.6-2.5
	C399.5,1.7,399.2,1.7,398.9,1.7z M375.8,3.7c1.6-0.4,3.1-0.1,3.3,0.8c0.2,0.9-0.9,1.9-2.5,2.3c-1.6,0.4-3.1,0.1-3.3-0.8
	C373,5.1,374.1,4.1,375.8,3.7z M396.1,4.5c0.2-0.9,1.7-1.2,3.3-0.8c1.6,0.4,2.8,1.5,2.5,2.3c-0.2,0.9-1.7,1.2-3.3,0.8
	C397,6.3,395.9,5.3,396.1,4.5z M446.6,1.9c-0.4-0.1-0.9-0.2-1.3-0.3h11.4c-0.3,0-0.7,0.1-1,0.1c-2.1,0.5-3.5,1.8-3.9,3.2
	C450.7,3.7,448.9,2.5,446.6,1.9z M479.2,1.7h10.5c-0.4,0.1-0.9,0.1-1.3,0.3c-1.9,0.5-3.4,1.4-4.5,2.4c-0.6-1.1-1.9-2.1-3.6-2.5
	C479.9,1.7,479.6,1.7,479.2,1.7z M456.1,3.7c1.6-0.4,3.1-0.1,3.3,0.8c0.2,0.9-0.9,1.9-2.5,2.3c-1.6,0.4-3.1,0.1-3.3-0.8
	C453.4,5.1,454.5,4.1,456.1,3.7z M476.4,4.5c0.2-0.9,1.7-1.2,3.3-0.8c1.6,0.4,2.8,1.5,2.5,2.3c-0.2,0.9-1.7,1.2-3.3,0.8
	C477.3,6.3,476.2,5.3,476.4,4.5z M527,1.9c-0.4-0.1-0.9-0.2-1.3-0.3H537c-0.3,0-0.7,0.1-1,0.1c-2.1,0.5-3.5,1.8-3.9,3.2
	C531,3.7,529.2,2.5,527,1.9z M559.6,1.7h10.5c-0.4,0.1-0.9,0.1-1.3,0.3c-1.9,0.5-3.4,1.4-4.5,2.4c-0.6-1.1-1.9-2.1-3.6-2.5
	C560.3,1.7,559.9,1.7,559.6,1.7z M536.5,3.7c1.6-0.4,3.1-0.1,3.3,0.8c0.2,0.9-0.9,1.9-2.5,2.3c-1.6,0.4-3.1,0.1-3.3-0.8
	C533.7,5.1,534.9,4.1,536.5,3.7z M556.8,4.5c0.2-0.9,1.7-1.2,3.3-0.8c1.6,0.4,2.8,1.5,2.5,2.3c-0.2,0.9-1.7,1.2-3.3,0.8
	C557.7,6.3,556.6,5.3,556.8,4.5z M607.3,1.9c-0.4-0.1-0.9-0.2-1.3-0.3h11.4c-0.3,0-0.7,0.1-1,0.1c-2.1,0.5-3.5,1.8-3.9,3.2
	C611.4,3.7,609.6,2.5,607.3,1.9z M640,1.7h10.5c-0.4,0.1-0.9,0.1-1.3,0.3c-1.9,0.5-3.4,1.4-4.5,2.4c-0.6-1.1-1.9-2.1-3.6-2.5
	C640.6,1.7,640.3,1.7,640,1.7z M616.8,3.7c1.6-0.4,3.1-0.1,3.3,0.8c0.2,0.9-0.9,1.9-2.5,2.3c-1.6,0.4-3.1,0.1-3.3-0.8
	C614.1,5.1,615.2,4.1,616.8,3.7z M637.2,4.5c0.2-0.9,1.7-1.2,3.3-0.8c1.6,0.4,2.8,1.5,2.5,2.3c-0.2,0.9-1.7,1.2-3.3,0.8
	C638.1,6.3,636.9,5.3,637.2,4.5z M687.7,1.9c-0.4-0.1-0.9-0.2-1.3-0.3h11.4c-0.3,0-0.7,0.1-1,0.1c-2.1,0.5-3.5,1.8-3.9,3.2
	C691.7,3.7,689.9,2.5,687.7,1.9z M697.2,3.7c1.6-0.4,3.1-0.1,3.3,0.8c0.2,0.9-0.9,1.9-2.5,2.3c-1.6,0.4-3.1,0.1-3.3-0.8
	C694.5,5.1,695.6,4.1,697.2,3.7z M717.5,4.5c0.2-0.9,1.7-1.2,3.3-0.8c1.6,0.4,2.8,1.5,2.5,2.3c-0.2,0.9-1.7,1.2-3.3,0.8
	C718.4,6.3,717.3,5.3,717.5,4.5z M800.8,10.9c-0.7,0-1.6-0.2-2.5-0.8c-1.4-0.9-2.1-2.3-1.6-3c0.2-0.3,0.5-0.4,0.9-0.5
	c0.7-0.1,1.6,0.2,2.5,0.8c1.4,0.9,2.1,2.3,1.6,3C801.6,10.7,801.3,10.8,800.8,10.9z M784.6,16.3c-0.8-0.3-1.1-1.8-0.5-3.4
	c0.5-1.4,1.4-2.4,2.2-2.4c0.1,0,0.2,0,0.3,0c0.8,0.3,1.1,1.8,0.5,3.4c-0.5,1.4-1.4,2.4-2.2,2.4C784.8,16.3,784.7,16.3,784.6,16.3z
	 M780.3,14c-0.7-0.5-0.4-2,0.6-3.4c0.8-1,1.7-1.6,2.5-1.6c0.2,0,0.5,0.1,0.6,0.2c0.7,0.5,0.4,2-0.6,3.4c-0.8,1-1.7,1.6-2.5,1.6
	C780.7,14.2,780.5,14.1,780.3,14z M777,10.4c-0.5-0.7,0.3-2.1,1.6-3c0.9-0.6,1.8-0.8,2.5-0.8c0.4,0,0.7,0.2,0.9,0.5
	c0.5,0.7-0.3,2.1-1.6,3c-0.9,0.6-1.8,0.8-2.5,0.8C777.5,10.8,777.2,10.7,777,10.4z M766.7,16.1c-1.1,0.1-2.5-0.3-3.9-1.2
	c-2.2-1.4-3.3-3.5-2.6-4.7c0.3-0.4,0.8-0.7,1.4-0.7c1.1-0.1,2.5,0.3,3.9,1.2c2.2,1.4,3.3,3.5,2.6,4.7
	C767.9,15.8,767.4,16.1,766.7,16.1z M741.3,24.6c-1.3-0.4-1.7-2.8-0.8-5.3c0.7-2.2,2.2-3.7,3.4-3.7c0.2,0,0.3,0,0.5,0.1
	c1.3,0.4,1.7,2.8,0.8,5.3c-0.7,2.2-2.2,3.7-3.4,3.8C741.6,24.7,741.4,24.7,741.3,24.6z M734.6,21c-1.1-0.8-0.7-3.2,0.9-5.3
	c1.2-1.6,2.7-2.5,3.9-2.5c0.4,0,0.7,0.1,1,0.3c1.1,0.8,0.7,3.2-0.9,5.3c-1.2,1.6-2.7,2.5-3.9,2.5C735.2,21.3,734.9,21.2,734.6,21z
	 M729.4,15.4c-0.8-1.2,0.4-3.3,2.6-4.7c1.4-0.9,2.8-1.3,3.9-1.2c0.6,0.1,1.2,0.3,1.4,0.7c0.8,1.2-0.4,3.3-2.6,4.7
	c-1.4,0.9-2.8,1.3-3.9,1.2C730.2,16.1,729.7,15.8,729.4,15.4z M747.2,6c0.3,0.3,0.5,0.5,0.7,0.8c0,0,0,0,0,0c0,0,0,0,0,0
	c0-0.3-0.1-0.7-0.1-1.1c0-1.7,0.4-3.1,0.9-3.1c0.5,0,0.9,1.4,0.9,3.1c0,0.4,0,0.7-0.1,1.1c0,0,0,0,0,0c0,0,0,0,0,0
	c0.2-0.3,0.4-0.5,0.7-0.8c1.1-1.1,2.2-1.7,2.7-1.7c0.1,0,0.1,0,0.2,0.1c0.4,0.4-0.3,1.6-1.6,2.9c-0.3,0.3-0.5,0.5-0.8,0.7
	c0,0,0,0,0,0c0,0,0,0,0,0c0.3,0,0.7-0.1,1.1-0.1c1.7,0,3.1,0.4,3.1,0.9c0,0.5-1.4,0.9-3.1,0.9c-0.4,0-0.7,0-1.1-0.1l0,0c0,0,0,0,0,0
	c0.3,0.2,0.5,0.4,0.8,0.7c1.2,1.2,1.9,2.5,1.6,2.9c0,0-0.1,0.1-0.2,0.1c-0.5,0.1-1.6-0.6-2.7-1.7c-0.3-0.3-0.5-0.5-0.7-0.8
	c0,0,0,0,0,0c0,0,0,0,0,0c0,0.3,0.1,0.7,0.1,1.1c0,1.7-0.4,3.1-0.9,3.1c-0.5,0-0.9-1.4-0.9-3.1c0-0.4,0-0.7,0.1-1.1c0,0,0,0,0,0
	c0,0,0,0,0,0c-0.2,0.3-0.4,0.5-0.7,0.8c-1.1,1.1-2.2,1.7-2.7,1.7c-0.1,0-0.1,0-0.2-0.1c-0.4-0.4,0.3-1.6,1.6-2.9
	c0.3-0.3,0.5-0.5,0.8-0.7c0,0,0,0,0,0c0,0,0,0,0,0c-0.3,0-0.7,0.1-1,0.1c-1.7,0-3.1-0.4-3.1-0.9c0-0.5,1.4-0.9,3.1-0.9
	c0.4,0,0.7,0,1,0.1c0,0,0,0,0,0c0,0,0,0,0,0c-0.3-0.2-0.5-0.4-0.8-0.7c-1.2-1.2-1.9-2.5-1.6-2.9c0,0,0.1-0.1,0.2-0.1
	C745,4.3,746.1,4.9,747.2,6z M790,4.2c0,0.2,0,0.5,0,0.7c0,0,0,0,0,0c0,0,0,0,0,0c0.1-0.2,0.3-0.3,0.5-0.5c0.7-0.7,1.4-1.1,1.7-1.1
	c0,0,0.1,0,0.1,0.1c0.2,0.2-0.2,1.1-1,1.8c-0.2,0.2-0.3,0.3-0.5,0.5c0,0,0,0,0,0c0,0,0,0,0,0c0.2,0,0.4,0,0.7,0c1.1,0,2,0.3,2,0.6
	c0,0.3-0.9,0.6-2,0.6c-0.2,0-0.5,0-0.7,0c0,0,0,0,0,0c0,0,0,0,0,0c0.2,0.1,0.3,0.3,0.5,0.5c0.8,0.8,1.2,1.6,1,1.8c0,0-0.1,0-0.1,0.1
	c-0.3,0-1-0.4-1.7-1.1c-0.2-0.2-0.3-0.3-0.5-0.5c0,0,0,0,0,0c0,0,0,0,0,0c0,0.2,0,0.4,0,0.7c0,1.1-0.3,2-0.6,2c-0.3,0-0.6-0.9-0.6-2
	c0-0.2,0-0.5,0-0.7c0,0,0,0,0,0c0,0,0,0,0,0c-0.1,0.2-0.3,0.3-0.5,0.5c-0.7,0.7-1.4,1.1-1.7,1.1c0,0-0.1,0-0.1-0.1
	c-0.2-0.2,0.2-1.1,1-1.8c0.2-0.2,0.3-0.3,0.5-0.5c0,0,0,0,0,0l0,0c-0.2,0-0.4,0-0.7,0c-1.1,0-2-0.3-2-0.6c0-0.3,0.9-0.6,2-0.6
	c0.2,0,0.5,0,0.7,0l0,0c0,0,0,0,0,0c-0.2-0.1-0.3-0.3-0.5-0.5c-0.8-0.8-1.2-1.6-1-1.8c0,0,0.1,0,0.1-0.1c0.3,0,1,0.4,1.7,1.1
	c0.2,0.2,0.3,0.3,0.5,0.5c0,0,0,0,0,0c0,0,0,0,0,0c0-0.2,0-0.4,0-0.7c0-1.1,0.3-2,0.6-2C789.7,2.2,790,3.1,790,4.2z M801.2,3.7
	c1.6,0.4,2.8,1.5,2.5,2.3c-0.2,0.6-1,1-2.1,1c-0.4,0-0.8-0.1-1.2-0.2c-1.6-0.4-2.8-1.4-2.5-2.3c0.2-0.6,1-1,2.1-1
	C800.4,3.5,800.8,3.6,801.2,3.7z M775.1,6c-0.2-0.9,0.9-1.9,2.5-2.3c0.4-0.1,0.8-0.2,1.2-0.2c1.1,0,2,0.3,2.1,1
	c0.2,0.9-0.9,1.9-2.5,2.3c-0.4,0.1-0.8,0.2-1.2,0.2C776.1,7,775.2,6.6,775.1,6z M730.3,4.8c0.6-0.2,1.3-0.3,1.8-0.3
	c1.7-0.1,3.1,0.5,3.4,1.5c0.3,1.3-1.4,2.9-4,3.6c-0.6,0.2-1.3,0.3-1.8,0.3c-1.7,0.1-3.1-0.5-3.4-1.5C726,7.1,727.7,5.5,730.3,4.8z
	 M746.3,21.1c0-2.6,1.1-4.7,2.5-4.7c1.4,0,2.5,2.1,2.5,4.7c0,2.6-1.1,4.7-2.5,4.7C747.4,25.8,746.3,23.7,746.3,21.1z M755.8,24.7
	c-1.2-0.1-2.6-1.6-3.4-3.8c-0.8-2.5-0.5-4.8,0.8-5.3c0.2-0.1,0.3-0.1,0.5-0.1c1.2,0.1,2.6,1.6,3.4,3.7c0.8,2.5,0.5,4.8-0.8,5.3
	C756.1,24.7,756,24.7,755.8,24.7z M762,21.3c-1.1,0-2.7-1-3.9-2.5c-1.6-2.1-2-4.4-0.9-5.3c0.3-0.2,0.6-0.3,1-0.3
	c1.1,0,2.7,1,3.9,2.5c1.6,2.1,2,4.4,0.9,5.3C762.7,21.2,762.4,21.3,762,21.3z M766.1,9.7c-2.5-0.7-4.3-2.3-4-3.6
	c0.3-1,1.6-1.6,3.4-1.5c0.6,0,1.2,0.1,1.8,0.3c2.5,0.7,4.3,2.3,4,3.6c-0.3,1-1.6,1.6-3.4,1.5C767.3,9.9,766.7,9.8,766.1,9.7z
	 M787.8,14c0-1.7,0.7-3,1.6-3c0.9,0,1.6,1.4,1.6,3c0,1.7-0.7,3-1.6,3C788.5,17.1,787.8,15.7,787.8,14z M793.9,16.3
	c-0.8,0-1.7-1-2.2-2.4c-0.5-1.6-0.3-3.1,0.5-3.4c0.1,0,0.2,0,0.3,0c0.8,0,1.7,1,2.2,2.4c0.5,1.6,0.3,3.1-0.5,3.4
	C794.1,16.3,794,16.3,793.9,16.3z M797.8,14.2c-0.7,0-1.7-0.6-2.5-1.6c-1-1.3-1.3-2.8-0.6-3.4c0.2-0.1,0.4-0.2,0.6-0.2
	c0.7,0,1.7,0.6,2.5,1.6c1,1.3,1.3,2.8,0.6,3.4C798.3,14.1,798.1,14.2,797.8,14.2z M777.1,1.8c-2.1,0.5-3.5,1.8-3.9,3.2
	c-1.1-1.4-2.9-2.5-5.1-3.1c-0.4-0.1-0.9-0.2-1.3-0.3h11.3C777.8,1.7,777.4,1.7,777.1,1.8z M811.2,1.7c-0.4,0.1-0.9,0.1-1.3,0.3
	c-1.9,0.5-3.4,1.4-4.5,2.4c-0.1-0.2-0.2-0.3-0.3-0.5c0,0,0,0,0,0c-0.1-0.2-0.3-0.3-0.4-0.5c0,0-0.1-0.1-0.1-0.1
	c-0.3-0.3-0.7-0.6-1.2-0.9c0,0,0,0,0,0c-0.2-0.1-0.5-0.2-0.7-0.3c0,0,0,0-0.1,0c-0.3-0.1-0.5-0.2-0.8-0.3c-0.3-0.1-0.7-0.1-1-0.1h5
	H811.2z M730.8,1.7c-0.4,0.1-0.9,0.1-1.3,0.3c0,0-0.1,0-0.1,0c-0.4,0.1-0.7,0.2-1.1,0.3c-0.1,0-0.2,0.1-0.3,0.1
	c-0.3,0.1-0.6,0.3-0.9,0.4c-0.1,0.1-0.3,0.1-0.4,0.2c-0.2,0.1-0.5,0.3-0.7,0.4c-0.1,0.1-0.3,0.2-0.4,0.3c-0.2,0.1-0.4,0.3-0.5,0.4
	c-0.1,0.1-0.1,0.1-0.2,0.2c-0.6-1.1-1.9-2.1-3.6-2.5c-0.3-0.1-0.7-0.1-1-0.1h8.6H730.8z M43.5,1.7h11.4c-0.3,0-0.7,0.1-1,0.1
	c-2.1,0.5-3.5,1.8-3.9,3.2c-1.1-1.4-2.9-2.5-5.1-3.1C44.4,1.8,43.9,1.8,43.5,1.7z M24,6c0.3,0.3,0.5,0.5,0.7,0.8
	c0-0.3-0.1-0.7-0.1-1.1c0-1.7,0.4-3.1,0.9-3.1s0.9,1.4,0.9,3.1c0,0.4,0,0.7-0.1,1.1c0.2-0.3,0.4-0.5,0.7-0.8
	c1.2-1.2,2.5-1.9,2.9-1.6c0.4,0.4-0.3,1.6-1.6,2.9c-0.3,0.3-0.5,0.5-0.8,0.7C27.9,8,28.3,8,28.7,8c1.7,0,3.1,0.4,3.1,0.9
	c0,0.5-1.4,0.9-3.1,0.9c-0.4,0-0.7,0-1.1-0.1c0.3,0.2,0.5,0.4,0.8,0.7c1.2,1.2,1.9,2.5,1.6,2.9c-0.4,0.4-1.7-0.3-2.9-1.6
	c-0.3-0.3-0.5-0.5-0.7-0.8c0,0.3,0.1,0.7,0.1,1.1c0,1.7-0.4,3.1-0.9,3.1s-0.9-1.4-0.9-3.1c0-0.4,0-0.7,0.1-1.1
	c-0.2,0.3-0.4,0.5-0.7,0.8c-1.2,1.2-2.5,1.9-2.9,1.6c-0.4-0.4,0.3-1.6,1.6-2.9c0.3-0.3,0.5-0.5,0.8-0.7c-0.3,0-0.7,0.1-1.1,0.1
	c-1.7,0-3.1-0.4-3.1-0.9c0-0.5,1.4-0.9,3.1-0.9c0.4,0,0.7,0,1.1,0.1c-0.3-0.2-0.5-0.4-0.8-0.7c-1.2-1.2-1.9-2.5-1.6-2.9
	C21.4,4.1,22.7,4.8,24,6z M3,8.5C2.7,7.1,4.5,5.5,7,4.8c2.5-0.7,4.9-0.1,5.2,1.2c0.3,1.3-1.4,2.9-4,3.6C5.7,10.3,3.4,9.8,3,8.5z
	 M6.1,15.4c-0.8-1.2,0.4-3.3,2.6-4.7c2.2-1.4,4.6-1.7,5.3-0.5c0.8,1.2-0.4,3.3-2.6,4.7C9.3,16.3,6.9,16.6,6.1,15.4z M11.3,21
	c-1.1-0.8-0.7-3.2,0.9-5.3c1.6-2.1,3.8-3.1,4.9-2.2c1.1,0.8,0.7,3.2-0.9,5.3C14.6,20.8,12.4,21.8,11.3,21z M18,24.6
	c-1.3-0.4-1.7-2.8-0.8-5.3c0.8-2.5,2.6-4.1,3.9-3.7c1.3,0.4,1.7,2.8,0.8,5.3C21.1,23.4,19.3,25.1,18,24.6z M25.5,25.9
	c-1.4,0-2.5-2.1-2.5-4.7c0-2.6,1.1-4.7,2.5-4.7s2.5,2.1,2.5,4.7C28,23.7,26.9,25.9,25.5,25.9z M33,24.6c-1.3,0.4-3-1.2-3.9-3.7
	c-0.8-2.5-0.5-4.8,0.8-5.3c1.3-0.4,3,1.2,3.9,3.7C34.7,21.8,34.3,24.2,33,24.6z M39.7,21c-1.1,0.8-3.3-0.2-4.9-2.2
	c-1.6-2.1-2-4.4-0.9-5.3c1.1-0.8,3.3,0.2,4.9,2.2C40.4,17.8,40.8,20.2,39.7,21z M44.9,15.4c-0.8,1.2-3.1,0.9-5.3-0.5
	c-2.2-1.4-3.3-3.5-2.6-4.7c0.8-1.2,3.1-0.9,5.3,0.5C44.5,12.2,45.7,14.3,44.9,15.4z M48,8.5c-0.3,1.3-2.7,1.9-5.2,1.2
	c-2.5-0.7-4.3-2.3-4-3.6c0.3-1.3,2.7-1.9,5.2-1.2C46.6,5.5,48.4,7.1,48,8.5z M53.8,10.4c-0.5-0.7,0.3-2.1,1.6-3
	c1.4-0.9,2.9-1.1,3.4-0.3s-0.3,2.1-1.6,3C55.8,11,54.2,11.1,53.8,10.4z M57.1,14c-0.7-0.5-0.4-2,0.6-3.4c1-1.3,2.4-2,3.1-1.4
	c0.7,0.5,0.4,2-0.6,3.4C59.2,13.9,57.8,14.5,57.1,14z M61.3,16.3c-0.8-0.3-1.1-1.8-0.5-3.4c0.5-1.6,1.7-2.6,2.5-2.3
	c0.8,0.3,1.1,1.8,0.5,3.4C63.3,15.5,62.2,16.6,61.3,16.3z M66.1,17.1c-0.9,0-1.6-1.4-1.6-3c0-1.7,0.7-3,1.6-3c0.9,0,1.6,1.4,1.6,3
	C67.7,15.7,67,17.1,66.1,17.1z M70.9,16.3c-0.8,0.3-1.9-0.8-2.5-2.3c-0.5-1.6-0.3-3.1,0.5-3.4c0.8-0.3,1.9,0.8,2.5,2.3
	C72,14.5,71.8,16,70.9,16.3z M75.2,14c-0.7,0.5-2.1-0.1-3.1-1.4c-1-1.3-1.3-2.8-0.6-3.4c0.7-0.5,2.1,0.1,3.1,1.4
	C75.6,11.9,75.9,13.4,75.2,14z M78.5,10.4c-0.5,0.7-2,0.6-3.4-0.3c-1.4-0.9-2.1-2.3-1.6-3s2-0.6,3.4,0.3C78.3,8.3,79,9.7,78.5,10.4z
	 M83.4,8.5c-0.3-1.3,1.4-2.9,4-3.6c2.5-0.7,4.9-0.1,5.2,1.2c0.3,1.3-1.4,2.9-4,3.6C86.1,10.3,83.8,9.8,83.4,8.5z M86.5,15.4
	c-0.8-1.2,0.4-3.3,2.6-4.7c2.2-1.4,4.6-1.7,5.3-0.5c0.8,1.2-0.4,3.3-2.6,4.7C89.6,16.3,87.3,16.6,86.5,15.4z M91.7,21
	c-1.1-0.8-0.7-3.2,0.9-5.3c1.6-2.1,3.8-3.1,4.9-2.2c1.1,0.8,0.7,3.2-0.9,5.3C94.9,20.8,92.8,21.8,91.7,21z M98.4,24.6
	c-1.3-0.4-1.7-2.8-0.8-5.3c0.8-2.5,2.6-4.1,3.9-3.7c1.3,0.4,1.7,2.8,0.8,5.3C101.4,23.4,99.7,25.1,98.4,24.6z M105.9,25.9
	c-1.4,0-2.5-2.1-2.5-4.7c0-2.6,1.1-4.7,2.5-4.7s2.5,2.1,2.5,4.7C108.4,23.7,107.3,25.9,105.9,25.9z M113.4,24.6
	c-1.3,0.4-3-1.2-3.9-3.7c-0.8-2.5-0.5-4.8,0.8-5.3c1.3-0.4,3,1.2,3.9,3.7C115.1,21.8,114.7,24.2,113.4,24.6z M120.1,21
	c-1.1,0.8-3.3-0.2-4.9-2.2c-1.6-2.1-2-4.4-0.9-5.3c1.1-0.8,3.3,0.2,4.9,2.2C120.8,17.8,121.2,20.2,120.1,21z M125.3,15.4
	c-0.8,1.2-3.1,0.9-5.3-0.5c-2.2-1.4-3.3-3.5-2.6-4.7c0.8-1.2,3.1-0.9,5.3,0.5C124.9,12.2,126,14.3,125.3,15.4z M128.4,8.5
	c-0.3,1.3-2.7,1.9-5.2,1.2c-2.5-0.7-4.3-2.3-4-3.6c0.3-1.3,2.7-1.9,5.2-1.2C126.9,5.5,128.7,7.1,128.4,8.5z M134.1,10.4
	c-0.5-0.7,0.3-2.1,1.6-3c1.4-0.9,2.9-1.1,3.4-0.3s-0.3,2.1-1.6,3C136.1,11,134.6,11.1,134.1,10.4z M137.4,14c-0.7-0.5-0.4-2,0.6-3.4
	c1-1.3,2.4-2,3.1-1.4c0.7,0.5,0.4,2-0.6,3.4C139.5,13.9,138.1,14.5,137.4,14z M141.7,16.3c-0.8-0.3-1.1-1.8-0.5-3.4
	c0.5-1.6,1.7-2.6,2.5-2.3c0.8,0.3,1.1,1.8,0.5,3.4C143.6,15.5,142.5,16.6,141.7,16.3z M146.5,17.1c-0.9,0-1.6-1.4-1.6-3
	c0-1.7,0.7-3,1.6-3c0.9,0,1.6,1.4,1.6,3C148.1,15.7,147.4,17.1,146.5,17.1z M151.3,16.3c-0.8,0.3-1.9-0.8-2.5-2.3
	c-0.5-1.6-0.3-3.1,0.5-3.4c0.8-0.3,1.9,0.8,2.5,2.3C152.4,14.5,152.1,16,151.3,16.3z M155.6,14c-0.7,0.5-2.1-0.1-3.1-1.4
	c-1-1.3-1.3-2.8-0.6-3.4c0.7-0.5,2.1,0.1,3.1,1.4C156,11.9,156.3,13.4,155.6,14z M158.9,10.4c-0.5,0.7-2,0.6-3.4-0.3
	c-1.4-0.9-2.1-2.3-1.6-3s2-0.6,3.4,0.3C158.6,8.3,159.4,9.7,158.9,10.4z M163.8,8.5c-0.3-1.3,1.4-2.9,4-3.6c2.5-0.7,4.9-0.1,5.2,1.2
	c0.3,1.3-1.4,2.9-4,3.6C166.4,10.3,164.1,9.8,163.8,8.5z M166.9,15.4c-0.8-1.2,0.4-3.3,2.6-4.7c2.2-1.4,4.6-1.7,5.3-0.5
	c0.8,1.2-0.4,3.3-2.6,4.7C170,16.3,167.6,16.6,166.9,15.4z M172,21c-1.1-0.8-0.7-3.2,0.9-5.3c1.6-2.1,3.8-3.1,4.9-2.2
	c1.1,0.8,0.7,3.2-0.9,5.3C175.3,20.8,173.1,21.8,172,21z M178.7,24.6c-1.3-0.4-1.7-2.8-0.8-5.3c0.8-2.5,2.6-4.1,3.9-3.7
	c1.3,0.4,1.7,2.8,0.8,5.3C181.8,23.4,180,25.1,178.7,24.6z M186.3,25.9c-1.4,0-2.5-2.1-2.5-4.7c0-2.6,1.1-4.7,2.5-4.7
	c1.4,0,2.5,2.1,2.5,4.7C188.7,23.7,187.6,25.9,186.3,25.9z M193.8,24.6c-1.3,0.4-3-1.2-3.9-3.7c-0.8-2.5-0.5-4.8,0.8-5.3
	c1.3-0.4,3,1.2,3.9,3.7C195.4,21.8,195.1,24.2,193.8,24.6z M200.5,21c-1.1,0.8-3.3-0.2-4.9-2.2c-1.6-2.1-2-4.4-0.9-5.3
	c1.1-0.8,3.3,0.2,4.9,2.2C201.1,17.8,201.6,20.2,200.5,21z M205.6,15.4c-0.8,1.2-3.1,0.9-5.3-0.5c-2.2-1.4-3.3-3.5-2.6-4.7
	c0.8-1.2,3.1-0.9,5.3,0.5C205.2,12.2,206.4,14.3,205.6,15.4z M208.7,8.5c-0.3,1.3-2.7,1.9-5.2,1.2c-2.5-0.7-4.3-2.3-4-3.6
	c0.3-1.3,2.7-1.9,5.2-1.2C207.3,5.5,209.1,7.1,208.7,8.5z M214.5,10.4c-0.5-0.7,0.3-2.1,1.6-3c1.4-0.9,2.9-1.1,3.4-0.3
	s-0.3,2.1-1.6,3C216.5,11,215,11.1,214.5,10.4z M217.8,14c-0.7-0.5-0.4-2,0.6-3.4c1-1.3,2.4-2,3.1-1.4c0.7,0.5,0.4,2-0.6,3.4
	C219.9,13.9,218.5,14.5,217.8,14z M222.1,16.3c-0.8-0.3-1.1-1.8-0.5-3.4c0.5-1.6,1.7-2.6,2.5-2.3c0.8,0.3,1.1,1.8,0.5,3.4
	C224,15.5,222.9,16.6,222.1,16.3z M226.9,17.1c-0.9,0-1.6-1.4-1.6-3c0-1.7,0.7-3,1.6-3c0.9,0,1.6,1.4,1.6,3
	C228.5,15.7,227.7,17.1,226.9,17.1z M231.7,16.3c-0.8,0.3-1.9-0.8-2.5-2.3c-0.5-1.6-0.3-3.1,0.5-3.4c0.8-0.3,1.9,0.8,2.5,2.3
	C232.7,14.5,232.5,16,231.7,16.3z M235.9,14c-0.7,0.5-2.1-0.1-3.1-1.4c-1-1.3-1.3-2.8-0.6-3.4c0.7-0.5,2.1,0.1,3.1,1.4
	C236.4,11.9,236.6,13.4,235.9,14z M239.2,10.4c-0.5,0.7-2,0.6-3.4-0.3c-1.4-0.9-2.1-2.3-1.6-3c0.5-0.7,2-0.6,3.4,0.3
	C239,8.3,239.7,9.7,239.2,10.4z M244.1,8.5c-0.3-1.3,1.4-2.9,4-3.6c2.5-0.7,4.9-0.1,5.2,1.2c0.3,1.3-1.4,2.9-4,3.6
	C246.8,10.3,244.5,9.8,244.1,8.5z M247.2,15.4c-0.8-1.2,0.4-3.3,2.6-4.7c2.2-1.4,4.6-1.7,5.3-0.5c0.8,1.2-0.4,3.3-2.6,4.7
	C250.4,16.3,248,16.6,247.2,15.4z M252.4,21c-1.1-0.8-0.7-3.2,0.9-5.3c1.6-2.1,3.8-3.1,4.9-2.2c1.1,0.8,0.7,3.2-0.9,5.3
	C255.7,20.8,253.5,21.8,252.4,21z M259.1,24.6c-1.3-0.4-1.7-2.8-0.8-5.3c0.8-2.5,2.6-4.1,3.9-3.7c1.3,0.4,1.7,2.8,0.8,5.3
	C262.1,23.4,260.4,25.1,259.1,24.6z M266.6,25.9c-1.4,0-2.5-2.1-2.5-4.7c0-2.6,1.1-4.7,2.5-4.7s2.5,2.1,2.5,4.7
	C269.1,23.7,268,25.9,266.6,25.9z M274.1,24.6c-1.3,0.4-3-1.2-3.9-3.7c-0.8-2.5-0.5-4.8,0.8-5.3c1.3-0.4,3,1.2,3.9,3.7
	C275.8,21.8,275.4,24.2,274.1,24.6z M280.8,21c-1.1,0.8-3.3-0.2-4.9-2.2c-1.6-2.1-2-4.4-0.9-5.3c1.1-0.8,3.3,0.2,4.9,2.2
	C281.5,17.8,281.9,20.2,280.8,21z M286,15.4c-0.8,1.2-3.1,0.9-5.3-0.5c-2.2-1.4-3.3-3.5-2.6-4.7c0.8-1.2,3.1-0.9,5.3,0.5
	C285.6,12.2,286.8,14.3,286,15.4z M289.1,8.5c-0.3,1.3-2.7,1.9-5.2,1.2c-2.5-0.7-4.3-2.3-4-3.6c0.3-1.3,2.7-1.9,5.2-1.2
	C287.7,5.5,289.4,7.1,289.1,8.5z M294.8,10.4c-0.5-0.7,0.3-2.1,1.6-3c1.4-0.9,2.9-1.1,3.4-0.3s-0.3,2.1-1.6,3
	C296.8,11,295.3,11.1,294.8,10.4z M298.1,14c-0.7-0.5-0.4-2,0.6-3.4c1-1.3,2.4-2,3.1-1.4c0.7,0.5,0.4,2-0.6,3.4
	C300.2,13.9,298.8,14.5,298.1,14z M302.4,16.3c-0.8-0.3-1.1-1.8-0.5-3.4c0.5-1.6,1.7-2.6,2.5-2.3c0.8,0.3,1.1,1.8,0.5,3.4
	C304.4,15.5,303.3,16.6,302.4,16.3z M307.2,17.1c-0.9,0-1.6-1.4-1.6-3c0-1.7,0.7-3,1.6-3c0.9,0,1.6,1.4,1.6,3
	C308.8,15.7,308.1,17.1,307.2,17.1z M312,16.3c-0.8,0.3-1.9-0.8-2.5-2.3c-0.5-1.6-0.3-3.1,0.5-3.4c0.8-0.3,1.9,0.8,2.5,2.3
	C313.1,14.5,312.8,16,312,16.3z M316.3,14c-0.7,0.5-2.1-0.1-3.1-1.4c-1-1.3-1.3-2.8-0.6-3.4c0.7-0.5,2.1,0.1,3.1,1.4
	C316.7,11.9,317,13.4,316.3,14z M319.6,10.4c-0.5,0.7-2,0.6-3.4-0.3c-1.4-0.9-2.1-2.3-1.6-3c0.5-0.7,2-0.6,3.4,0.3
	C319.3,8.3,320.1,9.7,319.6,10.4z M324.5,8.5c-0.3-1.3,1.4-2.9,4-3.6c2.5-0.7,4.9-0.1,5.2,1.2c0.3,1.3-1.4,2.9-4,3.6
	C327.2,10.3,324.8,9.8,324.5,8.5z M327.6,15.4c-0.8-1.2,0.4-3.3,2.6-4.7c2.2-1.4,4.6-1.7,5.3-0.5c0.8,1.2-0.4,3.3-2.6,4.7
	C330.7,16.3,328.3,16.6,327.6,15.4z M332.8,21c-1.1-0.8-0.7-3.2,0.9-5.3c1.6-2.1,3.8-3.1,4.9-2.2c1.1,0.8,0.7,3.2-0.9,5.3
	C336,20.8,333.8,21.8,332.8,21z M339.5,24.6c-1.3-0.4-1.7-2.8-0.8-5.3c0.8-2.5,2.6-4.1,3.9-3.7c1.3,0.4,1.7,2.8,0.8,5.3
	C342.5,23.4,340.8,25.1,339.5,24.6z M347,25.9c-1.4,0-2.5-2.1-2.5-4.7c0-2.6,1.1-4.7,2.5-4.7c1.4,0,2.5,2.1,2.5,4.7
	C349.5,23.7,348.4,25.9,347,25.9z M354.5,24.6c-1.3,0.4-3-1.2-3.9-3.7c-0.8-2.5-0.5-4.8,0.8-5.3c1.3-0.4,3,1.2,3.9,3.7
	C356.2,21.8,355.8,24.2,354.5,24.6z M361.2,21c-1.1,0.8-3.3-0.2-4.9-2.2c-1.6-2.1-2-4.4-0.9-5.3c1.1-0.8,3.3,0.2,4.9,2.2
	C361.9,17.8,362.3,20.2,361.2,21z M366.4,15.4c-0.8,1.2-3.1,0.9-5.3-0.5c-2.2-1.4-3.3-3.5-2.6-4.7c0.8-1.2,3.1-0.9,5.3,0.5
	C366,12.2,367.1,14.3,366.4,15.4z M369.5,8.5c-0.3,1.3-2.7,1.9-5.2,1.2c-2.5-0.7-4.3-2.3-4-3.6c0.3-1.3,2.7-1.9,5.2-1.2
	C368,5.5,369.8,7.1,369.5,8.5z M375.2,10.4c-0.5-0.7,0.3-2.1,1.6-3c1.4-0.9,2.9-1.1,3.4-0.3s-0.3,2.1-1.6,3
	C377.2,11,375.7,11.1,375.2,10.4z M378.5,14c-0.7-0.5-0.4-2,0.6-3.4c1-1.3,2.4-2,3.1-1.4c0.7,0.5,0.4,2-0.6,3.4
	C380.6,13.9,379.2,14.5,378.5,14z M382.8,16.3c-0.8-0.3-1.1-1.8-0.5-3.4c0.5-1.6,1.7-2.6,2.5-2.3c0.8,0.3,1.1,1.8,0.5,3.4
	C384.7,15.5,383.6,16.6,382.8,16.3z M387.6,17.1c-0.9,0-1.6-1.4-1.6-3c0-1.7,0.7-3,1.6-3s1.6,1.4,1.6,3
	C389.2,15.7,388.5,17.1,387.6,17.1z M392.4,16.3c-0.8,0.3-1.9-0.8-2.5-2.3c-0.5-1.6-0.3-3.1,0.5-3.4c0.8-0.3,1.9,0.8,2.5,2.3
	C393.4,14.5,393.2,16,392.4,16.3z M396.7,14c-0.7,0.5-2.1-0.1-3.1-1.4c-1-1.3-1.3-2.8-0.6-3.4c0.7-0.5,2.1,0.1,3.1,1.4
	C397.1,11.9,397.4,13.4,396.7,14z M400,10.4c-0.5,0.7-2,0.6-3.4-0.3c-1.4-0.9-2.1-2.3-1.6-3s2-0.6,3.4,0.3
	C399.7,8.3,400.4,9.7,400,10.4z M404.8,8.5c-0.3-1.3,1.4-2.9,4-3.6c2.5-0.7,4.9-0.1,5.2,1.2c0.3,1.3-1.4,2.9-4,3.6
	C407.5,10.3,405.2,9.8,404.8,8.5z M407.9,15.4c-0.8-1.2,0.4-3.3,2.6-4.7s4.6-1.7,5.3-0.5c0.8,1.2-0.4,3.3-2.6,4.7
	C411.1,16.3,408.7,16.6,407.9,15.4z M413.1,21c-1.1-0.8-0.7-3.2,0.9-5.3c1.6-2.1,3.8-3.1,4.9-2.2c1.1,0.8,0.7,3.2-0.9,5.3
	C416.4,20.8,414.2,21.8,413.1,21z M419.8,24.6c-1.3-0.4-1.7-2.8-0.8-5.3c0.8-2.5,2.6-4.1,3.9-3.7c1.3,0.4,1.7,2.8,0.8,5.3
	C422.9,23.4,421.1,25.1,419.8,24.6z M427.3,25.9c-1.4,0-2.5-2.1-2.5-4.7c0-2.6,1.1-4.7,2.5-4.7s2.5,2.1,2.5,4.7
	C429.8,23.7,428.7,25.9,427.3,25.9z M434.8,24.6c-1.3,0.4-3-1.2-3.9-3.7c-0.8-2.5-0.5-4.8,0.8-5.3c1.3-0.4,3,1.2,3.9,3.7
	C436.5,21.8,436.2,24.2,434.8,24.6z M441.6,21c-1.1,0.8-3.3-0.2-4.9-2.2c-1.6-2.1-2-4.4-0.9-5.3c1.1-0.8,3.3,0.2,4.9,2.2
	C442.2,17.8,442.6,20.2,441.6,21z M446.7,15.4c-0.8,1.2-3.1,0.9-5.3-0.5c-2.2-1.4-3.3-3.5-2.6-4.7c0.8-1.2,3.1-0.9,5.3,0.5
	S447.5,14.3,446.7,15.4z M449.8,8.5c-0.3,1.3-2.7,1.9-5.2,1.2c-2.5-0.7-4.3-2.3-4-3.6c0.3-1.3,2.7-1.9,5.2-1.2
	C448.4,5.5,450.2,7.1,449.8,8.5z M455.6,10.4c-0.5-0.7,0.3-2.1,1.6-3c1.4-0.9,2.9-1.1,3.4-0.3c0.5,0.7-0.3,2.1-1.6,3
	C457.6,11,456,11.1,455.6,10.4z M458.9,14c-0.7-0.5-0.4-2,0.6-3.4c1-1.3,2.4-2,3.1-1.4c0.7,0.5,0.4,2-0.6,3.4
	C461,13.9,459.6,14.5,458.9,14z M463.1,16.3c-0.8-0.3-1.1-1.8-0.5-3.4c0.5-1.6,1.7-2.6,2.5-2.3c0.8,0.3,1.1,1.8,0.5,3.4
	C465.1,15.5,464,16.6,463.1,16.3z M467.9,17.1c-0.9,0-1.6-1.4-1.6-3c0-1.7,0.7-3,1.6-3c0.9,0,1.6,1.4,1.6,3
	C469.5,15.7,468.8,17.1,467.9,17.1z M472.7,16.3c-0.8,0.3-1.9-0.8-2.5-2.3c-0.5-1.6-0.3-3.1,0.5-3.4c0.8-0.3,1.9,0.8,2.5,2.3
	C473.8,14.5,473.6,16,472.7,16.3z M477,14c-0.7,0.5-2.1-0.1-3.1-1.4c-1-1.3-1.3-2.8-0.6-3.4c0.7-0.5,2.1,0.1,3.1,1.4
	C477.4,11.9,477.7,13.4,477,14z M480.3,10.4c-0.5,0.7-2,0.6-3.4-0.3c-1.4-0.9-2.1-2.3-1.6-3c0.5-0.7,2-0.6,3.4,0.3
	C480.1,8.3,480.8,9.7,480.3,10.4z M485.2,8.5c-0.3-1.3,1.4-2.9,4-3.6c2.5-0.7,4.9-0.1,5.2,1.2c0.3,1.3-1.4,2.9-4,3.6
	C487.9,10.3,485.6,9.8,485.2,8.5z M488.3,15.4c-0.8-1.2,0.4-3.3,2.6-4.7c2.2-1.4,4.6-1.7,5.3-0.5c0.8,1.2-0.4,3.3-2.6,4.7
	C491.5,16.3,489.1,16.6,488.3,15.4z M493.5,21c-1.1-0.8-0.7-3.2,0.9-5.3c1.6-2.1,3.8-3.1,4.9-2.2c1.1,0.8,0.7,3.2-0.9,5.3
	C496.8,20.8,494.6,21.8,493.5,21z M500.2,24.6c-1.3-0.4-1.7-2.8-0.8-5.3c0.8-2.5,2.6-4.1,3.9-3.7c1.3,0.4,1.7,2.8,0.8,5.3
	C503.2,23.4,501.5,25.1,500.2,24.6z M507.7,25.9c-1.4,0-2.5-2.1-2.5-4.7c0-2.6,1.1-4.7,2.5-4.7c1.4,0,2.5,2.1,2.5,4.7
	C510.2,23.7,509.1,25.9,507.7,25.9z M515.2,24.6c-1.3,0.4-3-1.2-3.9-3.7c-0.8-2.5-0.5-4.8,0.8-5.3c1.3-0.4,3,1.2,3.9,3.7
	C516.9,21.8,516.5,24.2,515.2,24.6z M521.9,21c-1.1,0.8-3.3-0.2-4.9-2.2c-1.6-2.1-2-4.4-0.9-5.3c1.1-0.8,3.3,0.2,4.9,2.2
	C522.6,17.8,523,20.2,521.9,21z M527.1,15.4c-0.8,1.2-3.1,0.9-5.3-0.5c-2.2-1.4-3.3-3.5-2.6-4.7c0.8-1.2,3.1-0.9,5.3,0.5
	C526.7,12.2,527.8,14.3,527.1,15.4z M530.2,8.5c-0.3,1.3-2.7,1.9-5.2,1.2c-2.5-0.7-4.3-2.3-4-3.6c0.3-1.3,2.7-1.9,5.2-1.2
	C528.8,5.5,530.5,7.1,530.2,8.5z M535.9,10.4c-0.5-0.7,0.3-2.1,1.6-3c1.4-0.9,2.9-1.1,3.4-0.3c0.5,0.7-0.3,2.1-1.6,3
	C537.9,11,536.4,11.1,535.9,10.4z M539.2,14c-0.7-0.5-0.4-2,0.6-3.4c1-1.3,2.4-2,3.1-1.4c0.7,0.5,0.4,2-0.6,3.4
	C541.3,13.9,539.9,14.5,539.2,14z M543.5,16.3c-0.8-0.3-1.1-1.8-0.5-3.4c0.5-1.6,1.7-2.6,2.5-2.3c0.8,0.3,1.1,1.8,0.5,3.4
	C545.5,15.5,544.3,16.6,543.5,16.3z M548.3,17.1c-0.9,0-1.6-1.4-1.6-3c0-1.7,0.7-3,1.6-3c0.9,0,1.6,1.4,1.6,3
	C549.9,15.7,549.2,17.1,548.3,17.1z M553.1,16.3c-0.8,0.3-1.9-0.8-2.5-2.3c-0.5-1.6-0.3-3.1,0.5-3.4c0.8-0.3,1.9,0.8,2.5,2.3
	C554.2,14.5,553.9,16,553.1,16.3z M557.4,14c-0.7,0.5-2.1-0.1-3.1-1.4c-1-1.3-1.3-2.8-0.6-3.4c0.7-0.5,2.1,0.1,3.1,1.4
	C557.8,11.9,558.1,13.4,557.4,14z M560.7,10.4c-0.5,0.7-2,0.6-3.4-0.3c-1.4-0.9-2.1-2.3-1.6-3c0.5-0.7,2-0.6,3.4,0.3
	C560.4,8.3,561.2,9.7,560.7,10.4z M565.6,8.5c-0.3-1.3,1.4-2.9,4-3.6c2.5-0.7,4.9-0.1,5.2,1.2c0.3,1.3-1.4,2.9-4,3.6
	C568.3,10.3,565.9,9.8,565.6,8.5z M568.7,15.4c-0.8-1.2,0.4-3.3,2.6-4.7s4.6-1.7,5.3-0.5c0.8,1.2-0.4,3.3-2.6,4.7
	C571.8,16.3,569.4,16.6,568.7,15.4z M573.8,21c-1.1-0.8-0.7-3.2,0.9-5.3c1.6-2.1,3.8-3.1,4.9-2.2c1.1,0.8,0.7,3.2-0.9,5.3
	C577.1,20.8,574.9,21.8,573.8,21z M580.5,24.6c-1.3-0.4-1.7-2.8-0.8-5.3c0.8-2.5,2.6-4.1,3.9-3.7c1.3,0.4,1.7,2.8,0.8,5.3
	C583.6,23.4,581.9,25.1,580.5,24.6z M588.1,25.9c-1.4,0-2.5-2.1-2.5-4.7c0-2.6,1.1-4.7,2.5-4.7c1.4,0,2.5,2.1,2.5,4.7
	C590.6,23.7,589.4,25.9,588.1,25.9z M595.6,24.6c-1.3,0.4-3-1.2-3.9-3.7c-0.8-2.5-0.5-4.8,0.8-5.3c1.3-0.4,3,1.2,3.9,3.7
	C597.2,21.8,596.9,24.2,595.6,24.6z M602.3,21c-1.1,0.8-3.3-0.2-4.9-2.2c-1.6-2.1-2-4.4-0.9-5.3c1.1-0.8,3.3,0.2,4.9,2.2
	C602.9,17.8,603.4,20.2,602.3,21z M607.5,15.4c-0.8,1.2-3.1,0.9-5.3-0.5c-2.2-1.4-3.3-3.5-2.6-4.7c0.8-1.2,3.1-0.9,5.3,0.5
	S608.2,14.3,607.5,15.4z M610.5,8.5c-0.3,1.3-2.7,1.9-5.2,1.2c-2.5-0.7-4.3-2.3-4-3.6c0.3-1.3,2.7-1.9,5.2-1.2
	C609.1,5.5,610.9,7.1,610.5,8.5z M616.3,10.4c-0.5-0.7,0.3-2.1,1.6-3c1.4-0.9,2.9-1.1,3.4-0.3c0.5,0.7-0.3,2.1-1.6,3
	C618.3,11,616.8,11.1,616.3,10.4z M619.6,14c-0.7-0.5-0.4-2,0.6-3.4c1-1.3,2.4-2,3.1-1.4c0.7,0.5,0.4,2-0.6,3.4
	C621.7,13.9,620.3,14.5,619.6,14z M623.9,16.3c-0.8-0.3-1.1-1.8-0.5-3.4c0.5-1.6,1.7-2.6,2.5-2.3c0.8,0.3,1.1,1.8,0.5,3.4
	C625.8,15.5,624.7,16.6,623.9,16.3z M628.7,17.1c-0.9,0-1.6-1.4-1.6-3c0-1.7,0.7-3,1.6-3c0.9,0,1.6,1.4,1.6,3
	C630.3,15.7,629.5,17.1,628.7,17.1z M633.5,16.3c-0.8,0.3-1.9-0.8-2.5-2.3c-0.5-1.6-0.3-3.1,0.5-3.4c0.8-0.3,1.9,0.8,2.5,2.3
	C634.5,14.5,634.3,16,633.5,16.3z M637.7,14c-0.7,0.5-2.1-0.1-3.1-1.4c-1-1.3-1.3-2.8-0.6-3.4c0.7-0.5,2.1,0.1,3.1,1.4
	C638.2,11.9,638.4,13.4,637.7,14z M641,10.4c-0.5,0.7-2,0.6-3.4-0.3c-1.4-0.9-2.1-2.3-1.6-3c0.5-0.7,2-0.6,3.4,0.3
	C640.8,8.3,641.5,9.7,641,10.4z M645.9,8.5c-0.3-1.3,1.4-2.9,4-3.6c2.5-0.7,4.9-0.1,5.2,1.2c0.3,1.3-1.4,2.9-4,3.6
	C648.6,10.3,646.3,9.8,645.9,8.5z M649,15.4c-0.8-1.2,0.4-3.3,2.6-4.7c2.2-1.4,4.6-1.7,5.3-0.5c0.8,1.2-0.4,3.3-2.6,4.7
	C652.2,16.3,649.8,16.6,649,15.4z M654.2,21c-1.1-0.8-0.7-3.2,0.9-5.3c1.6-2.1,3.8-3.1,4.9-2.2c1.1,0.8,0.7,3.2-0.9,5.3
	C657.5,20.8,655.3,21.8,654.2,21z M660.9,24.6c-1.3-0.4-1.7-2.8-0.8-5.3c0.8-2.5,2.6-4.1,3.9-3.7c1.3,0.4,1.7,2.8,0.8,5.3
	C664,23.4,662.2,25.1,660.9,24.6z M668.4,25.9c-1.4,0-2.5-2.1-2.5-4.7c0-2.6,1.1-4.7,2.5-4.7c1.4,0,2.5,2.1,2.5,4.7
	C670.9,23.7,669.8,25.9,668.4,25.9z M675.9,24.6c-1.3,0.4-3-1.2-3.9-3.7c-0.8-2.5-0.5-4.8,0.8-5.3c1.3-0.4,3,1.2,3.9,3.7
	C677.6,21.8,677.2,24.2,675.9,24.6z M682.6,21c-1.1,0.8-3.3-0.2-4.9-2.2c-1.6-2.1-2-4.4-0.9-5.3c1.1-0.8,3.3,0.2,4.9,2.2
	C683.3,17.8,683.7,20.2,682.6,21z M687.8,15.4c-0.8,1.2-3.1,0.9-5.3-0.5c-2.2-1.4-3.3-3.5-2.6-4.7c0.8-1.2,3.1-0.9,5.3,0.5
	C687.4,12.2,688.6,14.3,687.8,15.4z M690.9,8.5c-0.3,1.3-2.7,1.9-5.2,1.2c-2.5-0.7-4.3-2.3-4-3.6c0.3-1.3,2.7-1.9,5.2-1.2
	C689.5,5.5,691.3,7.1,690.9,8.5z M696.6,10.4c-0.5-0.7,0.3-2.1,1.6-3c1.4-0.9,2.9-1.1,3.4-0.3c0.5,0.7-0.3,2.1-1.6,3
	C698.7,11,697.1,11.1,696.6,10.4z M700,14c-0.7-0.5-0.4-2,0.6-3.4c1-1.3,2.4-2,3.1-1.4c0.7,0.5,0.4,2-0.6,3.4
	C702,13.9,700.7,14.5,700,14z M704.2,16.3c-0.8-0.3-1.1-1.8-0.5-3.4c0.5-1.6,1.7-2.6,2.5-2.3c0.8,0.3,1.1,1.8,0.5,3.4
	C706.2,15.5,705.1,16.6,704.2,16.3z M709,17.1c-0.9,0-1.6-1.4-1.6-3c0-1.7,0.7-3,1.6-3c0.9,0,1.6,1.4,1.6,3
	C710.6,15.7,709.9,17.1,709,17.1z M713.8,16.3c-0.8,0.3-1.9-0.8-2.5-2.3c-0.5-1.6-0.3-3.1,0.5-3.4c0.8-0.3,1.9,0.8,2.5,2.3
	C714.9,14.5,714.7,16,713.8,16.3z M718.1,14c-0.7,0.5-2.1-0.1-3.1-1.4c-1-1.3-1.3-2.8-0.6-3.4c0.7-0.5,2.1,0.1,3.1,1.4
	C718.5,11.9,718.8,13.4,718.1,14z M721.4,10.4c-0.5,0.7-2,0.6-3.4-0.3c-1.4-0.9-2.1-2.3-1.6-3c0.5-0.7,2-0.6,3.4,0.3
	C721.2,8.3,721.9,9.7,721.4,10.4z M806.7,8.5c-0.3-1.3,1.4-2.9,4-3.6c2.5-0.7,4.9-0.1,5.2,1.2c0.3,1.3-1.4,2.9-4,3.6
	C809.4,10.3,807,9.8,806.7,8.5z M809.8,15.4c-0.8-1.2,0.4-3.3,2.6-4.7c2.2-1.4,4.6-1.7,5.3-0.5c0.8,1.2-0.4,3.3-2.6,4.7
	C812.9,16.3,810.5,16.6,809.8,15.4z M814.9,21c-1.1-0.8-0.7-3.2,0.9-5.3c1.6-2.1,3.8-3.1,4.9-2.2c1.1,0.8,0.7,3.2-0.9,5.3
	C818.2,20.8,816,21.8,814.9,21z M821.6,24.6c-1.3-0.4-1.7-2.8-0.8-5.3c0.8-2.5,2.6-4.1,3.9-3.7c1.3,0.4,1.7,2.8,0.8,5.3
	C824.7,23.4,823,25.1,821.6,24.6z M829.2,25.9c-1.4,0-2.5-2.1-2.5-4.7c0-2.6,1.1-4.7,2.5-4.7s2.5,2.1,2.5,4.7
	C831.7,23.7,830.5,25.9,829.2,25.9z M836.7,24.6c-1.3,0.4-3-1.2-3.9-3.7c-0.8-2.5-0.5-4.8,0.8-5.3c1.3-0.4,3,1.2,3.9,3.7
	C838.3,21.8,838,24.2,836.7,24.6z M843.4,21c-1.1,0.8-3.3-0.2-4.9-2.2c-1.6-2.1-2-4.4-0.9-5.3c1.1-0.8,3.3,0.2,4.9,2.2
	C844,17.8,844.5,20.2,843.4,21z M848.6,15.4c-0.8,1.2-3.1,0.9-5.3-0.5c-2.2-1.4-3.3-3.5-2.6-4.7c0.8-1.2,3.1-0.9,5.3,0.5
	C848.2,12.2,849.3,14.3,848.6,15.4z M851.6,8.5c-0.3,1.3-2.7,1.9-5.2,1.2c-2.5-0.7-4.3-2.3-4-3.6c0.3-1.3,2.7-1.9,5.2-1.2
	C850.2,5.5,852,7.1,851.6,8.5z M857.4,10.4c-0.5-0.7,0.3-2.1,1.6-3c1.4-0.9,2.9-1.1,3.4-0.3c0.5,0.7-0.3,2.1-1.6,3
	C859.4,11,857.9,11.1,857.4,10.4z M860.7,14c-0.7-0.5-0.4-2,0.6-3.4c1-1.3,2.4-2,3.1-1.4c0.7,0.5,0.4,2-0.6,3.4
	C862.8,13.9,861.4,14.5,860.7,14z M865,16.3c-0.8-0.3-1.1-1.8-0.5-3.4c0.5-1.6,1.7-2.6,2.5-2.3c0.8,0.3,1.1,1.8,0.5,3.4
	C866.9,15.5,865.8,16.6,865,16.3z M869.8,17.1c-0.9,0-1.6-1.4-1.6-3c0-1.7,0.7-3,1.6-3c0.9,0,1.6,1.4,1.6,3
	C871.4,15.7,870.6,17.1,869.8,17.1z M874.6,16.3c-0.8,0.3-1.9-0.8-2.5-2.3c-0.5-1.6-0.3-3.1,0.5-3.4c0.8-0.3,1.9,0.8,2.5,2.3
	C875.6,14.5,875.4,16,874.6,16.3z M878.8,14c-0.7,0.5-2.1-0.1-3.1-1.4c-1-1.3-1.3-2.8-0.6-3.4c0.7-0.5,2.1,0.1,3.1,1.4
	C879.3,11.9,879.5,13.4,878.8,14z M882.1,10.4c-0.5,0.7-2,0.6-3.4-0.3c-1.4-0.9-2.1-2.3-1.6-3s2-0.6,3.4,0.3
	C881.9,8.3,882.6,9.7,882.1,10.4z M887,8.5c-0.3-1.3,1.4-2.9,4-3.6c2.5-0.7,4.9-0.1,5.2,1.2c0.3,1.3-1.4,2.9-4,3.6
	C889.7,10.3,887.4,9.8,887,8.5z M890.1,15.4c-0.8-1.2,0.4-3.3,2.6-4.7c2.2-1.4,4.6-1.7,5.3-0.5c0.8,1.2-0.4,3.3-2.6,4.7
	C893.3,16.3,890.9,16.6,890.1,15.4z M895.3,21c-1.1-0.8-0.7-3.2,0.9-5.3c1.6-2.1,3.8-3.1,4.9-2.2c1.1,0.8,0.7,3.2-0.9,5.3
	C898.6,20.8,896.4,21.8,895.3,21z M902,24.6c-1.3-0.4-1.7-2.8-0.8-5.3c0.8-2.5,2.6-4.1,3.9-3.7c1.3,0.4,1.7,2.8,0.8,5.3
	C905.1,23.4,903.3,25.1,902,24.6z M909.5,25.9c-1.4,0-2.5-2.1-2.5-4.7c0-2.6,1.1-4.7,2.5-4.7c1.4,0,2.5,2.1,2.5,4.7
	C912,23.7,910.9,25.9,909.5,25.9z M917,24.6c-1.3,0.4-3-1.2-3.9-3.7c-0.8-2.5-0.5-4.8,0.8-5.3c1.3-0.4,3,1.2,3.9,3.7
	C918.7,21.8,918.3,24.2,917,24.6z M923.7,21c-1.1,0.8-3.3-0.2-4.9-2.2c-1.6-2.1-2-4.4-0.9-5.3c1.1-0.8,3.3,0.2,4.9,2.2
	C924.4,17.8,924.8,20.2,923.7,21z M928.9,15.4c-0.8,1.2-3.1,0.9-5.3-0.5c-2.2-1.4-3.3-3.5-2.6-4.7c0.8-1.2,3.1-0.9,5.3,0.5
	C928.5,12.2,929.7,14.3,928.9,15.4z M932,8.5c-0.3,1.3-2.7,1.9-5.2,1.2c-2.5-0.7-4.3-2.3-4-3.6c0.3-1.3,2.7-1.9,5.2-1.2
	C930.6,5.5,932.4,7.1,932,8.5z M937.7,10.4c-0.5-0.7,0.3-2.1,1.6-3c1.4-0.9,2.9-1.1,3.4-0.3c0.5,0.7-0.3,2.1-1.6,3
	C939.8,11,938.2,11.1,937.7,10.4z M941.1,14c-0.7-0.5-0.4-2,0.6-3.4c1-1.3,2.4-2,3.1-1.4c0.7,0.5,0.4,2-0.6,3.4
	C943.1,13.9,941.7,14.5,941.1,14z M945.3,16.3c-0.8-0.3-1.1-1.8-0.5-3.4c0.5-1.6,1.7-2.6,2.5-2.3c0.8,0.3,1.1,1.8,0.5,3.4
	C947.3,15.5,946.2,16.6,945.3,16.3z M950.1,17.1c-0.9,0-1.6-1.4-1.6-3c0-1.7,0.7-3,1.6-3c0.9,0,1.6,1.4,1.6,3
	C951.7,15.7,951,17.1,950.1,17.1z M954.9,16.3c-0.8,0.3-1.9-0.8-2.5-2.3c-0.5-1.6-0.3-3.1,0.5-3.4c0.8-0.3,1.9,0.8,2.5,2.3
	C956,14.5,955.8,16,954.9,16.3z M959.2,14c-0.7,0.5-2.1-0.1-3.1-1.4c-1-1.3-1.3-2.8-0.6-3.4c0.7-0.5,2.1,0.1,3.1,1.4
	C959.6,11.9,959.9,13.4,959.2,14z M962.5,10.4c-0.5,0.7-2,0.6-3.4-0.3c-1.4-0.9-2.1-2.3-1.6-3c0.5-0.7,2-0.6,3.4,0.3
	C962.3,8.3,963,9.7,962.5,10.4z M967.4,8.5c-0.3-1.3,1.4-2.9,4-3.6c2.5-0.7,4.9-0.1,5.2,1.2c0.3,1.3-1.4,2.9-4,3.6
	C970.1,10.3,967.7,9.8,967.4,8.5z M970.5,15.4c-0.8-1.2,0.4-3.3,2.6-4.7c2.2-1.4,4.6-1.7,5.3-0.5c0.8,1.2-0.4,3.3-2.6,4.7
	C973.6,16.3,971.2,16.6,970.5,15.4z M975.7,21c-1.1-0.8-0.7-3.2,0.9-5.3c1.6-2.1,3.8-3.1,4.9-2.2c1.1,0.8,0.7,3.2-0.9,5.3
	C978.9,20.8,976.8,21.8,975.7,21z M982.4,24.6c-1.3-0.4-1.7-2.8-0.8-5.3c0.8-2.5,2.6-4.1,3.9-3.7c1.3,0.4,1.7,2.8,0.8,5.3
	C985.4,23.4,983.7,25.1,982.4,24.6z M989.9,25.9c-1.4,0-2.5-2.1-2.5-4.7c0-2.6,1.1-4.7,2.5-4.7c1.4,0,2.5,2.1,2.5,4.7
	C992.4,23.7,991.3,25.9,989.9,25.9z M997.4,24.6c-1.3,0.4-3-1.2-3.9-3.7c-0.8-2.5-0.5-4.8,0.8-5.3c1.3-0.4,3,1.2,3.9,3.7
	C999.1,21.8,998.7,24.2,997.4,24.6z M1004.1,21c-1.1,0.8-3.3-0.2-4.9-2.2c-1.6-2.1-2-4.4-0.9-5.3c1.1-0.8,3.3,0.2,4.9,2.2
	C1004.8,17.8,1005.2,20.2,1004.1,21z M1009.3,15.4c-0.8,1.2-3.1,0.9-5.3-0.5c-2.2-1.4-3.3-3.5-2.6-4.7c0.8-1.2,3.1-0.9,5.3,0.5
	C1008.9,12.2,1010,14.3,1009.3,15.4z M1012.4,8.5c-0.3,1.3-2.7,1.9-5.2,1.2c-2.5-0.7-4.3-2.3-4-3.6c0.3-1.3,2.7-1.9,5.2-1.2
	C1010.9,5.5,1012.7,7.1,1012.4,8.5z M1018.1,10.4c-0.5-0.7,0.3-2.1,1.6-3c1.4-0.9,2.9-1.1,3.4-0.3c0.5,0.7-0.3,2.1-1.6,3
	C1020.1,11,1018.6,11.1,1018.1,10.4z M1021.4,14c-0.7-0.5-0.4-2,0.6-3.4c1-1.3,2.4-2,3.1-1.4c0.7,0.5,0.4,2-0.6,3.4
	C1023.5,13.9,1022.1,14.5,1021.4,14z M1025.7,16.3c-0.8-0.3-1.1-1.8-0.5-3.4c0.5-1.6,1.7-2.6,2.5-2.3c0.8,0.3,1.1,1.8,0.5,3.4
	C1027.6,15.5,1026.5,16.6,1025.7,16.3z M1030.5,17.1c-0.9,0-1.6-1.4-1.6-3c0-1.7,0.7-3,1.6-3c0.9,0,1.6,1.4,1.6,3
	C1032.1,15.7,1031.4,17.1,1030.5,17.1z M1035.3,16.3c-0.8,0.3-1.9-0.8-2.5-2.3c-0.5-1.6-0.3-3.1,0.5-3.4c0.8-0.3,1.9,0.8,2.5,2.3
	C1036.4,14.5,1036.1,16,1035.3,16.3z M1039.6,14c-0.7,0.5-2.1-0.1-3.1-1.4c-1-1.3-1.3-2.8-0.6-3.4c0.7-0.5,2.1,0.1,3.1,1.4
	C1040,11.9,1040.3,13.4,1039.6,14z M1042.9,10.4c-0.5,0.7-2,0.6-3.4-0.3c-1.4-0.9-2.1-2.3-1.6-3c0.5-0.7,2-0.6,3.4,0.3
	C1042.6,8.3,1043.4,9.7,1042.9,10.4z M1047.8,8.5c-0.3-1.3,1.4-2.9,4-3.6c2.5-0.7,4.9-0.1,5.2,1.2c0.3,1.3-1.4,2.9-4,3.6
	C1050.4,10.3,1048.1,9.8,1047.8,8.5z M1050.8,15.4c-0.8-1.2,0.4-3.3,2.6-4.7c2.2-1.4,4.6-1.7,5.3-0.5c0.8,1.2-0.4,3.3-2.6,4.7
	C1054,16.3,1051.6,16.6,1050.8,15.4z M1056,21c-1.1-0.8-0.7-3.2,0.9-5.3c1.6-2.1,3.8-3.1,4.9-2.2c1.1,0.8,0.7,3.2-0.9,5.3
	C1059.3,20.8,1057.1,21.8,1056,21z M1062.7,24.6c-1.3-0.4-1.7-2.8-0.8-5.3c0.8-2.5,2.6-4.1,3.9-3.7c1.3,0.4,1.7,2.8,0.8,5.3
	C1065.8,23.4,1064,25.1,1062.7,24.6z M1070.2,25.9c-1.4,0-2.5-2.1-2.5-4.7c0-2.6,1.1-4.7,2.5-4.7c1.4,0,2.5,2.1,2.5,4.7
	C1072.7,23.7,1071.6,25.9,1070.2,25.9z M1077.8,24.6c-1.3,0.4-3-1.2-3.9-3.7c-0.8-2.5-0.5-4.8,0.8-5.3c1.3-0.4,3,1.2,3.9,3.7
	C1079.4,21.8,1079.1,24.2,1077.8,24.6z M1084.5,21c-1.1,0.8-3.3-0.2-4.9-2.2c-1.6-2.1-2-4.4-0.9-5.3c1.1-0.8,3.3,0.2,4.9,2.2
	C1085.1,17.8,1085.5,20.2,1084.5,21z M1089.6,15.4c-0.8,1.2-3.1,0.9-5.3-0.5c-2.2-1.4-3.3-3.5-2.6-4.7c0.8-1.2,3.1-0.9,5.3,0.5
	C1089.2,12.2,1090.4,14.3,1089.6,15.4z M1092.7,8.5c-0.3,1.3-2.7,1.9-5.2,1.2c-2.5-0.7-4.3-2.3-4-3.6c0.3-1.3,2.7-1.9,5.2-1.2
	C1091.3,5.5,1093.1,7.1,1092.7,8.5z M1098.5,10.4c-0.5-0.7,0.3-2.1,1.6-3c1.4-0.9,2.9-1.1,3.4-0.3s-0.3,2.1-1.6,3
	C1100.5,11,1099,11.1,1098.5,10.4z M1101.8,14c-0.7-0.5-0.4-2,0.6-3.4c1-1.3,2.4-2,3.1-1.4c0.7,0.5,0.4,2-0.6,3.4
	C1103.9,13.9,1102.5,14.5,1101.8,14z M1106.1,16.3c-0.8-0.3-1.1-1.8-0.5-3.4c0.5-1.6,1.7-2.6,2.5-2.3c0.8,0.3,1.1,1.8,0.5,3.4
	C1108,15.5,1106.9,16.6,1106.1,16.3z M1110.9,17.1c-0.9,0-1.6-1.4-1.6-3c0-1.7,0.7-3,1.6-3s1.6,1.4,1.6,3
	C1112.4,15.7,1111.7,17.1,1110.9,17.1z M1115.6,16.3c-0.8,0.3-1.9-0.8-2.5-2.3c-0.5-1.6-0.3-3.1,0.5-3.4c0.8-0.3,1.9,0.8,2.5,2.3
	C1116.7,14.5,1116.5,16,1115.6,16.3z M1119.9,14c-0.7,0.5-2.1-0.1-3.1-1.4c-1-1.3-1.3-2.8-0.6-3.4c0.7-0.5,2.1,0.1,3.1,1.4
	C1120.4,11.9,1120.6,13.4,1119.9,14z M1123.2,10.4c-0.5,0.7-2,0.6-3.4-0.3c-1.4-0.9-2.1-2.3-1.6-3c0.5-0.7,2-0.6,3.4,0.3
	C1123,8.3,1123.7,9.7,1123.2,10.4z M1128.1,8.5c-0.3-1.3,1.4-2.9,4-3.6c2.5-0.7,4.9-0.1,5.2,1.2c0.3,1.3-1.4,2.9-4,3.6
	C1130.8,10.3,1128.5,9.8,1128.1,8.5z M1131.2,15.4c-0.8-1.2,0.4-3.3,2.6-4.7c2.2-1.4,4.6-1.7,5.3-0.5c0.8,1.2-0.4,3.3-2.6,4.7
	C1134.4,16.3,1132,16.6,1131.2,15.4z M1136.4,21c-1.1-0.8-0.7-3.2,0.9-5.3c1.6-2.1,3.8-3.1,4.9-2.2c1.1,0.8,0.7,3.2-0.9,5.3
	C1139.7,20.8,1137.5,21.8,1136.4,21z M1143.1,24.6c-1.3-0.4-1.7-2.8-0.8-5.3c0.8-2.5,2.6-4.1,3.9-3.7c1.3,0.4,1.7,2.8,0.8,5.3
	C1146.1,23.4,1144.4,25.1,1143.1,24.6z M1150.6,25.9c-1.4,0-2.5-2.1-2.5-4.7c0-2.6,1.1-4.7,2.5-4.7s2.5,2.1,2.5,4.7
	C1153.1,23.7,1152,25.9,1150.6,25.9z M1158.1,24.6c-1.3,0.4-3-1.2-3.9-3.7c-0.8-2.5-0.5-4.8,0.8-5.3c1.3-0.4,3,1.2,3.9,3.7
	C1159.8,21.8,1159.4,24.2,1158.1,24.6z M1164.8,21c-1.1,0.8-3.3-0.2-4.9-2.2c-1.6-2.1-2-4.4-0.9-5.3c1.1-0.8,3.3,0.2,4.9,2.2
	C1165.5,17.8,1165.9,20.2,1164.8,21z M1170,15.4c-0.8,1.2-3.1,0.9-5.3-0.5c-2.2-1.4-3.3-3.5-2.6-4.7c0.8-1.2,3.1-0.9,5.3,0.5
	C1169.6,12.2,1170.8,14.3,1170,15.4z M1173.1,8.5c-0.3,1.3-2.7,1.9-5.2,1.2c-2.5-0.7-4.3-2.3-4-3.6c0.3-1.3,2.7-1.9,5.2-1.2
	C1171.7,5.5,1173.4,7.1,1173.1,8.5z M1178.8,10.4c-0.5-0.7,0.3-2.1,1.6-3c1.4-0.9,2.9-1.1,3.4-0.3c0.5,0.7-0.3,2.1-1.6,3
	C1180.8,11,1179.3,11.1,1178.8,10.4z M1182.1,14c-0.7-0.5-0.4-2,0.6-3.4c1-1.3,2.4-2,3.1-1.4c0.7,0.5,0.4,2-0.6,3.4
	C1184.2,13.9,1182.8,14.5,1182.1,14z M1186.4,16.3c-0.8-0.3-1.1-1.8-0.5-3.4c0.5-1.6,1.7-2.6,2.5-2.3c0.8,0.3,1.1,1.8,0.5,3.4
	C1188.4,15.5,1187.3,16.6,1186.4,16.3z M1191.2,17.1c-0.9,0-1.6-1.4-1.6-3c0-1.7,0.7-3,1.6-3c0.9,0,1.6,1.4,1.6,3
	C1192.8,15.7,1192.1,17.1,1191.2,17.1z M1196,16.3c-0.8,0.3-1.9-0.8-2.5-2.3c-0.5-1.6-0.3-3.1,0.5-3.4c0.8-0.3,1.9,0.8,2.5,2.3
	C1197.1,14.5,1196.8,16,1196,16.3z M1200.3,14c-0.7,0.5-2.1-0.1-3.1-1.4c-1-1.3-1.3-2.8-0.6-3.4c0.7-0.5,2.1,0.1,3.1,1.4
	C1200.7,11.9,1201,13.4,1200.3,14z M1203.6,10.4c-0.5,0.7-2,0.6-3.4-0.3c-1.4-0.9-2.1-2.3-1.6-3c0.5-0.7,2-0.6,3.4,0.3
	C1203.3,8.3,1204.1,9.7,1203.6,10.4z M1208.5,8.5c-0.3-1.3,1.4-2.9,4-3.6c2.5-0.7,4.9-0.1,5.2,1.2c0.3,1.3-1.4,2.9-4,3.6
	C1211.2,10.3,1208.8,9.8,1208.5,8.5z M1211.6,15.4c-0.8-1.2,0.4-3.3,2.6-4.7c2.2-1.4,4.6-1.7,5.3-0.5c0.8,1.2-0.4,3.3-2.6,4.7
	C1214.7,16.3,1212.3,16.6,1211.6,15.4z M1216.8,21c-1.1-0.8-0.7-3.2,0.9-5.3c1.6-2.1,3.8-3.1,4.9-2.2c1.1,0.8,0.7,3.2-0.9,5.3
	C1220,20.8,1217.8,21.8,1216.8,21z M1223.5,24.6c-1.3-0.4-1.7-2.8-0.8-5.3c0.8-2.5,2.6-4.1,3.9-3.7c1.3,0.4,1.7,2.8,0.8,5.3
	C1226.5,23.4,1224.8,25.1,1223.5,24.6z M1231,25.9c-1.4,0-2.5-2.1-2.5-4.7c0-2.6,1.1-4.7,2.5-4.7s2.5,2.1,2.5,4.7
	C1233.5,23.7,1232.3,25.9,1231,25.9z M1238.5,24.6c-1.3,0.4-3-1.2-3.9-3.7c-0.8-2.5-0.5-4.8,0.8-5.3c1.3-0.4,3,1.2,3.9,3.7
	C1240.2,21.8,1239.8,24.2,1238.5,24.6z M1245.2,21c-1.1,0.8-3.3-0.2-4.9-2.2c-1.6-2.1-2-4.4-0.9-5.3c1.1-0.8,3.3,0.2,4.9,2.2
	C1245.9,17.8,1246.3,20.2,1245.2,21z M1250.4,15.4c-0.8,1.2-3.1,0.9-5.3-0.5c-2.2-1.4-3.3-3.5-2.6-4.7c0.8-1.2,3.1-0.9,5.3,0.5
	C1250,12.2,1251.1,14.3,1250.4,15.4z M1253.5,8.5c-0.3,1.3-2.7,1.9-5.2,1.2c-2.5-0.7-4.3-2.3-4-3.6c0.3-1.3,2.7-1.9,5.2-1.2
	C1252,5.5,1253.8,7.1,1253.5,8.5z M1259.2,10.4c-0.5-0.7,0.3-2.1,1.6-3c1.4-0.9,2.9-1.1,3.4-0.3c0.5,0.7-0.3,2.1-1.6,3
	C1261.2,11,1259.7,11.1,1259.2,10.4z M1262.5,14c-0.7-0.5-0.4-2,0.6-3.4c1-1.3,2.4-2,3.1-1.4c0.7,0.5,0.4,2-0.6,3.4
	C1264.6,13.9,1263.2,14.5,1262.5,14z M1266.8,16.3c-0.8-0.3-1.1-1.8-0.5-3.4c0.5-1.6,1.7-2.6,2.5-2.3c0.8,0.3,1.1,1.8,0.5,3.4
	C1268.7,15.5,1267.6,16.6,1266.8,16.3z M1271.6,17.1c-0.9,0-1.6-1.4-1.6-3c0-1.7,0.7-3,1.6-3c0.9,0,1.6,1.4,1.6,3
	C1273.2,15.7,1272.5,17.1,1271.6,17.1z M1276.4,16.3c-0.8,0.3-1.9-0.8-2.5-2.3c-0.5-1.6-0.3-3.1,0.5-3.4c0.8-0.3,1.9,0.8,2.5,2.3
	C1277.4,14.5,1277.2,16,1276.4,16.3z M1280.6,14c-0.7,0.5-2.1-0.1-3.1-1.4c-1-1.3-1.3-2.8-0.6-3.4c0.7-0.5,2.1,0.1,3.1,1.4
	C1281.1,11.9,1281.3,13.4,1280.6,14z M1284,10.4c-0.5,0.7-2,0.6-3.4-0.3c-1.4-0.9-2.1-2.3-1.6-3c0.5-0.7,2-0.6,3.4,0.3
	C1283.7,8.3,1284.4,9.7,1284,10.4z M1288.8,8.5c-0.3-1.3,1.4-2.9,4-3.6c2.5-0.7,4.9-0.1,5.2,1.2c0.3,1.3-1.4,2.9-4,3.6
	C1291.5,10.3,1289.2,9.8,1288.8,8.5z M1291.9,15.4c-0.8-1.2,0.4-3.3,2.6-4.7c2.2-1.4,4.6-1.7,5.3-0.5c0.8,1.2-0.4,3.3-2.6,4.7
	C1295.1,16.3,1292.7,16.6,1291.9,15.4z M1297.1,21c-1.1-0.8-0.7-3.2,0.9-5.3c1.6-2.1,3.8-3.1,4.9-2.2c1.1,0.8,0.7,3.2-0.9,5.3
	C1300.4,20.8,1298.2,21.8,1297.1,21z M1303.8,24.6c-1.3-0.4-1.7-2.8-0.8-5.3c0.8-2.5,2.6-4.1,3.9-3.7c1.3,0.4,1.7,2.8,0.8,5.3
	C1306.9,23.4,1305.1,25.1,1303.8,24.6z M1311.3,25.9c-1.4,0-2.5-2.1-2.5-4.7c0-2.6,1.1-4.7,2.5-4.7c1.4,0,2.5,2.1,2.5,4.7
	C1313.8,23.7,1312.7,25.9,1311.3,25.9z M1318.8,24.6c-1.3,0.4-3-1.2-3.9-3.7c-0.8-2.5-0.5-4.8,0.8-5.3c1.3-0.4,3,1.2,3.9,3.7
	C1320.5,21.8,1320.1,24.2,1318.8,24.6z M1325.5,21c-1.1,0.8-3.3-0.2-4.9-2.2c-1.6-2.1-2-4.4-0.9-5.3c1.1-0.8,3.3,0.2,4.9,2.2
	C1326.2,17.8,1326.6,20.2,1325.5,21z M1330.7,15.4c-0.8,1.2-3.1,0.9-5.3-0.5c-2.2-1.4-3.3-3.5-2.6-4.7c0.8-1.2,3.1-0.9,5.3,0.5
	C1330.3,12.2,1331.5,14.3,1330.7,15.4z M1333.8,8.5c-0.3,1.3-2.7,1.9-5.2,1.2c-2.5-0.7-4.3-2.3-4-3.6c0.3-1.3,2.7-1.9,5.2-1.2
	C1332.4,5.5,1334.2,7.1,1333.8,8.5z M1339.6,10.4c-0.5-0.7,0.3-2.1,1.6-3c1.4-0.9,2.9-1.1,3.4-0.3c0.5,0.7-0.3,2.1-1.6,3
	C1341.6,11,1340,11.1,1339.6,10.4z M1342.9,14c-0.7-0.5-0.4-2,0.6-3.4c1-1.3,2.4-2,3.1-1.4c0.7,0.5,0.4,2-0.6,3.4
	C1345,13.9,1343.6,14.5,1342.9,14z M1347.1,16.3c-0.8-0.3-1.1-1.8-0.5-3.4c0.5-1.6,1.7-2.6,2.5-2.3c0.8,0.3,1.1,1.8,0.5,3.4
	C1349.1,15.5,1348,16.6,1347.1,16.3z M1351.9,17.1c-0.9,0-1.6-1.4-1.6-3c0-1.7,0.7-3,1.6-3c0.9,0,1.6,1.4,1.6,3
	C1353.5,15.7,1352.8,17.1,1351.9,17.1z M1356.7,16.3c-0.8,0.3-1.9-0.8-2.5-2.3c-0.5-1.6-0.3-3.1,0.5-3.4c0.8-0.3,1.9,0.8,2.5,2.3
	C1357.8,14.5,1357.6,16,1356.7,16.3z M1361,14c-0.7,0.5-2.1-0.1-3.1-1.4c-1-1.3-1.3-2.8-0.6-3.4c0.7-0.5,2.1,0.1,3.1,1.4
	C1361.4,11.9,1361.7,13.4,1361,14z M1364.3,10.4c-0.5,0.7-2,0.6-3.4-0.3c-1.4-0.9-2.1-2.3-1.6-3c0.5-0.7,2-0.6,3.4,0.3
	C1364.1,8.3,1364.8,9.7,1364.3,10.4z M1369.2,8.5c-0.3-1.3,1.4-2.9,4-3.6c2.5-0.7,4.9-0.1,5.2,1.2c0.3,1.3-1.4,2.9-4,3.6
	C1371.9,10.3,1369.6,9.8,1369.2,8.5z M1372.3,15.4c-0.8-1.2,0.4-3.3,2.6-4.7c2.2-1.4,4.6-1.7,5.3-0.5c0.8,1.2-0.4,3.3-2.6,4.7
	C1375.4,16.3,1373.1,16.6,1372.3,15.4z M1377.5,21c-1.1-0.8-0.7-3.2,0.9-5.3c1.6-2.1,3.8-3.1,4.9-2.2c1.1,0.8,0.7,3.2-0.9,5.3
	C1380.7,20.8,1378.6,21.8,1377.5,21z M1384.2,24.6c-1.3-0.4-1.7-2.8-0.8-5.3c0.8-2.5,2.6-4.1,3.9-3.7c1.3,0.4,1.7,2.8,0.8,5.3
	C1387.2,23.4,1385.5,25.1,1384.2,24.6z M1389.2,21.1c0-2.6,1.1-4.7,2.5-4.7c1.4,0,2.5,2.1,2.5,4.7c0,2.6-1.1,4.7-2.5,4.7
	C1390.3,25.9,1389.2,23.7,1389.2,21.1z"/>
</svg>
