<?xml version="1.0" encoding="iso-8859-1"?>
<!-- Generator: Adobe Illustrator 18.0.0, SVG Export Plug-In . SVG Version: 6.00 Build 0)  -->
<!DOCTYPE svg PUBLIC "-//W3C//DTD SVG 1.1//EN" "http://www.w3.org/Graphics/SVG/1.1/DTD/svg11.dtd">
<svg version="1.1" id="Capa_1" xmlns="http://www.w3.org/2000/svg" xmlns:xlink="http://www.w3.org/1999/xlink" x="0px" y="0px"
	 viewBox="0 0 464 464" style="enable-background:new 0 0 464 464;" xml:space="preserve" class="post-nav">
	 <style>
			path {
				fill: #ab132d;
			}
  </style>
<path d="M380.663,252.433c-27.241-37.939-60.832-64.108-97.572-76.686l16.563-92.795c1.616-9.06-0.845-18.303-6.754-25.358
	c-3.945-4.712-9.124-8.073-14.868-9.791V10c0-5.523-4.478-10-10-10s-10,4.477-10,10v36.492h-52.063V10c0-5.523-4.478-10-10-10
	s-10,4.477-10,10v37.803c-5.745,1.719-10.924,5.08-14.87,9.792c-5.908,7.056-8.369,16.299-6.752,25.358l16.563,92.794
	c-36.74,12.577-70.331,38.746-97.572,76.686C44.587,306.401,23.246,377.986,23.246,454c0,5.523,4.478,10,10,10h397.508
	c5.522,0,10-4.477,10-10C440.754,377.986,419.413,306.401,380.663,252.433z M418.211,410.257l-2.3-1.284
	c-11.251-6.281-24.219-7.586-36.205-3.953c-5.545-62.52-21.71-119.872-46.028-162.737c-5.819-10.258-12.028-19.532-18.559-27.791
	C368.763,251.843,408.121,324.153,418.211,410.257z M202.817,194.262c-5.439,12.04-10.313,28.199-14.748,48.716
	c-9.051,41.879-15.136,98.637-17.266,160.648c-5.3,0.862-10.5,2.63-15.375,5.353c-8.036,4.488-18.022,4.49-25.977,0.05
	c-0.028-0.016-0.063-0.037-0.093-0.052c-7.745-4.325-16.307-6.281-24.8-5.909c5.649-58.925,21.078-112.587,43.917-152.242
	C164.408,223.164,183.081,203.894,202.817,194.262z M207.618,247.204c12.209-56.488,24.268-60.014,24.382-60.014
	c0.118,0,12.604,3.694,24.994,62.884c8.744,41.772,14.501,97.93,16.384,159.292c-0.248-0.128-0.498-0.248-0.743-0.384
	c-0.029-0.017-0.059-0.033-0.089-0.049c-14.038-7.801-31.456-7.787-45.488,0.048c-8.158,4.556-17.901,4.557-26.063-0.001
	c-3.281-1.832-6.713-3.223-10.22-4.212C192.85,343.743,198.787,288.061,207.618,247.204z M293.441,411.217
	c-1.84-63.466-7.779-121.801-16.872-165.24c-4.594-21.945-9.674-39.099-15.379-51.722c20.051,9.78,38.988,29.511,55.092,57.897
	c23.633,41.657,39.132,98.241,43.955,160.073c-5.432,0.606-10.992-0.47-15.969-3.25c-14.267-7.964-31.298-7.964-45.561,0
	c-0.018,0.01-0.037,0.021-0.056,0.032C296.973,409.939,295.226,410.669,293.441,411.217z M186.434,70.435
	c2.129-2.542,5.127-3.943,8.443-3.943h74.247c3.315,0,6.314,1.4,8.442,3.942c2.13,2.542,2.981,5.741,2.398,9.004l-2.646,14.824
	h-90.637l-2.646-14.824C183.453,76.175,184.305,72.977,186.434,70.435z M190.252,114.263h83.497l-10.028,56.18
	c-10.399-2.152-20.994-3.254-31.721-3.254s-21.322,1.102-31.721,3.254L190.252,114.263z M148.893,214.485
	c-6.23,7.873-12.167,16.668-17.748,26.36c-25.241,43.824-41.917,103.31-47.183,168.047c-0.057,0.031-0.115,0.057-0.172,0.089
	c-8.158,4.556-17.9,4.556-26.063,0l-10.988-6.135C58.167,320.007,96.79,250.755,148.893,214.485z M43.377,444
	c0.172-6.582,0.517-13.103,1.022-19.556l3.578,1.998c14.266,7.967,31.3,7.966,45.569-0.003c8.158-4.555,17.903-4.556,25.976-0.049
	c0.028,0.016,0.063,0.036,0.093,0.052c14.053,7.847,31.513,7.846,45.563-0.001c8.163-4.557,17.905-4.556,26.066,0
	c14.264,7.966,31.299,7.966,45.57-0.003c8.037-4.488,18.023-4.488,26.061,0c0.029,0.017,0.06,0.033,0.09,0.05
	c14.246,7.918,31.242,7.904,45.48-0.044c0.018-0.01,0.035-0.02,0.055-0.031c8.15-4.531,17.873-4.521,26.027,0.03
	c14.264,7.965,31.295,7.964,45.576-0.008c8.158-4.555,17.898-4.555,26.057,0l14.068,7.854c0.167,3.223,0.308,6.457,0.394,9.71
	H43.377z"/>
<g>
</g>
<g>
</g>
<g>
</g>
<g>
</g>
<g>
</g>
<g>
</g>
<g>
</g>
<g>
</g>
<g>
</g>
<g>
</g>
<g>
</g>
<g>
</g>
<g>
</g>
<g>
</g>
<g>
</g>
</svg>
